<svg width="2605" height="994" viewBox="0 0 2605 994" fill="none" xmlns="http://www.w3.org/2000/svg">
<g clip-path="url(#clip0_4_93)">
<rect width="2605" height="994" fill="#A3D3FF"/>
<rect x="665" y="454" width="375" height="812" rx="8" fill="url(#paint0_linear_4_93)"/>
<path d="M788.929 913.292L838.614 901.371L824.095 950.361L788.929 913.292Z" fill="white"/>
<rect x="763" y="771.807" width="169" height="155" rx="22" transform="rotate(-3.66624 763 771.807)" fill="white"/>
<path d="M788.929 913.292L838.614 901.371L824.095 950.361L788.929 913.292Z" fill="white"/>
<rect x="763" y="771.807" width="169" height="155" rx="22" transform="rotate(-3.66624 763 771.807)" fill="white"/>
<path d="M816.6 890.361C819.963 890.371 823.295 889.713 826.402 888.426C829.51 887.139 832.331 885.248 834.703 882.863L843.549 874.017C843.819 873.749 844.034 873.431 844.18 873.08C844.327 872.729 844.403 872.353 844.404 871.973C844.405 871.593 844.33 871.216 844.185 870.865C844.04 870.513 843.827 870.194 843.558 869.925C843.289 869.656 842.97 869.443 842.619 869.298C842.267 869.153 841.891 869.078 841.51 869.079C841.13 869.08 840.754 869.156 840.403 869.303C840.052 869.449 839.734 869.664 839.466 869.934L830.619 878.78C826.901 882.498 821.859 884.587 816.601 884.587C811.343 884.588 806.3 882.499 802.582 878.781C798.864 875.063 796.775 870.02 796.775 864.762C796.775 859.504 798.863 854.461 802.581 850.743L828.442 824.885C832.164 821.184 837.201 819.111 842.449 819.118C847.698 819.126 852.729 821.214 856.44 824.925C860.151 828.636 862.239 833.667 862.247 838.916C862.254 844.164 860.18 849.201 856.479 852.922L851.715 857.686C851.185 858.23 850.891 858.961 850.896 859.72C850.9 860.48 851.204 861.206 851.741 861.743C852.278 862.28 853.005 862.584 853.764 862.589C854.524 862.594 855.254 862.299 855.798 861.769L860.562 857.005C862.953 854.631 864.851 851.808 866.149 848.699C867.446 845.59 868.117 842.255 868.123 838.886C868.128 835.516 867.469 832.179 866.182 829.065C864.896 825.951 863.007 823.122 860.625 820.74C858.242 818.357 855.413 816.469 852.299 815.182C849.186 813.895 845.848 813.236 842.479 813.242C839.11 813.248 835.775 813.918 832.666 815.216C829.556 816.513 826.734 818.412 824.359 820.802L798.498 846.66C794.918 850.24 792.48 854.802 791.492 859.768C790.504 864.734 791.011 869.881 792.949 874.559C794.887 879.237 798.168 883.235 802.378 886.047C806.588 888.86 811.538 890.361 816.601 890.361H816.6Z" fill="#083863"/>
<path d="M864.509 817.399L873.356 808.552C877.078 804.852 882.115 802.778 887.363 802.785C892.611 802.793 897.642 804.881 901.353 808.592C905.065 812.303 907.153 817.334 907.16 822.582C907.168 827.831 905.094 832.868 901.393 836.589L875.532 862.448C871.81 866.148 866.773 868.222 861.525 868.215C856.276 868.207 851.245 866.119 847.534 862.408C843.823 858.697 841.735 853.665 841.728 848.417C841.72 843.169 843.794 838.132 847.495 834.41L852.259 829.646C852.532 829.379 852.75 829.061 852.9 828.709C853.05 828.357 853.128 827.98 853.13 827.597C853.133 827.215 853.059 826.836 852.914 826.483C852.769 826.129 852.555 825.808 852.285 825.537C852.015 825.267 851.693 825.053 851.34 824.908C850.986 824.763 850.607 824.689 850.225 824.692C849.843 824.694 849.465 824.773 849.113 824.922C848.761 825.072 848.443 825.29 848.176 825.563L843.412 830.327C841.021 832.702 839.123 835.524 837.826 838.634C836.528 841.743 835.857 845.078 835.852 848.447C835.846 851.816 836.505 855.153 837.792 858.267C839.078 861.381 840.967 864.21 843.349 866.593C845.732 868.975 848.561 870.864 851.675 872.151C854.789 873.437 858.126 874.097 861.495 874.091C864.864 874.085 868.199 873.414 871.309 872.117C874.418 870.819 877.241 868.921 879.615 866.53L905.476 840.673C910.264 835.869 912.951 829.362 912.945 822.579C912.94 815.797 910.243 809.294 905.447 804.498C900.651 799.702 894.148 797.005 887.366 797C880.583 796.995 874.076 799.681 869.273 804.469L860.426 813.316C860.156 813.583 859.942 813.902 859.795 814.252C859.648 814.603 859.572 814.98 859.572 815.36C859.571 815.74 859.645 816.117 859.79 816.468C859.935 816.82 860.148 817.139 860.417 817.408C860.686 817.677 861.005 817.89 861.357 818.035C861.708 818.18 862.085 818.254 862.465 818.253C862.845 818.252 863.222 818.177 863.572 818.03C863.923 817.883 864.242 817.669 864.509 817.399Z" fill="#083863"/>
<g clip-path="url(#clip1_4_93)">
<rect x="1564" y="454" width="375" height="812" rx="8" fill="url(#paint1_linear_4_93)"/>
<path d="M1682.26 952.845C1682.26 951.932 1681.94 951.233 1681.29 950.75C1680.65 950.256 1679.49 949.74 1677.81 949.203C1676.14 948.655 1674.81 948.118 1673.83 947.592C1671.17 946.152 1669.84 944.213 1669.84 941.775C1669.84 940.507 1670.19 939.379 1670.9 938.391C1671.62 937.392 1672.65 936.613 1673.98 936.055C1675.32 935.496 1676.82 935.217 1678.49 935.217C1680.17 935.217 1681.66 935.523 1682.97 936.135C1684.28 936.737 1685.29 937.591 1686.01 938.697C1686.75 939.804 1687.11 941.061 1687.11 942.468H1682.28C1682.28 941.394 1681.94 940.561 1681.26 939.97C1680.58 939.369 1679.63 939.068 1678.41 939.068C1677.23 939.068 1676.31 939.32 1675.65 939.825C1675 940.319 1674.67 940.975 1674.67 941.791C1674.67 942.554 1675.05 943.193 1675.81 943.708C1676.59 944.224 1677.72 944.708 1679.21 945.159C1681.96 945.986 1683.97 947.012 1685.23 948.236C1686.48 949.461 1687.11 950.986 1687.11 952.812C1687.11 954.843 1686.34 956.438 1684.81 957.598C1683.27 958.748 1681.2 959.322 1678.6 959.322C1676.8 959.322 1675.15 958.995 1673.67 958.339C1672.19 957.673 1671.06 956.766 1670.27 955.616C1669.5 954.467 1669.11 953.135 1669.11 951.62H1673.96C1673.96 954.209 1675.51 955.503 1678.6 955.503C1679.75 955.503 1680.65 955.272 1681.29 954.811C1681.94 954.338 1682.26 953.683 1682.26 952.845ZM1700.53 957.228C1699.38 958.624 1697.79 959.322 1695.76 959.322C1693.89 959.322 1692.47 958.785 1691.48 957.711C1690.5 956.637 1690 955.063 1689.98 952.99V941.565H1694.64V952.829C1694.64 954.644 1695.46 955.552 1697.12 955.552C1698.7 955.552 1699.78 955.004 1700.37 953.908V941.565H1705.04V959H1700.66L1700.53 957.228ZM1713.49 941.565V959.951C1713.49 961.874 1712.98 963.367 1711.96 964.43C1710.94 965.504 1709.46 966.042 1707.54 966.042C1706.74 966.042 1705.97 965.95 1705.24 965.768V962.078C1705.8 962.174 1706.29 962.223 1706.7 962.223C1708.11 962.223 1708.81 961.476 1708.81 959.983V941.565H1713.49ZM1708.44 937.054C1708.44 936.355 1708.68 935.781 1709.14 935.33C1709.61 934.878 1710.25 934.653 1711.05 934.653C1711.86 934.653 1712.49 934.878 1712.96 935.33C1713.43 935.781 1713.67 936.355 1713.67 937.054C1713.67 937.763 1713.42 938.343 1712.94 938.794C1712.47 939.245 1711.84 939.471 1711.05 939.471C1710.27 939.471 1709.64 939.245 1709.15 938.794C1708.68 938.343 1708.44 937.763 1708.44 937.054ZM1725.15 959.322C1722.6 959.322 1720.51 958.538 1718.9 956.97C1717.3 955.401 1716.5 953.312 1716.5 950.702V950.25C1716.5 948.5 1716.84 946.937 1717.52 945.562C1718.19 944.176 1719.15 943.112 1720.38 942.371C1721.63 941.619 1723.05 941.243 1724.64 941.243C1727.02 941.243 1728.9 941.995 1730.26 943.499C1731.64 945.003 1732.32 947.135 1732.32 949.896V951.797H1721.22C1721.37 952.936 1721.82 953.849 1722.58 954.537C1723.34 955.224 1724.3 955.568 1725.46 955.568C1727.25 955.568 1728.66 954.918 1729.67 953.618L1731.95 956.18C1731.26 957.168 1730.31 957.942 1729.12 958.5C1727.93 959.048 1726.6 959.322 1725.15 959.322ZM1724.62 945.014C1723.7 945.014 1722.95 945.325 1722.37 945.948C1721.8 946.571 1721.43 947.463 1721.27 948.623H1727.75V948.252C1727.73 947.221 1727.45 946.426 1726.91 945.868C1726.37 945.298 1725.61 945.014 1724.62 945.014ZM1739.9 959H1735.22V941.565H1739.9V959ZM1734.95 937.054C1734.95 936.355 1735.18 935.781 1735.64 935.33C1736.12 934.878 1736.76 934.653 1737.56 934.653C1738.36 934.653 1738.99 934.878 1739.46 935.33C1739.94 935.781 1740.17 936.355 1740.17 937.054C1740.17 937.763 1739.93 938.343 1739.45 938.794C1738.97 939.245 1738.35 939.471 1737.56 939.471C1736.78 939.471 1736.14 939.245 1735.66 938.794C1735.19 938.343 1734.95 937.763 1734.95 937.054ZM1749.32 937.279V941.565H1752.3V944.981H1749.32V953.683C1749.32 954.327 1749.45 954.789 1749.69 955.068C1749.94 955.348 1750.41 955.487 1751.11 955.487C1751.63 955.487 1752.08 955.45 1752.48 955.375V958.903C1751.57 959.183 1750.63 959.322 1749.66 959.322C1746.4 959.322 1744.73 957.673 1744.67 954.375V944.981H1742.12V941.565H1744.67V937.279H1749.32ZM1753.69 950.122C1753.69 948.392 1754.02 946.851 1754.69 945.497C1755.36 944.144 1756.31 943.096 1757.56 942.355C1758.81 941.614 1760.27 941.243 1761.92 941.243C1764.28 941.243 1766.19 941.963 1767.68 943.402C1769.17 944.842 1770 946.797 1770.17 949.268L1770.21 950.46C1770.21 953.135 1769.46 955.283 1767.97 956.905C1766.47 958.517 1764.47 959.322 1761.96 959.322C1759.44 959.322 1757.43 958.517 1755.93 956.905C1754.44 955.294 1753.69 953.103 1753.69 950.331V950.122ZM1758.35 950.46C1758.35 952.114 1758.66 953.382 1759.28 954.263C1759.9 955.133 1760.8 955.568 1761.96 955.568C1763.08 955.568 1763.97 955.138 1764.6 954.279C1765.23 953.409 1765.55 952.023 1765.55 950.122C1765.55 948.5 1765.23 947.243 1764.6 946.351C1763.97 945.459 1763.07 945.014 1761.92 945.014C1760.79 945.014 1759.9 945.459 1759.28 946.351C1758.66 947.232 1758.35 948.602 1758.35 950.46ZM1778.21 955.117H1788.48V959H1773.38V935.539H1778.21V955.117ZM1795.88 959H1791.2V941.565H1795.88V959ZM1790.93 937.054C1790.93 936.355 1791.16 935.781 1791.62 935.33C1792.09 934.878 1792.73 934.653 1793.54 934.653C1794.33 934.653 1794.97 934.878 1795.44 935.33C1795.91 935.781 1796.15 936.355 1796.15 937.054C1796.15 937.763 1795.91 938.343 1795.42 938.794C1794.95 939.245 1794.32 939.471 1793.54 939.471C1792.75 939.471 1792.12 939.245 1791.64 938.794C1791.16 938.343 1790.93 937.763 1790.93 937.054ZM1804.01 941.565L1804.16 943.58C1805.4 942.022 1807.07 941.243 1809.17 941.243C1811.02 941.243 1812.39 941.786 1813.29 942.871C1814.2 943.956 1814.66 945.578 1814.68 947.737V959H1810.02V947.85C1810.02 946.861 1809.81 946.147 1809.38 945.707C1808.95 945.255 1808.23 945.03 1807.23 945.03C1805.92 945.03 1804.94 945.588 1804.29 946.706V959H1799.63V941.565H1804.01ZM1824.56 952.007L1822.88 953.683V959H1818.22V934.25H1822.88V947.962L1823.78 946.802L1828.25 941.565H1833.84L1827.54 948.833L1834.39 959H1829.04L1824.56 952.007Z" fill="white"/>
<path d="M1634.32 991.037C1634.13 992.691 1633.51 993.97 1632.48 994.872C1631.46 995.767 1630.1 996.215 1628.39 996.215C1626.54 996.215 1625.06 995.552 1623.94 994.228C1622.83 992.903 1622.28 991.13 1622.28 988.91V987.406C1622.28 985.952 1622.54 984.674 1623.05 983.571C1623.57 982.468 1624.31 981.623 1625.26 981.036C1626.22 980.442 1627.32 980.145 1628.57 980.145C1630.23 980.145 1631.57 980.61 1632.57 981.541C1633.57 982.465 1634.16 983.747 1634.32 985.387H1632.25C1632.07 984.141 1631.68 983.238 1631.08 982.68C1630.48 982.121 1629.65 981.842 1628.57 981.842C1627.26 981.842 1626.22 982.329 1625.47 983.303C1624.72 984.277 1624.35 985.662 1624.35 987.46V988.975C1624.35 990.672 1624.71 992.022 1625.42 993.024C1626.12 994.027 1627.12 994.528 1628.39 994.528C1629.54 994.528 1630.41 994.271 1631.02 993.755C1631.64 993.232 1632.05 992.326 1632.25 991.037H1634.32ZM1636.31 990.081C1636.31 988.942 1636.53 987.918 1636.97 987.009C1637.42 986.099 1638.05 985.397 1638.84 984.903C1639.64 984.409 1640.56 984.162 1641.58 984.162C1643.16 984.162 1644.44 984.71 1645.42 985.806C1646.4 986.901 1646.89 988.359 1646.89 990.178V990.317C1646.89 991.449 1646.67 992.466 1646.23 993.368C1645.8 994.263 1645.18 994.962 1644.38 995.463C1643.57 995.964 1642.65 996.215 1641.6 996.215C1640.03 996.215 1638.75 995.667 1637.77 994.571C1636.79 993.476 1636.31 992.025 1636.31 990.221V990.081ZM1638.31 990.317C1638.31 991.606 1638.6 992.641 1639.2 993.422C1639.8 994.202 1640.6 994.593 1641.6 994.593C1642.61 994.593 1643.42 994.199 1644.01 993.411C1644.6 992.616 1644.9 991.506 1644.9 990.081C1644.9 988.806 1644.6 987.775 1643.99 986.987C1643.39 986.192 1642.58 985.795 1641.58 985.795C1640.6 985.795 1639.81 986.185 1639.21 986.966C1638.61 987.746 1638.31 988.864 1638.31 990.317ZM1651.54 996H1649.55V979.5H1651.54V996ZM1659.55 996.215C1657.98 996.215 1656.7 995.699 1655.71 994.668C1654.72 993.63 1654.23 992.244 1654.23 990.511V990.146C1654.23 988.993 1654.44 987.965 1654.88 987.062C1655.32 986.153 1655.94 985.444 1656.73 984.936C1657.52 984.42 1658.38 984.162 1659.31 984.162C1660.82 984.162 1661.99 984.66 1662.83 985.655C1663.67 986.651 1664.09 988.076 1664.09 989.931V990.758H1656.21C1656.24 991.904 1656.57 992.831 1657.21 993.54C1657.86 994.242 1658.67 994.593 1659.66 994.593C1660.36 994.593 1660.96 994.45 1661.44 994.163C1661.93 993.877 1662.36 993.497 1662.72 993.024L1663.94 993.97C1662.96 995.466 1661.5 996.215 1659.55 996.215ZM1659.31 985.795C1658.5 985.795 1657.83 986.089 1657.29 986.676C1656.74 987.256 1656.41 988.072 1656.28 989.125H1662.1V988.975C1662.04 987.965 1661.77 987.184 1661.28 986.633C1660.8 986.074 1660.14 985.795 1659.31 985.795ZM1678.62 992.917C1678.62 992.38 1678.42 991.965 1678.01 991.671C1677.61 991.37 1676.9 991.112 1675.89 990.897C1674.89 990.683 1674.09 990.425 1673.5 990.124C1672.91 989.823 1672.47 989.465 1672.19 989.05C1671.91 988.634 1671.77 988.14 1671.77 987.567C1671.77 986.615 1672.17 985.809 1672.97 985.15C1673.78 984.492 1674.81 984.162 1676.06 984.162C1677.38 984.162 1678.45 984.502 1679.27 985.183C1680.09 985.863 1680.5 986.733 1680.5 987.793H1678.5C1678.5 987.249 1678.27 986.78 1677.8 986.386C1677.35 985.992 1676.77 985.795 1676.06 985.795C1675.34 985.795 1674.78 985.952 1674.37 986.268C1673.96 986.583 1673.75 986.994 1673.75 987.503C1673.75 987.983 1673.94 988.344 1674.32 988.588C1674.7 988.831 1675.39 989.064 1676.38 989.286C1677.37 989.508 1678.18 989.773 1678.79 990.081C1679.41 990.389 1679.86 990.761 1680.16 991.198C1680.46 991.628 1680.61 992.154 1680.61 992.777C1680.61 993.816 1680.19 994.65 1679.36 995.28C1678.53 995.903 1677.45 996.215 1676.13 996.215C1675.2 996.215 1674.37 996.05 1673.66 995.721C1672.94 995.391 1672.38 994.933 1671.97 994.346C1671.57 993.751 1671.37 993.11 1671.37 992.423H1673.36C1673.39 993.089 1673.66 993.619 1674.15 994.013C1674.65 994.399 1675.31 994.593 1676.13 994.593C1676.88 994.593 1677.48 994.442 1677.93 994.142C1678.39 993.834 1678.62 993.425 1678.62 992.917ZM1688.02 996.215C1686.44 996.215 1685.16 995.699 1684.17 994.668C1683.19 993.63 1682.69 992.244 1682.69 990.511V990.146C1682.69 988.993 1682.91 987.965 1683.35 987.062C1683.79 986.153 1684.41 985.444 1685.2 984.936C1685.99 984.42 1686.85 984.162 1687.77 984.162C1689.28 984.162 1690.46 984.66 1691.3 985.655C1692.13 986.651 1692.55 988.076 1692.55 989.931V990.758H1684.68C1684.71 991.904 1685.04 992.831 1685.68 993.54C1686.32 994.242 1687.14 994.593 1688.13 994.593C1688.83 994.593 1689.42 994.45 1689.91 994.163C1690.4 993.877 1690.82 993.497 1691.19 993.024L1692.4 993.97C1691.43 995.466 1689.97 996.215 1688.02 996.215ZM1687.77 985.795C1686.97 985.795 1686.3 986.089 1685.75 986.676C1685.21 987.256 1684.87 988.072 1684.74 989.125H1690.57V988.975C1690.51 987.965 1690.24 987.184 1689.75 986.633C1689.26 986.074 1688.6 985.795 1687.77 985.795ZM1702.04 994.851C1701.27 995.76 1700.13 996.215 1698.63 996.215C1697.39 996.215 1696.45 995.857 1695.8 995.141C1695.15 994.417 1694.83 993.35 1694.82 991.939V984.377H1696.81V991.886C1696.81 993.647 1697.52 994.528 1698.96 994.528C1700.47 994.528 1701.48 993.963 1701.99 992.831V984.377H1703.97V996H1702.08L1702.04 994.851ZM1714.62 996H1712.63V979.5H1714.62V996ZM1719.97 996H1717.98V984.377H1719.97V996ZM1717.82 981.294C1717.82 980.972 1717.92 980.7 1718.11 980.478C1718.31 980.256 1718.6 980.145 1718.99 980.145C1719.38 980.145 1719.67 980.256 1719.87 980.478C1720.07 980.7 1720.17 980.972 1720.17 981.294C1720.17 981.616 1720.07 981.885 1719.87 982.1C1719.67 982.314 1719.38 982.422 1718.99 982.422C1718.6 982.422 1718.31 982.314 1718.11 982.1C1717.92 981.885 1717.82 981.616 1717.82 981.294ZM1725.04 984.377L1725.1 985.838C1725.99 984.721 1727.15 984.162 1728.58 984.162C1731.04 984.162 1732.28 985.548 1732.3 988.319V996H1730.31V988.309C1730.31 987.471 1730.11 986.851 1729.73 986.45C1729.36 986.049 1728.78 985.849 1727.98 985.849C1727.34 985.849 1726.77 986.021 1726.28 986.364C1725.8 986.708 1725.42 987.159 1725.15 987.718V996H1723.16V984.377H1725.04ZM1738.54 990.618L1737.29 991.918V996H1735.31V979.5H1737.29V989.479L1738.36 988.201L1741.98 984.377H1744.4L1739.87 989.232L1744.92 996H1742.59L1738.54 990.618ZM1761.72 990.317C1761.72 992.086 1761.32 993.511 1760.51 994.593C1759.7 995.674 1758.6 996.215 1757.22 996.215C1755.81 996.215 1754.7 995.767 1753.89 994.872V1000.47H1751.9V984.377H1753.72L1753.82 985.666C1754.63 984.663 1755.75 984.162 1757.19 984.162C1758.59 984.162 1759.69 984.688 1760.5 985.741C1761.31 986.794 1761.72 988.258 1761.72 990.135V990.317ZM1759.74 990.092C1759.74 988.781 1759.46 987.746 1758.9 986.987C1758.34 986.228 1757.57 985.849 1756.6 985.849C1755.4 985.849 1754.49 986.382 1753.89 987.449V993.003C1754.49 994.063 1755.4 994.593 1756.62 994.593C1757.57 994.593 1758.33 994.217 1758.89 993.465C1759.45 992.706 1759.74 991.581 1759.74 990.092ZM1771.43 996C1771.32 995.771 1771.23 995.363 1771.15 994.775C1770.23 995.735 1769.13 996.215 1767.85 996.215C1766.7 996.215 1765.76 995.893 1765.02 995.248C1764.29 994.596 1763.92 993.773 1763.92 992.777C1763.92 991.567 1764.38 990.629 1765.3 989.963C1766.22 989.29 1767.52 988.953 1769.19 988.953H1771.12V988.04C1771.12 987.345 1770.91 986.794 1770.5 986.386C1770.08 985.97 1769.47 985.763 1768.66 985.763C1767.95 985.763 1767.36 985.942 1766.88 986.3C1766.4 986.658 1766.16 987.091 1766.16 987.6H1764.16C1764.16 987.02 1764.37 986.461 1764.77 985.924C1765.19 985.38 1765.75 984.95 1766.45 984.635C1767.16 984.32 1767.94 984.162 1768.78 984.162C1770.12 984.162 1771.17 984.499 1771.93 985.172C1772.69 985.838 1773.08 986.758 1773.11 987.933V993.282C1773.11 994.349 1773.25 995.198 1773.52 995.828V996H1771.43ZM1768.14 994.485C1768.76 994.485 1769.35 994.324 1769.91 994.002C1770.47 993.68 1770.87 993.261 1771.12 992.745V990.36H1769.56C1767.13 990.36 1765.91 991.073 1765.91 992.498C1765.91 993.121 1766.12 993.608 1766.54 993.959C1766.95 994.31 1767.48 994.485 1768.14 994.485ZM1781.84 986.16C1781.54 986.11 1781.22 986.085 1780.87 986.085C1779.56 986.085 1778.68 986.64 1778.21 987.75V996H1776.22V984.377H1778.16L1778.19 985.72C1778.84 984.681 1779.77 984.162 1780.96 984.162C1781.35 984.162 1781.64 984.212 1781.84 984.312V986.16ZM1790.43 996C1790.31 995.771 1790.22 995.363 1790.15 994.775C1789.22 995.735 1788.12 996.215 1786.84 996.215C1785.69 996.215 1784.75 995.893 1784.01 995.248C1783.28 994.596 1782.92 993.773 1782.92 992.777C1782.92 991.567 1783.38 990.629 1784.29 989.963C1785.22 989.29 1786.51 988.953 1788.18 988.953H1790.11V988.04C1790.11 987.345 1789.91 986.794 1789.49 986.386C1789.08 985.97 1788.46 985.763 1787.65 985.763C1786.95 985.763 1786.35 985.942 1785.87 986.3C1785.39 986.658 1785.15 987.091 1785.15 987.6H1783.15C1783.15 987.02 1783.36 986.461 1783.77 985.924C1784.18 985.38 1784.74 984.95 1785.44 984.635C1786.15 984.32 1786.93 984.162 1787.77 984.162C1789.11 984.162 1790.16 984.499 1790.92 985.172C1791.68 985.838 1792.07 986.758 1792.1 987.933V993.282C1792.1 994.349 1792.24 995.198 1792.51 995.828V996H1790.43ZM1787.13 994.485C1787.75 994.485 1788.34 994.324 1788.9 994.002C1789.46 993.68 1789.86 993.261 1790.11 992.745V990.36H1788.56C1786.12 990.36 1784.9 991.073 1784.9 992.498C1784.9 993.121 1785.11 993.608 1785.53 993.959C1785.94 994.31 1786.48 994.485 1787.13 994.485ZM1805.5 996.215C1803.92 996.215 1802.64 995.699 1801.65 994.668C1800.66 993.63 1800.17 992.244 1800.17 990.511V990.146C1800.17 988.993 1800.39 987.965 1800.82 987.062C1801.27 986.153 1801.88 985.444 1802.67 984.936C1803.47 984.42 1804.33 984.162 1805.25 984.162C1806.76 984.162 1807.94 984.66 1808.77 985.655C1809.61 986.651 1810.03 988.076 1810.03 989.931V990.758H1802.16C1802.18 991.904 1802.52 992.831 1803.16 993.54C1803.8 994.242 1804.62 994.593 1805.6 994.593C1806.31 994.593 1806.9 994.45 1807.39 994.163C1807.87 993.877 1808.3 993.497 1808.67 993.024L1809.88 993.97C1808.91 995.466 1807.44 996.215 1805.5 996.215ZM1805.25 985.795C1804.45 985.795 1803.77 986.089 1803.23 986.676C1802.69 987.256 1802.35 988.072 1802.22 989.125H1808.04V988.975C1807.99 987.965 1807.71 987.184 1807.23 986.633C1806.74 986.074 1806.08 985.795 1805.25 985.795ZM1814.22 984.377L1814.28 985.838C1815.17 984.721 1816.33 984.162 1817.76 984.162C1820.22 984.162 1821.46 985.548 1821.48 988.319V996H1819.49V988.309C1819.49 987.471 1819.29 986.851 1818.91 986.45C1818.54 986.049 1817.96 985.849 1817.16 985.849C1816.52 985.849 1815.95 986.021 1815.47 986.364C1814.98 986.708 1814.6 987.159 1814.33 987.718V996H1812.34V984.377H1814.22ZM1829.14 994.593C1829.85 994.593 1830.47 994.378 1831 993.948C1831.53 993.519 1831.82 992.981 1831.88 992.337H1833.76C1833.72 993.003 1833.49 993.637 1833.07 994.238C1832.65 994.84 1832.08 995.32 1831.38 995.678C1830.67 996.036 1829.93 996.215 1829.14 996.215C1827.56 996.215 1826.3 995.688 1825.36 994.636C1824.43 993.576 1823.96 992.129 1823.96 990.296V989.963C1823.96 988.831 1824.17 987.825 1824.59 986.944C1825 986.063 1825.6 985.38 1826.37 984.893C1827.15 984.406 1828.07 984.162 1829.13 984.162C1830.43 984.162 1831.51 984.552 1832.37 985.333C1833.24 986.114 1833.7 987.127 1833.76 988.373H1831.88C1831.82 987.621 1831.54 987.005 1831.02 986.525C1830.51 986.038 1829.88 985.795 1829.13 985.795C1828.12 985.795 1827.34 986.16 1826.78 986.891C1826.23 987.614 1825.95 988.663 1825.95 990.038V990.414C1825.95 991.753 1826.23 992.785 1826.78 993.508C1827.33 994.231 1828.12 994.593 1829.14 994.593ZM1843.17 994.851C1842.4 995.76 1841.26 996.215 1839.76 996.215C1838.53 996.215 1837.58 995.857 1836.93 995.141C1836.28 994.417 1835.96 993.35 1835.95 991.939V984.377H1837.94V991.886C1837.94 993.647 1838.65 994.528 1840.09 994.528C1841.61 994.528 1842.61 993.963 1843.12 992.831V984.377H1845.1V996H1843.21L1843.17 994.851ZM1853.75 986.16C1853.45 986.11 1853.12 986.085 1852.77 986.085C1851.47 986.085 1850.59 986.64 1850.12 987.75V996H1848.13V984.377H1850.07L1850.1 985.72C1850.75 984.681 1851.67 984.162 1852.87 984.162C1853.26 984.162 1853.55 984.212 1853.75 984.312V986.16ZM1858.82 981.562V984.377H1860.99V985.913H1858.82V993.121C1858.82 993.587 1858.92 993.938 1859.11 994.174C1859.3 994.403 1859.63 994.518 1860.1 994.518C1860.33 994.518 1860.64 994.475 1861.04 994.389V996C1860.52 996.143 1860.01 996.215 1859.52 996.215C1858.63 996.215 1857.96 995.946 1857.51 995.409C1857.06 994.872 1856.83 994.109 1856.83 993.121V985.913H1854.72V984.377H1856.83V981.562H1858.82ZM1870.5 996C1870.38 995.771 1870.29 995.363 1870.22 994.775C1869.29 995.735 1868.19 996.215 1866.91 996.215C1865.76 996.215 1864.82 995.893 1864.08 995.248C1863.35 994.596 1862.99 993.773 1862.99 992.777C1862.99 991.567 1863.45 990.629 1864.36 989.963C1865.29 989.29 1866.58 988.953 1868.25 988.953H1870.19V988.04C1870.19 987.345 1869.98 986.794 1869.56 986.386C1869.15 985.97 1868.54 985.763 1867.73 985.763C1867.02 985.763 1866.42 985.942 1865.94 986.3C1865.46 986.658 1865.22 987.091 1865.22 987.6H1863.23C1863.23 987.02 1863.43 986.461 1863.84 985.924C1864.25 985.38 1864.81 984.95 1865.51 984.635C1866.22 984.32 1867 984.162 1867.84 984.162C1869.18 984.162 1870.23 984.499 1870.99 985.172C1871.75 985.838 1872.15 986.758 1872.17 987.933V993.282C1872.17 994.349 1872.31 995.198 1872.58 995.828V996H1870.5ZM1867.2 994.485C1867.82 994.485 1868.41 994.324 1868.97 994.002C1869.53 993.68 1869.94 993.261 1870.19 992.745V990.36H1868.63C1866.19 990.36 1864.98 991.073 1864.98 992.498C1864.98 993.121 1865.18 993.608 1865.6 993.959C1866.01 994.31 1866.55 994.485 1867.2 994.485ZM1880.91 986.16C1880.61 986.11 1880.28 986.085 1879.93 986.085C1878.63 986.085 1877.74 986.64 1877.28 987.75V996H1875.29V984.377H1877.22L1877.25 985.72C1877.91 984.681 1878.83 984.162 1880.03 984.162C1880.41 984.162 1880.71 984.212 1880.91 984.312V986.16Z" fill="white"/>
<g filter="url(#filter0_d_4_93)">
<rect x="1564" y="861" width="375" height="406" rx="8" fill="white"/>
<path d="M1656.3 989.47H1665.63V993H1651.9V971.672H1656.3V989.47ZM1672.35 993H1668.11V977.15H1672.35V993ZM1667.86 973.049C1667.86 972.414 1668.07 971.892 1668.49 971.481C1668.92 971.071 1669.5 970.866 1670.23 970.866C1670.95 970.866 1671.53 971.071 1671.96 971.481C1672.39 971.892 1672.6 972.414 1672.6 973.049C1672.6 973.693 1672.38 974.221 1671.94 974.631C1671.51 975.041 1670.94 975.246 1670.23 975.246C1669.52 975.246 1668.94 975.041 1668.5 974.631C1668.07 974.221 1667.86 973.693 1667.86 973.049ZM1679.75 977.15L1679.88 978.981C1681.02 977.565 1682.53 976.857 1684.44 976.857C1686.12 976.857 1687.37 977.351 1688.19 978.337C1689.01 979.323 1689.43 980.798 1689.45 982.761V993H1685.21V982.863C1685.21 981.965 1685.02 981.315 1684.63 980.915C1684.24 980.505 1683.59 980.3 1682.68 980.3C1681.49 980.3 1680.6 980.808 1680 981.823V993H1675.77V977.15H1679.75ZM1698.43 986.643L1696.9 988.166V993H1692.67V970.5H1696.9V982.966L1697.72 981.911L1701.78 977.15H1706.87L1701.14 983.757L1707.36 993H1702.5L1698.43 986.643ZM1723.46 993.293C1721.14 993.293 1719.24 992.58 1717.78 991.154C1716.32 989.729 1715.6 987.829 1715.6 985.456V985.046C1715.6 983.454 1715.9 982.033 1716.52 980.783C1717.13 979.523 1718 978.557 1719.13 977.883C1720.26 977.199 1721.55 976.857 1722.99 976.857C1725.16 976.857 1726.87 977.541 1728.11 978.908C1729.36 980.275 1729.98 982.214 1729.98 984.724V986.452H1719.89C1720.02 987.487 1720.43 988.317 1721.12 988.942C1721.81 989.567 1722.69 989.88 1723.74 989.88C1725.37 989.88 1726.65 989.289 1727.56 988.107L1729.64 990.437C1729.01 991.335 1728.15 992.038 1727.07 992.546C1725.98 993.044 1724.78 993.293 1723.46 993.293ZM1722.98 980.285C1722.14 980.285 1721.46 980.568 1720.93 981.135C1720.41 981.701 1720.08 982.512 1719.93 983.566H1725.82V983.229C1725.8 982.292 1725.55 981.569 1725.06 981.062C1724.57 980.544 1723.88 980.285 1722.98 980.285ZM1736.29 977.15L1736.43 978.981C1737.56 977.565 1739.08 976.857 1740.98 976.857C1742.66 976.857 1743.91 977.351 1744.73 978.337C1745.55 979.323 1745.97 980.798 1745.99 982.761V993H1741.76V982.863C1741.76 981.965 1741.56 981.315 1741.17 980.915C1740.78 980.505 1740.13 980.3 1739.22 980.3C1738.03 980.3 1737.14 980.808 1736.54 981.823V993H1732.31V977.15H1736.29ZM1755.81 989.88C1756.59 989.88 1757.22 989.665 1757.71 989.235C1758.2 988.806 1758.45 988.234 1758.47 987.521H1762.44C1762.43 988.596 1762.14 989.582 1761.56 990.48C1760.99 991.369 1760.2 992.062 1759.19 992.561C1758.19 993.049 1757.09 993.293 1755.88 993.293C1753.61 993.293 1751.83 992.575 1750.52 991.14C1749.21 989.694 1748.55 987.702 1748.55 985.163V984.885C1748.55 982.443 1749.2 980.495 1750.5 979.04C1751.8 977.585 1753.58 976.857 1755.85 976.857C1757.83 976.857 1759.42 977.424 1760.61 978.557C1761.81 979.68 1762.42 981.179 1762.44 983.054H1758.47C1758.45 982.233 1758.2 981.569 1757.71 981.062C1757.22 980.544 1756.58 980.285 1755.78 980.285C1754.79 980.285 1754.04 980.646 1753.54 981.369C1753.04 982.082 1752.79 983.244 1752.79 984.855V985.295C1752.79 986.926 1753.04 988.098 1753.54 988.811C1754.03 989.523 1754.79 989.88 1755.81 989.88ZM1774.35 991.389C1773.31 992.658 1771.86 993.293 1770.01 993.293C1768.32 993.293 1767.02 992.805 1766.12 991.828C1765.23 990.852 1764.78 989.421 1764.76 987.536V977.15H1768.99V987.39C1768.99 989.04 1769.74 989.865 1771.25 989.865C1772.68 989.865 1773.67 989.367 1774.2 988.371V977.15H1778.45V993H1774.47L1774.35 991.389ZM1790.55 981.12C1789.98 981.042 1789.47 981.003 1789.03 981.003C1787.43 981.003 1786.38 981.545 1785.88 982.629V993H1781.65V977.15H1785.64L1785.76 979.04C1786.61 977.585 1787.79 976.857 1789.29 976.857C1789.76 976.857 1790.2 976.921 1790.61 977.048L1790.55 981.12ZM1798.4 973.254V977.15H1801.11V980.256H1798.4V988.166C1798.4 988.752 1798.52 989.172 1798.74 989.426C1798.96 989.68 1799.39 989.807 1800.03 989.807C1800.5 989.807 1800.91 989.772 1801.27 989.704V992.912C1800.44 993.166 1799.59 993.293 1798.71 993.293C1795.74 993.293 1794.23 991.794 1794.17 988.796V980.256H1791.86V977.15H1794.17V973.254H1798.4ZM1812.66 993C1812.46 992.619 1812.32 992.146 1812.23 991.579C1811.21 992.722 1809.87 993.293 1808.23 993.293C1806.68 993.293 1805.39 992.844 1804.37 991.945C1803.35 991.047 1802.84 989.914 1802.84 988.547C1802.84 986.867 1803.46 985.578 1804.7 984.68C1805.95 983.781 1807.75 983.327 1810.11 983.317H1812.06V982.409C1812.06 981.677 1811.87 981.091 1811.48 980.651C1811.11 980.212 1810.52 979.992 1809.71 979.992C1809 979.992 1808.44 980.163 1808.03 980.505C1807.63 980.847 1807.43 981.315 1807.43 981.911H1803.19C1803.19 980.993 1803.48 980.144 1804.04 979.362C1804.61 978.581 1805.41 977.971 1806.45 977.531C1807.48 977.082 1808.64 976.857 1809.93 976.857C1811.88 976.857 1813.43 977.351 1814.58 978.337C1815.73 979.313 1816.3 980.69 1816.3 982.468V989.338C1816.31 990.842 1816.52 991.979 1816.93 992.751V993H1812.66ZM1809.16 990.056C1809.78 990.056 1810.36 989.919 1810.88 989.646C1811.41 989.362 1811.8 988.986 1812.06 988.518V985.793H1810.47C1808.35 985.793 1807.23 986.525 1807.09 987.99L1807.08 988.239C1807.08 988.767 1807.26 989.201 1807.63 989.543C1808 989.885 1808.51 990.056 1809.16 990.056ZM1818.9 984.958C1818.9 982.487 1819.45 980.52 1820.55 979.055C1821.67 977.59 1823.18 976.857 1825.11 976.857C1826.65 976.857 1827.92 977.434 1828.93 978.586V970.5H1833.18V993H1829.36L1829.15 991.315C1828.1 992.634 1826.74 993.293 1825.08 993.293C1823.21 993.293 1821.71 992.561 1820.58 991.096C1819.46 989.621 1818.9 987.575 1818.9 984.958ZM1823.13 985.266C1823.13 986.75 1823.39 987.888 1823.91 988.679C1824.42 989.47 1825.18 989.865 1826.16 989.865C1827.47 989.865 1828.39 989.313 1828.93 988.21V981.955C1828.4 980.852 1827.49 980.3 1826.19 980.3C1824.15 980.3 1823.13 981.955 1823.13 985.266ZM1835.8 984.929C1835.8 983.356 1836.1 981.955 1836.71 980.725C1837.31 979.494 1838.18 978.542 1839.32 977.868C1840.46 977.194 1841.78 976.857 1843.29 976.857C1845.42 976.857 1847.17 977.512 1848.52 978.82C1849.87 980.129 1850.63 981.906 1850.79 984.152L1850.82 985.236C1850.82 987.668 1850.14 989.621 1848.78 991.096C1847.42 992.561 1845.6 993.293 1843.32 993.293C1841.03 993.293 1839.2 992.561 1837.84 991.096C1836.48 989.631 1835.8 987.639 1835.8 985.119V984.929ZM1840.03 985.236C1840.03 986.74 1840.32 987.893 1840.88 988.693C1841.45 989.484 1842.26 989.88 1843.32 989.88C1844.34 989.88 1845.14 989.489 1845.72 988.708C1846.29 987.917 1846.58 986.657 1846.58 984.929C1846.58 983.454 1846.29 982.312 1845.72 981.501C1845.14 980.69 1844.33 980.285 1843.29 980.285C1842.25 980.285 1841.45 980.69 1840.88 981.501C1840.32 982.302 1840.03 983.547 1840.03 985.236Z" fill="#08B4EA"/>
<path d="M1613.75 907.25L1597.25 923.75" stroke="#212743" stroke-width="2" stroke-linecap="round" stroke-linejoin="round"/>
<path d="M1597.25 907.25L1613.75 923.75" stroke="#212743" stroke-width="2" stroke-linecap="round" stroke-linejoin="round"/>
<path d="M1889 914V924C1889 924.663 1889.26 925.299 1889.73 925.768C1890.2 926.237 1890.84 926.5 1891.5 926.5H1906.5C1907.16 926.5 1907.8 926.237 1908.27 925.768C1908.74 925.299 1909 924.663 1909 924V914" stroke="black" stroke-width="2" stroke-linecap="round" stroke-linejoin="round"/>
<path d="M1904 906.5L1899 901.5L1894 906.5" stroke="black" stroke-width="2" stroke-linecap="round" stroke-linejoin="round"/>
<path d="M1899 901.5V917.75" stroke="black" stroke-width="2" stroke-linecap="round" stroke-linejoin="round"/>
</g>
<path d="M1687.93 713.292L1737.61 701.371L1723.1 750.361L1687.93 713.292Z" fill="white"/>
<rect x="1662" y="571.807" width="169" height="155" rx="22" transform="rotate(-3.66624 1662 571.807)" fill="white"/>
<path d="M1687.93 713.292L1737.61 701.371L1723.1 750.361L1687.93 713.292Z" fill="white"/>
<rect x="1662" y="571.807" width="169" height="155" rx="22" transform="rotate(-3.66624 1662 571.807)" fill="white"/>
<path d="M1715.6 690.361C1718.96 690.371 1722.3 689.713 1725.4 688.426C1728.51 687.139 1731.33 685.248 1733.7 682.863L1742.55 674.017C1742.82 673.749 1743.03 673.431 1743.18 673.08C1743.33 672.729 1743.4 672.353 1743.4 671.973C1743.4 671.593 1743.33 671.216 1743.19 670.865C1743.04 670.513 1742.83 670.194 1742.56 669.925C1742.29 669.656 1741.97 669.443 1741.62 669.298C1741.27 669.153 1740.89 669.078 1740.51 669.079C1740.13 669.08 1739.75 669.156 1739.4 669.303C1739.05 669.449 1738.73 669.664 1738.47 669.934L1729.62 678.78C1725.9 682.498 1720.86 684.587 1715.6 684.587C1710.34 684.588 1705.3 682.499 1701.58 678.781C1697.86 675.063 1695.77 670.02 1695.77 664.762C1695.77 659.504 1697.86 654.461 1701.58 650.743L1727.44 624.885C1731.16 621.184 1736.2 619.111 1741.45 619.118C1746.7 619.126 1751.73 621.214 1755.44 624.925C1759.15 628.636 1761.24 633.667 1761.25 638.916C1761.25 644.164 1759.18 649.201 1755.48 652.922L1750.72 657.686C1750.19 658.23 1749.89 658.961 1749.9 659.72C1749.9 660.48 1750.2 661.206 1750.74 661.743C1751.28 662.28 1752.01 662.584 1752.76 662.589C1753.52 662.594 1754.25 662.299 1754.8 661.769L1759.56 657.005C1761.95 654.631 1763.85 651.808 1765.15 648.699C1766.45 645.59 1767.12 642.255 1767.12 638.886C1767.13 635.516 1766.47 632.179 1765.18 629.065C1763.9 625.951 1762.01 623.122 1759.62 620.74C1757.24 618.357 1754.41 616.469 1751.3 615.182C1748.19 613.895 1744.85 613.236 1741.48 613.242C1738.11 613.248 1734.78 613.918 1731.67 615.216C1728.56 616.513 1725.73 618.412 1723.36 620.802L1697.5 646.66C1693.92 650.24 1691.48 654.802 1690.49 659.768C1689.5 664.734 1690.01 669.881 1691.95 674.559C1693.89 679.237 1697.17 683.235 1701.38 686.047C1705.59 688.86 1710.54 690.361 1715.6 690.361H1715.6Z" fill="#083863"/>
<path d="M1763.51 617.399L1772.36 608.552C1776.08 604.852 1781.11 602.778 1786.36 602.785C1791.61 602.793 1796.64 604.881 1800.35 608.592C1804.06 612.303 1806.15 617.334 1806.16 622.582C1806.17 627.831 1804.09 632.868 1800.39 636.589L1774.53 662.448C1770.81 666.148 1765.77 668.222 1760.52 668.215C1755.28 668.207 1750.25 666.119 1746.53 662.408C1742.82 658.697 1740.74 653.665 1740.73 648.417C1740.72 643.169 1742.79 638.132 1746.49 634.41L1751.26 629.646C1751.53 629.379 1751.75 629.061 1751.9 628.709C1752.05 628.357 1752.13 627.98 1752.13 627.597C1752.13 627.215 1752.06 626.836 1751.91 626.483C1751.77 626.129 1751.56 625.808 1751.28 625.537C1751.01 625.267 1750.69 625.053 1750.34 624.908C1749.99 624.763 1749.61 624.689 1749.22 624.692C1748.84 624.694 1748.46 624.773 1748.11 624.922C1747.76 625.072 1747.44 625.29 1747.18 625.563L1742.41 630.327C1740.02 632.702 1738.12 635.524 1736.83 638.634C1735.53 641.743 1734.86 645.078 1734.85 648.447C1734.85 651.816 1735.51 655.153 1736.79 658.267C1738.08 661.381 1739.97 664.21 1742.35 666.593C1744.73 668.975 1747.56 670.864 1750.67 672.151C1753.79 673.437 1757.13 674.097 1760.5 674.091C1763.86 674.085 1767.2 673.414 1770.31 672.117C1773.42 670.819 1776.24 668.921 1778.61 666.53L1804.48 640.673C1809.26 635.869 1811.95 629.362 1811.95 622.579C1811.94 615.797 1809.24 609.294 1804.45 604.498C1799.65 599.702 1793.15 597.005 1786.37 597C1779.58 596.995 1773.08 599.681 1768.27 604.469L1759.43 613.316C1759.16 613.583 1758.94 613.902 1758.79 614.252C1758.65 614.603 1758.57 614.98 1758.57 615.36C1758.57 615.74 1758.64 616.117 1758.79 616.468C1758.94 616.82 1759.15 617.139 1759.42 617.408C1759.69 617.677 1760.01 617.89 1760.36 618.035C1760.71 618.18 1761.08 618.254 1761.47 618.253C1761.85 618.252 1762.22 618.177 1762.57 618.03C1762.92 617.883 1763.24 617.669 1763.51 617.399Z" fill="#083863"/>
</g>
<rect x="1103" y="454" width="375" height="812" rx="8" fill="url(#paint2_linear_4_93)"/>
<rect x="1128.5" y="993.5" width="324" height="53" rx="6.5" fill="white" fill-opacity="0.15" stroke="#14384D"/>
<path d="M1187.93 923.117H1198.19V927H1183.09V903.539H1187.93V923.117ZM1205.59 927H1200.92V909.565H1205.59V927ZM1200.64 905.054C1200.64 904.355 1200.87 903.781 1201.33 903.33C1201.81 902.878 1202.45 902.653 1203.25 902.653C1204.05 902.653 1204.68 902.878 1205.15 903.33C1205.63 903.781 1205.86 904.355 1205.86 905.054C1205.86 905.763 1205.62 906.343 1205.14 906.794C1204.67 907.245 1204.04 907.471 1203.25 907.471C1202.47 907.471 1201.83 907.245 1201.35 906.794C1200.88 906.343 1200.64 905.763 1200.64 905.054ZM1213.73 909.565L1213.87 911.58C1215.12 910.022 1216.79 909.243 1218.88 909.243C1220.73 909.243 1222.1 909.786 1223.01 910.871C1223.91 911.956 1224.37 913.578 1224.39 915.737V927H1219.74V915.85C1219.74 914.861 1219.52 914.147 1219.09 913.707C1218.66 913.255 1217.95 913.03 1216.95 913.03C1215.64 913.03 1214.66 913.588 1214 914.706V927H1209.34V909.565H1213.73ZM1234.27 920.007L1232.59 921.683V927H1227.94V902.25H1232.59V915.962L1233.5 914.802L1237.96 909.565H1243.55L1237.25 916.833L1244.1 927H1238.75L1234.27 920.007ZM1266.26 920.845C1266.26 919.932 1265.93 919.233 1265.29 918.75C1264.64 918.256 1263.48 917.74 1261.81 917.203C1260.13 916.655 1258.81 916.118 1257.83 915.592C1255.16 914.152 1253.83 912.213 1253.83 909.775C1253.83 908.507 1254.19 907.379 1254.9 906.391C1255.62 905.392 1256.64 904.613 1257.97 904.055C1259.32 903.496 1260.82 903.217 1262.48 903.217C1264.16 903.217 1265.65 903.523 1266.96 904.135C1268.27 904.737 1269.29 905.591 1270.01 906.697C1270.74 907.804 1271.11 909.061 1271.11 910.468H1266.27C1266.27 909.394 1265.93 908.561 1265.26 907.97C1264.58 907.369 1263.63 907.068 1262.4 907.068C1261.22 907.068 1260.3 907.32 1259.65 907.825C1258.99 908.319 1258.67 908.975 1258.67 909.791C1258.67 910.554 1259.05 911.193 1259.81 911.708C1260.58 912.224 1261.72 912.708 1263.21 913.159C1265.96 913.986 1267.96 915.012 1269.22 916.236C1270.48 917.461 1271.11 918.986 1271.11 920.812C1271.11 922.843 1270.34 924.438 1268.8 925.598C1267.27 926.748 1265.2 927.322 1262.6 927.322C1260.79 927.322 1259.15 926.995 1257.67 926.339C1256.18 925.673 1255.05 924.766 1254.27 923.616C1253.49 922.467 1253.11 921.135 1253.11 919.62H1257.96C1257.96 922.209 1259.5 923.503 1262.6 923.503C1263.75 923.503 1264.64 923.272 1265.29 922.811C1265.93 922.338 1266.26 921.683 1266.26 920.845ZM1278.63 911.467C1279.87 909.984 1281.42 909.243 1283.29 909.243C1287.07 909.243 1288.99 911.44 1289.04 915.833V927H1284.38V915.962C1284.38 914.963 1284.17 914.228 1283.74 913.755C1283.31 913.271 1282.59 913.03 1281.6 913.03C1280.23 913.03 1279.24 913.556 1278.63 914.609V927H1273.97V902.25H1278.63V911.467ZM1291.83 918.122C1291.83 916.392 1292.16 914.851 1292.83 913.497C1293.49 912.144 1294.45 911.096 1295.69 910.355C1296.95 909.614 1298.41 909.243 1300.06 909.243C1302.41 909.243 1304.33 909.963 1305.81 911.402C1307.31 912.842 1308.14 914.797 1308.31 917.268L1308.34 918.46C1308.34 921.135 1307.6 923.283 1306.1 924.905C1304.61 926.517 1302.61 927.322 1300.09 927.322C1297.58 927.322 1295.57 926.517 1294.07 924.905C1292.57 923.294 1291.83 921.103 1291.83 918.331V918.122ZM1296.48 918.46C1296.48 920.114 1296.8 921.382 1297.42 922.263C1298.04 923.133 1298.93 923.568 1300.09 923.568C1301.22 923.568 1302.1 923.138 1302.74 922.279C1303.37 921.409 1303.69 920.023 1303.69 918.122C1303.69 916.5 1303.37 915.243 1302.74 914.351C1302.1 913.459 1301.21 913.014 1300.06 913.014C1298.92 913.014 1298.04 913.459 1297.42 914.351C1296.8 915.232 1296.48 916.602 1296.48 918.46ZM1321.01 913.932C1320.37 913.846 1319.82 913.803 1319.33 913.803C1317.57 913.803 1316.42 914.399 1315.87 915.592V927H1311.21V909.565H1315.61L1315.74 911.644C1316.67 910.043 1317.97 909.243 1319.62 909.243C1320.14 909.243 1320.62 909.313 1321.07 909.453L1321.01 913.932ZM1329.65 905.279V909.565H1332.63V912.981H1329.65V921.683C1329.65 922.327 1329.77 922.789 1330.02 923.068C1330.26 923.348 1330.74 923.487 1331.43 923.487C1331.95 923.487 1332.41 923.45 1332.8 923.375V926.903C1331.89 927.183 1330.95 927.322 1329.98 927.322C1326.72 927.322 1325.05 925.673 1324.99 922.375V912.981H1322.44V909.565H1324.99V905.279H1329.65ZM1343.24 927.322C1340.69 927.322 1338.6 926.538 1336.99 924.97C1335.39 923.401 1334.59 921.312 1334.59 918.702V918.25C1334.59 916.5 1334.93 914.937 1335.61 913.562C1336.28 912.176 1337.24 911.112 1338.48 910.371C1339.72 909.619 1341.14 909.243 1342.73 909.243C1345.11 909.243 1346.99 909.995 1348.35 911.499C1349.73 913.003 1350.42 915.135 1350.42 917.896V919.797H1339.31C1339.46 920.936 1339.91 921.849 1340.67 922.537C1341.43 923.224 1342.39 923.568 1343.55 923.568C1345.34 923.568 1346.75 922.918 1347.76 921.618L1350.04 924.18C1349.35 925.168 1348.4 925.942 1347.21 926.5C1346.02 927.048 1344.69 927.322 1343.24 927.322ZM1342.71 913.014C1341.79 913.014 1341.04 913.325 1340.46 913.948C1339.89 914.571 1339.52 915.463 1339.36 916.623H1345.84V916.252C1345.82 915.221 1345.54 914.426 1345 913.868C1344.46 913.298 1343.7 913.014 1342.71 913.014ZM1357.36 909.565L1357.5 911.58C1358.75 910.022 1360.42 909.243 1362.52 909.243C1364.36 909.243 1365.74 909.786 1366.64 910.871C1367.54 911.956 1368.01 913.578 1368.03 915.737V927H1363.37V915.85C1363.37 914.861 1363.16 914.147 1362.73 913.707C1362.3 913.255 1361.58 913.03 1360.58 913.03C1359.27 913.03 1358.29 913.588 1357.63 914.706V927H1352.98V909.565H1357.36ZM1379.6 927.322C1377.04 927.322 1374.96 926.538 1373.34 924.97C1371.74 923.401 1370.94 921.312 1370.94 918.702V918.25C1370.94 916.5 1371.28 914.937 1371.96 913.562C1372.64 912.176 1373.59 911.112 1374.83 910.371C1376.07 909.619 1377.49 909.243 1379.08 909.243C1381.47 909.243 1383.34 909.995 1384.7 911.499C1386.08 913.003 1386.77 915.135 1386.77 917.896V919.797H1375.66C1375.81 920.936 1376.27 921.849 1377.02 922.537C1377.78 923.224 1378.74 923.568 1379.9 923.568C1381.7 923.568 1383.1 922.918 1384.11 921.618L1386.4 924.18C1385.7 925.168 1384.75 925.942 1383.56 926.5C1382.37 927.048 1381.05 927.322 1379.6 927.322ZM1379.06 913.014C1378.14 913.014 1377.39 913.325 1376.81 913.948C1376.24 914.571 1375.87 915.463 1375.71 916.623H1382.19V916.252C1382.17 915.221 1381.89 914.426 1381.35 913.868C1380.82 913.298 1380.05 913.014 1379.06 913.014ZM1399.22 913.932C1398.59 913.846 1398.03 913.803 1397.55 913.803C1395.78 913.803 1394.63 914.399 1394.08 915.592V927H1389.43V909.565H1393.82L1393.95 911.644C1394.89 910.043 1396.18 909.243 1397.84 909.243C1398.35 909.243 1398.84 909.313 1399.29 909.453L1399.22 913.932Z" fill="white"/>
<path d="M1173.32 959.037C1173.13 960.691 1172.51 961.97 1171.48 962.872C1170.46 963.767 1169.1 964.215 1167.39 964.215C1165.54 964.215 1164.06 963.552 1162.94 962.228C1161.83 960.903 1161.28 959.13 1161.28 956.91V955.406C1161.28 953.952 1161.54 952.674 1162.05 951.571C1162.57 950.468 1163.31 949.623 1164.26 949.036C1165.22 948.442 1166.32 948.145 1167.57 948.145C1169.23 948.145 1170.57 948.61 1171.57 949.541C1172.57 950.465 1173.16 951.747 1173.32 953.387H1171.25C1171.07 952.141 1170.68 951.238 1170.08 950.68C1169.48 950.121 1168.65 949.842 1167.57 949.842C1166.26 949.842 1165.22 950.329 1164.47 951.303C1163.72 952.277 1163.35 953.662 1163.35 955.46V956.975C1163.35 958.672 1163.71 960.022 1164.42 961.024C1165.12 962.027 1166.12 962.528 1167.39 962.528C1168.54 962.528 1169.41 962.271 1170.02 961.755C1170.64 961.232 1171.05 960.326 1171.25 959.037H1173.32ZM1175.31 958.081C1175.31 956.942 1175.53 955.918 1175.97 955.009C1176.42 954.099 1177.05 953.397 1177.84 952.903C1178.64 952.409 1179.56 952.162 1180.58 952.162C1182.16 952.162 1183.44 952.71 1184.42 953.806C1185.4 954.901 1185.89 956.359 1185.89 958.178V958.317C1185.89 959.449 1185.67 960.466 1185.23 961.368C1184.8 962.263 1184.18 962.962 1183.38 963.463C1182.57 963.964 1181.65 964.215 1180.6 964.215C1179.03 964.215 1177.75 963.667 1176.77 962.571C1175.79 961.476 1175.31 960.025 1175.31 958.221V958.081ZM1177.31 958.317C1177.31 959.606 1177.6 960.641 1178.2 961.422C1178.8 962.202 1179.6 962.593 1180.6 962.593C1181.61 962.593 1182.42 962.199 1183.01 961.411C1183.6 960.616 1183.9 959.506 1183.9 958.081C1183.9 956.806 1183.6 955.775 1182.99 954.987C1182.39 954.192 1181.58 953.795 1180.58 953.795C1179.6 953.795 1178.81 954.185 1178.21 954.966C1177.61 955.746 1177.31 956.864 1177.31 958.317ZM1190.54 964H1188.55V947.5H1190.54V964ZM1198.55 964.215C1196.98 964.215 1195.7 963.699 1194.71 962.668C1193.72 961.63 1193.23 960.244 1193.23 958.511V958.146C1193.23 956.993 1193.44 955.965 1193.88 955.062C1194.32 954.153 1194.94 953.444 1195.73 952.936C1196.52 952.42 1197.38 952.162 1198.31 952.162C1199.82 952.162 1200.99 952.66 1201.83 953.655C1202.67 954.651 1203.09 956.076 1203.09 957.931V958.758H1195.21C1195.24 959.904 1195.57 960.831 1196.21 961.54C1196.86 962.242 1197.67 962.593 1198.66 962.593C1199.36 962.593 1199.96 962.45 1200.44 962.163C1200.93 961.877 1201.36 961.497 1201.72 961.024L1202.94 961.97C1201.96 963.466 1200.5 964.215 1198.55 964.215ZM1198.31 953.795C1197.5 953.795 1196.83 954.089 1196.29 954.676C1195.74 955.256 1195.41 956.072 1195.28 957.125H1201.1V956.975C1201.04 955.965 1200.77 955.184 1200.28 954.633C1199.8 954.074 1199.14 953.795 1198.31 953.795ZM1217.62 960.917C1217.62 960.38 1217.42 959.965 1217.01 959.671C1216.61 959.37 1215.9 959.112 1214.89 958.897C1213.89 958.683 1213.09 958.425 1212.5 958.124C1211.91 957.823 1211.47 957.465 1211.19 957.05C1210.91 956.634 1210.77 956.14 1210.77 955.567C1210.77 954.615 1211.17 953.809 1211.97 953.15C1212.78 952.492 1213.81 952.162 1215.06 952.162C1216.38 952.162 1217.45 952.502 1218.27 953.183C1219.09 953.863 1219.5 954.733 1219.5 955.793H1217.5C1217.5 955.249 1217.27 954.78 1216.8 954.386C1216.35 953.992 1215.77 953.795 1215.06 953.795C1214.34 953.795 1213.78 953.952 1213.37 954.268C1212.96 954.583 1212.75 954.994 1212.75 955.503C1212.75 955.983 1212.94 956.344 1213.32 956.588C1213.7 956.831 1214.39 957.064 1215.38 957.286C1216.37 957.508 1217.18 957.773 1217.79 958.081C1218.41 958.389 1218.86 958.761 1219.16 959.198C1219.46 959.628 1219.61 960.154 1219.61 960.777C1219.61 961.816 1219.19 962.65 1218.36 963.28C1217.53 963.903 1216.45 964.215 1215.13 964.215C1214.2 964.215 1213.37 964.05 1212.66 963.721C1211.94 963.391 1211.38 962.933 1210.97 962.346C1210.57 961.751 1210.37 961.11 1210.37 960.423H1212.36C1212.39 961.089 1212.66 961.619 1213.15 962.013C1213.65 962.399 1214.31 962.593 1215.13 962.593C1215.88 962.593 1216.48 962.442 1216.93 962.142C1217.39 961.834 1217.62 961.425 1217.62 960.917ZM1227.02 964.215C1225.44 964.215 1224.16 963.699 1223.17 962.668C1222.19 961.63 1221.69 960.244 1221.69 958.511V958.146C1221.69 956.993 1221.91 955.965 1222.35 955.062C1222.79 954.153 1223.41 953.444 1224.2 952.936C1224.99 952.42 1225.85 952.162 1226.77 952.162C1228.28 952.162 1229.46 952.66 1230.3 953.655C1231.13 954.651 1231.55 956.076 1231.55 957.931V958.758H1223.68C1223.71 959.904 1224.04 960.831 1224.68 961.54C1225.32 962.242 1226.14 962.593 1227.13 962.593C1227.83 962.593 1228.42 962.45 1228.91 962.163C1229.4 961.877 1229.82 961.497 1230.19 961.024L1231.4 961.97C1230.43 963.466 1228.97 964.215 1227.02 964.215ZM1226.77 953.795C1225.97 953.795 1225.3 954.089 1224.75 954.676C1224.21 955.256 1223.87 956.072 1223.74 957.125H1229.57V956.975C1229.51 955.965 1229.24 955.184 1228.75 954.633C1228.26 954.074 1227.6 953.795 1226.77 953.795ZM1241.04 962.851C1240.27 963.76 1239.13 964.215 1237.63 964.215C1236.39 964.215 1235.45 963.857 1234.8 963.141C1234.15 962.417 1233.83 961.35 1233.82 959.939V952.377H1235.81V959.886C1235.81 961.647 1236.52 962.528 1237.96 962.528C1239.47 962.528 1240.48 961.963 1240.99 960.831V952.377H1242.97V964H1241.08L1241.04 962.851ZM1253.62 964H1251.63V947.5H1253.62V964ZM1258.97 964H1256.98V952.377H1258.97V964ZM1256.82 949.294C1256.82 948.972 1256.92 948.7 1257.11 948.478C1257.31 948.256 1257.6 948.145 1257.99 948.145C1258.38 948.145 1258.67 948.256 1258.87 948.478C1259.07 948.7 1259.17 948.972 1259.17 949.294C1259.17 949.616 1259.07 949.885 1258.87 950.1C1258.67 950.314 1258.38 950.422 1257.99 950.422C1257.6 950.422 1257.31 950.314 1257.11 950.1C1256.92 949.885 1256.82 949.616 1256.82 949.294ZM1264.04 952.377L1264.1 953.838C1264.99 952.721 1266.15 952.162 1267.58 952.162C1270.04 952.162 1271.28 953.548 1271.3 956.319V964H1269.31V956.309C1269.31 955.471 1269.11 954.851 1268.73 954.45C1268.36 954.049 1267.78 953.849 1266.98 953.849C1266.34 953.849 1265.77 954.021 1265.28 954.364C1264.8 954.708 1264.42 955.159 1264.15 955.718V964H1262.16V952.377H1264.04ZM1277.54 958.618L1276.29 959.918V964H1274.31V947.5H1276.29V957.479L1277.36 956.201L1280.98 952.377H1283.4L1278.87 957.232L1283.92 964H1281.59L1277.54 958.618ZM1300.72 958.317C1300.72 960.086 1300.32 961.511 1299.51 962.593C1298.7 963.674 1297.6 964.215 1296.22 964.215C1294.81 964.215 1293.7 963.767 1292.89 962.872V968.469H1290.9V952.377H1292.72L1292.82 953.666C1293.63 952.663 1294.75 952.162 1296.19 952.162C1297.59 952.162 1298.69 952.688 1299.5 953.741C1300.31 954.794 1300.72 956.258 1300.72 958.135V958.317ZM1298.74 958.092C1298.74 956.781 1298.46 955.746 1297.9 954.987C1297.34 954.228 1296.57 953.849 1295.6 953.849C1294.4 953.849 1293.49 954.382 1292.89 955.449V961.003C1293.49 962.063 1294.4 962.593 1295.62 962.593C1296.57 962.593 1297.33 962.217 1297.89 961.465C1298.45 960.706 1298.74 959.581 1298.74 958.092ZM1310.43 964C1310.32 963.771 1310.23 963.363 1310.15 962.775C1309.23 963.735 1308.13 964.215 1306.85 964.215C1305.7 964.215 1304.76 963.893 1304.02 963.248C1303.29 962.596 1302.92 961.773 1302.92 960.777C1302.92 959.567 1303.38 958.629 1304.3 957.963C1305.22 957.29 1306.52 956.953 1308.19 956.953H1310.12V956.04C1310.12 955.345 1309.91 954.794 1309.5 954.386C1309.08 953.97 1308.47 953.763 1307.66 953.763C1306.95 953.763 1306.36 953.942 1305.88 954.3C1305.4 954.658 1305.16 955.091 1305.16 955.6H1303.16C1303.16 955.02 1303.37 954.461 1303.77 953.924C1304.19 953.38 1304.75 952.95 1305.45 952.635C1306.16 952.32 1306.94 952.162 1307.78 952.162C1309.12 952.162 1310.17 952.499 1310.93 953.172C1311.69 953.838 1312.08 954.758 1312.11 955.933V961.282C1312.11 962.349 1312.25 963.198 1312.52 963.828V964H1310.43ZM1307.14 962.485C1307.76 962.485 1308.35 962.324 1308.91 962.002C1309.47 961.68 1309.87 961.261 1310.12 960.745V958.36H1308.56C1306.13 958.36 1304.91 959.073 1304.91 960.498C1304.91 961.121 1305.12 961.608 1305.54 961.959C1305.95 962.31 1306.48 962.485 1307.14 962.485ZM1320.84 954.16C1320.54 954.11 1320.22 954.085 1319.87 954.085C1318.56 954.085 1317.68 954.64 1317.21 955.75V964H1315.22V952.377H1317.16L1317.19 953.72C1317.84 952.681 1318.77 952.162 1319.96 952.162C1320.35 952.162 1320.64 952.212 1320.84 952.312V954.16ZM1329.43 964C1329.31 963.771 1329.22 963.363 1329.15 962.775C1328.22 963.735 1327.12 964.215 1325.84 964.215C1324.69 964.215 1323.75 963.893 1323.01 963.248C1322.28 962.596 1321.92 961.773 1321.92 960.777C1321.92 959.567 1322.38 958.629 1323.29 957.963C1324.22 957.29 1325.51 956.953 1327.18 956.953H1329.11V956.04C1329.11 955.345 1328.91 954.794 1328.49 954.386C1328.08 953.97 1327.46 953.763 1326.65 953.763C1325.95 953.763 1325.35 953.942 1324.87 954.3C1324.39 954.658 1324.15 955.091 1324.15 955.6H1322.15C1322.15 955.02 1322.36 954.461 1322.77 953.924C1323.18 953.38 1323.74 952.95 1324.44 952.635C1325.15 952.32 1325.93 952.162 1326.77 952.162C1328.11 952.162 1329.16 952.499 1329.92 953.172C1330.68 953.838 1331.07 954.758 1331.1 955.933V961.282C1331.1 962.349 1331.24 963.198 1331.51 963.828V964H1329.43ZM1326.13 962.485C1326.75 962.485 1327.34 962.324 1327.9 962.002C1328.46 961.68 1328.86 961.261 1329.11 960.745V958.36H1327.56C1325.12 958.36 1323.9 959.073 1323.9 960.498C1323.9 961.121 1324.11 961.608 1324.53 961.959C1324.94 962.31 1325.48 962.485 1326.13 962.485ZM1344.5 964.215C1342.92 964.215 1341.64 963.699 1340.65 962.668C1339.66 961.63 1339.17 960.244 1339.17 958.511V958.146C1339.17 956.993 1339.39 955.965 1339.82 955.062C1340.27 954.153 1340.88 953.444 1341.67 952.936C1342.47 952.42 1343.33 952.162 1344.25 952.162C1345.76 952.162 1346.94 952.66 1347.77 953.655C1348.61 954.651 1349.03 956.076 1349.03 957.931V958.758H1341.16C1341.18 959.904 1341.52 960.831 1342.16 961.54C1342.8 962.242 1343.62 962.593 1344.6 962.593C1345.31 962.593 1345.9 962.45 1346.39 962.163C1346.87 961.877 1347.3 961.497 1347.67 961.024L1348.88 961.97C1347.91 963.466 1346.44 964.215 1344.5 964.215ZM1344.25 953.795C1343.45 953.795 1342.77 954.089 1342.23 954.676C1341.69 955.256 1341.35 956.072 1341.22 957.125H1347.04V956.975C1346.99 955.965 1346.71 955.184 1346.23 954.633C1345.74 954.074 1345.08 953.795 1344.25 953.795ZM1353.22 952.377L1353.28 953.838C1354.17 952.721 1355.33 952.162 1356.76 952.162C1359.22 952.162 1360.46 953.548 1360.48 956.319V964H1358.49V956.309C1358.49 955.471 1358.29 954.851 1357.91 954.45C1357.54 954.049 1356.96 953.849 1356.16 953.849C1355.52 953.849 1354.95 954.021 1354.47 954.364C1353.98 954.708 1353.6 955.159 1353.33 955.718V964H1351.34V952.377H1353.22ZM1368.14 962.593C1368.85 962.593 1369.47 962.378 1370 961.948C1370.53 961.519 1370.82 960.981 1370.88 960.337H1372.76C1372.72 961.003 1372.49 961.637 1372.07 962.238C1371.65 962.84 1371.08 963.32 1370.38 963.678C1369.67 964.036 1368.93 964.215 1368.14 964.215C1366.56 964.215 1365.3 963.688 1364.36 962.636C1363.43 961.576 1362.96 960.129 1362.96 958.296V957.963C1362.96 956.831 1363.17 955.825 1363.59 954.944C1364 954.063 1364.6 953.38 1365.37 952.893C1366.15 952.406 1367.07 952.162 1368.13 952.162C1369.43 952.162 1370.51 952.552 1371.37 953.333C1372.24 954.114 1372.7 955.127 1372.76 956.373H1370.88C1370.82 955.621 1370.54 955.005 1370.02 954.525C1369.51 954.038 1368.88 953.795 1368.13 953.795C1367.12 953.795 1366.34 954.16 1365.78 954.891C1365.23 955.614 1364.95 956.663 1364.95 958.038V958.414C1364.95 959.753 1365.23 960.785 1365.78 961.508C1366.33 962.231 1367.12 962.593 1368.14 962.593ZM1382.17 962.851C1381.4 963.76 1380.26 964.215 1378.76 964.215C1377.53 964.215 1376.58 963.857 1375.93 963.141C1375.28 962.417 1374.96 961.35 1374.95 959.939V952.377H1376.94V959.886C1376.94 961.647 1377.65 962.528 1379.09 962.528C1380.61 962.528 1381.61 961.963 1382.12 960.831V952.377H1384.1V964H1382.21L1382.17 962.851ZM1392.75 954.16C1392.45 954.11 1392.12 954.085 1391.77 954.085C1390.47 954.085 1389.59 954.64 1389.12 955.75V964H1387.13V952.377H1389.07L1389.1 953.72C1389.75 952.681 1390.67 952.162 1391.87 952.162C1392.26 952.162 1392.55 952.212 1392.75 952.312V954.16ZM1397.82 949.562V952.377H1399.99V953.913H1397.82V961.121C1397.82 961.587 1397.92 961.938 1398.11 962.174C1398.3 962.403 1398.63 962.518 1399.1 962.518C1399.33 962.518 1399.64 962.475 1400.04 962.389V964C1399.52 964.143 1399.01 964.215 1398.52 964.215C1397.63 964.215 1396.96 963.946 1396.51 963.409C1396.06 962.872 1395.83 962.109 1395.83 961.121V953.913H1393.72V952.377H1395.83V949.562H1397.82ZM1409.5 964C1409.38 963.771 1409.29 963.363 1409.22 962.775C1408.29 963.735 1407.19 964.215 1405.91 964.215C1404.76 964.215 1403.82 963.893 1403.08 963.248C1402.35 962.596 1401.99 961.773 1401.99 960.777C1401.99 959.567 1402.45 958.629 1403.36 957.963C1404.29 957.29 1405.58 956.953 1407.25 956.953H1409.19V956.04C1409.19 955.345 1408.98 954.794 1408.56 954.386C1408.15 953.97 1407.54 953.763 1406.73 953.763C1406.02 953.763 1405.42 953.942 1404.94 954.3C1404.46 954.658 1404.22 955.091 1404.22 955.6H1402.23C1402.23 955.02 1402.43 954.461 1402.84 953.924C1403.25 953.38 1403.81 952.95 1404.51 952.635C1405.22 952.32 1406 952.162 1406.84 952.162C1408.18 952.162 1409.23 952.499 1409.99 953.172C1410.75 953.838 1411.15 954.758 1411.17 955.933V961.282C1411.17 962.349 1411.31 963.198 1411.58 963.828V964H1409.5ZM1406.2 962.485C1406.82 962.485 1407.41 962.324 1407.97 962.002C1408.53 961.68 1408.94 961.261 1409.19 960.745V958.36H1407.63C1405.19 958.36 1403.98 959.073 1403.98 960.498C1403.98 961.121 1404.18 961.608 1404.6 961.959C1405.01 962.31 1405.55 962.485 1406.2 962.485ZM1419.91 954.16C1419.61 954.11 1419.28 954.085 1418.93 954.085C1417.63 954.085 1416.74 954.64 1416.28 955.75V964H1414.29V952.377H1416.22L1416.25 953.72C1416.91 952.681 1417.83 952.162 1419.03 952.162C1419.41 952.162 1419.71 952.212 1419.91 952.312V954.16Z" fill="white"/>
<path d="M1226.93 766.292L1276.61 754.371L1262.1 803.361L1226.93 766.292Z" fill="white"/>
<rect x="1201" y="624.807" width="169" height="155" rx="22" transform="rotate(-3.66624 1201 624.807)" fill="white"/>
<path d="M1226.93 766.292L1276.61 754.371L1262.1 803.361L1226.93 766.292Z" fill="white"/>
<rect x="1201" y="624.807" width="169" height="155" rx="22" transform="rotate(-3.66624 1201 624.807)" fill="white"/>
<path d="M1254.6 743.361C1257.96 743.371 1261.3 742.713 1264.4 741.426C1267.51 740.139 1270.33 738.248 1272.7 735.863L1281.55 727.017C1281.82 726.749 1282.03 726.431 1282.18 726.08C1282.33 725.729 1282.4 725.353 1282.4 724.973C1282.4 724.593 1282.33 724.216 1282.19 723.865C1282.04 723.513 1281.83 723.194 1281.56 722.925C1281.29 722.656 1280.97 722.443 1280.62 722.298C1280.27 722.153 1279.89 722.078 1279.51 722.079C1279.13 722.08 1278.75 722.156 1278.4 722.303C1278.05 722.449 1277.73 722.664 1277.47 722.934L1268.62 731.78C1264.9 735.498 1259.86 737.587 1254.6 737.587C1249.34 737.588 1244.3 735.499 1240.58 731.781C1236.86 728.063 1234.77 723.02 1234.77 717.762C1234.77 712.504 1236.86 707.461 1240.58 703.743L1266.44 677.885C1270.16 674.184 1275.2 672.111 1280.45 672.118C1285.7 672.126 1290.73 674.214 1294.44 677.925C1298.15 681.636 1300.24 686.667 1300.25 691.916C1300.25 697.164 1298.18 702.201 1294.48 705.922L1289.72 710.686C1289.19 711.23 1288.89 711.961 1288.9 712.72C1288.9 713.48 1289.2 714.206 1289.74 714.743C1290.28 715.28 1291.01 715.584 1291.76 715.589C1292.52 715.594 1293.25 715.299 1293.8 714.769L1298.56 710.005C1300.95 707.631 1302.85 704.808 1304.15 701.699C1305.45 698.59 1306.12 695.255 1306.12 691.886C1306.13 688.516 1305.47 685.179 1304.18 682.065C1302.9 678.951 1301.01 676.122 1298.62 673.74C1296.24 671.357 1293.41 669.469 1290.3 668.182C1287.19 666.895 1283.85 666.236 1280.48 666.242C1277.11 666.248 1273.78 666.918 1270.67 668.216C1267.56 669.513 1264.73 671.412 1262.36 673.802L1236.5 699.66C1232.92 703.24 1230.48 707.802 1229.49 712.768C1228.5 717.734 1229.01 722.881 1230.95 727.559C1232.89 732.237 1236.17 736.235 1240.38 739.047C1244.59 741.86 1249.54 743.361 1254.6 743.361H1254.6Z" fill="#083863"/>
<path d="M1302.51 670.399L1311.36 661.552C1315.08 657.852 1320.11 655.778 1325.36 655.785C1330.61 655.793 1335.64 657.881 1339.35 661.592C1343.06 665.303 1345.15 670.334 1345.16 675.582C1345.17 680.831 1343.09 685.868 1339.39 689.589L1313.53 715.448C1309.81 719.148 1304.77 721.222 1299.52 721.215C1294.28 721.207 1289.25 719.119 1285.53 715.408C1281.82 711.697 1279.74 706.665 1279.73 701.417C1279.72 696.169 1281.79 691.132 1285.49 687.41L1290.26 682.646C1290.53 682.379 1290.75 682.061 1290.9 681.709C1291.05 681.357 1291.13 680.98 1291.13 680.597C1291.13 680.215 1291.06 679.836 1290.91 679.483C1290.77 679.129 1290.56 678.808 1290.28 678.537C1290.01 678.267 1289.69 678.053 1289.34 677.908C1288.99 677.763 1288.61 677.689 1288.22 677.692C1287.84 677.694 1287.46 677.773 1287.11 677.922C1286.76 678.072 1286.44 678.29 1286.18 678.563L1281.41 683.327C1279.02 685.702 1277.12 688.524 1275.83 691.634C1274.53 694.743 1273.86 698.078 1273.85 701.447C1273.85 704.816 1274.51 708.153 1275.79 711.267C1277.08 714.381 1278.97 717.21 1281.35 719.593C1283.73 721.975 1286.56 723.864 1289.67 725.151C1292.79 726.437 1296.13 727.097 1299.5 727.091C1302.86 727.085 1306.2 726.414 1309.31 725.117C1312.42 723.819 1315.24 721.921 1317.61 719.53L1343.48 693.673C1348.26 688.869 1350.95 682.362 1350.95 675.579C1350.94 668.797 1348.24 662.294 1343.45 657.498C1338.65 652.702 1332.15 650.005 1325.37 650C1318.58 649.995 1312.08 652.681 1307.27 657.469L1298.43 666.316C1298.16 666.583 1297.94 666.902 1297.79 667.252C1297.65 667.603 1297.57 667.98 1297.57 668.36C1297.57 668.74 1297.64 669.117 1297.79 669.468C1297.94 669.82 1298.15 670.139 1298.42 670.408C1298.69 670.677 1299.01 670.89 1299.36 671.035C1299.71 671.18 1300.08 671.254 1300.47 671.253C1300.85 671.252 1301.22 671.177 1301.57 671.03C1301.92 670.883 1302.24 670.669 1302.51 670.399Z" fill="#083863"/>
<path d="M689.536 225.63H722.055V240H670.854V162.508H689.536V225.63ZM748.027 240H730.038V182.413H748.027V240ZM728.974 167.564C728.974 165.009 729.896 162.916 731.741 161.284C733.586 159.652 735.981 158.835 738.926 158.835C741.871 158.835 744.266 159.652 746.111 161.284C747.956 162.916 748.879 165.009 748.879 167.564C748.879 170.119 747.956 172.212 746.111 173.844C744.266 175.476 741.871 176.292 738.926 176.292C735.981 176.292 733.586 175.476 731.741 173.844C729.896 172.212 728.974 170.119 728.974 167.564ZM775.597 182.413L776.182 189.172C780.156 183.957 785.638 181.349 792.628 181.349C798.624 181.349 803.095 183.14 806.04 186.724C809.021 190.308 810.564 195.701 810.67 202.904V240H792.681V203.649C792.681 200.739 792.096 198.611 790.925 197.262C789.754 195.878 787.625 195.187 784.538 195.187C781.025 195.187 778.417 196.57 776.714 199.338V240H758.778V182.413H775.597ZM843.775 218.551L838.719 223.607V240H820.783V158.197H838.719V201.626L840.528 199.231L854.047 182.413H875.549L855.377 206.097L876.879 240H856.335L843.775 218.551ZM948.198 219.403C948.198 216.671 947.222 214.542 945.271 213.016C943.354 211.49 939.966 209.911 935.105 208.279C930.244 206.647 926.27 205.068 923.183 203.542C913.142 198.611 908.121 191.833 908.121 183.211C908.121 178.918 909.363 175.139 911.847 171.875C914.366 168.575 917.914 166.021 922.491 164.211C927.068 162.366 932.213 161.443 937.926 161.443C943.496 161.443 948.482 162.437 952.881 164.424C957.317 166.411 960.758 169.249 963.207 172.939C965.655 176.594 966.879 180.781 966.879 185.5H948.251C948.251 182.342 947.275 179.894 945.324 178.155C943.408 176.417 940.8 175.547 937.5 175.547C934.165 175.547 931.521 176.292 929.57 177.783C927.654 179.237 926.696 181.1 926.696 183.371C926.696 185.358 927.76 187.168 929.889 188.8C932.018 190.396 935.761 192.064 941.119 193.803C946.477 195.506 950.877 197.351 954.318 199.338C962.692 204.163 966.879 210.816 966.879 219.296C966.879 226.073 964.324 231.396 959.215 235.263C954.105 239.131 947.098 241.064 938.192 241.064C931.912 241.064 926.217 239.947 921.107 237.711C916.034 235.441 912.201 232.354 909.611 228.451C907.057 224.512 905.779 219.988 905.779 214.879H924.514C924.514 219.03 925.578 222.099 927.707 224.086C929.871 226.038 933.366 227.014 938.192 227.014C941.279 227.014 943.709 226.357 945.483 225.044C947.293 223.696 948.198 221.816 948.198 219.403ZM993.171 188.587C997.003 183.761 1001.9 181.349 1007.86 181.349C1014.21 181.349 1019 183.229 1022.23 186.99C1025.46 190.751 1027.11 196.304 1027.18 203.649V240H1009.19V204.075C1009.19 201.023 1008.57 198.788 1007.33 197.369C1006.09 195.914 1003.98 195.187 1000.99 195.187C997.305 195.187 994.697 196.357 993.171 198.699V240H975.235V158.25H993.171V188.587ZM1034.9 210.674C1034.9 204.926 1036.02 199.817 1038.25 195.346C1040.49 190.84 1043.7 187.381 1047.88 184.968C1052.07 182.555 1056.98 181.349 1062.63 181.349C1071.25 181.349 1078.04 184.028 1083.01 189.385C1087.98 194.708 1090.46 201.964 1090.46 211.153V211.792C1090.46 220.769 1087.96 227.901 1082.96 233.188C1077.99 238.439 1071.25 241.064 1062.73 241.064C1054.54 241.064 1047.95 238.616 1042.99 233.72C1038.02 228.788 1035.34 222.117 1034.95 213.708L1034.9 210.674ZM1052.83 211.792C1052.83 217.114 1053.67 221.017 1055.33 223.501C1057 225.985 1059.47 227.227 1062.73 227.227C1069.12 227.227 1072.38 222.312 1072.53 212.484V210.674C1072.53 200.349 1069.23 195.187 1062.63 195.187C1056.63 195.187 1053.38 199.639 1052.89 208.545L1052.83 211.792ZM1133.2 198.646L1127.29 198.22C1121.65 198.22 1118.03 199.994 1116.43 203.542V240H1098.5V182.413H1115.32L1115.9 189.811C1118.92 184.169 1123.12 181.349 1128.52 181.349C1130.43 181.349 1132.1 181.562 1133.52 181.987L1133.2 198.646ZM1163.22 168.096V182.413H1172.69V194.867H1163.22V221.212C1163.22 223.377 1163.61 224.885 1164.39 225.736C1165.17 226.588 1166.71 227.014 1169.02 227.014C1170.79 227.014 1172.28 226.907 1173.49 226.694V239.521C1170.26 240.55 1166.89 241.064 1163.38 241.064C1157.2 241.064 1152.64 239.61 1149.7 236.7C1146.75 233.791 1145.28 229.373 1145.28 223.448V194.867H1137.94V182.413H1145.28V168.096H1163.22ZM1207.66 241.064C1198.82 241.064 1191.67 238.439 1186.21 233.188C1180.75 227.901 1178.01 221.035 1178.01 212.59V211.1C1178.01 205.21 1179.1 200.012 1181.26 195.506C1183.46 191 1186.65 187.522 1190.84 185.074C1195.03 182.59 1199.99 181.349 1205.74 181.349C1213.83 181.349 1220.22 183.868 1224.9 188.906C1229.59 193.909 1231.93 200.899 1231.93 209.876V216.848H1196.27C1196.91 220.077 1198.31 222.614 1200.47 224.459C1202.64 226.304 1205.44 227.227 1208.88 227.227C1214.56 227.227 1218.99 225.24 1222.19 221.266L1230.38 230.952C1228.15 234.039 1224.97 236.505 1220.86 238.35C1216.78 240.16 1212.38 241.064 1207.66 241.064ZM1205.64 195.187C1200.38 195.187 1197.26 198.664 1196.27 205.618H1214.36V204.234C1214.44 201.36 1213.71 199.143 1212.18 197.582C1210.66 195.985 1208.47 195.187 1205.64 195.187ZM1255.67 182.413L1256.25 189.172C1260.22 183.957 1265.71 181.349 1272.7 181.349C1278.69 181.349 1283.16 183.14 1286.11 186.724C1289.09 190.308 1290.63 195.701 1290.74 202.904V240H1272.75V203.649C1272.75 200.739 1272.16 198.611 1270.99 197.262C1269.82 195.878 1267.69 195.187 1264.61 195.187C1261.09 195.187 1258.49 196.57 1256.78 199.338V240H1238.85V182.413H1255.67ZM1328.58 241.064C1319.75 241.064 1312.6 238.439 1307.13 233.188C1301.67 227.901 1298.94 221.035 1298.94 212.59V211.1C1298.94 205.21 1300.02 200.012 1302.18 195.506C1304.38 191 1307.57 187.522 1311.76 185.074C1315.95 182.59 1320.92 181.349 1326.66 181.349C1334.75 181.349 1341.14 183.868 1345.82 188.906C1350.51 193.909 1352.85 200.899 1352.85 209.876V216.848H1317.19C1317.83 220.077 1319.23 222.614 1321.4 224.459C1323.56 226.304 1326.36 227.227 1329.8 227.227C1335.48 227.227 1339.92 225.24 1343.11 221.266L1351.31 230.952C1349.07 234.039 1345.9 236.505 1341.78 238.35C1337.7 240.16 1333.3 241.064 1328.58 241.064ZM1326.56 195.187C1321.31 195.187 1318.18 198.664 1317.19 205.618H1335.29V204.234C1335.36 201.36 1334.63 199.143 1333.1 197.582C1331.58 195.985 1329.4 195.187 1326.56 195.187ZM1394.95 198.646L1389.04 198.22C1383.4 198.22 1379.78 199.994 1378.18 203.542V240H1360.25V182.413H1377.07L1377.65 189.811C1380.67 184.169 1384.87 181.349 1390.27 181.349C1392.18 181.349 1393.85 181.562 1395.27 181.987L1394.95 198.646Z" fill="#1C43CD"/>
<path d="M716.253 349.958H686.236L679.956 368H665.958L695.23 290.508H707.312L736.638 368H722.587L716.253 349.958ZM690.015 339.1H712.475L701.245 306.954L690.015 339.1ZM792.096 339.792C792.096 348.698 790.073 355.812 786.028 361.134C781.983 366.421 776.555 369.064 769.742 369.064C763.426 369.064 758.37 366.989 754.574 362.837V390.141H741.641V310.413H753.562L754.095 316.268C757.891 311.655 763.054 309.349 769.583 309.349C776.608 309.349 782.108 311.974 786.082 317.226C790.091 322.441 792.096 329.697 792.096 338.994V339.792ZM779.216 338.674C779.216 332.926 778.063 328.367 775.756 324.996C773.486 321.625 770.221 319.94 765.963 319.94C760.677 319.94 756.88 322.122 754.574 326.486V352.033C756.916 356.504 760.748 358.739 766.07 358.739C770.186 358.739 773.397 357.089 775.703 353.79C778.045 350.454 779.216 345.416 779.216 338.674ZM853.515 339.792C853.515 348.698 851.492 355.812 847.447 361.134C843.402 366.421 837.974 369.064 831.161 369.064C824.845 369.064 819.789 366.989 815.993 362.837V390.141H803.06V310.413H814.981L815.514 316.268C819.31 311.655 824.473 309.349 831.001 309.349C838.027 309.349 843.527 311.974 847.5 317.226C851.51 322.441 853.515 329.697 853.515 338.994V339.792ZM840.635 338.674C840.635 332.926 839.482 328.367 837.175 324.996C834.904 321.625 831.64 319.94 827.382 319.94C822.096 319.94 818.299 322.122 815.993 326.486V352.033C818.334 356.504 822.167 358.739 827.489 358.739C831.605 358.739 834.816 357.089 837.122 353.79C839.464 350.454 840.635 345.416 840.635 338.674ZM903.81 310.413L904.183 316.427C908.228 311.708 913.763 309.349 920.788 309.349C928.488 309.349 933.757 312.294 936.595 318.184C940.782 312.294 946.672 309.349 954.265 309.349C960.616 309.349 965.335 311.105 968.422 314.618C971.545 318.13 973.141 323.311 973.212 330.159V368H960.279V330.531C960.279 326.877 959.481 324.198 957.884 322.495C956.288 320.792 953.644 319.94 949.954 319.94C947.009 319.94 944.596 320.738 942.716 322.335C940.871 323.896 939.576 325.954 938.831 328.509L938.884 368H925.951V330.105C925.773 323.328 922.314 319.94 915.572 319.94C910.392 319.94 906.72 322.051 904.555 326.273V368H891.622V310.413H903.81ZM984.07 338.674C984.07 333.033 985.188 327.959 987.423 323.453C989.658 318.911 992.798 315.434 996.843 313.021C1000.89 310.573 1005.54 309.349 1010.79 309.349C1018.56 309.349 1024.86 311.85 1029.68 316.853C1034.54 321.856 1037.17 328.491 1037.56 336.758L1037.61 339.792C1037.61 345.469 1036.51 350.543 1034.31 355.014C1032.15 359.484 1029.03 362.944 1024.94 365.392C1020.9 367.84 1016.22 369.064 1010.89 369.064C1002.77 369.064 996.258 366.368 991.361 360.975C986.5 355.546 984.07 348.325 984.07 339.313V338.674ZM997.003 339.792C997.003 345.717 998.227 350.366 1000.68 353.736C1003.12 357.072 1006.53 358.739 1010.89 358.739C1015.26 358.739 1018.65 357.036 1021.06 353.63C1023.51 350.224 1024.73 345.238 1024.73 338.674C1024.73 332.855 1023.47 328.243 1020.95 324.836C1018.47 321.43 1015.08 319.727 1010.79 319.727C1006.57 319.727 1003.21 321.412 1000.73 324.783C998.245 328.118 997.003 333.121 997.003 339.792ZM1099.08 339.792C1099.08 348.733 1097.08 355.847 1093.07 361.134C1089.1 366.421 1083.61 369.064 1076.62 369.064C1069.88 369.064 1064.63 366.634 1060.87 361.773L1060.23 368H1048.52V286.25H1061.46V315.948C1065.18 311.549 1070.2 309.349 1076.52 309.349C1083.54 309.349 1089.06 311.957 1093.07 317.172C1097.08 322.388 1099.08 329.68 1099.08 339.047V339.792ZM1086.15 338.674C1086.15 332.43 1085.05 327.746 1082.85 324.624C1080.65 321.501 1077.46 319.94 1073.27 319.94C1067.66 319.94 1063.73 322.388 1061.46 327.285V351.022C1063.76 356.025 1067.74 358.526 1073.38 358.526C1077.42 358.526 1080.54 357.018 1082.74 354.002C1084.94 350.986 1086.08 346.427 1086.15 340.324V338.674ZM1123.73 368H1110.79V310.413H1123.73V368ZM1109.99 295.458C1109.99 293.471 1110.62 291.821 1111.86 290.508C1113.13 289.195 1114.94 288.539 1117.29 288.539C1119.63 288.539 1121.44 289.195 1122.71 290.508C1123.99 291.821 1124.63 293.471 1124.63 295.458C1124.63 297.409 1123.99 299.041 1122.71 300.354C1121.44 301.631 1119.63 302.27 1117.29 302.27C1114.94 302.27 1113.13 301.631 1111.86 300.354C1110.62 299.041 1109.99 297.409 1109.99 295.458ZM1151.61 368H1138.68V286.25H1151.61V368ZM1191.11 369.064C1182.91 369.064 1176.26 366.492 1171.15 361.347C1166.07 356.167 1163.54 349.283 1163.54 340.697V339.1C1163.54 333.352 1164.64 328.225 1166.84 323.719C1169.07 319.177 1172.19 315.647 1176.2 313.127C1180.21 310.608 1184.68 309.349 1189.62 309.349C1197.46 309.349 1203.51 311.85 1207.76 316.853C1212.06 321.856 1214.2 328.935 1214.2 338.089V343.305H1176.58C1176.97 348.059 1178.55 351.82 1181.31 354.588C1184.12 357.355 1187.63 358.739 1191.85 358.739C1197.78 358.739 1202.6 356.344 1206.33 351.554L1213.3 358.207C1210.99 361.649 1207.91 364.328 1204.04 366.244C1200.21 368.124 1195.9 369.064 1191.11 369.064ZM1189.56 319.727C1186.01 319.727 1183.14 320.969 1180.94 323.453C1178.78 325.936 1177.39 329.396 1176.79 333.831H1201.43V332.873C1201.15 328.544 1199.99 325.28 1197.97 323.08C1195.95 320.845 1193.15 319.727 1189.56 319.727Z" fill="#1C43CD"/>
</g>
<defs>
<filter id="filter0_d_4_93" x="1560" y="861" width="383" height="415" filterUnits="userSpaceOnUse" color-interpolation-filters="sRGB">
<feFlood flood-opacity="0" result="BackgroundImageFix"/>
<feColorMatrix in="SourceAlpha" type="matrix" values="0 0 0 0 0 0 0 0 0 0 0 0 0 0 0 0 0 0 127 0" result="hardAlpha"/>
<feOffset dy="5"/>
<feGaussianBlur stdDeviation="2"/>
<feColorMatrix type="matrix" values="0 0 0 0 0 0 0 0 0 0 0 0 0 0 0 0 0 0 0.75 0"/>
<feBlend mode="normal" in2="BackgroundImageFix" result="effect1_dropShadow_4_93"/>
<feBlend mode="normal" in="SourceGraphic" in2="effect1_dropShadow_4_93" result="shape"/>
</filter>
<linearGradient id="paint0_linear_4_93" x1="852.5" y1="454" x2="852.5" y2="1266" gradientUnits="userSpaceOnUse">
<stop stop-color="#1D47DB"/>
<stop offset="1" stop-color="#131542"/>
</linearGradient>
<linearGradient id="paint1_linear_4_93" x1="1751.5" y1="454" x2="1751.5" y2="1266" gradientUnits="userSpaceOnUse">
<stop stop-color="#1D47DB"/>
<stop offset="1" stop-color="#131542"/>
</linearGradient>
<linearGradient id="paint2_linear_4_93" x1="1290.5" y1="454" x2="1290.5" y2="1266" gradientUnits="userSpaceOnUse">
<stop stop-color="#1D47DB"/>
<stop offset="1" stop-color="#131542"/>
</linearGradient>
<clipPath id="clip0_4_93">
<rect width="2605" height="994" fill="white"/>
</clipPath>
<clipPath id="clip1_4_93">
<rect x="1564" y="454" width="375" height="812" rx="8" fill="white"/>
</clipPath>
</defs>
</svg>
