<svg width="500" height="1080" viewBox="0 0 500 1080" fill="none" xmlns="http://www.w3.org/2000/svg">
<g clip-path="url(#clip0_104_163)">
<rect x="0.561523" width="498.768" height="1080" rx="10.6404" fill="url(#paint0_linear_104_163)"/>
<rect x="33.8127" y="804.68" width="432.266" height="71.8227" rx="9.31034" fill="white"/>
<path d="M208.435 846.707H214.013C213.87 847.361 213.638 847.976 213.319 848.55C213.016 849.125 212.625 849.636 212.146 850.082C211.667 850.529 211.093 850.88 210.422 851.136C209.768 851.375 209.026 851.495 208.196 851.495C207.015 851.495 205.945 851.216 204.988 850.657C204.03 850.098 203.264 849.324 202.689 848.335C202.131 847.345 201.851 846.204 201.851 844.911C201.851 843.602 202.131 842.461 202.689 841.488C203.264 840.498 204.03 839.724 204.988 839.165C205.945 838.607 207.015 838.327 208.196 838.327C209.473 838.327 210.582 838.583 211.523 839.094C212.465 839.588 213.199 840.283 213.726 841.176L215.162 839.86C214.684 839.078 214.093 838.423 213.391 837.897C212.705 837.37 211.922 836.971 211.045 836.699C210.183 836.428 209.233 836.292 208.196 836.292C206.983 836.292 205.857 836.508 204.82 836.939C203.783 837.354 202.881 837.952 202.115 838.734C201.349 839.501 200.75 840.41 200.319 841.464C199.904 842.517 199.697 843.666 199.697 844.911C199.697 846.156 199.904 847.305 200.319 848.359C200.75 849.412 201.349 850.33 202.115 851.112C202.881 851.878 203.783 852.477 204.82 852.907C205.857 853.322 206.983 853.53 208.196 853.53C209.473 853.53 210.606 853.299 211.595 852.836C212.601 852.357 213.447 851.71 214.133 850.896C214.819 850.082 215.338 849.157 215.689 848.119C216.04 847.066 216.216 845.957 216.216 844.792H208.435V846.707ZM223.36 853.53C224.541 853.53 225.562 853.299 226.424 852.836C227.302 852.357 228.028 851.655 228.603 850.729L227.046 849.747C226.647 850.418 226.161 850.92 225.586 851.256C225.012 851.575 224.349 851.734 223.599 851.734C222.849 851.734 222.21 851.575 221.684 851.256C221.157 850.936 220.758 850.473 220.487 849.867C220.215 849.26 220.08 848.526 220.08 847.664C220.096 846.819 220.239 846.108 220.511 845.534C220.798 844.943 221.197 844.496 221.708 844.193C222.234 843.874 222.865 843.714 223.599 843.714C224.221 843.714 224.764 843.85 225.227 844.121C225.69 844.392 226.049 844.768 226.304 845.246C226.576 845.725 226.711 846.292 226.711 846.946C226.711 847.058 226.687 847.202 226.639 847.377C226.592 847.537 226.544 847.656 226.496 847.736L227.262 846.635H219.361V848.263H228.77C228.77 848.231 228.77 848.159 228.77 848.047C228.786 847.92 228.794 847.8 228.794 847.688C228.794 846.523 228.587 845.518 228.172 844.672C227.757 843.826 227.158 843.179 226.376 842.733C225.61 842.27 224.684 842.038 223.599 842.038C222.514 842.038 221.556 842.278 220.726 842.757C219.912 843.235 219.274 843.906 218.811 844.768C218.364 845.629 218.14 846.635 218.14 847.784C218.14 848.917 218.356 849.915 218.787 850.777C219.234 851.639 219.848 852.317 220.63 852.812C221.428 853.291 222.338 853.53 223.36 853.53ZM233.335 842.278H231.419V853.291H233.335V842.278ZM236.662 844.385L237.716 842.804C237.428 842.501 237.109 842.302 236.758 842.206C236.423 842.094 236.056 842.038 235.657 842.038C235.146 842.038 234.643 842.238 234.149 842.637C233.654 843.036 233.247 843.579 232.928 844.265C232.624 844.935 232.473 845.709 232.473 846.587H233.335C233.335 846.06 233.382 845.59 233.478 845.175C233.59 844.76 233.781 844.432 234.053 844.193C234.324 843.954 234.699 843.834 235.178 843.834C235.497 843.834 235.761 843.882 235.968 843.978C236.176 844.057 236.407 844.193 236.662 844.385ZM240.487 849.891C240.487 849.492 240.583 849.149 240.775 848.861C240.966 848.574 241.254 848.351 241.637 848.191C242.036 848.032 242.546 847.952 243.169 847.952C243.839 847.952 244.47 848.039 245.06 848.215C245.651 848.375 246.225 848.646 246.784 849.029V847.904C246.672 847.76 246.457 847.577 246.137 847.353C245.818 847.114 245.387 846.906 244.845 846.731C244.318 846.539 243.656 846.443 242.858 846.443C241.501 846.443 240.44 846.771 239.673 847.425C238.923 848.063 238.548 848.917 238.548 849.987C238.548 850.737 238.724 851.375 239.075 851.902C239.426 852.429 239.889 852.836 240.463 853.123C241.054 853.394 241.684 853.53 242.355 853.53C242.961 853.53 243.568 853.418 244.174 853.195C244.797 852.971 245.316 852.628 245.73 852.165C246.161 851.702 246.377 851.12 246.377 850.418L245.994 848.981C245.994 849.556 245.85 850.066 245.563 850.513C245.292 850.944 244.916 851.279 244.438 851.519C243.975 851.758 243.448 851.878 242.858 851.878C242.395 851.878 241.98 851.806 241.613 851.663C241.262 851.503 240.982 851.272 240.775 850.968C240.583 850.665 240.487 850.306 240.487 849.891ZM240.2 844.815C240.376 844.688 240.615 844.536 240.918 844.361C241.222 844.185 241.589 844.033 242.02 843.906C242.467 843.778 242.961 843.714 243.504 843.714C243.839 843.714 244.158 843.746 244.462 843.81C244.765 843.874 245.028 843.978 245.252 844.121C245.491 844.265 245.675 844.464 245.802 844.72C245.93 844.959 245.994 845.27 245.994 845.653V853.291H247.909V845.39C247.909 844.672 247.726 844.065 247.358 843.571C247.007 843.076 246.505 842.701 245.85 842.445C245.212 842.174 244.462 842.038 243.6 842.038C242.578 842.038 241.7 842.19 240.966 842.493C240.248 842.796 239.681 843.1 239.266 843.403L240.2 844.815ZM253.067 842.278H251.152V853.291H253.067V842.278ZM256.395 844.385L257.448 842.804C257.161 842.501 256.842 842.302 256.491 842.206C256.155 842.094 255.788 842.038 255.389 842.038C254.879 842.038 254.376 842.238 253.881 842.637C253.386 843.036 252.979 843.579 252.66 844.265C252.357 844.935 252.205 845.709 252.205 846.587H253.067C253.067 846.06 253.115 845.59 253.211 845.175C253.322 844.76 253.514 844.432 253.785 844.193C254.057 843.954 254.432 843.834 254.911 843.834C255.23 843.834 255.493 843.882 255.701 843.978C255.908 844.057 256.139 844.193 256.395 844.385ZM266.536 834.617V853.291H268.451V834.617H266.536ZM272.053 837.729C272.053 838.08 272.181 838.391 272.436 838.663C272.708 838.918 273.019 839.046 273.37 839.046C273.737 839.046 274.048 838.918 274.304 838.663C274.559 838.391 274.687 838.08 274.687 837.729C274.687 837.362 274.559 837.051 274.304 836.795C274.048 836.54 273.737 836.412 273.37 836.412C273.019 836.412 272.708 836.54 272.436 836.795C272.181 837.051 272.053 837.362 272.053 837.729ZM272.412 842.278V853.291H274.328V842.278H272.412ZM285.335 846.587V853.291H287.25V846.348C287.25 845.023 286.907 843.978 286.221 843.211C285.55 842.429 284.633 842.038 283.468 842.038C282.749 842.038 282.111 842.198 281.552 842.517C281.01 842.836 280.555 843.331 280.188 844.001V842.278H278.272V853.291H280.188V846.587C280.188 846.044 280.299 845.566 280.523 845.151C280.762 844.736 281.089 844.416 281.504 844.193C281.935 843.954 282.43 843.834 282.989 843.834C283.755 843.834 284.337 844.065 284.736 844.528C285.135 844.991 285.335 845.677 285.335 846.587ZM290.731 834.617V853.291H292.646V834.617H290.731ZM296.716 842.278L291.928 846.826L297.195 853.291H299.589L294.322 846.826L299.11 842.278H296.716Z" fill="black"/>
<rect x="34.4778" y="717.562" width="430.936" height="70.4926" rx="8.64532" fill="white" fill-opacity="0.15" stroke="#14384D" stroke-width="1.33005"/>
<path d="M116.728 757.128C116.728 755.819 117.015 754.678 117.59 753.704C118.18 752.715 118.947 751.941 119.888 751.382C120.83 750.824 121.851 750.544 122.953 750.544C123.751 750.544 124.477 750.648 125.131 750.855C125.802 751.063 126.408 751.358 126.951 751.741C127.493 752.108 127.956 752.539 128.339 753.034V750.353C127.637 749.73 126.871 749.267 126.041 748.964C125.211 748.661 124.182 748.509 122.953 748.509C121.788 748.509 120.694 748.725 119.673 749.156C118.667 749.571 117.781 750.169 117.015 750.951C116.249 751.717 115.651 752.627 115.22 753.681C114.789 754.734 114.573 755.883 114.573 757.128C114.573 758.373 114.789 759.522 115.22 760.576C115.651 761.629 116.249 762.547 117.015 763.329C117.781 764.095 118.667 764.693 119.673 765.124C120.694 765.539 121.788 765.747 122.953 765.747C124.182 765.747 125.211 765.595 126.041 765.292C126.871 764.989 127.637 764.526 128.339 763.903V761.222C127.956 761.717 127.493 762.156 126.951 762.539C126.408 762.906 125.802 763.193 125.131 763.401C124.477 763.608 123.751 763.712 122.953 763.712C121.851 763.712 120.83 763.432 119.888 762.874C118.947 762.315 118.18 761.541 117.59 760.552C117.015 759.562 116.728 758.421 116.728 757.128ZM130.843 760.001C130.843 761.102 131.09 762.092 131.585 762.97C132.096 763.831 132.782 764.51 133.644 765.005C134.506 765.499 135.471 765.747 136.541 765.747C137.626 765.747 138.592 765.499 139.438 765.005C140.3 764.51 140.978 763.831 141.473 762.97C141.983 762.092 142.239 761.102 142.239 760.001C142.239 758.884 141.983 757.894 141.473 757.032C140.978 756.17 140.3 755.492 139.438 754.997C138.592 754.502 137.626 754.255 136.541 754.255C135.471 754.255 134.506 754.502 133.644 754.997C132.782 755.492 132.096 756.17 131.585 757.032C131.09 757.894 130.843 758.884 130.843 760.001ZM132.782 760.001C132.782 759.235 132.942 758.556 133.261 757.966C133.596 757.359 134.043 756.889 134.602 756.553C135.176 756.218 135.823 756.051 136.541 756.051C137.259 756.051 137.897 756.218 138.456 756.553C139.031 756.889 139.478 757.359 139.797 757.966C140.132 758.556 140.3 759.235 140.3 760.001C140.3 760.767 140.132 761.445 139.797 762.036C139.478 762.626 139.031 763.097 138.456 763.448C137.897 763.784 137.259 763.951 136.541 763.951C135.823 763.951 135.176 763.784 134.602 763.448C134.043 763.097 133.596 762.626 133.261 762.036C132.942 761.445 132.782 760.767 132.782 760.001ZM144.87 746.833V765.507H146.785V746.833H144.87ZM154.649 765.747C155.83 765.747 156.851 765.515 157.713 765.052C158.591 764.574 159.317 763.871 159.892 762.946L158.336 761.964C157.937 762.634 157.45 763.137 156.875 763.472C156.301 763.792 155.638 763.951 154.888 763.951C154.138 763.951 153.5 763.792 152.973 763.472C152.446 763.153 152.047 762.69 151.776 762.084C151.505 761.477 151.369 760.743 151.369 759.881C151.385 759.035 151.529 758.325 151.8 757.75C152.087 757.16 152.486 756.713 152.997 756.41C153.524 756.091 154.154 755.931 154.888 755.931C155.511 755.931 156.053 756.067 156.516 756.338C156.979 756.609 157.338 756.984 157.594 757.463C157.865 757.942 158.001 758.509 158.001 759.163C158.001 759.275 157.977 759.418 157.929 759.594C157.881 759.754 157.833 759.873 157.785 759.953L158.551 758.852H150.651V760.48H160.06C160.06 760.448 160.06 760.376 160.06 760.264C160.076 760.137 160.083 760.017 160.083 759.905C160.083 758.74 159.876 757.735 159.461 756.889C159.046 756.043 158.448 755.396 157.665 754.949C156.899 754.487 155.974 754.255 154.888 754.255C153.803 754.255 152.845 754.495 152.015 754.973C151.201 755.452 150.563 756.122 150.1 756.984C149.653 757.846 149.43 758.852 149.43 760.001C149.43 761.134 149.645 762.132 150.076 762.994C150.523 763.855 151.138 764.534 151.92 765.029C152.718 765.507 153.627 765.747 154.649 765.747ZM170.341 762.132L168.833 763.065C169.04 763.496 169.344 763.919 169.743 764.334C170.157 764.749 170.66 765.092 171.251 765.364C171.841 765.619 172.504 765.747 173.238 765.747C174.371 765.747 175.281 765.428 175.967 764.789C176.669 764.151 177.021 763.353 177.021 762.395C177.021 761.741 176.861 761.206 176.542 760.791C176.238 760.376 175.824 760.025 175.297 759.738C174.77 759.434 174.188 759.155 173.549 758.9C173.166 758.74 172.799 758.572 172.448 758.397C172.097 758.221 171.809 758.022 171.586 757.798C171.363 757.575 171.251 757.32 171.251 757.032C171.251 756.665 171.394 756.394 171.682 756.218C171.969 756.043 172.312 755.955 172.711 755.955C173.286 755.955 173.797 756.091 174.243 756.362C174.706 756.633 175.089 756.976 175.393 757.391L176.925 756.41C176.701 755.995 176.39 755.628 175.991 755.309C175.592 754.989 175.129 754.734 174.603 754.542C174.092 754.351 173.541 754.255 172.951 754.255C172.36 754.255 171.785 754.359 171.227 754.566C170.684 754.774 170.237 755.093 169.886 755.524C169.551 755.955 169.383 756.498 169.383 757.152C169.383 757.79 169.543 758.325 169.862 758.756C170.197 759.171 170.604 759.514 171.083 759.785C171.578 760.041 172.065 760.264 172.544 760.456C172.975 760.615 173.382 760.791 173.765 760.982C174.148 761.158 174.459 761.382 174.698 761.653C174.954 761.908 175.081 762.227 175.081 762.61C175.081 763.041 174.922 763.385 174.603 763.64C174.299 763.879 173.876 763.999 173.334 763.999C172.887 763.999 172.472 763.919 172.089 763.76C171.722 763.584 171.394 763.353 171.107 763.065C170.82 762.778 170.564 762.467 170.341 762.132ZM183.803 765.747C184.985 765.747 186.006 765.515 186.868 765.052C187.746 764.574 188.472 763.871 189.047 762.946L187.49 761.964C187.091 762.634 186.605 763.137 186.03 763.472C185.455 763.792 184.793 763.951 184.043 763.951C183.293 763.951 182.654 763.792 182.128 763.472C181.601 763.153 181.202 762.69 180.931 762.084C180.659 761.477 180.524 760.743 180.524 759.881C180.54 759.035 180.683 758.325 180.955 757.75C181.242 757.16 181.641 756.713 182.152 756.41C182.678 756.091 183.309 755.931 184.043 755.931C184.665 755.931 185.208 756.067 185.671 756.338C186.134 756.609 186.493 756.984 186.748 757.463C187.02 757.942 187.155 758.509 187.155 759.163C187.155 759.275 187.131 759.418 187.083 759.594C187.036 759.754 186.988 759.873 186.94 759.953L187.706 758.852H179.805V760.48H189.214C189.214 760.448 189.214 760.376 189.214 760.264C189.23 760.137 189.238 760.017 189.238 759.905C189.238 758.74 189.031 757.735 188.616 756.889C188.201 756.043 187.602 755.396 186.82 754.949C186.054 754.487 185.128 754.255 184.043 754.255C182.958 754.255 182 754.495 181.17 754.973C180.356 755.452 179.718 756.122 179.255 756.984C178.808 757.846 178.584 758.852 178.584 760.001C178.584 761.134 178.8 762.132 179.231 762.994C179.678 763.855 180.292 764.534 181.074 765.029C181.872 765.507 182.782 765.747 183.803 765.747ZM193.778 761.198V754.495H191.863V761.437C191.863 762.746 192.206 763.792 192.893 764.574C193.579 765.356 194.497 765.747 195.646 765.747C196.38 765.747 197.018 765.587 197.561 765.268C198.104 764.933 198.559 764.438 198.926 763.784V765.507H200.841V754.495H198.926V761.198C198.926 761.741 198.806 762.219 198.567 762.634C198.343 763.049 198.016 763.377 197.585 763.616C197.17 763.839 196.683 763.951 196.125 763.951C195.359 763.951 194.776 763.712 194.377 763.233C193.978 762.754 193.778 762.076 193.778 761.198ZM211.619 746.833V765.507H213.534V746.833H211.619ZM217.137 749.946C217.137 750.297 217.264 750.608 217.52 750.879C217.791 751.135 218.102 751.262 218.453 751.262C218.821 751.262 219.132 751.135 219.387 750.879C219.642 750.608 219.77 750.297 219.77 749.946C219.77 749.579 219.642 749.267 219.387 749.012C219.132 748.757 218.821 748.629 218.453 748.629C218.102 748.629 217.791 748.757 217.52 749.012C217.264 749.267 217.137 749.579 217.137 749.946ZM217.496 754.495V765.507H219.411V754.495H217.496ZM230.418 758.804V765.507H232.334V758.564C232.334 757.24 231.99 756.194 231.304 755.428C230.634 754.646 229.716 754.255 228.551 754.255C227.833 754.255 227.194 754.415 226.636 754.734C226.093 755.053 225.638 755.548 225.271 756.218V754.495H223.356V765.507H225.271V758.804C225.271 758.261 225.383 757.782 225.606 757.367C225.846 756.952 226.173 756.633 226.588 756.41C227.019 756.17 227.513 756.051 228.072 756.051C228.838 756.051 229.421 756.282 229.82 756.745C230.219 757.208 230.418 757.894 230.418 758.804ZM235.814 746.833V765.507H237.73V746.833H235.814ZM241.8 754.495L237.011 759.043L242.278 765.507H244.672L239.405 759.043L244.194 754.495H241.8ZM254.518 762.108C254.518 761.709 254.614 761.366 254.805 761.078C254.997 760.791 255.284 760.568 255.667 760.408C256.066 760.248 256.577 760.169 257.199 760.169C257.869 760.169 258.5 760.256 259.09 760.432C259.681 760.591 260.256 760.863 260.814 761.246V760.121C260.702 759.977 260.487 759.793 260.168 759.57C259.849 759.331 259.418 759.123 258.875 758.948C258.348 758.756 257.686 758.66 256.888 758.66C255.531 758.66 254.47 758.987 253.704 759.642C252.954 760.28 252.579 761.134 252.579 762.203C252.579 762.954 252.754 763.592 253.105 764.119C253.456 764.645 253.919 765.052 254.494 765.34C255.084 765.611 255.715 765.747 256.385 765.747C256.992 765.747 257.598 765.635 258.205 765.412C258.827 765.188 259.346 764.845 259.761 764.382C260.192 763.919 260.407 763.337 260.407 762.634L260.024 761.198C260.024 761.773 259.881 762.283 259.593 762.73C259.322 763.161 258.947 763.496 258.468 763.736C258.005 763.975 257.478 764.095 256.888 764.095C256.425 764.095 256.01 764.023 255.643 763.879C255.292 763.72 255.013 763.488 254.805 763.185C254.614 762.882 254.518 762.523 254.518 762.108ZM254.23 757.032C254.406 756.905 254.645 756.753 254.949 756.577C255.252 756.402 255.619 756.25 256.05 756.122C256.497 755.995 256.992 755.931 257.534 755.931C257.869 755.931 258.189 755.963 258.492 756.027C258.795 756.091 259.059 756.194 259.282 756.338C259.521 756.482 259.705 756.681 259.833 756.936C259.96 757.176 260.024 757.487 260.024 757.87V765.507H261.939V757.607C261.939 756.889 261.756 756.282 261.389 755.787C261.038 755.293 260.535 754.917 259.881 754.662C259.242 754.391 258.492 754.255 257.63 754.255C256.609 754.255 255.731 754.407 254.997 754.71C254.278 755.013 253.712 755.316 253.297 755.62L254.23 757.032ZM273.442 770.774H275.357V754.495H273.442V770.774ZM264.224 760.001C264.224 761.182 264.472 762.203 264.967 763.065C265.461 763.927 266.124 764.59 266.954 765.052C267.784 765.515 268.693 765.747 269.683 765.747C270.609 765.747 271.415 765.515 272.101 765.052C272.787 764.59 273.322 763.927 273.705 763.065C274.104 762.203 274.304 761.182 274.304 760.001C274.304 758.804 274.104 757.782 273.705 756.936C273.322 756.075 272.787 755.412 272.101 754.949C271.415 754.487 270.609 754.255 269.683 754.255C268.693 754.255 267.784 754.487 266.954 754.949C266.124 755.412 265.461 756.075 264.967 756.936C264.472 757.782 264.224 758.804 264.224 760.001ZM266.164 760.001C266.164 759.155 266.331 758.437 266.666 757.846C267.018 757.256 267.48 756.809 268.055 756.506C268.63 756.202 269.252 756.051 269.922 756.051C270.481 756.051 271.032 756.202 271.574 756.506C272.117 756.809 272.564 757.256 272.915 757.846C273.266 758.437 273.442 759.155 273.442 760.001C273.442 760.847 273.266 761.565 272.915 762.156C272.564 762.746 272.117 763.193 271.574 763.496C271.032 763.8 270.481 763.951 269.922 763.951C269.252 763.951 268.63 763.8 268.055 763.496C267.48 763.193 267.018 762.746 266.666 762.156C266.331 761.565 266.164 760.847 266.164 760.001ZM280.751 761.198V754.495H278.836V761.437C278.836 762.746 279.179 763.792 279.865 764.574C280.552 765.356 281.469 765.747 282.619 765.747C283.353 765.747 283.991 765.587 284.534 765.268C285.076 764.933 285.531 764.438 285.898 763.784V765.507H287.814V754.495H285.898V761.198C285.898 761.741 285.779 762.219 285.539 762.634C285.316 763.049 284.989 763.377 284.558 763.616C284.143 763.839 283.656 763.951 283.097 763.951C282.331 763.951 281.749 763.712 281.35 763.233C280.951 762.754 280.751 762.076 280.751 761.198ZM291.414 749.946C291.414 750.297 291.542 750.608 291.797 750.879C292.069 751.135 292.38 751.262 292.731 751.262C293.098 751.262 293.409 751.135 293.665 750.879C293.92 750.608 294.048 750.297 294.048 749.946C294.048 749.579 293.92 749.267 293.665 749.012C293.409 748.757 293.098 748.629 292.731 748.629C292.38 748.629 292.069 748.757 291.797 749.012C291.542 749.267 291.414 749.579 291.414 749.946ZM291.773 754.495V765.507H293.689V754.495H291.773ZM298.112 764.55C298.112 764.901 298.24 765.212 298.495 765.483C298.766 765.739 299.078 765.866 299.429 765.866C299.796 765.866 300.107 765.739 300.363 765.483C300.618 765.212 300.746 764.901 300.746 764.55C300.746 764.183 300.618 763.871 300.363 763.616C300.107 763.361 299.796 763.233 299.429 763.233C299.078 763.233 298.766 763.361 298.495 763.616C298.24 763.871 298.112 764.183 298.112 764.55ZM305.29 764.55C305.29 764.901 305.417 765.212 305.673 765.483C305.944 765.739 306.255 765.866 306.606 765.866C306.973 765.866 307.285 765.739 307.54 765.483C307.795 765.212 307.923 764.901 307.923 764.55C307.923 764.183 307.795 763.871 307.54 763.616C307.285 763.361 306.973 763.233 306.606 763.233C306.255 763.233 305.944 763.361 305.673 763.616C305.417 763.871 305.29 764.183 305.29 764.55ZM312.467 764.55C312.467 764.901 312.595 765.212 312.85 765.483C313.122 765.739 313.433 765.866 313.784 765.866C314.151 765.866 314.462 765.739 314.718 765.483C314.973 765.212 315.101 764.901 315.101 764.55C315.101 764.183 314.973 763.871 314.718 763.616C314.462 763.361 314.151 763.233 313.784 763.233C313.433 763.233 313.122 763.361 312.85 763.616C312.595 763.871 312.467 764.183 312.467 764.55Z" fill="white"/>
<path d="M107.553 604.158V634.882H127.305V628.518H114.971V604.158H107.553ZM129.689 607.098C129.689 608.152 130.069 609.015 130.83 609.688C131.591 610.361 132.498 610.698 133.551 610.698C134.634 610.698 135.541 610.361 136.273 609.688C137.033 609.015 137.414 608.152 137.414 607.098C137.414 606.045 137.033 605.196 136.273 604.553C135.541 603.88 134.634 603.543 133.551 603.543C132.498 603.543 131.591 603.88 130.83 604.553C130.069 605.196 129.689 606.045 129.689 607.098ZM130.347 614.692V634.882H136.755V614.692H130.347ZM155.338 622.592V634.882H162.229V621.89C162.229 619.461 161.658 617.574 160.517 616.228C159.376 614.882 157.547 614.209 155.03 614.209C153.538 614.209 152.28 614.516 151.256 615.131C150.261 615.745 149.471 616.608 148.886 617.72V614.692H142.214V634.882H148.886V622.592C148.886 621.802 149.032 621.129 149.325 620.573C149.617 620.017 150.027 619.593 150.553 619.3C151.08 619.008 151.695 618.861 152.397 618.861C153.45 618.861 154.196 619.183 154.635 619.827C155.104 620.471 155.338 621.392 155.338 622.592ZM167.416 600.646V634.882H173.781V600.646H167.416ZM181.111 614.692L172.464 623.031L182.12 634.882H189.933L180.408 623.031L189.055 614.692H181.111ZM209.989 624.084L204.81 627.815C205.512 629.278 206.493 630.624 207.751 631.853C209.009 633.082 210.487 634.063 212.184 634.794C213.91 635.496 215.768 635.847 217.758 635.847C219.192 635.847 220.582 635.628 221.928 635.189C223.303 634.779 224.517 634.165 225.571 633.346C226.653 632.526 227.502 631.517 228.116 630.317C228.76 629.088 229.082 627.698 229.082 626.147C229.082 624.86 228.877 623.719 228.468 622.724C228.058 621.729 227.487 620.851 226.756 620.09C226.054 619.33 225.234 618.686 224.298 618.159C223.362 617.603 222.352 617.12 221.269 616.711C219.836 616.213 218.607 615.745 217.583 615.306C216.588 614.867 215.812 614.384 215.256 613.858C214.73 613.331 214.466 612.717 214.466 612.014C214.466 611.341 214.744 610.785 215.3 610.346C215.856 609.878 216.661 609.644 217.714 609.644C218.504 609.644 219.236 609.805 219.909 610.127C220.611 610.42 221.24 610.844 221.796 611.4C222.381 611.927 222.893 612.556 223.332 613.287L228.994 610.127C228.468 609.074 227.707 608.035 226.712 607.011C225.717 605.987 224.459 605.138 222.937 604.465C221.445 603.792 219.675 603.455 217.626 603.455C215.637 603.455 213.822 603.807 212.184 604.509C210.574 605.182 209.287 606.177 208.321 607.493C207.385 608.81 206.917 610.376 206.917 612.19C206.917 613.711 207.195 615.014 207.751 616.096C208.307 617.15 209.009 618.057 209.858 618.818C210.706 619.549 211.599 620.149 212.535 620.617C213.501 621.085 214.349 621.451 215.081 621.714C216.573 622.27 217.773 622.768 218.68 623.207C219.587 623.646 220.245 624.114 220.655 624.611C221.065 625.079 221.269 625.708 221.269 626.499C221.269 627.435 220.918 628.181 220.216 628.737C219.514 629.264 218.621 629.527 217.539 629.527C216.514 629.527 215.534 629.308 214.598 628.869C213.691 628.43 212.842 627.801 212.052 626.981C211.291 626.162 210.604 625.196 209.989 624.084ZM240.055 600.646H233.383V634.882H240.055V600.646ZM246.507 622.592V634.882H253.135V621.627C253.135 619.959 252.901 618.554 252.432 617.413C251.964 616.272 251.218 615.409 250.194 614.823C249.199 614.238 247.868 613.946 246.2 613.946C244.532 613.946 243.157 614.341 242.074 615.131C241.021 615.891 240.231 616.93 239.704 618.247C239.177 619.534 238.914 620.983 238.914 622.592H240.055C240.055 621.802 240.201 621.144 240.494 620.617C240.787 620.061 241.196 619.637 241.723 619.344C242.25 619.022 242.864 618.861 243.566 618.861C244.649 618.861 245.41 619.183 245.849 619.827C246.288 620.471 246.507 621.392 246.507 622.592ZM257.187 624.787C257.187 626.894 257.685 628.737 258.68 630.317C259.675 631.897 261.05 633.126 262.806 634.004C264.561 634.882 266.536 635.321 268.731 635.321C270.926 635.321 272.886 634.882 274.612 634.004C276.368 633.126 277.743 631.897 278.738 630.317C279.762 628.737 280.274 626.894 280.274 624.787C280.274 622.651 279.762 620.793 278.738 619.213C277.743 617.632 276.368 616.403 274.612 615.526C272.886 614.648 270.926 614.209 268.731 614.209C266.536 614.209 264.561 614.648 262.806 615.526C261.05 616.403 259.675 617.632 258.68 619.213C257.685 620.793 257.187 622.651 257.187 624.787ZM263.991 624.787C263.991 623.733 264.21 622.826 264.649 622.065C265.088 621.305 265.659 620.719 266.361 620.31C267.063 619.9 267.853 619.695 268.731 619.695C269.58 619.695 270.355 619.9 271.057 620.31C271.789 620.719 272.359 621.305 272.769 622.065C273.208 622.826 273.427 623.733 273.427 624.787C273.427 625.84 273.208 626.747 272.769 627.508C272.359 628.24 271.789 628.81 271.057 629.22C270.355 629.629 269.58 629.834 268.731 629.834C267.853 629.834 267.063 629.629 266.361 629.22C265.659 628.81 265.088 628.24 264.649 627.508C264.21 626.747 263.991 625.84 263.991 624.787ZM290.802 614.692H284.262V634.882H290.802V614.692ZM296.639 621.539L299.492 615.877C299.141 615.35 298.629 614.94 297.956 614.648C297.283 614.355 296.581 614.209 295.849 614.209C294.737 614.209 293.669 614.575 292.645 615.306C291.621 616.038 290.787 617.033 290.143 618.291C289.529 619.549 289.222 620.983 289.222 622.592L290.802 624.918C290.802 623.953 290.933 623.134 291.197 622.461C291.46 621.788 291.84 621.275 292.338 620.924C292.835 620.573 293.406 620.398 294.05 620.398C294.635 620.398 295.118 620.5 295.498 620.705C295.908 620.91 296.288 621.188 296.639 621.539ZM299.937 614.692V620.178H313.456V614.692H299.937ZM303.492 607.669V634.882H309.856V607.669H303.492ZM326.551 635.321C329.126 635.321 331.306 634.823 333.091 633.828C334.905 632.834 336.339 631.341 337.392 629.351L331.467 627.903C330.969 628.781 330.296 629.439 329.448 629.878C328.629 630.317 327.634 630.537 326.463 630.537C325.439 630.537 324.576 630.317 323.874 629.878C323.171 629.41 322.645 628.737 322.294 627.859C321.942 626.981 321.767 625.928 321.767 624.699C321.796 623.353 321.972 622.241 322.294 621.363C322.645 620.456 323.157 619.783 323.83 619.344C324.503 618.905 325.337 618.686 326.332 618.686C327.122 618.686 327.809 618.861 328.394 619.213C328.98 619.564 329.433 620.061 329.755 620.705C330.077 621.349 330.238 622.109 330.238 622.987C330.238 623.192 330.179 623.455 330.062 623.777C329.975 624.07 329.857 624.319 329.711 624.523L331.291 622.504H318.826V626.191H337.261C337.319 625.986 337.348 625.738 337.348 625.445C337.348 625.123 337.348 624.801 337.348 624.48C337.348 622.314 336.924 620.471 336.075 618.949C335.227 617.428 333.998 616.272 332.389 615.482C330.779 614.662 328.804 614.253 326.463 614.253C324.122 614.253 322.089 614.677 320.362 615.526C318.665 616.374 317.363 617.589 316.456 619.169C315.549 620.749 315.095 622.621 315.095 624.787C315.095 626.923 315.563 628.781 316.5 630.361C317.436 631.941 318.753 633.17 320.45 634.048C322.176 634.896 324.21 635.321 326.551 635.321ZM354.564 622.592V634.882H361.455V621.89C361.455 619.461 360.885 617.574 359.744 616.228C358.603 614.882 356.774 614.209 354.257 614.209C352.765 614.209 351.507 614.516 350.483 615.131C349.488 615.745 348.698 616.608 348.112 617.72V614.692H341.441V634.882H348.112V622.592C348.112 621.802 348.259 621.129 348.551 620.573C348.844 620.017 349.254 619.593 349.78 619.3C350.307 619.008 350.921 618.861 351.624 618.861C352.677 618.861 353.423 619.183 353.862 619.827C354.33 620.471 354.564 621.392 354.564 622.592ZM376.958 635.321C379.533 635.321 381.713 634.823 383.498 633.828C385.312 632.834 386.746 631.341 387.799 629.351L381.874 627.903C381.376 628.781 380.703 629.439 379.855 629.878C379.035 630.317 378.04 630.537 376.87 630.537C375.846 630.537 374.983 630.317 374.28 629.878C373.578 629.41 373.051 628.737 372.7 627.859C372.349 626.981 372.174 625.928 372.174 624.699C372.203 623.353 372.378 622.241 372.7 621.363C373.051 620.456 373.563 619.783 374.236 619.344C374.91 618.905 375.743 618.686 376.738 618.686C377.528 618.686 378.216 618.861 378.801 619.213C379.386 619.564 379.84 620.061 380.162 620.705C380.484 621.349 380.645 622.109 380.645 622.987C380.645 623.192 380.586 623.455 380.469 623.777C380.381 624.07 380.264 624.319 380.118 624.523L381.698 622.504H369.233V626.191H387.667C387.726 625.986 387.755 625.738 387.755 625.445C387.755 625.123 387.755 624.801 387.755 624.48C387.755 622.314 387.331 620.471 386.482 618.949C385.634 617.428 384.405 616.272 382.795 615.482C381.186 614.662 379.211 614.253 376.87 614.253C374.529 614.253 372.495 614.677 370.769 615.526C369.072 616.374 367.77 617.589 366.863 619.169C365.956 620.749 365.502 622.621 365.502 624.787C365.502 626.923 365.97 628.781 366.907 630.361C367.843 631.941 369.16 633.17 370.857 634.048C372.583 634.896 374.617 635.321 376.958 635.321ZM398.388 614.692H391.848V634.882H398.388V614.692ZM404.225 621.539L407.078 615.877C406.727 615.35 406.215 614.94 405.542 614.648C404.869 614.355 404.167 614.209 403.435 614.209C402.323 614.209 401.255 614.575 400.231 615.306C399.207 616.038 398.373 617.033 397.729 618.291C397.115 619.549 396.807 620.983 396.807 622.592L398.388 624.918C398.388 623.953 398.519 623.134 398.783 622.461C399.046 621.788 399.426 621.275 399.924 620.924C400.421 620.573 400.992 620.398 401.635 620.398C402.221 620.398 402.704 620.5 403.084 620.705C403.494 620.91 403.874 621.188 404.225 621.539Z" fill="white"/>
<path d="M80.1782 671.153C80.1782 669.553 80.5293 668.158 81.2316 666.968C81.9534 665.759 82.8897 664.813 84.0407 664.13C85.1916 663.447 86.4401 663.106 87.7861 663.106C88.7615 663.106 89.649 663.233 90.4488 663.486C91.2682 663.74 92.0094 664.101 92.6727 664.569C93.3359 665.018 93.9017 665.544 94.3698 666.149V662.872C93.5115 662.111 92.5752 661.545 91.5608 661.175C90.5464 660.804 89.2882 660.619 87.7861 660.619C86.3621 660.619 85.0258 660.882 83.7773 661.409C82.5484 661.916 81.4657 662.647 80.5293 663.603C79.593 664.54 78.8615 665.652 78.3348 666.939C77.8081 668.227 77.5447 669.631 77.5447 671.153C77.5447 672.674 77.8081 674.079 78.3348 675.366C78.8615 676.654 79.593 677.775 80.5293 678.731C81.4657 679.668 82.5484 680.399 83.7773 680.926C85.0258 681.433 86.3621 681.687 87.7861 681.687C89.2882 681.687 90.5464 681.501 91.5608 681.131C92.5752 680.76 93.5115 680.194 94.3698 679.434V676.156C93.9017 676.761 93.3359 677.297 92.6727 677.766C92.0094 678.214 91.2682 678.565 90.4488 678.819C89.649 679.073 88.7615 679.199 87.7861 679.199C86.4401 679.199 85.1916 678.858 84.0407 678.175C82.8897 677.493 81.9534 676.546 81.2316 675.337C80.5293 674.128 80.1782 672.733 80.1782 671.153ZM97.4297 674.664C97.4297 676.01 97.732 677.219 98.3368 678.292C98.961 679.346 99.7998 680.175 100.853 680.78C101.907 681.384 103.087 681.687 104.394 681.687C105.72 681.687 106.901 681.384 107.934 680.78C108.988 680.175 109.817 679.346 110.422 678.292C111.046 677.219 111.358 676.01 111.358 674.664C111.358 673.298 111.046 672.089 110.422 671.036C109.817 669.982 108.988 669.153 107.934 668.548C106.901 667.944 105.72 667.641 104.394 667.641C103.087 667.641 101.907 667.944 100.853 668.548C99.7998 669.153 98.961 669.982 98.3368 671.036C97.732 672.089 97.4297 673.298 97.4297 674.664ZM99.7998 674.664C99.7998 673.728 99.9949 672.899 100.385 672.177C100.795 671.436 101.341 670.86 102.024 670.45C102.726 670.041 103.516 669.836 104.394 669.836C105.272 669.836 106.052 670.041 106.735 670.45C107.437 670.86 107.983 671.436 108.373 672.177C108.783 672.899 108.988 673.728 108.988 674.664C108.988 675.6 108.783 676.429 108.373 677.151C107.983 677.873 107.437 678.448 106.735 678.878C106.052 679.287 105.272 679.492 104.394 679.492C103.516 679.492 102.726 679.287 102.024 678.878C101.341 678.448 100.795 677.873 100.385 677.151C99.9949 676.429 99.7998 675.6 99.7998 674.664ZM114.574 658.57V681.394H116.915V658.57H114.574ZM126.526 681.687C127.969 681.687 129.218 681.404 130.271 680.838C131.344 680.253 132.232 679.395 132.934 678.263L131.032 677.063C130.544 677.883 129.949 678.497 129.247 678.907C128.545 679.297 127.735 679.492 126.819 679.492C125.902 679.492 125.121 679.297 124.478 678.907C123.834 678.517 123.346 677.951 123.015 677.21C122.683 676.468 122.517 675.571 122.517 674.518C122.537 673.484 122.712 672.616 123.044 671.913C123.395 671.192 123.883 670.645 124.507 670.275C125.151 669.885 125.921 669.69 126.819 669.69C127.579 669.69 128.243 669.855 128.808 670.187C129.374 670.519 129.813 670.977 130.125 671.562C130.457 672.148 130.622 672.84 130.622 673.64C130.622 673.776 130.593 673.952 130.535 674.167C130.476 674.362 130.418 674.508 130.359 674.605L131.295 673.259H121.639V675.249H133.139C133.139 675.21 133.139 675.122 133.139 674.986C133.158 674.83 133.168 674.684 133.168 674.547C133.168 673.123 132.915 671.894 132.407 670.86C131.9 669.826 131.169 669.036 130.213 668.49C129.276 667.924 128.145 667.641 126.819 667.641C125.492 667.641 124.322 667.934 123.307 668.519C122.312 669.104 121.532 669.924 120.966 670.977C120.42 672.03 120.147 673.259 120.147 674.664C120.147 676.049 120.41 677.268 120.937 678.322C121.483 679.375 122.234 680.204 123.19 680.809C124.166 681.394 125.277 681.687 126.526 681.687ZM145.705 677.268L143.862 678.409C144.115 678.936 144.486 679.453 144.974 679.96C145.481 680.467 146.095 680.887 146.817 681.218C147.539 681.531 148.348 681.687 149.246 681.687C150.631 681.687 151.743 681.297 152.582 680.516C153.44 679.736 153.869 678.761 153.869 677.59C153.869 676.79 153.674 676.137 153.284 675.63C152.913 675.122 152.406 674.693 151.762 674.342C151.119 673.971 150.406 673.63 149.626 673.318C149.158 673.123 148.709 672.918 148.28 672.704C147.851 672.489 147.5 672.245 147.227 671.972C146.954 671.699 146.817 671.387 146.817 671.036C146.817 670.587 146.993 670.255 147.344 670.041C147.695 669.826 148.114 669.719 148.602 669.719C149.304 669.719 149.929 669.885 150.475 670.216C151.04 670.548 151.509 670.967 151.879 671.475L153.752 670.275C153.479 669.768 153.099 669.319 152.611 668.929C152.123 668.539 151.557 668.227 150.914 667.992C150.289 667.758 149.616 667.641 148.895 667.641C148.173 667.641 147.471 667.768 146.788 668.022C146.125 668.275 145.578 668.665 145.149 669.192C144.74 669.719 144.535 670.382 144.535 671.182C144.535 671.962 144.73 672.616 145.12 673.142C145.53 673.65 146.027 674.069 146.612 674.401C147.217 674.713 147.812 674.986 148.397 675.22C148.924 675.415 149.421 675.63 149.89 675.864C150.358 676.078 150.738 676.351 151.031 676.683C151.343 676.995 151.499 677.385 151.499 677.853C151.499 678.38 151.304 678.8 150.914 679.112C150.543 679.404 150.026 679.551 149.363 679.551C148.817 679.551 148.309 679.453 147.841 679.258C147.393 679.043 146.993 678.761 146.642 678.409C146.29 678.058 145.978 677.678 145.705 677.268ZM162.159 681.687C163.603 681.687 164.851 681.404 165.905 680.838C166.978 680.253 167.865 679.395 168.567 678.263L166.666 677.063C166.178 677.883 165.583 678.497 164.881 678.907C164.178 679.297 163.369 679.492 162.452 679.492C161.535 679.492 160.755 679.297 160.111 678.907C159.467 678.517 158.98 677.951 158.648 677.21C158.316 676.468 158.151 675.571 158.151 674.518C158.17 673.484 158.346 672.616 158.677 671.913C159.028 671.192 159.516 670.645 160.14 670.275C160.784 669.885 161.555 669.69 162.452 669.69C163.213 669.69 163.876 669.855 164.442 670.187C165.007 670.519 165.446 670.977 165.758 671.562C166.09 672.148 166.256 672.84 166.256 673.64C166.256 673.776 166.227 673.952 166.168 674.167C166.11 674.362 166.051 674.508 165.993 674.605L166.929 673.259H157.273V675.249H168.772C168.772 675.21 168.772 675.122 168.772 674.986C168.792 674.83 168.802 674.684 168.802 674.547C168.802 673.123 168.548 671.894 168.041 670.86C167.534 669.826 166.802 669.036 165.846 668.49C164.91 667.924 163.778 667.641 162.452 667.641C161.125 667.641 159.955 667.934 158.941 668.519C157.946 669.104 157.165 669.924 156.6 670.977C156.053 672.03 155.78 673.259 155.78 674.664C155.78 676.049 156.044 677.268 156.57 678.322C157.117 679.375 157.868 680.204 158.824 680.809C159.799 681.394 160.911 681.687 162.159 681.687ZM174.351 676.127V667.934H172.01V676.42C172.01 678.019 172.429 679.297 173.268 680.253C174.107 681.209 175.229 681.687 176.633 681.687C177.531 681.687 178.311 681.492 178.974 681.101C179.637 680.692 180.193 680.087 180.642 679.287V681.394H182.983V667.934H180.642V676.127C180.642 676.79 180.496 677.376 180.203 677.883C179.93 678.39 179.53 678.79 179.003 679.082C178.496 679.356 177.901 679.492 177.218 679.492C176.282 679.492 175.57 679.199 175.082 678.614C174.595 678.029 174.351 677.2 174.351 676.127ZM196.156 658.57V681.394H198.497V658.57H196.156ZM202.9 662.374C202.9 662.804 203.056 663.184 203.368 663.516C203.7 663.828 204.08 663.984 204.509 663.984C204.958 663.984 205.338 663.828 205.65 663.516C205.963 663.184 206.119 662.804 206.119 662.374C206.119 661.926 205.963 661.545 205.65 661.233C205.338 660.921 204.958 660.765 204.509 660.765C204.08 660.765 203.7 660.921 203.368 661.233C203.056 661.545 202.9 661.926 202.9 662.374ZM203.339 667.934V681.394H205.68V667.934H203.339ZM219.133 673.201V681.394H221.474V672.908C221.474 671.289 221.054 670.011 220.216 669.075C219.396 668.119 218.275 667.641 216.851 667.641C215.973 667.641 215.192 667.836 214.51 668.227C213.846 668.617 213.29 669.221 212.842 670.041V667.934H210.501V681.394H212.842V673.201C212.842 672.538 212.978 671.952 213.251 671.445C213.544 670.938 213.944 670.548 214.451 670.275C214.978 669.982 215.583 669.836 216.265 669.836C217.202 669.836 217.914 670.119 218.401 670.684C218.889 671.25 219.133 672.089 219.133 673.201ZM225.728 658.57V681.394H228.069V658.57H225.728ZM233.043 667.934L227.191 673.494L233.629 681.394H236.555L230.117 673.494L235.969 667.934H233.043ZM249.729 687.831V667.934H247.388V687.831H249.729ZM260.995 674.664C260.995 673.201 260.692 671.952 260.087 670.919C259.483 669.865 258.673 669.056 257.659 668.49C256.664 667.924 255.552 667.641 254.323 667.641C253.211 667.641 252.226 667.924 251.368 668.49C250.529 669.056 249.866 669.865 249.378 670.919C248.91 671.952 248.676 673.201 248.676 674.664C248.676 676.108 248.91 677.356 249.378 678.409C249.866 679.463 250.529 680.272 251.368 680.838C252.226 681.404 253.211 681.687 254.323 681.687C255.552 681.687 256.664 681.404 257.659 680.838C258.673 680.272 259.483 679.463 260.087 678.409C260.692 677.356 260.995 676.108 260.995 674.664ZM258.624 674.664C258.624 675.698 258.41 676.576 257.981 677.297C257.571 678.019 257.015 678.565 256.313 678.936C255.63 679.307 254.869 679.492 254.03 679.492C253.348 679.492 252.675 679.307 252.011 678.936C251.348 678.565 250.802 678.019 250.373 677.297C249.944 676.576 249.729 675.698 249.729 674.664C249.729 673.63 249.944 672.752 250.373 672.03C250.802 671.309 251.348 670.763 252.011 670.392C252.675 670.021 253.348 669.836 254.03 669.836C254.869 669.836 255.63 670.021 256.313 670.392C257.015 670.763 257.571 671.309 257.981 672.03C258.41 672.752 258.624 673.63 258.624 674.664ZM265.276 677.239C265.276 676.751 265.393 676.332 265.627 675.981C265.861 675.63 266.212 675.357 266.68 675.161C267.168 674.966 267.792 674.869 268.553 674.869C269.372 674.869 270.143 674.976 270.865 675.191C271.586 675.386 272.289 675.717 272.971 676.186V674.81C272.835 674.635 272.572 674.41 272.181 674.137C271.791 673.845 271.265 673.591 270.601 673.377C269.958 673.142 269.148 673.025 268.173 673.025C266.515 673.025 265.217 673.425 264.281 674.225C263.364 675.005 262.906 676.049 262.906 677.356C262.906 678.273 263.12 679.053 263.549 679.697C263.979 680.341 264.544 680.838 265.247 681.189C265.968 681.521 266.739 681.687 267.558 681.687C268.299 681.687 269.041 681.55 269.782 681.277C270.543 681.004 271.177 680.584 271.684 680.019C272.211 679.453 272.474 678.741 272.474 677.883L272.006 676.127C272.006 676.829 271.83 677.454 271.479 678C271.148 678.526 270.689 678.936 270.104 679.229C269.538 679.521 268.894 679.668 268.173 679.668C267.607 679.668 267.1 679.58 266.651 679.404C266.222 679.209 265.881 678.926 265.627 678.556C265.393 678.185 265.276 677.746 265.276 677.239ZM264.925 671.036C265.139 670.88 265.432 670.694 265.803 670.48C266.173 670.265 266.622 670.08 267.149 669.924C267.695 669.768 268.299 669.69 268.963 669.69C269.372 669.69 269.763 669.729 270.133 669.807C270.504 669.885 270.826 670.011 271.099 670.187C271.391 670.363 271.616 670.606 271.772 670.919C271.928 671.211 272.006 671.592 272.006 672.06V681.394H274.347V671.738C274.347 670.86 274.122 670.119 273.674 669.514C273.245 668.909 272.63 668.451 271.83 668.139C271.05 667.807 270.133 667.641 269.08 667.641C267.831 667.641 266.758 667.827 265.861 668.197C264.983 668.568 264.291 668.939 263.783 669.309L264.925 671.036ZM280.651 667.934H278.31V681.394H280.651V667.934ZM284.718 670.509L286.006 668.578C285.655 668.207 285.264 667.963 284.835 667.846C284.426 667.71 283.977 667.641 283.489 667.641C282.865 667.641 282.251 667.885 281.646 668.373C281.041 668.861 280.544 669.524 280.153 670.363C279.783 671.182 279.598 672.128 279.598 673.201H280.651C280.651 672.557 280.709 671.982 280.826 671.475C280.963 670.967 281.197 670.567 281.529 670.275C281.86 669.982 282.319 669.836 282.904 669.836C283.294 669.836 283.616 669.894 283.87 670.011C284.123 670.109 284.406 670.275 284.718 670.509ZM289.393 677.239C289.393 676.751 289.51 676.332 289.744 675.981C289.979 675.63 290.33 675.357 290.798 675.161C291.286 674.966 291.91 674.869 292.671 674.869C293.49 674.869 294.26 674.976 294.982 675.191C295.704 675.386 296.406 675.717 297.089 676.186V674.81C296.952 674.635 296.689 674.41 296.299 674.137C295.909 673.845 295.382 673.591 294.719 673.377C294.075 673.142 293.266 673.025 292.29 673.025C290.632 673.025 289.335 673.425 288.398 674.225C287.482 675.005 287.023 676.049 287.023 677.356C287.023 678.273 287.238 679.053 287.667 679.697C288.096 680.341 288.662 680.838 289.364 681.189C290.086 681.521 290.856 681.687 291.676 681.687C292.417 681.687 293.158 681.55 293.9 681.277C294.66 681.004 295.294 680.584 295.802 680.019C296.328 679.453 296.592 678.741 296.592 677.883L296.123 676.127C296.123 676.829 295.948 677.454 295.597 678C295.265 678.526 294.807 678.936 294.221 679.229C293.656 679.521 293.012 679.668 292.29 679.668C291.724 679.668 291.217 679.58 290.769 679.404C290.339 679.209 289.998 678.926 289.744 678.556C289.51 678.185 289.393 677.746 289.393 677.239ZM289.042 671.036C289.257 670.88 289.549 670.694 289.92 670.48C290.291 670.265 290.739 670.08 291.266 669.924C291.812 669.768 292.417 669.69 293.08 669.69C293.49 669.69 293.88 669.729 294.251 669.807C294.621 669.885 294.943 670.011 295.216 670.187C295.509 670.363 295.733 670.606 295.889 670.919C296.045 671.211 296.123 671.592 296.123 672.06V681.394H298.464V671.738C298.464 670.86 298.24 670.119 297.791 669.514C297.362 668.909 296.748 668.451 295.948 668.139C295.168 667.807 294.251 667.641 293.197 667.641C291.949 667.641 290.876 667.827 289.979 668.197C289.101 668.568 288.408 668.939 287.901 669.309L289.042 671.036ZM316.409 681.687C317.852 681.687 319.101 681.404 320.154 680.838C321.227 680.253 322.115 679.395 322.817 678.263L320.915 677.063C320.427 677.883 319.832 678.497 319.13 678.907C318.428 679.297 317.618 679.492 316.701 679.492C315.784 679.492 315.004 679.297 314.36 678.907C313.717 678.517 313.229 677.951 312.897 677.21C312.566 676.468 312.4 675.571 312.4 674.518C312.419 673.484 312.595 672.616 312.927 671.913C313.278 671.192 313.765 670.645 314.39 670.275C315.033 669.885 315.804 669.69 316.701 669.69C317.462 669.69 318.125 669.855 318.691 670.187C319.257 670.519 319.696 670.977 320.008 671.562C320.339 672.148 320.505 672.84 320.505 673.64C320.505 673.776 320.476 673.952 320.417 674.167C320.359 674.362 320.3 674.508 320.242 674.605L321.178 673.259H311.522V675.249H323.022C323.022 675.21 323.022 675.122 323.022 674.986C323.041 674.83 323.051 674.684 323.051 674.547C323.051 673.123 322.797 671.894 322.29 670.86C321.783 669.826 321.051 669.036 320.096 668.49C319.159 667.924 318.028 667.641 316.701 667.641C315.375 667.641 314.204 667.934 313.19 668.519C312.195 669.104 311.415 669.924 310.849 670.977C310.303 672.03 310.03 673.259 310.03 674.664C310.03 676.049 310.293 677.268 310.82 678.322C311.366 679.375 312.117 680.204 313.073 680.809C314.048 681.394 315.16 681.687 316.409 681.687ZM334.891 673.201V681.394H337.232V672.908C337.232 671.289 336.813 670.011 335.974 669.075C335.155 668.119 334.033 667.641 332.609 667.641C331.731 667.641 330.951 667.836 330.268 668.227C329.605 668.617 329.049 669.221 328.6 670.041V667.934H326.259V681.394H328.6V673.201C328.6 672.538 328.737 671.952 329.01 671.445C329.302 670.938 329.702 670.548 330.21 670.275C330.736 669.982 331.341 669.836 332.024 669.836C332.96 669.836 333.672 670.119 334.16 670.684C334.648 671.25 334.891 672.089 334.891 673.201ZM342.686 674.664C342.686 673.728 342.881 672.899 343.271 672.177C343.681 671.436 344.227 670.86 344.91 670.45C345.612 670.041 346.402 669.836 347.28 669.836C348.002 669.836 348.675 669.953 349.299 670.187C349.943 670.402 350.499 670.694 350.967 671.065C351.435 671.436 351.767 671.845 351.962 672.294V669.368C351.494 668.822 350.821 668.402 349.943 668.11C349.085 667.797 348.197 667.641 347.28 667.641C345.973 667.641 344.793 667.944 343.74 668.548C342.686 669.153 341.847 669.982 341.223 671.036C340.618 672.089 340.316 673.298 340.316 674.664C340.316 676.01 340.618 677.219 341.223 678.292C341.847 679.346 342.686 680.175 343.74 680.78C344.793 681.384 345.973 681.687 347.28 681.687C348.197 681.687 349.085 681.54 349.943 681.248C350.821 680.936 351.494 680.506 351.962 679.96V677.034C351.767 677.463 351.435 677.873 350.967 678.263C350.499 678.634 349.943 678.936 349.299 679.17C348.675 679.385 348.002 679.492 347.28 679.492C346.402 679.492 345.612 679.287 344.91 678.878C344.227 678.448 343.681 677.873 343.271 677.151C342.881 676.429 342.686 675.6 342.686 674.664ZM357.947 676.127V667.934H355.606V676.42C355.606 678.019 356.026 679.297 356.864 680.253C357.703 681.209 358.825 681.687 360.229 681.687C361.127 681.687 361.907 681.492 362.57 681.101C363.234 680.692 363.789 680.087 364.238 679.287V681.394H366.579V667.934H364.238V676.127C364.238 676.79 364.092 677.376 363.799 677.883C363.526 678.39 363.126 678.79 362.6 679.082C362.092 679.356 361.497 679.492 360.815 679.492C359.878 679.492 359.166 679.199 358.679 678.614C358.191 678.029 357.947 677.2 357.947 676.127ZM373.321 667.934H370.98V681.394H373.321V667.934ZM377.388 670.509L378.675 668.578C378.324 668.207 377.934 667.963 377.505 667.846C377.095 667.71 376.647 667.641 376.159 667.641C375.535 667.641 374.92 667.885 374.315 668.373C373.711 668.861 373.213 669.524 372.823 670.363C372.452 671.182 372.267 672.128 372.267 673.201H373.321C373.321 672.557 373.379 671.982 373.496 671.475C373.633 670.967 373.867 670.567 374.198 670.275C374.53 669.982 374.988 669.836 375.574 669.836C375.964 669.836 376.286 669.894 376.539 670.011C376.793 670.109 377.076 670.275 377.388 670.509ZM378.961 667.934V670.129H385.691V667.934H378.961ZM381.156 663.252V681.394H383.497V663.252H381.156ZM389.092 677.239C389.092 676.751 389.21 676.332 389.444 675.981C389.678 675.63 390.029 675.357 390.497 675.161C390.985 674.966 391.609 674.869 392.37 674.869C393.189 674.869 393.96 674.976 394.681 675.191C395.403 675.386 396.105 675.717 396.788 676.186V674.81C396.652 674.635 396.388 674.41 395.998 674.137C395.608 673.845 395.081 673.591 394.418 673.377C393.774 673.142 392.965 673.025 391.989 673.025C390.331 673.025 389.034 673.425 388.098 674.225C387.181 675.005 386.722 676.049 386.722 677.356C386.722 678.273 386.937 679.053 387.366 679.697C387.795 680.341 388.361 680.838 389.063 681.189C389.785 681.521 390.556 681.687 391.375 681.687C392.116 681.687 392.857 681.55 393.599 681.277C394.359 681.004 394.993 680.584 395.501 680.019C396.027 679.453 396.291 678.741 396.291 677.883L395.823 676.127C395.823 676.829 395.647 677.454 395.296 678C394.964 678.526 394.506 678.936 393.921 679.229C393.355 679.521 392.711 679.668 391.989 679.668C391.424 679.668 390.916 679.58 390.468 679.404C390.039 679.209 389.697 678.926 389.444 678.556C389.21 678.185 389.092 677.746 389.092 677.239ZM388.741 671.036C388.956 670.88 389.249 670.694 389.619 670.48C389.99 670.265 390.439 670.08 390.965 669.924C391.511 669.768 392.116 669.69 392.779 669.69C393.189 669.69 393.579 669.729 393.95 669.807C394.32 669.885 394.642 670.011 394.915 670.187C395.208 670.363 395.432 670.606 395.588 670.919C395.745 671.211 395.823 671.592 395.823 672.06V681.394H398.163V671.738C398.163 670.86 397.939 670.119 397.49 669.514C397.061 668.909 396.447 668.451 395.647 668.139C394.867 667.807 393.95 667.641 392.896 667.641C391.648 667.641 390.575 667.827 389.678 668.197C388.8 668.568 388.107 668.939 387.6 669.309L388.741 671.036ZM404.468 667.934H402.127V681.394H404.468V667.934ZM408.535 670.509L409.822 668.578C409.471 668.207 409.081 667.963 408.652 667.846C408.242 667.71 407.794 667.641 407.306 667.641C406.682 667.641 406.067 667.885 405.462 668.373C404.858 668.861 404.36 669.524 403.97 670.363C403.6 671.182 403.414 672.128 403.414 673.201H404.468C404.468 672.557 404.526 671.982 404.643 671.475C404.78 670.967 405.014 670.567 405.345 670.275C405.677 669.982 406.135 669.836 406.721 669.836C407.111 669.836 407.433 669.894 407.686 670.011C407.94 670.109 408.223 670.275 408.535 670.509Z" fill="white"/>
<path d="M165.393 415.364L231.477 399.509L212.166 464.667L165.393 415.364Z" fill="white"/>
<rect x="130.906" y="227.181" width="224.778" height="206.158" rx="29.2611" transform="rotate(-3.66624 130.906 227.181)" fill="white"/>
<path d="M165.393 415.364L231.477 399.509L212.166 464.667L165.393 415.364Z" fill="white"/>
<rect x="130.906" y="227.181" width="224.778" height="206.158" rx="29.2611" transform="rotate(-3.66624 130.906 227.181)" fill="white"/>
<path d="M202.197 384.865C206.67 384.877 211.102 384.002 215.235 382.29C219.368 380.578 223.12 378.064 226.275 374.892L238.041 363.126C238.4 362.77 238.685 362.346 238.88 361.88C239.075 361.413 239.176 360.913 239.177 360.407C239.179 359.901 239.08 359.4 238.887 358.933C238.694 358.466 238.41 358.041 238.053 357.683C237.695 357.326 237.27 357.042 236.803 356.849C236.336 356.656 235.835 356.557 235.329 356.559C234.823 356.56 234.323 356.661 233.856 356.856C233.39 357.051 232.966 357.336 232.61 357.695L220.843 369.461C215.898 374.407 209.191 377.185 202.198 377.185C195.204 377.185 188.497 374.407 183.552 369.462C178.607 364.517 175.828 357.81 175.828 350.817C175.828 343.823 178.606 337.116 183.551 332.171L217.948 297.778C222.898 292.856 229.598 290.098 236.578 290.108C243.559 290.118 250.25 292.895 255.186 297.831C260.122 302.767 262.899 309.459 262.909 316.439C262.919 323.42 260.16 330.119 255.238 335.069L248.902 341.405C248.197 342.129 247.805 343.1 247.812 344.11C247.818 345.12 248.222 346.087 248.936 346.802C249.651 347.516 250.617 347.92 251.627 347.926C252.637 347.933 253.609 347.541 254.333 346.836L260.669 340.499C263.848 337.342 266.373 333.587 268.099 329.452C269.825 325.316 270.717 320.881 270.725 316.399C270.732 311.918 269.855 307.48 268.144 303.338C266.433 299.196 263.921 295.433 260.752 292.265C257.583 289.096 253.82 286.584 249.679 284.873C245.537 283.161 241.099 282.284 236.617 282.292C232.136 282.3 227.701 283.192 223.565 284.918C219.429 286.643 215.675 289.168 212.517 292.348L178.12 326.74C173.359 331.502 170.116 337.569 168.802 344.174C167.488 350.779 168.163 357.625 170.74 363.847C173.317 370.068 177.681 375.386 183.281 379.127C188.881 382.868 195.464 384.865 202.198 384.865H202.197Z" fill="#083863"/>
<path d="M265.919 287.821L277.685 276.055C282.635 271.133 289.335 268.374 296.315 268.384C303.296 268.394 309.987 271.172 314.923 276.107C319.859 281.043 322.637 287.735 322.646 294.716C322.656 301.696 319.898 308.396 314.976 313.346L280.579 347.738C275.629 352.66 268.93 355.419 261.949 355.409C254.969 355.399 248.277 352.621 243.341 347.685C238.405 342.749 235.628 336.057 235.618 329.077C235.608 322.096 238.367 315.397 243.289 310.447L249.625 304.111C249.989 303.756 250.279 303.332 250.478 302.864C250.677 302.397 250.781 301.894 250.784 301.386C250.787 300.877 250.69 300.373 250.497 299.903C250.304 299.433 250.019 299.005 249.66 298.646C249.3 298.286 248.873 298.002 248.402 297.809C247.932 297.616 247.428 297.518 246.92 297.521C246.411 297.524 245.909 297.629 245.441 297.828C244.973 298.027 244.549 298.316 244.195 298.681L237.858 305.017C234.679 308.174 232.154 311.929 230.428 316.064C228.703 320.2 227.81 324.636 227.803 329.117C227.795 333.598 228.672 338.037 230.383 342.178C232.094 346.32 234.606 350.083 237.775 353.252C240.944 356.42 244.707 358.932 248.848 360.644C252.99 362.355 257.428 363.232 261.91 363.224C266.391 363.216 270.826 362.324 274.962 360.599C279.098 358.873 282.852 356.348 286.01 353.169L320.407 318.776C326.775 312.387 330.348 303.732 330.341 294.711C330.334 285.69 326.747 277.041 320.368 270.662C313.989 264.284 305.34 260.697 296.319 260.69C287.298 260.683 278.643 264.256 272.254 270.624L260.488 282.39C260.129 282.746 259.843 283.17 259.648 283.636C259.453 284.103 259.352 284.603 259.351 285.109C259.35 285.615 259.449 286.116 259.642 286.583C259.835 287.051 260.118 287.475 260.476 287.833C260.834 288.19 261.258 288.474 261.726 288.667C262.193 288.86 262.694 288.959 263.2 288.958C263.705 288.957 264.206 288.856 264.673 288.66C265.139 288.465 265.563 288.18 265.919 287.821V287.821Z" fill="#083863"/>
<rect width="498.768" height="90.4434" transform="translate(0.561523 989.557)" fill="white"/>
<path d="M340.788 1016.21C339.125 1016.21 337.756 1017.58 337.756 1019.24V1028.34V1038.45V1055.63C337.756 1057.3 339.125 1058.67 340.788 1058.67H381.222C382.885 1058.67 384.254 1057.3 384.254 1055.63V1038.45V1028.34V1023.29C384.254 1021.62 382.885 1020.25 381.222 1020.25H353.929C354.017 1020.25 353.898 1020.25 353.651 1019.97C353.404 1019.69 353.1 1019.21 352.782 1018.71C352.464 1018.2 352.132 1017.66 351.712 1017.18C351.292 1016.71 350.713 1016.21 349.886 1016.21H340.788ZM340.788 1018.23H349.886C349.824 1018.23 349.947 1018.24 350.198 1018.52C350.448 1018.81 350.752 1019.28 351.068 1019.78C351.384 1020.28 351.712 1020.82 352.123 1021.3C352.533 1021.77 353.099 1022.28 353.929 1022.28H381.222C381.791 1022.28 382.232 1022.72 382.232 1023.29V1025.5C381.914 1025.38 381.577 1025.31 381.222 1025.31H340.788C340.432 1025.31 340.096 1025.38 339.777 1025.5V1019.24C339.777 1018.67 340.218 1018.23 340.788 1018.23ZM340.788 1027.33H381.222C381.793 1027.33 382.232 1027.77 382.232 1028.34V1038.45V1055.63C382.232 1056.2 381.791 1056.64 381.222 1056.64H340.788C340.218 1056.64 339.777 1056.2 339.777 1055.63V1038.45V1028.34C339.777 1027.77 340.217 1027.33 340.788 1027.33Z" fill="#083863"/>
<path d="M117.073 1055.21C118.576 1055.21 120.064 1054.92 121.453 1054.34C122.841 1053.77 124.101 1052.93 125.161 1051.86L129.113 1047.91C129.234 1047.79 129.33 1047.65 129.395 1047.49C129.461 1047.33 129.495 1047.16 129.495 1046.99C129.496 1046.82 129.462 1046.66 129.398 1046.5C129.333 1046.34 129.238 1046.2 129.117 1046.08C128.997 1045.96 128.855 1045.86 128.698 1045.8C128.541 1045.73 128.372 1045.7 128.203 1045.7C128.033 1045.7 127.865 1045.74 127.708 1045.8C127.551 1045.87 127.409 1045.96 127.289 1046.08L123.337 1050.04C121.676 1051.7 119.423 1052.63 117.073 1052.63C114.724 1052.63 112.471 1051.7 110.81 1050.04C109.149 1048.37 108.216 1046.12 108.215 1043.77C108.215 1041.42 109.149 1039.17 110.81 1037.51L122.364 1025.96C124.027 1024.3 126.277 1023.38 128.622 1023.38C130.967 1023.38 133.215 1024.32 134.873 1025.97C136.531 1027.63 137.464 1029.88 137.467 1032.22C137.47 1034.57 136.544 1036.82 134.89 1038.48L132.762 1040.61C132.525 1040.85 132.394 1041.18 132.396 1041.52C132.398 1041.86 132.534 1042.18 132.773 1042.42C133.013 1042.66 133.338 1042.8 133.677 1042.8C134.017 1042.8 134.343 1042.67 134.586 1042.44L136.715 1040.31C137.783 1039.25 138.631 1037.98 139.21 1036.6C139.79 1035.21 140.09 1033.72 140.092 1032.21C140.095 1030.71 139.8 1029.21 139.226 1027.82C138.651 1026.43 137.807 1025.17 136.743 1024.1C135.678 1023.04 134.414 1022.2 133.023 1021.62C131.632 1021.05 130.141 1020.75 128.635 1020.75C127.13 1020.76 125.64 1021.06 124.251 1021.64C122.862 1022.22 121.601 1023.06 120.54 1024.13L108.985 1035.68C107.386 1037.28 106.297 1039.32 105.855 1041.54C105.414 1043.76 105.64 1046.06 106.506 1048.15C107.372 1050.24 108.838 1052.03 110.719 1053.28C112.6 1054.54 114.811 1055.21 117.073 1055.21H117.073Z" fill="#08B4EA"/>
<path d="M138.478 1022.61L142.431 1018.66C144.093 1017.01 146.344 1016.08 148.689 1016.08C151.033 1016.09 153.281 1017.02 154.939 1018.68C156.597 1020.33 157.53 1022.58 157.534 1024.93C157.537 1027.27 156.61 1029.52 154.957 1031.19L143.403 1042.74C141.74 1044.39 139.489 1045.32 137.145 1045.31C134.8 1045.31 132.552 1044.38 130.894 1042.72C129.236 1041.06 128.303 1038.81 128.3 1036.47C128.296 1034.12 129.223 1031.87 130.876 1030.21L133.005 1028.08C133.127 1027.96 133.224 1027.82 133.291 1027.66C133.358 1027.51 133.393 1027.34 133.394 1027.17C133.395 1027 133.362 1026.83 133.298 1026.67C133.233 1026.51 133.137 1026.37 133.016 1026.25C132.896 1026.13 132.752 1026.03 132.594 1025.97C132.436 1025.9 132.267 1025.87 132.096 1025.87C131.925 1025.87 131.756 1025.91 131.599 1025.97C131.442 1026.04 131.3 1026.14 131.181 1026.26L129.052 1028.39C127.984 1029.45 127.136 1030.71 126.556 1032.1C125.977 1033.49 125.677 1034.98 125.674 1036.48C125.672 1037.99 125.966 1039.48 126.541 1040.87C127.116 1042.26 127.96 1043.53 129.024 1044.59C130.089 1045.65 131.353 1046.5 132.744 1047.07C134.135 1047.65 135.626 1047.94 137.131 1047.94C138.637 1047.94 140.127 1047.64 141.516 1047.06C142.905 1046.48 144.166 1045.63 145.227 1044.56L156.781 1033.01C158.921 1030.86 160.121 1027.96 160.118 1024.93C160.116 1021.9 158.911 1018.99 156.768 1016.85C154.626 1014.7 151.72 1013.5 148.69 1013.5C145.66 1013.5 142.752 1014.7 140.606 1016.83L136.654 1020.79C136.533 1020.91 136.437 1021.05 136.372 1021.21C136.306 1021.36 136.272 1021.53 136.272 1021.7C136.272 1021.87 136.305 1022.04 136.37 1022.2C136.434 1022.35 136.53 1022.5 136.65 1022.62C136.77 1022.74 136.913 1022.83 137.07 1022.9C137.227 1022.96 137.395 1022.99 137.565 1022.99C137.735 1022.99 137.903 1022.96 138.059 1022.89C138.216 1022.83 138.358 1022.73 138.478 1022.61V1022.61Z" fill="#08B4EA"/>
<path d="M64.5788 769.249C65.6503 769.252 66.7117 769.042 67.7016 768.632C68.6914 768.222 69.5902 767.62 70.3457 766.86L73.1639 764.042C73.2499 763.957 73.3183 763.856 73.365 763.744C73.4117 763.632 73.4359 763.512 73.4361 763.391C73.4364 763.27 73.4128 763.15 73.3665 763.038C73.3203 762.926 73.2524 762.824 73.1668 762.739C73.0811 762.653 72.9794 762.585 72.8674 762.539C72.7555 762.493 72.6355 762.469 72.5144 762.469C72.3932 762.469 72.2734 762.494 72.1616 762.54C72.0499 762.587 71.9484 762.655 71.8632 762.741L69.0449 765.56C67.8605 766.744 66.2541 767.41 64.5791 767.41C62.904 767.41 61.2976 766.744 60.1131 765.56C58.9286 764.375 58.2632 762.769 58.2632 761.094C58.2631 759.419 58.9285 757.812 60.1129 756.628L68.3514 748.39C69.537 747.212 71.1416 746.551 72.8136 746.553C74.4855 746.556 76.0882 747.221 77.2704 748.403C78.4527 749.585 79.1179 751.188 79.1202 752.86C79.1226 754.532 78.4619 756.137 77.283 757.322L75.7654 758.84C75.5965 759.013 75.5026 759.246 75.5042 759.488C75.5057 759.73 75.6025 759.961 75.7736 760.132C75.9446 760.303 76.1762 760.4 76.4181 760.402C76.66 760.403 76.8928 760.309 77.066 760.14L78.5836 758.623C79.3452 757.867 79.9499 756.967 80.3632 755.977C80.7765 754.986 80.9902 753.924 80.9921 752.851C80.994 751.777 80.7839 750.714 80.374 749.722C79.9642 748.73 79.3625 747.829 78.6036 747.07C77.8446 746.311 76.9433 745.709 75.9514 745.299C74.9594 744.89 73.8963 744.68 72.823 744.681C71.7497 744.683 70.6873 744.897 69.6968 745.31C68.7062 745.724 67.807 746.328 67.0507 747.09L58.8122 755.327C57.6716 756.468 56.8949 757.921 56.5803 759.503C56.2656 761.085 56.4271 762.725 57.0444 764.215C57.6617 765.705 58.707 766.979 60.0482 767.875C61.3894 768.771 62.9661 769.249 64.5791 769.249H64.5788Z" fill="white"/>
<path d="M79.841 746.006L82.6592 743.187C83.8448 742.009 85.4494 741.348 87.1214 741.35C88.7933 741.353 90.396 742.018 91.5783 743.2C92.7605 744.382 93.4257 745.985 93.4281 747.657C93.4304 749.329 92.7697 750.934 91.5909 752.119L83.3524 760.357C82.1668 761.535 80.5621 762.196 78.8902 762.194C77.2183 762.191 75.6156 761.526 74.4333 760.344C73.2511 759.162 72.5859 757.559 72.5836 755.887C72.5812 754.215 73.2419 752.61 74.4208 751.425L75.9384 749.907C76.0256 749.822 76.0951 749.721 76.1427 749.609C76.1904 749.497 76.2153 749.376 76.2161 749.255C76.2169 749.133 76.1935 749.012 76.1472 748.899C76.101 748.787 76.0328 748.684 75.9467 748.598C75.8606 748.512 75.7583 748.444 75.6456 748.398C75.533 748.352 75.4123 748.328 75.2905 748.329C75.1688 748.33 75.0484 748.355 74.9363 748.402C74.8243 748.45 74.7228 748.519 74.6378 748.607L73.1202 750.124C72.3586 750.881 71.7539 751.78 71.3405 752.77C70.9272 753.761 70.7135 754.823 70.7117 755.897C70.7098 756.97 70.9199 758.033 71.3297 759.025C71.7396 760.017 72.3413 760.918 73.1002 761.677C73.8592 762.436 74.7604 763.038 75.7524 763.448C76.7444 763.858 77.8075 764.068 78.8808 764.066C79.9541 764.064 81.0165 763.85 82.007 763.437C82.9976 763.024 83.8968 762.419 84.6531 761.657L92.8916 753.42C94.417 751.89 95.2727 749.817 95.271 747.656C95.2692 745.495 94.4102 743.424 92.8824 741.896C91.3546 740.368 89.2829 739.509 87.1223 739.507C84.9616 739.506 82.8886 740.361 81.3584 741.887L78.5403 744.705C78.4542 744.79 78.3859 744.892 78.3392 745.003C78.2925 745.115 78.2683 745.235 78.268 745.356C78.2677 745.477 78.2914 745.597 78.3376 745.709C78.3839 745.821 78.4518 745.923 78.5374 746.008C78.623 746.094 78.7248 746.162 78.8367 746.208C78.9487 746.254 79.0687 746.278 79.1898 746.278C79.3109 746.278 79.4308 746.253 79.5425 746.207C79.6543 746.16 79.7557 746.092 79.841 746.006V746.006Z" fill="white"/>
</g>
<defs>
<linearGradient id="paint0_linear_104_163" x1="249.946" y1="0" x2="249.946" y2="1080" gradientUnits="userSpaceOnUse">
<stop stop-color="#1D47DB"/>
<stop offset="1" stop-color="#131542"/>
</linearGradient>
<clipPath id="clip0_104_163">
<rect x="0.561523" width="498.768" height="1080" rx="10.6404" fill="white"/>
</clipPath>
</defs>
</svg>
