<svg width="499" height="1080" viewBox="0 0 499 1080" fill="none" xmlns="http://www.w3.org/2000/svg">
<g clip-path="url(#clip0_104_2)">
<rect x="0.172363" width="498.768" height="1080" rx="10.6404" fill="#141A50"/>
<rect x="393.867" y="211.478" width="66.5024" height="71.8227" rx="33.2512" fill="#D13A3A"/>
<path d="M153.636 152.365L162.02 165.181L170.447 152.365L172.29 168.034H180.103L175.143 135.774L162.02 154.516L148.94 135.774L143.98 168.034H151.793L153.636 152.365ZM194.439 168.473C197.014 168.473 199.194 167.976 200.979 166.981C202.793 165.986 204.227 164.494 205.28 162.504L199.355 161.056C198.857 161.933 198.184 162.592 197.336 163.031C196.517 163.47 195.522 163.689 194.351 163.689C193.327 163.689 192.464 163.47 191.762 163.031C191.059 162.563 190.533 161.89 190.182 161.012C189.83 160.134 189.655 159.081 189.655 157.852C189.684 156.506 189.86 155.394 190.182 154.516C190.533 153.609 191.045 152.936 191.718 152.497C192.391 152.058 193.225 151.838 194.22 151.838C195.01 151.838 195.697 152.014 196.282 152.365C196.868 152.716 197.321 153.214 197.643 153.857C197.965 154.501 198.126 155.262 198.126 156.14C198.126 156.345 198.067 156.608 197.95 156.93C197.863 157.222 197.746 157.471 197.599 157.676L199.179 155.657H186.714V159.344H205.149C205.207 159.139 205.236 158.89 205.236 158.598C205.236 158.276 205.236 157.954 205.236 157.632C205.236 155.467 204.812 153.623 203.964 152.102C203.115 150.58 201.886 149.424 200.277 148.634C198.667 147.815 196.692 147.405 194.351 147.405C192.01 147.405 189.977 147.83 188.25 148.678C186.553 149.527 185.251 150.741 184.344 152.321C183.437 153.901 182.983 155.774 182.983 157.939C182.983 160.075 183.451 161.933 184.388 163.514C185.324 165.094 186.641 166.323 188.338 167.2C190.064 168.049 192.098 168.473 194.439 168.473ZM216.264 160.134V147.844H209.329V160.836C209.329 163.236 209.9 165.123 211.041 166.498C212.211 167.844 214.055 168.517 216.571 168.517C218.063 168.517 219.307 168.21 220.302 167.596C221.297 166.952 222.101 166.089 222.716 165.006V168.034H229.343V147.844H222.716V160.134C222.716 160.924 222.57 161.597 222.277 162.153C221.984 162.709 221.575 163.133 221.048 163.426C220.551 163.718 219.936 163.865 219.205 163.865C218.122 163.865 217.361 163.543 216.922 162.899C216.483 162.226 216.264 161.304 216.264 160.134ZM235.672 160.705L232.907 165.094C233.814 165.796 234.795 166.44 235.848 167.025C236.901 167.581 238.043 168.02 239.272 168.342C240.53 168.693 241.89 168.868 243.353 168.868C245.753 168.868 247.611 168.327 248.928 167.244C250.274 166.132 250.947 164.494 250.947 162.329C250.947 161.07 250.669 160.061 250.113 159.3C249.586 158.539 248.869 157.91 247.962 157.413C247.084 156.915 246.119 156.476 245.065 156.096C244.07 155.716 243.222 155.408 242.52 155.174C241.847 154.911 241.32 154.633 240.939 154.34C240.588 154.048 240.413 153.682 240.413 153.243C240.413 152.863 240.559 152.555 240.852 152.321C241.174 152.087 241.642 151.97 242.256 151.97C243.163 151.97 244.158 152.233 245.241 152.76C246.323 153.258 247.289 153.901 248.138 154.691L250.508 150.39C249.718 149.805 248.869 149.293 247.962 148.854C247.084 148.415 246.133 148.064 245.109 147.8C244.114 147.537 243.032 147.405 241.861 147.405C240.398 147.405 239.096 147.625 237.955 148.064C236.843 148.503 235.95 149.146 235.277 149.995C234.634 150.844 234.312 151.882 234.312 153.111C234.312 154.399 234.59 155.452 235.146 156.271C235.702 157.091 236.404 157.749 237.253 158.247C238.13 158.715 239.052 159.124 240.018 159.476C241.1 159.797 241.949 160.105 242.563 160.397C243.207 160.69 243.661 160.997 243.924 161.319C244.187 161.612 244.319 161.977 244.319 162.416C244.319 162.884 244.158 163.265 243.836 163.557C243.514 163.85 243.017 163.996 242.344 163.996C241.876 163.996 241.32 163.909 240.676 163.733C240.032 163.528 239.286 163.192 238.438 162.724C237.618 162.226 236.697 161.553 235.672 160.705ZM267.751 133.799V168.034H274.423V133.799H267.751ZM279.186 140.251C279.186 141.304 279.567 142.168 280.327 142.841C281.088 143.514 281.995 143.85 283.049 143.85C284.131 143.85 285.038 143.514 285.77 142.841C286.531 142.168 286.911 141.304 286.911 140.251C286.911 139.198 286.531 138.349 285.77 137.705C285.038 137.032 284.131 136.696 283.049 136.696C281.995 136.696 281.088 137.032 280.327 137.705C279.567 138.349 279.186 139.198 279.186 140.251ZM279.845 147.844V168.034H286.253V147.844H279.845ZM304.835 155.745V168.034H311.726V155.043C311.726 152.614 311.155 150.726 310.014 149.38C308.873 148.034 307.044 147.361 304.528 147.361C303.035 147.361 301.777 147.669 300.753 148.283C299.758 148.898 298.968 149.761 298.383 150.873V147.844H291.711V168.034H298.383V155.745C298.383 154.955 298.529 154.282 298.822 153.726C299.114 153.17 299.524 152.746 300.051 152.453C300.578 152.16 301.192 152.014 301.894 152.014C302.948 152.014 303.694 152.336 304.133 152.98C304.601 153.623 304.835 154.545 304.835 155.745ZM316.914 133.799V168.034H323.278V133.799H316.914ZM330.608 147.844L321.961 156.184L331.617 168.034H339.43L329.906 156.184L338.552 147.844H330.608ZM343.387 160.705L340.622 165.094C341.529 165.796 342.509 166.44 343.563 167.025C344.616 167.581 345.757 168.02 346.986 168.342C348.244 168.693 349.605 168.868 351.068 168.868C353.467 168.868 355.325 168.327 356.642 167.244C357.988 166.132 358.661 164.494 358.661 162.329C358.661 161.07 358.383 160.061 357.827 159.3C357.301 158.539 356.584 157.91 355.677 157.413C354.799 156.915 353.833 156.476 352.78 156.096C351.785 155.716 350.936 155.408 350.234 155.174C349.561 154.911 349.034 154.633 348.654 154.34C348.303 154.048 348.127 153.682 348.127 153.243C348.127 152.863 348.274 152.555 348.566 152.321C348.888 152.087 349.356 151.97 349.971 151.97C350.878 151.97 351.873 152.233 352.955 152.76C354.038 153.258 355.004 153.901 355.852 154.691L358.222 150.39C357.432 149.805 356.584 149.293 355.677 148.854C354.799 148.415 353.848 148.064 352.824 147.8C351.829 147.537 350.746 147.405 349.576 147.405C348.113 147.405 346.811 147.625 345.669 148.064C344.557 148.503 343.665 149.146 342.992 149.995C342.348 150.844 342.026 151.882 342.026 153.111C342.026 154.399 342.304 155.452 342.86 156.271C343.416 157.091 344.118 157.749 344.967 158.247C345.845 158.715 346.767 159.124 347.732 159.476C348.815 159.797 349.663 160.105 350.278 160.397C350.922 160.69 351.375 160.997 351.639 161.319C351.902 161.612 352.034 161.977 352.034 162.416C352.034 162.884 351.873 163.265 351.551 163.557C351.229 163.85 350.731 163.996 350.058 163.996C349.59 163.996 349.034 163.909 348.391 163.733C347.747 163.528 347.001 163.192 346.152 162.724C345.333 162.226 344.411 161.553 343.387 160.705Z" fill="white"/>
<rect width="498.768" height="90.4434" transform="translate(0.172363 989.557)" fill="white"/>
<path d="M340.399 1016.21C338.736 1016.21 337.367 1017.58 337.367 1019.24V1028.34V1038.45V1055.63C337.367 1057.3 338.736 1058.67 340.399 1058.67H380.833C382.496 1058.67 383.865 1057.3 383.865 1055.63V1038.45V1028.34V1023.29C383.865 1021.62 382.496 1020.25 380.833 1020.25H353.54C353.628 1020.25 353.509 1020.25 353.262 1019.97C353.015 1019.69 352.711 1019.21 352.393 1018.71C352.075 1018.2 351.743 1017.66 351.323 1017.18C350.903 1016.71 350.324 1016.21 349.497 1016.21H340.399ZM340.399 1018.23H349.497C349.435 1018.23 349.559 1018.24 349.809 1018.52C350.059 1018.81 350.363 1019.28 350.679 1019.78C350.995 1020.28 351.323 1020.82 351.734 1021.3C352.144 1021.77 352.71 1022.28 353.54 1022.28H380.833C381.402 1022.28 381.844 1022.72 381.844 1023.29V1025.5C381.525 1025.38 381.188 1025.31 380.833 1025.31H340.399C340.044 1025.31 339.707 1025.38 339.388 1025.5V1019.24C339.388 1018.67 339.829 1018.23 340.399 1018.23ZM340.399 1027.33H380.833C381.404 1027.33 381.844 1027.77 381.844 1028.34V1038.45V1055.63C381.844 1056.2 381.402 1056.64 380.833 1056.64H340.399C339.829 1056.64 339.388 1056.2 339.388 1055.63V1038.45V1028.34C339.388 1027.77 339.828 1027.33 340.399 1027.33Z" fill="#083863"/>
<path d="M7.31494 248.719C7.88613 249.483 8.61487 250.115 9.45173 250.572C10.2886 251.029 11.214 251.301 12.1652 251.369C13.1163 251.437 14.071 251.3 14.9645 250.967C15.858 250.633 16.6693 250.112 17.3435 249.437L21.3337 245.447C22.5451 244.193 23.2154 242.513 23.2002 240.769C23.1851 239.026 22.4857 237.358 21.2527 236.125C20.0196 234.892 18.3517 234.192 16.608 234.177C14.8643 234.162 13.1845 234.832 11.9302 236.044L9.64253 238.318" stroke="white" stroke-width="2.6601" stroke-linecap="round" stroke-linejoin="round"/>
<path d="M12.6355 246.059C12.0643 245.295 11.3356 244.664 10.4987 244.206C9.66188 243.749 8.73647 243.477 7.7853 243.409C6.83412 243.341 5.87942 243.478 4.98595 243.811C4.09248 244.145 3.28113 244.666 2.60695 245.341L-1.3832 249.331C-2.59459 250.585 -3.2649 252.265 -3.24975 254.009C-3.2346 255.752 -2.5352 257.42 -1.30219 258.653C-0.0691774 259.886 1.59879 260.586 3.34246 260.601C5.08613 260.616 6.766 259.946 8.02025 258.734L10.2946 256.46" stroke="white" stroke-width="2.6601" stroke-linecap="round" stroke-linejoin="round"/>
<rect x="-45.0493" y="211.478" width="432.266" height="71.8227" rx="9.31034" fill="white" fill-opacity="0.15"/>
<path d="M29.5665 241.34H27.4384V262.089H29.5665V241.34ZM35.2857 254.64V262.089H37.4138V254.374C37.4138 253.31 37.2365 252.424 36.8818 251.714C36.5448 251.005 36.0572 250.473 35.4187 250.118C34.798 249.763 34.0621 249.586 33.2108 249.586C32.3596 249.586 31.6059 249.808 30.9498 250.251C30.3113 250.695 29.8059 251.297 29.4335 252.06C29.0611 252.805 28.8749 253.665 28.8749 254.64H29.5665C29.5665 254.055 29.6907 253.532 29.9389 253.071C30.2049 252.61 30.5685 252.246 31.0296 251.98C31.5084 251.714 32.0581 251.581 32.6788 251.581C33.5478 251.581 34.1951 251.838 34.6207 252.353C35.064 252.867 35.2857 253.63 35.2857 254.64ZM39.5523 249.852V251.847H45.6705V249.852H39.5523ZM41.5473 245.596V262.089H43.6754V245.596H41.5473ZM45.9427 249.852V251.847H52.061V249.852H45.9427ZM47.9378 245.596V262.089H50.0659V245.596H47.9378ZM56.1904 267.941V249.852H54.0623V267.941H56.1904ZM66.4317 255.97C66.4317 254.64 66.1569 253.505 65.6071 252.565C65.0574 251.608 64.3214 250.872 63.3992 250.358C62.4948 249.843 61.484 249.586 60.3667 249.586C59.3559 249.586 58.4603 249.843 57.68 250.358C56.9175 250.872 56.3145 251.608 55.8711 252.565C55.4455 253.505 55.2327 254.64 55.2327 255.97C55.2327 257.283 55.4455 258.418 55.8711 259.375C56.3145 260.333 56.9175 261.069 57.68 261.583C58.4603 262.097 59.3559 262.355 60.3667 262.355C61.484 262.355 62.4948 262.097 63.3992 261.583C64.3214 261.069 65.0574 260.333 65.6071 259.375C66.1569 258.418 66.4317 257.283 66.4317 255.97ZM64.2771 255.97C64.2771 256.91 64.082 257.708 63.6918 258.364C63.3194 259.021 62.814 259.517 62.1756 259.854C61.5549 260.191 60.8633 260.36 60.1007 260.36C59.48 260.36 58.8682 260.191 58.2652 259.854C57.6623 259.517 57.1657 259.021 56.7756 258.364C56.3854 257.708 56.1904 256.91 56.1904 255.97C56.1904 255.03 56.3854 254.232 56.7756 253.576C57.1657 252.92 57.6623 252.424 58.2652 252.087C58.8682 251.75 59.48 251.581 60.1007 251.581C60.8633 251.581 61.5549 251.75 62.1756 252.087C62.814 252.424 63.3194 252.92 63.6918 253.576C64.082 254.232 64.2771 255.03 64.2771 255.97ZM69.8716 258.338L68.1957 259.375C68.4263 259.854 68.7632 260.324 69.2066 260.785C69.6676 261.246 70.2263 261.628 70.8824 261.929C71.5386 262.213 72.2745 262.355 73.0903 262.355C74.3494 262.355 75.3602 262 76.1228 261.291C76.9031 260.581 77.2933 259.695 77.2933 258.63C77.2933 257.903 77.1159 257.309 76.7612 256.848C76.4243 256.387 75.9632 255.997 75.378 255.678C74.7928 255.341 74.1455 255.03 73.4361 254.747C73.0105 254.569 72.6026 254.383 72.2125 254.188C71.8223 253.993 71.5031 253.771 71.2548 253.523C71.0066 253.275 70.8824 252.991 70.8824 252.672C70.8824 252.264 71.042 251.963 71.3612 251.767C71.6804 251.572 72.0617 251.475 72.5051 251.475C73.1435 251.475 73.711 251.626 74.2075 251.927C74.7218 252.229 75.1474 252.61 75.4844 253.071L77.1869 251.98C76.9386 251.519 76.5928 251.111 76.1494 250.757C75.7061 250.402 75.1918 250.118 74.6066 249.905C74.0391 249.693 73.4272 249.586 72.7711 249.586C72.1149 249.586 71.4765 249.701 70.8558 249.932C70.2529 250.163 69.7563 250.517 69.3662 250.996C68.9937 251.475 68.8075 252.078 68.8075 252.805C68.8075 253.514 68.9849 254.108 69.3396 254.587C69.712 255.048 70.1642 255.43 70.6962 255.731C71.246 256.015 71.7868 256.263 72.3189 256.476C72.7977 256.653 73.2499 256.848 73.6755 257.061C74.1011 257.256 74.4469 257.504 74.713 257.806C74.9967 258.09 75.1386 258.444 75.1386 258.87C75.1386 259.349 74.9612 259.73 74.6066 260.014C74.2696 260.28 73.7997 260.413 73.1967 260.413C72.7002 260.413 72.2391 260.324 71.8135 260.147C71.4056 259.952 71.042 259.695 70.7228 259.375C70.4036 259.056 70.1199 258.71 69.8716 258.338ZM80.6269 261.025C80.6269 261.415 80.7688 261.761 81.0525 262.062C81.354 262.346 81.6998 262.488 82.09 262.488C82.4978 262.488 82.8436 262.346 83.1274 262.062C83.4111 261.761 83.553 261.415 83.553 261.025C83.553 260.617 83.4111 260.271 83.1274 259.987C82.8436 259.703 82.4978 259.562 82.09 259.562C81.6998 259.562 81.354 259.703 81.0525 259.987C80.7688 260.271 80.6269 260.617 80.6269 261.025ZM80.6269 250.916C80.6269 251.306 80.7688 251.652 81.0525 251.954C81.354 252.237 81.6998 252.379 82.09 252.379C82.4978 252.379 82.8436 252.237 83.1274 251.954C83.4111 251.652 83.553 251.306 83.553 250.916C83.553 250.508 83.4111 250.163 83.1274 249.879C82.8436 249.595 82.4978 249.453 82.09 249.453C81.6998 249.453 81.354 249.595 81.0525 249.879C80.7688 250.163 80.6269 250.508 80.6269 250.916ZM97.2473 243.468L86.4739 266.079H88.602L99.3754 243.468H97.2473ZM108.288 243.468L97.5144 266.079H99.6425L110.416 243.468H108.288ZM110.656 258.338L108.98 259.375C109.211 259.854 109.548 260.324 109.991 260.785C110.452 261.246 111.011 261.628 111.667 261.929C112.323 262.213 113.059 262.355 113.875 262.355C115.134 262.355 116.145 262 116.908 261.291C117.688 260.581 118.078 259.695 118.078 258.63C118.078 257.903 117.901 257.309 117.546 256.848C117.209 256.387 116.748 255.997 116.163 255.678C115.577 255.341 114.93 255.03 114.221 254.747C113.795 254.569 113.387 254.383 112.997 254.188C112.607 253.993 112.288 253.771 112.04 253.523C111.791 253.275 111.667 252.991 111.667 252.672C111.667 252.264 111.827 251.963 112.146 251.767C112.465 251.572 112.846 251.475 113.29 251.475C113.928 251.475 114.496 251.626 114.992 251.927C115.507 252.229 115.932 252.61 116.269 253.071L117.972 251.98C117.723 251.519 117.377 251.111 116.934 250.757C116.491 250.402 115.976 250.118 115.391 249.905C114.824 249.693 114.212 249.586 113.556 249.586C112.9 249.586 112.261 249.701 111.641 249.932C111.038 250.163 110.541 250.517 110.151 250.996C109.778 251.475 109.592 252.078 109.592 252.805C109.592 253.514 109.77 254.108 110.124 254.587C110.497 255.048 110.949 255.43 111.481 255.731C112.031 256.015 112.572 256.263 113.104 256.476C113.582 256.653 114.035 256.848 114.46 257.061C114.886 257.256 115.232 257.504 115.498 257.806C115.781 258.09 115.923 258.444 115.923 258.87C115.923 259.349 115.746 259.73 115.391 260.014C115.054 260.28 114.584 260.413 113.981 260.413C113.485 260.413 113.024 260.324 112.598 260.147C112.19 259.952 111.827 259.695 111.508 259.375C111.188 259.056 110.905 258.71 110.656 258.338ZM123.008 257.3V249.852H120.88V257.566C120.88 259.021 121.261 260.182 122.023 261.051C122.786 261.92 123.806 262.355 125.083 262.355C125.898 262.355 126.608 262.177 127.211 261.823C127.814 261.45 128.319 260.9 128.727 260.173V262.089H130.855V249.852H128.727V257.3C128.727 257.903 128.594 258.435 128.328 258.897C128.08 259.358 127.716 259.721 127.237 259.987C126.776 260.235 126.235 260.36 125.615 260.36C124.763 260.36 124.116 260.094 123.673 259.562C123.229 259.03 123.008 258.276 123.008 257.3ZM134.51 244.798C134.51 245.188 134.652 245.525 134.935 245.809C135.219 246.093 135.556 246.234 135.946 246.234C136.354 246.234 136.691 246.093 136.957 245.809C137.241 245.525 137.383 245.188 137.383 244.798C137.383 244.39 137.241 244.053 136.957 243.787C136.691 243.503 136.354 243.362 135.946 243.362C135.556 243.362 135.219 243.503 134.935 243.787C134.652 244.053 134.51 244.39 134.51 244.798ZM132.408 265.121L131.238 266.877C131.415 267.107 131.619 267.302 131.85 267.462C132.08 267.622 132.337 267.737 132.621 267.808C132.905 267.897 133.224 267.941 133.579 267.941C134.323 267.941 134.962 267.772 135.494 267.435C136.026 267.098 136.425 266.611 136.691 265.972C136.975 265.334 137.117 264.571 137.117 263.685V249.852H134.989V263.419C134.989 263.986 134.944 264.447 134.856 264.802C134.767 265.157 134.625 265.414 134.43 265.573C134.253 265.733 134.013 265.813 133.712 265.813C133.428 265.813 133.171 265.751 132.94 265.627C132.727 265.502 132.55 265.334 132.408 265.121ZM146.241 262.355C147.553 262.355 148.688 262.097 149.646 261.583C150.621 261.051 151.428 260.271 152.066 259.242L150.337 258.152C149.894 258.897 149.353 259.455 148.715 259.828C148.076 260.182 147.34 260.36 146.507 260.36C145.673 260.36 144.964 260.182 144.379 259.828C143.793 259.473 143.35 258.959 143.049 258.285C142.747 257.611 142.596 256.795 142.596 255.837C142.614 254.897 142.774 254.108 143.075 253.47C143.394 252.814 143.838 252.317 144.405 251.98C144.99 251.626 145.691 251.448 146.507 251.448C147.198 251.448 147.801 251.599 148.316 251.9C148.83 252.202 149.229 252.619 149.513 253.151C149.814 253.683 149.965 254.312 149.965 255.039C149.965 255.163 149.938 255.323 149.885 255.518C149.832 255.696 149.779 255.829 149.725 255.917L150.577 254.694H141.798V256.502H152.253C152.253 256.467 152.253 256.387 152.253 256.263C152.27 256.121 152.279 255.988 152.279 255.864C152.279 254.569 152.049 253.452 151.588 252.512C151.126 251.572 150.461 250.854 149.592 250.358C148.741 249.843 147.713 249.586 146.507 249.586C145.301 249.586 144.237 249.852 143.315 250.384C142.41 250.916 141.701 251.661 141.187 252.619C140.69 253.576 140.442 254.694 140.442 255.97C140.442 257.23 140.681 258.338 141.16 259.296C141.656 260.253 142.339 261.007 143.208 261.557C144.095 262.089 145.106 262.355 146.241 262.355ZM155.196 244.798C155.196 245.188 155.338 245.534 155.622 245.835C155.923 246.119 156.269 246.261 156.659 246.261C157.067 246.261 157.413 246.119 157.696 245.835C157.98 245.534 158.122 245.188 158.122 244.798C158.122 244.39 157.98 244.044 157.696 243.761C157.413 243.477 157.067 243.335 156.659 243.335C156.269 243.335 155.923 243.477 155.622 243.761C155.338 244.044 155.196 244.39 155.196 244.798ZM155.595 249.852V262.089H157.723V249.852H155.595ZM160.244 249.852V251.847H166.362V249.852H160.244ZM162.239 245.596V262.089H164.367V245.596H162.239ZM167.432 255.97C167.432 257.194 167.707 258.294 168.257 259.269C168.824 260.227 169.587 260.98 170.545 261.53C171.502 262.08 172.575 262.355 173.763 262.355C174.969 262.355 176.042 262.08 176.982 261.53C177.94 260.98 178.693 260.227 179.243 259.269C179.811 258.294 180.094 257.194 180.094 255.97C180.094 254.729 179.811 253.63 179.243 252.672C178.693 251.714 177.94 250.961 176.982 250.411C176.042 249.861 174.969 249.586 173.763 249.586C172.575 249.586 171.502 249.861 170.545 250.411C169.587 250.961 168.824 251.714 168.257 252.672C167.707 253.63 167.432 254.729 167.432 255.97ZM169.587 255.97C169.587 255.119 169.764 254.365 170.119 253.709C170.491 253.035 170.988 252.512 171.609 252.14C172.247 251.767 172.965 251.581 173.763 251.581C174.561 251.581 175.271 251.767 175.891 252.14C176.53 252.512 177.026 253.035 177.381 253.709C177.754 254.365 177.94 255.119 177.94 255.97C177.94 256.822 177.754 257.575 177.381 258.231C177.026 258.888 176.53 259.411 175.891 259.801C175.271 260.173 174.561 260.36 173.763 260.36C172.965 260.36 172.247 260.173 171.609 259.801C170.988 259.411 170.491 258.888 170.119 258.231C169.764 257.575 169.587 256.822 169.587 255.97ZM185.013 267.941V249.852H182.885V267.941H185.013ZM195.254 255.97C195.254 254.64 194.979 253.505 194.43 252.565C193.88 251.608 193.144 250.872 192.222 250.358C191.317 249.843 190.307 249.586 189.189 249.586C188.178 249.586 187.283 249.843 186.503 250.358C185.74 250.872 185.137 251.608 184.694 252.565C184.268 253.505 184.055 254.64 184.055 255.97C184.055 257.283 184.268 258.418 184.694 259.375C185.137 260.333 185.74 261.069 186.503 261.583C187.283 262.097 188.178 262.355 189.189 262.355C190.307 262.355 191.317 262.097 192.222 261.583C193.144 261.069 193.88 260.333 194.43 259.375C194.979 258.418 195.254 257.283 195.254 255.97ZM193.1 255.97C193.1 256.91 192.905 257.708 192.514 258.364C192.142 259.021 191.637 259.517 190.998 259.854C190.377 260.191 189.686 260.36 188.923 260.36C188.303 260.36 187.691 260.191 187.088 259.854C186.485 259.517 185.988 259.021 185.598 258.364C185.208 257.708 185.013 256.91 185.013 255.97C185.013 255.03 185.208 254.232 185.598 253.576C185.988 252.92 186.485 252.424 187.088 252.087C187.691 251.75 188.303 251.581 188.923 251.581C189.686 251.581 190.377 251.75 190.998 252.087C191.637 252.424 192.142 252.92 192.514 253.576C192.905 254.232 193.1 255.03 193.1 255.97ZM200.317 249.852H198.189V262.089H200.317V249.852ZM204.014 252.193L205.185 250.437C204.866 250.1 204.511 249.879 204.121 249.772C203.748 249.648 203.34 249.586 202.897 249.586C202.33 249.586 201.771 249.808 201.221 250.251C200.671 250.695 200.219 251.297 199.865 252.06C199.528 252.805 199.359 253.665 199.359 254.64H200.317C200.317 254.055 200.37 253.532 200.476 253.071C200.601 252.61 200.813 252.246 201.115 251.98C201.416 251.714 201.833 251.581 202.365 251.581C202.72 251.581 203.012 251.634 203.243 251.741C203.473 251.83 203.731 251.98 204.014 252.193ZM205.853 255.97C205.853 257.194 206.128 258.294 206.678 259.269C207.245 260.227 208.008 260.98 208.965 261.53C209.923 262.08 210.996 262.355 212.184 262.355C213.39 262.355 214.463 262.08 215.403 261.53C216.361 260.98 217.114 260.227 217.664 259.269C218.231 258.294 218.515 257.194 218.515 255.97C218.515 254.729 218.231 253.63 217.664 252.672C217.114 251.714 216.361 250.961 215.403 250.411C214.463 249.861 213.39 249.586 212.184 249.586C210.996 249.586 209.923 249.861 208.965 250.411C208.008 250.961 207.245 251.714 206.678 252.672C206.128 253.63 205.853 254.729 205.853 255.97ZM208.008 255.97C208.008 255.119 208.185 254.365 208.54 253.709C208.912 253.035 209.409 252.512 210.029 252.14C210.668 251.767 211.386 251.581 212.184 251.581C212.982 251.581 213.692 251.767 214.312 252.14C214.951 252.512 215.447 253.035 215.802 253.709C216.174 254.365 216.361 255.119 216.361 255.97C216.361 256.822 216.174 257.575 215.802 258.231C215.447 258.888 214.951 259.411 214.312 259.801C213.692 260.173 212.982 260.36 212.184 260.36C211.386 260.36 210.668 260.173 210.029 259.801C209.409 259.411 208.912 258.888 208.54 258.231C208.185 257.575 208.008 256.822 208.008 255.97ZM220.614 262.887C220.614 263.933 220.871 264.855 221.385 265.653C221.9 266.469 222.609 267.098 223.513 267.542C224.436 267.985 225.491 268.207 226.679 268.207C227.708 268.207 228.683 267.967 229.605 267.489C230.527 267.01 231.281 266.292 231.866 265.334C232.451 264.394 232.744 263.224 232.744 261.823V249.852H230.616V261.823C230.616 262.851 230.412 263.685 230.004 264.323C229.614 264.979 229.117 265.458 228.514 265.76C227.912 266.061 227.3 266.212 226.679 266.212C225.881 266.212 225.189 266.052 224.604 265.733C224.019 265.431 223.567 265.024 223.247 264.509C222.928 264.013 222.769 263.472 222.769 262.887H220.614ZM220.375 255.97C220.375 257.283 220.649 258.418 221.199 259.375C221.749 260.333 222.485 261.069 223.407 261.583C224.329 262.097 225.34 262.355 226.44 262.355C227.468 262.355 228.364 262.097 229.126 261.583C229.889 261.069 230.483 260.333 230.909 259.375C231.352 258.418 231.574 257.283 231.574 255.97C231.574 254.64 231.352 253.505 230.909 252.565C230.483 251.608 229.889 250.872 229.126 250.358C228.364 249.843 227.468 249.586 226.44 249.586C225.34 249.586 224.329 249.843 223.407 250.358C222.485 250.872 221.749 251.608 221.199 252.565C220.649 253.505 220.375 254.64 220.375 255.97ZM222.529 255.97C222.529 255.03 222.715 254.232 223.088 253.576C223.478 252.92 223.992 252.424 224.631 252.087C225.269 251.75 225.961 251.581 226.706 251.581C227.167 251.581 227.628 251.679 228.089 251.874C228.55 252.069 228.967 252.353 229.339 252.725C229.729 253.097 230.04 253.559 230.27 254.108C230.501 254.64 230.616 255.261 230.616 255.97C230.616 256.91 230.421 257.708 230.031 258.364C229.641 259.021 229.144 259.517 228.541 259.854C227.938 260.191 227.326 260.36 226.706 260.36C225.961 260.36 225.269 260.191 224.631 259.854C223.992 259.517 223.478 259.021 223.088 258.364C222.715 257.708 222.529 256.91 222.529 255.97ZM238.738 249.852H236.609V262.089H238.738V249.852ZM242.435 252.193L243.606 250.437C243.286 250.1 242.932 249.879 242.541 249.772C242.169 249.648 241.761 249.586 241.318 249.586C240.75 249.586 240.192 249.808 239.642 250.251C239.092 250.695 238.64 251.297 238.285 252.06C237.948 252.805 237.78 253.665 237.78 254.64H238.738C238.738 254.055 238.791 253.532 238.897 253.071C239.021 252.61 239.234 252.246 239.536 251.98C239.837 251.714 240.254 251.581 240.786 251.581C241.141 251.581 241.433 251.634 241.664 251.741C241.894 251.83 242.151 251.98 242.435 252.193ZM246.685 258.311C246.685 257.868 246.792 257.487 247.004 257.167C247.217 256.848 247.536 256.6 247.962 256.423C248.405 256.245 248.973 256.157 249.665 256.157C250.409 256.157 251.11 256.254 251.766 256.449C252.422 256.627 253.061 256.928 253.681 257.354V256.103C253.557 255.944 253.318 255.74 252.963 255.492C252.608 255.226 252.13 254.995 251.527 254.8C250.941 254.587 250.205 254.481 249.319 254.481C247.811 254.481 246.632 254.844 245.781 255.571C244.947 256.281 244.531 257.23 244.531 258.418C244.531 259.251 244.726 259.961 245.116 260.546C245.506 261.131 246.02 261.583 246.659 261.902C247.315 262.204 248.015 262.355 248.76 262.355C249.434 262.355 250.108 262.23 250.782 261.982C251.473 261.734 252.05 261.353 252.511 260.838C252.99 260.324 253.229 259.677 253.229 258.897L252.803 257.3C252.803 257.939 252.644 258.506 252.325 259.003C252.023 259.482 251.606 259.854 251.074 260.12C250.56 260.386 249.975 260.519 249.319 260.519C248.804 260.519 248.343 260.439 247.935 260.28C247.545 260.102 247.235 259.845 247.004 259.508C246.792 259.171 246.685 258.772 246.685 258.311ZM246.366 252.672C246.561 252.53 246.827 252.362 247.164 252.166C247.501 251.971 247.909 251.803 248.388 251.661C248.884 251.519 249.434 251.448 250.037 251.448C250.409 251.448 250.764 251.484 251.101 251.555C251.438 251.626 251.731 251.741 251.979 251.9C252.245 252.06 252.449 252.282 252.591 252.565C252.733 252.831 252.803 253.177 252.803 253.603V262.089H254.932V253.31C254.932 252.512 254.728 251.838 254.32 251.289C253.93 250.739 253.371 250.322 252.644 250.038C251.934 249.737 251.101 249.586 250.143 249.586C249.008 249.586 248.033 249.755 247.217 250.092C246.419 250.429 245.79 250.765 245.329 251.102L246.366 252.672ZM275.293 254.374C275.293 253.363 275.134 252.503 274.814 251.794C274.513 251.067 274.069 250.517 273.484 250.145C272.899 249.772 272.19 249.586 271.356 249.586C270.54 249.586 269.813 249.781 269.175 250.171C268.536 250.544 268.004 251.111 267.579 251.874C267.295 251.147 266.843 250.588 266.222 250.198C265.619 249.79 264.892 249.586 264.041 249.586C263.278 249.586 262.613 249.755 262.046 250.092C261.496 250.429 261.035 250.943 260.663 251.634V249.852H258.535V262.089H260.663V254.64C260.663 254.002 260.778 253.452 261.008 252.991C261.239 252.53 261.567 252.184 261.993 251.954C262.418 251.705 262.924 251.581 263.509 251.581C264.307 251.581 264.892 251.83 265.265 252.326C265.655 252.823 265.85 253.594 265.85 254.64V262.089H267.978V254.64C267.978 254.002 268.093 253.452 268.324 252.991C268.554 252.53 268.882 252.184 269.308 251.954C269.734 251.705 270.239 251.581 270.824 251.581C271.622 251.581 272.207 251.83 272.58 252.326C272.97 252.823 273.165 253.594 273.165 254.64V262.089H275.293V254.374ZM280.248 258.311C280.248 257.868 280.355 257.487 280.567 257.167C280.78 256.848 281.099 256.6 281.525 256.423C281.968 256.245 282.536 256.157 283.227 256.157C283.972 256.157 284.673 256.254 285.329 256.449C285.985 256.627 286.624 256.928 287.244 257.354V256.103C287.12 255.944 286.881 255.74 286.526 255.492C286.171 255.226 285.693 254.995 285.09 254.8C284.504 254.587 283.768 254.481 282.882 254.481C281.374 254.481 280.195 254.844 279.344 255.571C278.51 256.281 278.094 257.23 278.094 258.418C278.094 259.251 278.289 259.961 278.679 260.546C279.069 261.131 279.583 261.583 280.222 261.902C280.878 262.204 281.578 262.355 282.323 262.355C282.997 262.355 283.671 262.23 284.345 261.982C285.036 261.734 285.613 261.353 286.074 260.838C286.553 260.324 286.792 259.677 286.792 258.897L286.366 257.3C286.366 257.939 286.207 258.506 285.888 259.003C285.586 259.482 285.169 259.854 284.637 260.12C284.123 260.386 283.538 260.519 282.882 260.519C282.367 260.519 281.906 260.439 281.498 260.28C281.108 260.102 280.798 259.845 280.567 259.508C280.355 259.171 280.248 258.772 280.248 258.311ZM279.929 252.672C280.124 252.53 280.39 252.362 280.727 252.166C281.064 251.971 281.472 251.803 281.951 251.661C282.447 251.519 282.997 251.448 283.6 251.448C283.972 251.448 284.327 251.484 284.664 251.555C285.001 251.626 285.294 251.741 285.542 251.9C285.808 252.06 286.012 252.282 286.154 252.565C286.295 252.831 286.366 253.177 286.366 253.603V262.089H288.494V253.31C288.494 252.512 288.291 251.838 287.883 251.289C287.493 250.739 286.934 250.322 286.207 250.038C285.497 249.737 284.664 249.586 283.706 249.586C282.571 249.586 281.596 249.755 280.78 250.092C279.982 250.429 279.353 250.765 278.892 251.102L279.929 252.672ZM301.275 241.34V262.089H303.403V241.34H301.275ZM291.033 255.97C291.033 257.283 291.308 258.418 291.858 259.375C292.408 260.333 293.144 261.069 294.066 261.583C294.988 262.097 295.999 262.355 297.098 262.355C298.127 262.355 299.023 262.097 299.785 261.583C300.548 261.069 301.142 260.333 301.567 259.375C302.011 258.418 302.232 257.283 302.232 255.97C302.232 254.64 302.011 253.505 301.567 252.565C301.142 251.608 300.548 250.872 299.785 250.358C299.023 249.843 298.127 249.586 297.098 249.586C295.999 249.586 294.988 249.843 294.066 250.358C293.144 250.872 292.408 251.608 291.858 252.565C291.308 253.505 291.033 254.64 291.033 255.97ZM293.188 255.97C293.188 255.03 293.374 254.232 293.747 253.576C294.137 252.92 294.651 252.424 295.29 252.087C295.928 251.75 296.62 251.581 297.364 251.581C297.985 251.581 298.597 251.75 299.2 252.087C299.803 252.424 300.299 252.92 300.69 253.576C301.08 254.232 301.275 255.03 301.275 255.97C301.275 256.91 301.08 257.708 300.69 258.364C300.299 259.021 299.803 259.517 299.2 259.854C298.597 260.191 297.985 260.36 297.364 260.36C296.62 260.36 295.928 260.191 295.29 259.854C294.651 259.517 294.137 259.021 293.747 258.364C293.374 257.708 293.188 256.91 293.188 255.97ZM306.204 255.97C306.204 257.194 306.479 258.294 307.029 259.269C307.596 260.227 308.359 260.98 309.317 261.53C310.274 262.08 311.347 262.355 312.535 262.355C313.741 262.355 314.814 262.08 315.754 261.53C316.712 260.98 317.465 260.227 318.015 259.269C318.583 258.294 318.866 257.194 318.866 255.97C318.866 254.729 318.583 253.63 318.015 252.672C317.465 251.714 316.712 250.961 315.754 250.411C314.814 249.861 313.741 249.586 312.535 249.586C311.347 249.586 310.274 249.861 309.317 250.411C308.359 250.961 307.596 251.714 307.029 252.672C306.479 253.63 306.204 254.729 306.204 255.97ZM308.359 255.97C308.359 255.119 308.536 254.365 308.891 253.709C309.263 253.035 309.76 252.512 310.381 252.14C311.019 251.767 311.737 251.581 312.535 251.581C313.333 251.581 314.043 251.767 314.663 252.14C315.302 252.512 315.798 253.035 316.153 253.709C316.525 254.365 316.712 255.119 316.712 255.97C316.712 256.822 316.525 257.575 316.153 258.231C315.798 258.888 315.302 259.411 314.663 259.801C314.043 260.173 313.333 260.36 312.535 260.36C311.737 260.36 311.019 260.173 310.381 259.801C309.76 259.411 309.263 258.888 308.891 258.231C308.536 257.575 308.359 256.822 308.359 255.97ZM323.918 249.852H321.79V262.089H323.918V249.852ZM327.615 252.193L328.786 250.437C328.467 250.1 328.112 249.879 327.722 249.772C327.349 249.648 326.942 249.586 326.498 249.586C325.931 249.586 325.372 249.808 324.822 250.251C324.273 250.695 323.82 251.297 323.466 252.06C323.129 252.805 322.96 253.665 322.96 254.64H323.918C323.918 254.055 323.971 253.532 324.077 253.071C324.202 252.61 324.414 252.246 324.716 251.98C325.017 251.714 325.434 251.581 325.966 251.581C326.321 251.581 326.613 251.634 326.844 251.741C327.075 251.83 327.332 251.98 327.615 252.193ZM329.855 261.025C329.855 261.415 329.997 261.761 330.281 262.062C330.582 262.346 330.928 262.488 331.318 262.488C331.726 262.488 332.072 262.346 332.356 262.062C332.64 261.761 332.781 261.415 332.781 261.025C332.781 260.617 332.64 260.271 332.356 259.987C332.072 259.703 331.726 259.562 331.318 259.562C330.928 259.562 330.582 259.703 330.281 259.987C329.997 260.271 329.855 260.617 329.855 261.025ZM338.256 255.97C338.256 255.119 338.433 254.365 338.788 253.709C339.16 253.035 339.657 252.512 340.278 252.14C340.916 251.767 341.634 251.581 342.432 251.581C343.089 251.581 343.7 251.688 344.268 251.9C344.853 252.096 345.358 252.362 345.784 252.698C346.21 253.035 346.511 253.408 346.689 253.816V251.156C346.263 250.659 345.651 250.278 344.853 250.012C344.073 249.728 343.266 249.586 342.432 249.586C341.244 249.586 340.171 249.861 339.214 250.411C338.256 250.961 337.493 251.714 336.926 252.672C336.376 253.63 336.101 254.729 336.101 255.97C336.101 257.194 336.376 258.294 336.926 259.269C337.493 260.227 338.256 260.98 339.214 261.53C340.171 262.08 341.244 262.355 342.432 262.355C343.266 262.355 344.073 262.222 344.853 261.956C345.651 261.672 346.263 261.282 346.689 260.785V258.125C346.511 258.515 346.21 258.888 345.784 259.242C345.358 259.579 344.853 259.854 344.268 260.067C343.7 260.262 343.089 260.36 342.432 260.36C341.634 260.36 340.916 260.173 340.278 259.801C339.657 259.411 339.16 258.888 338.788 258.231C338.433 257.575 338.256 256.822 338.256 255.97Z" fill="white"/>
<path d="M131.315 1059.2C132.817 1059.2 134.306 1058.91 135.694 1058.33C137.082 1057.76 138.343 1056.92 139.403 1055.85L143.355 1051.9C143.476 1051.78 143.571 1051.64 143.637 1051.48C143.702 1051.32 143.736 1051.15 143.737 1050.98C143.737 1050.81 143.704 1050.65 143.639 1050.49C143.574 1050.33 143.479 1050.19 143.359 1050.07C143.239 1049.95 143.096 1049.85 142.939 1049.79C142.782 1049.72 142.614 1049.69 142.444 1049.69C142.274 1049.69 142.106 1049.73 141.949 1049.79C141.793 1049.86 141.65 1049.95 141.531 1050.07L137.578 1054.03C135.917 1055.69 133.664 1056.62 131.315 1056.62C128.966 1056.62 126.713 1055.69 125.051 1054.03C123.39 1052.36 122.457 1050.11 122.457 1047.76C122.457 1045.41 123.39 1043.16 125.051 1041.5L136.606 1029.95C138.268 1028.29 140.519 1027.37 142.864 1027.37C145.208 1027.37 147.456 1028.31 149.114 1029.96C150.772 1031.62 151.705 1033.87 151.709 1036.21C151.712 1038.56 150.785 1040.81 149.132 1042.47L147.003 1044.6C146.767 1044.84 146.635 1045.17 146.637 1045.51C146.639 1045.85 146.775 1046.17 147.015 1046.41C147.255 1046.65 147.58 1046.79 147.919 1046.79C148.258 1046.79 148.585 1046.66 148.828 1046.43L150.956 1044.3C152.024 1043.24 152.872 1041.97 153.452 1040.59C154.032 1039.2 154.331 1037.71 154.334 1036.2C154.336 1034.7 154.042 1033.2 153.467 1031.81C152.892 1030.42 152.048 1029.16 150.984 1028.09C149.92 1027.03 148.656 1026.19 147.264 1025.61C145.873 1025.04 144.382 1024.74 142.877 1024.74C141.372 1024.75 139.882 1025.05 138.492 1025.63C137.103 1026.21 135.842 1027.05 134.781 1028.12L123.227 1039.67C121.627 1041.27 120.538 1043.31 120.097 1045.53C119.655 1047.75 119.882 1050.05 120.748 1052.14C121.613 1054.23 123.079 1056.02 124.96 1057.27C126.841 1058.53 129.053 1059.2 131.315 1059.2H131.315Z" fill="#083863"/>
<path d="M152.72 1026.6L156.672 1022.65C158.335 1021 160.585 1020.07 162.93 1020.07C165.275 1020.08 167.523 1021.01 169.181 1022.67C170.839 1024.32 171.772 1026.57 171.775 1028.92C171.779 1031.26 170.852 1033.51 169.199 1035.18L157.644 1046.73C155.982 1048.38 153.731 1049.31 151.386 1049.31C149.041 1049.3 146.794 1048.37 145.136 1046.71C143.478 1045.05 142.545 1042.8 142.541 1040.46C142.538 1038.12 143.465 1035.86 145.118 1034.2L147.246 1032.07C147.369 1031.95 147.466 1031.81 147.533 1031.65C147.6 1031.5 147.635 1031.33 147.636 1031.16C147.637 1030.99 147.604 1030.82 147.539 1030.66C147.474 1030.5 147.379 1030.36 147.258 1030.24C147.137 1030.12 146.994 1030.02 146.836 1029.96C146.678 1029.89 146.509 1029.86 146.338 1029.86C146.167 1029.86 145.998 1029.9 145.841 1029.96C145.684 1030.03 145.542 1030.13 145.422 1030.25L143.294 1032.38C142.226 1033.44 141.378 1034.7 140.798 1036.09C140.218 1037.48 139.919 1038.97 139.916 1040.47C139.913 1041.98 140.208 1043.47 140.783 1044.86C141.358 1046.25 142.202 1047.52 143.266 1048.58C144.33 1049.64 145.594 1050.49 146.986 1051.06C148.377 1051.64 149.868 1051.93 151.373 1051.93C152.878 1051.93 154.368 1051.63 155.758 1051.05C157.147 1050.47 158.408 1049.62 159.469 1048.55L171.023 1037C173.162 1034.85 174.362 1031.95 174.36 1028.92C174.358 1025.89 173.153 1022.98 171.01 1020.84C168.867 1018.7 165.962 1017.49 162.932 1017.49C159.901 1017.49 156.994 1018.69 154.848 1020.82L150.895 1024.78C150.775 1024.9 150.679 1025.04 150.613 1025.2C150.548 1025.35 150.514 1025.52 150.514 1025.69C150.513 1025.86 150.546 1026.03 150.611 1026.19C150.676 1026.34 150.771 1026.49 150.891 1026.61C151.012 1026.73 151.154 1026.82 151.311 1026.89C151.468 1026.95 151.637 1026.98 151.806 1026.98C151.976 1026.98 152.144 1026.95 152.301 1026.88C152.458 1026.82 152.6 1026.72 152.72 1026.6V1026.6Z" fill="#083863"/>
<path d="M415.148 239.409H417.808H439.089" stroke="white" stroke-width="2.6601" stroke-linecap="round" stroke-linejoin="round"/>
<path d="M421.798 239.409V236.749C421.798 236.043 422.079 235.367 422.577 234.868C423.076 234.369 423.753 234.089 424.458 234.089H429.779C430.484 234.089 431.161 234.369 431.66 234.868C432.158 235.367 432.439 236.043 432.439 236.749V239.409M436.429 239.409V258.03C436.429 258.735 436.149 259.412 435.65 259.91C435.151 260.409 434.474 260.69 433.769 260.69H420.468C419.763 260.69 419.086 260.409 418.587 259.91C418.088 259.412 417.808 258.735 417.808 258.03V239.409H436.429Z" stroke="white" stroke-width="2.6601" stroke-linecap="round" stroke-linejoin="round"/>
<rect x="33.4238" y="292.611" width="432.266" height="71.8227" rx="9.31034" fill="white" fill-opacity="0.15"/>
<path d="M108.039 322.473H105.911V343.222H108.039V322.473ZM113.758 335.773V343.222H115.886V335.507C115.886 334.443 115.709 333.557 115.354 332.847C115.017 332.138 114.53 331.606 113.891 331.251C113.271 330.897 112.535 330.719 111.684 330.719C110.832 330.719 110.079 330.941 109.422 331.384C108.784 331.828 108.279 332.431 107.906 333.193C107.534 333.938 107.348 334.798 107.348 335.773H108.039C108.039 335.188 108.163 334.665 108.412 334.204C108.678 333.743 109.041 333.379 109.502 333.113C109.981 332.847 110.531 332.714 111.151 332.714C112.02 332.714 112.668 332.971 113.093 333.486C113.537 334 113.758 334.763 113.758 335.773ZM118.025 330.985V332.98H124.143V330.985H118.025ZM120.02 326.729V343.222H122.148V326.729H120.02ZM124.415 330.985V332.98H130.534V330.985H124.415ZM126.41 326.729V343.222H128.539V326.729H126.41ZM134.663 349.074V330.985H132.535V349.074H134.663ZM144.904 337.103C144.904 335.773 144.63 334.638 144.08 333.699C143.53 332.741 142.794 332.005 141.872 331.491C140.967 330.976 139.957 330.719 138.839 330.719C137.829 330.719 136.933 330.976 136.153 331.491C135.39 332.005 134.787 332.741 134.344 333.699C133.918 334.638 133.705 335.773 133.705 337.103C133.705 338.416 133.918 339.551 134.344 340.508C134.787 341.466 135.39 342.202 136.153 342.716C136.933 343.231 137.829 343.488 138.839 343.488C139.957 343.488 140.967 343.231 141.872 342.716C142.794 342.202 143.53 341.466 144.08 340.508C144.63 339.551 144.904 338.416 144.904 337.103ZM142.75 337.103C142.75 338.043 142.555 338.841 142.164 339.498C141.792 340.154 141.287 340.65 140.648 340.987C140.028 341.324 139.336 341.493 138.573 341.493C137.953 341.493 137.341 341.324 136.738 340.987C136.135 340.65 135.638 340.154 135.248 339.498C134.858 338.841 134.663 338.043 134.663 337.103C134.663 336.164 134.858 335.366 135.248 334.709C135.638 334.053 136.135 333.557 136.738 333.22C137.341 332.883 137.953 332.714 138.573 332.714C139.336 332.714 140.028 332.883 140.648 333.22C141.287 333.557 141.792 334.053 142.164 334.709C142.555 335.366 142.75 336.164 142.75 337.103ZM148.344 339.471L146.668 340.508C146.899 340.987 147.236 341.457 147.679 341.918C148.14 342.379 148.699 342.761 149.355 343.062C150.011 343.346 150.747 343.488 151.563 343.488C152.822 343.488 153.833 343.133 154.595 342.424C155.376 341.714 155.766 340.828 155.766 339.764C155.766 339.036 155.589 338.442 155.234 337.981C154.897 337.52 154.436 337.13 153.851 336.811C153.265 336.474 152.618 336.164 151.909 335.88C151.483 335.702 151.075 335.516 150.685 335.321C150.295 335.126 149.976 334.904 149.727 334.656C149.479 334.408 149.355 334.124 149.355 333.805C149.355 333.397 149.515 333.096 149.834 332.9C150.153 332.705 150.534 332.608 150.978 332.608C151.616 332.608 152.184 332.759 152.68 333.06C153.194 333.362 153.62 333.743 153.957 334.204L155.66 333.113C155.411 332.652 155.065 332.244 154.622 331.89C154.179 331.535 153.664 331.251 153.079 331.038C152.512 330.826 151.9 330.719 151.244 330.719C150.588 330.719 149.949 330.834 149.328 331.065C148.726 331.296 148.229 331.65 147.839 332.129C147.466 332.608 147.28 333.211 147.28 333.938C147.28 334.647 147.458 335.241 147.812 335.72C148.185 336.181 148.637 336.563 149.169 336.864C149.719 337.148 150.26 337.396 150.792 337.609C151.27 337.786 151.723 337.981 152.148 338.194C152.574 338.389 152.92 338.637 153.186 338.939C153.469 339.223 153.611 339.577 153.611 340.003C153.611 340.482 153.434 340.863 153.079 341.147C152.742 341.413 152.272 341.546 151.669 341.546C151.173 341.546 150.712 341.457 150.286 341.28C149.878 341.085 149.515 340.828 149.195 340.508C148.876 340.189 148.593 339.843 148.344 339.471ZM159.1 342.158C159.1 342.548 159.241 342.894 159.525 343.195C159.827 343.479 160.172 343.621 160.563 343.621C160.97 343.621 161.316 343.479 161.6 343.195C161.884 342.894 162.026 342.548 162.026 342.158C162.026 341.75 161.884 341.404 161.6 341.12C161.316 340.836 160.97 340.695 160.563 340.695C160.172 340.695 159.827 340.836 159.525 341.12C159.241 341.404 159.1 341.75 159.1 342.158ZM159.1 332.049C159.1 332.439 159.241 332.785 159.525 333.087C159.827 333.37 160.172 333.512 160.563 333.512C160.97 333.512 161.316 333.37 161.6 333.087C161.884 332.785 162.026 332.439 162.026 332.049C162.026 331.641 161.884 331.296 161.6 331.012C161.316 330.728 160.97 330.586 160.563 330.586C160.172 330.586 159.827 330.728 159.525 331.012C159.241 331.296 159.1 331.641 159.1 332.049ZM175.72 324.601L164.947 347.212H167.075L177.848 324.601H175.72ZM186.76 324.601L175.987 347.212H178.115L188.889 324.601H186.76ZM189.129 339.471L187.453 340.508C187.684 340.987 188.021 341.457 188.464 341.918C188.925 342.379 189.484 342.761 190.14 343.062C190.796 343.346 191.532 343.488 192.348 343.488C193.607 343.488 194.618 343.133 195.38 342.424C196.16 341.714 196.551 340.828 196.551 339.764C196.551 339.036 196.373 338.442 196.019 337.981C195.682 337.52 195.221 337.13 194.635 336.811C194.05 336.474 193.403 336.164 192.693 335.88C192.268 335.702 191.86 335.516 191.47 335.321C191.08 335.126 190.76 334.904 190.512 334.656C190.264 334.408 190.14 334.124 190.14 333.805C190.14 333.397 190.299 333.096 190.619 332.9C190.938 332.705 191.319 332.608 191.762 332.608C192.401 332.608 192.968 332.759 193.465 333.06C193.979 333.362 194.405 333.743 194.742 334.204L196.444 333.113C196.196 332.652 195.85 332.244 195.407 331.89C194.963 331.535 194.449 331.251 193.864 331.038C193.296 330.826 192.685 330.719 192.028 330.719C191.372 330.719 190.734 330.834 190.113 331.065C189.51 331.296 189.014 331.65 188.624 332.129C188.251 332.608 188.065 333.211 188.065 333.938C188.065 334.647 188.242 335.241 188.597 335.72C188.969 336.181 189.422 336.563 189.954 336.864C190.503 337.148 191.044 337.396 191.576 337.609C192.055 337.786 192.507 337.981 192.933 338.194C193.359 338.389 193.704 338.637 193.97 338.939C194.254 339.223 194.396 339.577 194.396 340.003C194.396 340.482 194.219 340.863 193.864 341.147C193.527 341.413 193.057 341.546 192.454 341.546C191.958 341.546 191.496 341.457 191.071 341.28C190.663 341.085 190.299 340.828 189.98 340.508C189.661 340.189 189.377 339.843 189.129 339.471ZM201.48 338.434V330.985H199.352V338.7C199.352 340.154 199.734 341.315 200.496 342.184C201.259 343.053 202.278 343.488 203.555 343.488C204.371 343.488 205.08 343.31 205.683 342.956C206.286 342.583 206.792 342.034 207.2 341.306V343.222H209.328V330.985H207.2V338.434C207.2 339.036 207.067 339.568 206.801 340.03C206.552 340.491 206.189 340.854 205.71 341.12C205.249 341.368 204.708 341.493 204.087 341.493C203.236 341.493 202.589 341.227 202.145 340.695C201.702 340.163 201.48 339.409 201.48 338.434ZM212.982 325.931C212.982 326.321 213.124 326.658 213.408 326.942C213.692 327.226 214.029 327.367 214.419 327.367C214.827 327.367 215.164 327.226 215.43 326.942C215.713 326.658 215.855 326.321 215.855 325.931C215.855 325.523 215.713 325.186 215.43 324.92C215.164 324.636 214.827 324.495 214.419 324.495C214.029 324.495 213.692 324.636 213.408 324.92C213.124 325.186 212.982 325.523 212.982 325.931ZM210.881 346.254L209.71 348.01C209.888 348.24 210.092 348.435 210.322 348.595C210.553 348.755 210.81 348.87 211.094 348.941C211.377 349.03 211.697 349.074 212.051 349.074C212.796 349.074 213.435 348.905 213.967 348.568C214.499 348.232 214.898 347.744 215.164 347.105C215.447 346.467 215.589 345.704 215.589 344.818V330.985H213.461V344.552C213.461 345.119 213.417 345.58 213.328 345.935C213.239 346.29 213.098 346.547 212.903 346.706C212.725 346.866 212.486 346.946 212.184 346.946C211.901 346.946 211.643 346.884 211.413 346.76C211.2 346.635 211.023 346.467 210.881 346.254ZM224.713 343.488C226.026 343.488 227.161 343.231 228.118 342.716C229.094 342.184 229.901 341.404 230.539 340.375L228.81 339.285C228.367 340.03 227.826 340.588 227.187 340.961C226.549 341.315 225.813 341.493 224.979 341.493C224.146 341.493 223.437 341.315 222.851 340.961C222.266 340.606 221.823 340.092 221.521 339.418C221.22 338.744 221.069 337.928 221.069 336.97C221.087 336.031 221.246 335.241 221.548 334.603C221.867 333.947 222.31 333.45 222.878 333.113C223.463 332.759 224.164 332.581 224.979 332.581C225.671 332.581 226.274 332.732 226.788 333.034C227.303 333.335 227.702 333.752 227.985 334.284C228.287 334.816 228.438 335.445 228.438 336.172C228.438 336.297 228.411 336.456 228.358 336.651C228.305 336.829 228.251 336.962 228.198 337.05L229.049 335.827H220.271V337.635H230.725C230.725 337.6 230.725 337.52 230.725 337.396C230.743 337.254 230.752 337.121 230.752 336.997C230.752 335.702 230.521 334.585 230.06 333.645C229.599 332.705 228.934 331.987 228.065 331.491C227.214 330.976 226.185 330.719 224.979 330.719C223.773 330.719 222.709 330.985 221.787 331.517C220.883 332.049 220.173 332.794 219.659 333.752C219.163 334.709 218.914 335.827 218.914 337.103C218.914 338.363 219.154 339.471 219.633 340.429C220.129 341.386 220.812 342.14 221.681 342.69C222.568 343.222 223.578 343.488 224.713 343.488ZM233.669 325.931C233.669 326.321 233.81 326.667 234.094 326.968C234.396 327.252 234.741 327.394 235.132 327.394C235.539 327.394 235.885 327.252 236.169 326.968C236.453 326.667 236.595 326.321 236.595 325.931C236.595 325.523 236.453 325.177 236.169 324.894C235.885 324.61 235.539 324.468 235.132 324.468C234.741 324.468 234.396 324.61 234.094 324.894C233.81 325.177 233.669 325.523 233.669 325.931ZM234.068 330.985V343.222H236.196V330.985H234.068ZM238.717 330.985V332.98H244.835V330.985H238.717ZM240.712 326.729V343.222H242.84V326.729H240.712ZM245.905 337.103C245.905 338.327 246.18 339.427 246.73 340.402C247.297 341.36 248.06 342.113 249.017 342.663C249.975 343.213 251.048 343.488 252.236 343.488C253.442 343.488 254.515 343.213 255.455 342.663C256.412 342.113 257.166 341.36 257.716 340.402C258.283 339.427 258.567 338.327 258.567 337.103C258.567 335.862 258.283 334.763 257.716 333.805C257.166 332.847 256.412 332.094 255.455 331.544C254.515 330.994 253.442 330.719 252.236 330.719C251.048 330.719 249.975 330.994 249.017 331.544C248.06 332.094 247.297 332.847 246.73 333.805C246.18 334.763 245.905 335.862 245.905 337.103ZM248.06 337.103C248.06 336.252 248.237 335.499 248.592 334.842C248.964 334.168 249.461 333.645 250.081 333.273C250.72 332.9 251.438 332.714 252.236 332.714C253.034 332.714 253.743 332.9 254.364 333.273C255.003 333.645 255.499 334.168 255.854 334.842C256.226 335.499 256.412 336.252 256.412 337.103C256.412 337.955 256.226 338.708 255.854 339.365C255.499 340.021 255.003 340.544 254.364 340.934C253.743 341.306 253.034 341.493 252.236 341.493C251.438 341.493 250.72 341.306 250.081 340.934C249.461 340.544 248.964 340.021 248.592 339.365C248.237 338.708 248.06 337.955 248.06 337.103ZM263.486 349.074V330.985H261.357V349.074H263.486ZM273.727 337.103C273.727 335.773 273.452 334.638 272.902 333.699C272.353 332.741 271.617 332.005 270.694 331.491C269.79 330.976 268.779 330.719 267.662 330.719C266.651 330.719 265.756 330.976 264.975 331.491C264.213 332.005 263.61 332.741 263.166 333.699C262.741 334.638 262.528 335.773 262.528 337.103C262.528 338.416 262.741 339.551 263.166 340.508C263.61 341.466 264.213 342.202 264.975 342.716C265.756 343.231 266.651 343.488 267.662 343.488C268.779 343.488 269.79 343.231 270.694 342.716C271.617 342.202 272.353 341.466 272.902 340.508C273.452 339.551 273.727 338.416 273.727 337.103ZM271.572 337.103C271.572 338.043 271.377 338.841 270.987 339.498C270.615 340.154 270.109 340.65 269.471 340.987C268.85 341.324 268.158 341.493 267.396 341.493C266.775 341.493 266.163 341.324 265.56 340.987C264.957 340.65 264.461 340.154 264.071 339.498C263.681 338.841 263.486 338.043 263.486 337.103C263.486 336.164 263.681 335.366 264.071 334.709C264.461 334.053 264.957 333.557 265.56 333.22C266.163 332.883 266.775 332.714 267.396 332.714C268.158 332.714 268.85 332.883 269.471 333.22C270.109 333.557 270.615 334.053 270.987 334.709C271.377 335.366 271.572 336.164 271.572 337.103ZM278.789 330.985H276.661V343.222H278.789V330.985ZM282.487 333.326L283.657 331.57C283.338 331.234 282.984 331.012 282.593 330.905C282.221 330.781 281.813 330.719 281.37 330.719C280.802 330.719 280.244 330.941 279.694 331.384C279.144 331.828 278.692 332.431 278.337 333.193C278 333.938 277.832 334.798 277.832 335.773H278.789C278.789 335.188 278.843 334.665 278.949 334.204C279.073 333.743 279.286 333.379 279.587 333.113C279.889 332.847 280.306 332.714 280.838 332.714C281.192 332.714 281.485 332.767 281.716 332.874C281.946 332.963 282.203 333.113 282.487 333.326ZM284.326 337.103C284.326 338.327 284.601 339.427 285.15 340.402C285.718 341.36 286.48 342.113 287.438 342.663C288.396 343.213 289.469 343.488 290.657 343.488C291.863 343.488 292.936 343.213 293.876 342.663C294.833 342.113 295.587 341.36 296.137 340.402C296.704 339.427 296.988 338.327 296.988 337.103C296.988 335.862 296.704 334.763 296.137 333.805C295.587 332.847 294.833 332.094 293.876 331.544C292.936 330.994 291.863 330.719 290.657 330.719C289.469 330.719 288.396 330.994 287.438 331.544C286.48 332.094 285.718 332.847 285.15 333.805C284.601 334.763 284.326 335.862 284.326 337.103ZM286.48 337.103C286.48 336.252 286.658 335.499 287.012 334.842C287.385 334.168 287.881 333.645 288.502 333.273C289.141 332.9 289.859 332.714 290.657 332.714C291.455 332.714 292.164 332.9 292.785 333.273C293.423 333.645 293.92 334.168 294.275 334.842C294.647 335.499 294.833 336.252 294.833 337.103C294.833 337.955 294.647 338.708 294.275 339.365C293.92 340.021 293.423 340.544 292.785 340.934C292.164 341.306 291.455 341.493 290.657 341.493C289.859 341.493 289.141 341.306 288.502 340.934C287.881 340.544 287.385 340.021 287.012 339.365C286.658 338.708 286.48 337.955 286.48 337.103ZM299.087 344.02C299.087 345.066 299.344 345.988 299.858 346.786C300.372 347.602 301.082 348.232 301.986 348.675C302.908 349.118 303.963 349.34 305.152 349.34C306.18 349.34 307.156 349.1 308.078 348.622C309 348.143 309.754 347.425 310.339 346.467C310.924 345.527 311.217 344.357 311.217 342.956V330.985H309.089V342.956C309.089 343.984 308.885 344.818 308.477 345.456C308.087 346.112 307.59 346.591 306.987 346.893C306.384 347.194 305.772 347.345 305.152 347.345C304.354 347.345 303.662 347.185 303.077 346.866C302.492 346.565 302.039 346.157 301.72 345.642C301.401 345.146 301.241 344.605 301.241 344.02H299.087ZM298.847 337.103C298.847 338.416 299.122 339.551 299.672 340.508C300.222 341.466 300.958 342.202 301.88 342.716C302.802 343.231 303.813 343.488 304.912 343.488C305.941 343.488 306.836 343.231 307.599 342.716C308.362 342.202 308.956 341.466 309.381 340.508C309.825 339.551 310.046 338.416 310.046 337.103C310.046 335.773 309.825 334.638 309.381 333.699C308.956 332.741 308.362 332.005 307.599 331.491C306.836 330.976 305.941 330.719 304.912 330.719C303.813 330.719 302.802 330.976 301.88 331.491C300.958 332.005 300.222 332.741 299.672 333.699C299.122 334.638 298.847 335.773 298.847 337.103ZM301.002 337.103C301.002 336.164 301.188 335.366 301.561 334.709C301.951 334.053 302.465 333.557 303.103 333.22C303.742 332.883 304.433 332.714 305.178 332.714C305.639 332.714 306.1 332.812 306.562 333.007C307.023 333.202 307.439 333.486 307.812 333.858C308.202 334.231 308.512 334.692 308.743 335.241C308.973 335.773 309.089 336.394 309.089 337.103C309.089 338.043 308.894 338.841 308.503 339.498C308.113 340.154 307.617 340.65 307.014 340.987C306.411 341.324 305.799 341.493 305.178 341.493C304.433 341.493 303.742 341.324 303.103 340.987C302.465 340.65 301.951 340.154 301.561 339.498C301.188 338.841 301.002 338.043 301.002 337.103ZM317.21 330.985H315.082V343.222H317.21V330.985ZM320.908 333.326L322.078 331.57C321.759 331.234 321.404 331.012 321.014 330.905C320.642 330.781 320.234 330.719 319.791 330.719C319.223 330.719 318.664 330.941 318.115 331.384C317.565 331.828 317.113 332.431 316.758 333.193C316.421 333.938 316.253 334.798 316.253 335.773H317.21C317.21 335.188 317.263 334.665 317.37 334.204C317.494 333.743 317.707 333.379 318.008 333.113C318.31 332.847 318.726 332.714 319.258 332.714C319.613 332.714 319.906 332.767 320.136 332.874C320.367 332.963 320.624 333.113 320.908 333.326ZM325.158 339.444C325.158 339.001 325.264 338.62 325.477 338.3C325.69 337.981 326.009 337.733 326.435 337.556C326.878 337.378 327.446 337.29 328.137 337.29C328.882 337.29 329.583 337.387 330.239 337.582C330.895 337.76 331.533 338.061 332.154 338.487V337.236C332.03 337.077 331.79 336.873 331.436 336.625C331.081 336.359 330.602 336.128 329.999 335.933C329.414 335.72 328.678 335.614 327.791 335.614C326.284 335.614 325.105 335.977 324.253 336.704C323.42 337.414 323.003 338.363 323.003 339.551C323.003 340.384 323.198 341.094 323.588 341.679C323.979 342.264 324.493 342.716 325.131 343.035C325.787 343.337 326.488 343.488 327.233 343.488C327.907 343.488 328.581 343.364 329.254 343.115C329.946 342.867 330.522 342.486 330.983 341.971C331.462 341.457 331.702 340.81 331.702 340.03L331.276 338.434C331.276 339.072 331.117 339.639 330.797 340.136C330.496 340.615 330.079 340.987 329.547 341.253C329.033 341.519 328.448 341.652 327.791 341.652C327.277 341.652 326.816 341.572 326.408 341.413C326.018 341.235 325.708 340.978 325.477 340.641C325.264 340.304 325.158 339.905 325.158 339.444ZM324.839 333.805C325.034 333.663 325.3 333.495 325.637 333.3C325.974 333.104 326.382 332.936 326.86 332.794C327.357 332.652 327.907 332.581 328.51 332.581C328.882 332.581 329.237 332.617 329.574 332.688C329.911 332.759 330.203 332.874 330.451 333.034C330.717 333.193 330.921 333.415 331.063 333.699C331.205 333.965 331.276 334.31 331.276 334.736V343.222H333.404V334.443C333.404 333.645 333.2 332.971 332.792 332.422C332.402 331.872 331.844 331.455 331.117 331.171C330.407 330.87 329.574 330.719 328.616 330.719C327.481 330.719 326.506 330.888 325.69 331.225C324.892 331.562 324.262 331.899 323.801 332.235L324.839 333.805ZM353.766 335.507C353.766 334.497 353.606 333.636 353.287 332.927C352.985 332.2 352.542 331.65 351.957 331.278C351.372 330.905 350.662 330.719 349.829 330.719C349.013 330.719 348.286 330.914 347.648 331.304C347.009 331.677 346.477 332.244 346.051 333.007C345.768 332.28 345.316 331.721 344.695 331.331C344.092 330.923 343.365 330.719 342.514 330.719C341.751 330.719 341.086 330.888 340.518 331.225C339.969 331.562 339.508 332.076 339.135 332.767V330.985H337.007V343.222H339.135V335.773C339.135 335.135 339.251 334.585 339.481 334.124C339.712 333.663 340.04 333.317 340.465 333.087C340.891 332.838 341.396 332.714 341.982 332.714C342.78 332.714 343.365 332.963 343.737 333.459C344.127 333.956 344.322 334.727 344.322 335.773V343.222H346.451V335.773C346.451 335.135 346.566 334.585 346.796 334.124C347.027 333.663 347.355 333.317 347.781 333.087C348.206 332.838 348.712 332.714 349.297 332.714C350.095 332.714 350.68 332.963 351.052 333.459C351.443 333.956 351.638 334.727 351.638 335.773V343.222H353.766V335.507ZM358.721 339.444C358.721 339.001 358.827 338.62 359.04 338.3C359.253 337.981 359.572 337.733 359.998 337.556C360.441 337.378 361.009 337.29 361.7 337.29C362.445 337.29 363.145 337.387 363.802 337.582C364.458 337.76 365.096 338.061 365.717 338.487V337.236C365.593 337.077 365.353 336.873 364.999 336.625C364.644 336.359 364.165 336.128 363.562 335.933C362.977 335.72 362.241 335.614 361.354 335.614C359.847 335.614 358.668 335.977 357.816 336.704C356.983 337.414 356.566 338.363 356.566 339.551C356.566 340.384 356.761 341.094 357.151 341.679C357.542 342.264 358.056 342.716 358.694 343.035C359.35 343.337 360.051 343.488 360.796 343.488C361.47 343.488 362.143 343.364 362.817 343.115C363.509 342.867 364.085 342.486 364.546 341.971C365.025 341.457 365.265 340.81 365.265 340.03L364.839 338.434C364.839 339.072 364.679 339.639 364.36 340.136C364.059 340.615 363.642 340.987 363.11 341.253C362.596 341.519 362.01 341.652 361.354 341.652C360.84 341.652 360.379 341.572 359.971 341.413C359.581 341.235 359.271 340.978 359.04 340.641C358.827 340.304 358.721 339.905 358.721 339.444ZM358.402 333.805C358.597 333.663 358.863 333.495 359.2 333.3C359.537 333.104 359.944 332.936 360.423 332.794C360.92 332.652 361.47 332.581 362.073 332.581C362.445 332.581 362.8 332.617 363.137 332.688C363.474 332.759 363.766 332.874 364.014 333.034C364.28 333.193 364.484 333.415 364.626 333.699C364.768 333.965 364.839 334.31 364.839 334.736V343.222H366.967V334.443C366.967 333.645 366.763 332.971 366.355 332.422C365.965 331.872 365.407 331.455 364.679 331.171C363.97 330.87 363.137 330.719 362.179 330.719C361.044 330.719 360.069 330.888 359.253 331.225C358.455 331.562 357.825 331.899 357.364 332.235L358.402 333.805ZM379.747 322.473V343.222H381.876V322.473H379.747ZM369.506 337.103C369.506 338.416 369.781 339.551 370.331 340.508C370.88 341.466 371.616 342.202 372.539 342.716C373.461 343.231 374.472 343.488 375.571 343.488C376.6 343.488 377.495 343.231 378.258 342.716C379.02 342.202 379.614 341.466 380.04 340.508C380.483 339.551 380.705 338.416 380.705 337.103C380.705 335.773 380.483 334.638 380.04 333.699C379.614 332.741 379.02 332.005 378.258 331.491C377.495 330.976 376.6 330.719 375.571 330.719C374.472 330.719 373.461 330.976 372.539 331.491C371.616 332.005 370.88 332.741 370.331 333.699C369.781 334.638 369.506 335.773 369.506 337.103ZM371.661 337.103C371.661 336.164 371.847 335.366 372.219 334.709C372.61 334.053 373.124 333.557 373.762 333.22C374.401 332.883 375.092 332.714 375.837 332.714C376.458 332.714 377.07 332.883 377.673 333.22C378.276 333.557 378.772 334.053 379.162 334.709C379.552 335.366 379.747 336.164 379.747 337.103C379.747 338.043 379.552 338.841 379.162 339.498C378.772 340.154 378.276 340.65 377.673 340.987C377.07 341.324 376.458 341.493 375.837 341.493C375.092 341.493 374.401 341.324 373.762 340.987C373.124 340.65 372.61 340.154 372.219 339.498C371.847 338.841 371.661 338.043 371.661 337.103ZM384.677 337.103C384.677 338.327 384.952 339.427 385.502 340.402C386.069 341.36 386.832 342.113 387.789 342.663C388.747 343.213 389.82 343.488 391.008 343.488C392.214 343.488 393.287 343.213 394.227 342.663C395.184 342.113 395.938 341.36 396.488 340.402C397.055 339.427 397.339 338.327 397.339 337.103C397.339 335.862 397.055 334.763 396.488 333.805C395.938 332.847 395.184 332.094 394.227 331.544C393.287 330.994 392.214 330.719 391.008 330.719C389.82 330.719 388.747 330.994 387.789 331.544C386.832 332.094 386.069 332.847 385.502 333.805C384.952 334.763 384.677 335.862 384.677 337.103ZM386.832 337.103C386.832 336.252 387.009 335.499 387.364 334.842C387.736 334.168 388.233 333.645 388.853 333.273C389.492 332.9 390.21 332.714 391.008 332.714C391.806 332.714 392.515 332.9 393.136 333.273C393.774 333.645 394.271 334.168 394.626 334.842C394.998 335.499 395.184 336.252 395.184 337.103C395.184 337.955 394.998 338.708 394.626 339.365C394.271 340.021 393.774 340.544 393.136 340.934C392.515 341.306 391.806 341.493 391.008 341.493C390.21 341.493 389.492 341.306 388.853 340.934C388.233 340.544 387.736 340.021 387.364 339.365C387.009 338.708 386.832 337.955 386.832 337.103ZM402.391 330.985H400.262V343.222H402.391V330.985ZM406.088 333.326L407.258 331.57C406.939 331.234 406.585 331.012 406.194 330.905C405.822 330.781 405.414 330.719 404.971 330.719C404.403 330.719 403.845 330.941 403.295 331.384C402.745 331.828 402.293 332.431 401.938 333.193C401.601 333.938 401.433 334.798 401.433 335.773H402.391C402.391 335.188 402.444 334.665 402.55 334.204C402.674 333.743 402.887 333.379 403.189 333.113C403.49 332.847 403.907 332.714 404.439 332.714C404.793 332.714 405.086 332.767 405.317 332.874C405.547 332.963 405.804 333.113 406.088 333.326ZM408.328 342.158C408.328 342.548 408.47 342.894 408.754 343.195C409.055 343.479 409.401 343.621 409.791 343.621C410.199 343.621 410.545 343.479 410.828 343.195C411.112 342.894 411.254 342.548 411.254 342.158C411.254 341.75 411.112 341.404 410.828 341.12C410.545 340.836 410.199 340.695 409.791 340.695C409.401 340.695 409.055 340.836 408.754 341.12C408.47 341.404 408.328 341.75 408.328 342.158ZM416.729 337.103C416.729 336.252 416.906 335.499 417.261 334.842C417.633 334.168 418.13 333.645 418.75 333.273C419.389 332.9 420.107 332.714 420.905 332.714C421.561 332.714 422.173 332.821 422.74 333.034C423.326 333.229 423.831 333.495 424.257 333.832C424.682 334.168 424.984 334.541 425.161 334.949V332.289C424.736 331.792 424.124 331.411 423.326 331.145C422.545 330.861 421.739 330.719 420.905 330.719C419.717 330.719 418.644 330.994 417.686 331.544C416.729 332.094 415.966 332.847 415.399 333.805C414.849 334.763 414.574 335.862 414.574 337.103C414.574 338.327 414.849 339.427 415.399 340.402C415.966 341.36 416.729 342.113 417.686 342.663C418.644 343.213 419.717 343.488 420.905 343.488C421.739 343.488 422.545 343.355 423.326 343.089C424.124 342.805 424.736 342.415 425.161 341.918V339.258C424.984 339.648 424.682 340.021 424.257 340.375C423.831 340.712 423.326 340.987 422.74 341.2C422.173 341.395 421.561 341.493 420.905 341.493C420.107 341.493 419.389 341.306 418.75 340.934C418.13 340.544 417.633 340.021 417.261 339.365C416.906 338.708 416.729 337.955 416.729 337.103Z" fill="white"/>
<rect x="33.4238" y="384.384" width="432.266" height="71.8227" rx="9.31034" fill="white" fill-opacity="0.15"/>
<path d="M108.039 414.246H105.911V434.995H108.039V414.246ZM113.758 427.547V434.995H115.886V427.281C115.886 426.217 115.709 425.33 115.354 424.621C115.017 423.911 114.53 423.379 113.891 423.025C113.271 422.67 112.535 422.493 111.684 422.493C110.832 422.493 110.079 422.714 109.422 423.158C108.784 423.601 108.279 424.204 107.906 424.967C107.534 425.711 107.348 426.571 107.348 427.547H108.039C108.039 426.962 108.163 426.438 108.412 425.977C108.678 425.516 109.041 425.153 109.502 424.887C109.981 424.621 110.531 424.488 111.151 424.488C112.02 424.488 112.668 424.745 113.093 425.259C113.537 425.773 113.758 426.536 113.758 427.547ZM118.025 422.759V424.754H124.143V422.759H118.025ZM120.02 418.503V434.995H122.148V418.503H120.02ZM124.415 422.759V424.754H130.534V422.759H124.415ZM126.41 418.503V434.995H128.539V418.503H126.41ZM134.663 440.847V422.759H132.535V440.847H134.663ZM144.904 428.877C144.904 427.547 144.63 426.412 144.08 425.472C143.53 424.514 142.794 423.778 141.872 423.264C140.967 422.75 139.957 422.493 138.839 422.493C137.829 422.493 136.933 422.75 136.153 423.264C135.39 423.778 134.787 424.514 134.344 425.472C133.918 426.412 133.705 427.547 133.705 428.877C133.705 430.189 133.918 431.324 134.344 432.282C134.787 433.239 135.39 433.975 136.153 434.49C136.933 435.004 137.829 435.261 138.839 435.261C139.957 435.261 140.967 435.004 141.872 434.49C142.794 433.975 143.53 433.239 144.08 432.282C144.63 431.324 144.904 430.189 144.904 428.877ZM142.75 428.877C142.75 429.817 142.555 430.615 142.164 431.271C141.792 431.927 141.287 432.424 140.648 432.761C140.028 433.098 139.336 433.266 138.573 433.266C137.953 433.266 137.341 433.098 136.738 432.761C136.135 432.424 135.638 431.927 135.248 431.271C134.858 430.615 134.663 429.817 134.663 428.877C134.663 427.937 134.858 427.139 135.248 426.483C135.638 425.827 136.135 425.33 136.738 424.993C137.341 424.656 137.953 424.488 138.573 424.488C139.336 424.488 140.028 424.656 140.648 424.993C141.287 425.33 141.792 425.827 142.164 426.483C142.555 427.139 142.75 427.937 142.75 428.877ZM148.344 431.244L146.668 432.282C146.899 432.761 147.236 433.231 147.679 433.692C148.14 434.153 148.699 434.534 149.355 434.836C150.011 435.119 150.747 435.261 151.563 435.261C152.822 435.261 153.833 434.906 154.595 434.197C155.376 433.488 155.766 432.601 155.766 431.537C155.766 430.81 155.589 430.216 155.234 429.755C154.897 429.294 154.436 428.903 153.851 428.584C153.265 428.247 152.618 427.937 151.909 427.653C151.483 427.476 151.075 427.29 150.685 427.095C150.295 426.9 149.976 426.678 149.727 426.43C149.479 426.181 149.355 425.898 149.355 425.578C149.355 425.17 149.515 424.869 149.834 424.674C150.153 424.479 150.534 424.381 150.978 424.381C151.616 424.381 152.184 424.532 152.68 424.834C153.194 425.135 153.62 425.516 153.957 425.977L155.66 424.887C155.411 424.426 155.065 424.018 154.622 423.663C154.179 423.308 153.664 423.025 153.079 422.812C152.512 422.599 151.9 422.493 151.244 422.493C150.588 422.493 149.949 422.608 149.328 422.838C148.726 423.069 148.229 423.424 147.839 423.903C147.466 424.381 147.28 424.984 147.28 425.711C147.28 426.421 147.458 427.015 147.812 427.494C148.185 427.955 148.637 428.336 149.169 428.637C149.719 428.921 150.26 429.17 150.792 429.382C151.27 429.56 151.723 429.755 152.148 429.968C152.574 430.163 152.92 430.411 153.186 430.712C153.469 430.996 153.611 431.351 153.611 431.776C153.611 432.255 153.434 432.636 153.079 432.92C152.742 433.186 152.272 433.319 151.669 433.319C151.173 433.319 150.712 433.231 150.286 433.053C149.878 432.858 149.515 432.601 149.195 432.282C148.876 431.963 148.593 431.617 148.344 431.244ZM159.1 433.931C159.1 434.321 159.241 434.667 159.525 434.969C159.827 435.252 160.172 435.394 160.563 435.394C160.97 435.394 161.316 435.252 161.6 434.969C161.884 434.667 162.026 434.321 162.026 433.931C162.026 433.523 161.884 433.177 161.6 432.894C161.316 432.61 160.97 432.468 160.563 432.468C160.172 432.468 159.827 432.61 159.525 432.894C159.241 433.177 159.1 433.523 159.1 433.931ZM159.1 423.823C159.1 424.213 159.241 424.559 159.525 424.86C159.827 425.144 160.172 425.286 160.563 425.286C160.97 425.286 161.316 425.144 161.6 424.86C161.884 424.559 162.026 424.213 162.026 423.823C162.026 423.415 161.884 423.069 161.6 422.785C161.316 422.502 160.97 422.36 160.563 422.36C160.172 422.36 159.827 422.502 159.525 422.785C159.241 423.069 159.1 423.415 159.1 423.823ZM175.72 416.374L164.947 438.985H167.075L177.848 416.374H175.72ZM186.76 416.374L175.987 438.985H178.115L188.889 416.374H186.76ZM189.129 431.244L187.453 432.282C187.684 432.761 188.021 433.231 188.464 433.692C188.925 434.153 189.484 434.534 190.14 434.836C190.796 435.119 191.532 435.261 192.348 435.261C193.607 435.261 194.618 434.906 195.38 434.197C196.16 433.488 196.551 432.601 196.551 431.537C196.551 430.81 196.373 430.216 196.019 429.755C195.682 429.294 195.221 428.903 194.635 428.584C194.05 428.247 193.403 427.937 192.693 427.653C192.268 427.476 191.86 427.29 191.47 427.095C191.08 426.9 190.76 426.678 190.512 426.43C190.264 426.181 190.14 425.898 190.14 425.578C190.14 425.17 190.299 424.869 190.619 424.674C190.938 424.479 191.319 424.381 191.762 424.381C192.401 424.381 192.968 424.532 193.465 424.834C193.979 425.135 194.405 425.516 194.742 425.977L196.444 424.887C196.196 424.426 195.85 424.018 195.407 423.663C194.963 423.308 194.449 423.025 193.864 422.812C193.296 422.599 192.685 422.493 192.028 422.493C191.372 422.493 190.734 422.608 190.113 422.838C189.51 423.069 189.014 423.424 188.624 423.903C188.251 424.381 188.065 424.984 188.065 425.711C188.065 426.421 188.242 427.015 188.597 427.494C188.969 427.955 189.422 428.336 189.954 428.637C190.503 428.921 191.044 429.17 191.576 429.382C192.055 429.56 192.507 429.755 192.933 429.968C193.359 430.163 193.704 430.411 193.97 430.712C194.254 430.996 194.396 431.351 194.396 431.776C194.396 432.255 194.219 432.636 193.864 432.92C193.527 433.186 193.057 433.319 192.454 433.319C191.958 433.319 191.496 433.231 191.071 433.053C190.663 432.858 190.299 432.601 189.98 432.282C189.661 431.963 189.377 431.617 189.129 431.244ZM201.48 430.207V422.759H199.352V430.473C199.352 431.927 199.734 433.089 200.496 433.958C201.259 434.827 202.278 435.261 203.555 435.261C204.371 435.261 205.08 435.084 205.683 434.729C206.286 434.357 206.792 433.807 207.2 433.08V434.995H209.328V422.759H207.2V430.207C207.2 430.81 207.067 431.342 206.801 431.803C206.552 432.264 206.189 432.628 205.71 432.894C205.249 433.142 204.708 433.266 204.087 433.266C203.236 433.266 202.589 433 202.145 432.468C201.702 431.936 201.48 431.182 201.48 430.207ZM212.982 417.704C212.982 418.095 213.124 418.432 213.408 418.715C213.692 418.999 214.029 419.141 214.419 419.141C214.827 419.141 215.164 418.999 215.43 418.715C215.713 418.432 215.855 418.095 215.855 417.704C215.855 417.297 215.713 416.96 215.43 416.694C215.164 416.41 214.827 416.268 214.419 416.268C214.029 416.268 213.692 416.41 213.408 416.694C213.124 416.96 212.982 417.297 212.982 417.704ZM210.881 438.028L209.71 439.783C209.888 440.014 210.092 440.209 210.322 440.369C210.553 440.528 210.81 440.643 211.094 440.714C211.377 440.803 211.697 440.847 212.051 440.847C212.796 440.847 213.435 440.679 213.967 440.342C214.499 440.005 214.898 439.517 215.164 438.879C215.447 438.24 215.589 437.478 215.589 436.591V422.759H213.461V436.325C213.461 436.893 213.417 437.354 213.328 437.708C213.239 438.063 213.098 438.32 212.903 438.48C212.725 438.639 212.486 438.719 212.184 438.719C211.901 438.719 211.643 438.657 211.413 438.533C211.2 438.409 211.023 438.24 210.881 438.028ZM224.713 435.261C226.026 435.261 227.161 435.004 228.118 434.49C229.094 433.958 229.901 433.177 230.539 432.149L228.81 431.058C228.367 431.803 227.826 432.362 227.187 432.734C226.549 433.089 225.813 433.266 224.979 433.266C224.146 433.266 223.437 433.089 222.851 432.734C222.266 432.379 221.823 431.865 221.521 431.191C221.22 430.517 221.069 429.702 221.069 428.744C221.087 427.804 221.246 427.015 221.548 426.376C221.867 425.72 222.31 425.224 222.878 424.887C223.463 424.532 224.164 424.355 224.979 424.355C225.671 424.355 226.274 424.505 226.788 424.807C227.303 425.108 227.702 425.525 227.985 426.057C228.287 426.589 228.438 427.219 228.438 427.946C228.438 428.07 228.411 428.23 228.358 428.425C228.305 428.602 228.251 428.735 228.198 428.824L229.049 427.6H220.271V429.409H230.725C230.725 429.373 230.725 429.294 230.725 429.17C230.743 429.028 230.752 428.895 230.752 428.77C230.752 427.476 230.521 426.359 230.06 425.419C229.599 424.479 228.934 423.761 228.065 423.264C227.214 422.75 226.185 422.493 224.979 422.493C223.773 422.493 222.709 422.759 221.787 423.291C220.883 423.823 220.173 424.568 219.659 425.525C219.163 426.483 218.914 427.6 218.914 428.877C218.914 430.136 219.154 431.244 219.633 432.202C220.129 433.16 220.812 433.913 221.681 434.463C222.568 434.995 223.578 435.261 224.713 435.261ZM233.669 417.704C233.669 418.095 233.81 418.44 234.094 418.742C234.396 419.026 234.741 419.168 235.132 419.168C235.539 419.168 235.885 419.026 236.169 418.742C236.453 418.44 236.595 418.095 236.595 417.704C236.595 417.297 236.453 416.951 236.169 416.667C235.885 416.383 235.539 416.241 235.132 416.241C234.741 416.241 234.396 416.383 234.094 416.667C233.81 416.951 233.669 417.297 233.669 417.704ZM234.068 422.759V434.995H236.196V422.759H234.068ZM238.717 422.759V424.754H244.835V422.759H238.717ZM240.712 418.503V434.995H242.84V418.503H240.712ZM245.905 428.877C245.905 430.101 246.18 431.2 246.73 432.175C247.297 433.133 248.06 433.887 249.017 434.436C249.975 434.986 251.048 435.261 252.236 435.261C253.442 435.261 254.515 434.986 255.455 434.436C256.412 433.887 257.166 433.133 257.716 432.175C258.283 431.2 258.567 430.101 258.567 428.877C258.567 427.636 258.283 426.536 257.716 425.578C257.166 424.621 256.412 423.867 255.455 423.317C254.515 422.768 253.442 422.493 252.236 422.493C251.048 422.493 249.975 422.768 249.017 423.317C248.06 423.867 247.297 424.621 246.73 425.578C246.18 426.536 245.905 427.636 245.905 428.877ZM248.06 428.877C248.06 428.026 248.237 427.272 248.592 426.616C248.964 425.942 249.461 425.419 250.081 425.046C250.72 424.674 251.438 424.488 252.236 424.488C253.034 424.488 253.743 424.674 254.364 425.046C255.003 425.419 255.499 425.942 255.854 426.616C256.226 427.272 256.412 428.026 256.412 428.877C256.412 429.728 256.226 430.482 255.854 431.138C255.499 431.794 255.003 432.317 254.364 432.707C253.743 433.08 253.034 433.266 252.236 433.266C251.438 433.266 250.72 433.08 250.081 432.707C249.461 432.317 248.964 431.794 248.592 431.138C248.237 430.482 248.06 429.728 248.06 428.877ZM263.486 440.847V422.759H261.357V440.847H263.486ZM273.727 428.877C273.727 427.547 273.452 426.412 272.902 425.472C272.353 424.514 271.617 423.778 270.694 423.264C269.79 422.75 268.779 422.493 267.662 422.493C266.651 422.493 265.756 422.75 264.975 423.264C264.213 423.778 263.61 424.514 263.166 425.472C262.741 426.412 262.528 427.547 262.528 428.877C262.528 430.189 262.741 431.324 263.166 432.282C263.61 433.239 264.213 433.975 264.975 434.49C265.756 435.004 266.651 435.261 267.662 435.261C268.779 435.261 269.79 435.004 270.694 434.49C271.617 433.975 272.353 433.239 272.902 432.282C273.452 431.324 273.727 430.189 273.727 428.877ZM271.572 428.877C271.572 429.817 271.377 430.615 270.987 431.271C270.615 431.927 270.109 432.424 269.471 432.761C268.85 433.098 268.158 433.266 267.396 433.266C266.775 433.266 266.163 433.098 265.56 432.761C264.957 432.424 264.461 431.927 264.071 431.271C263.681 430.615 263.486 429.817 263.486 428.877C263.486 427.937 263.681 427.139 264.071 426.483C264.461 425.827 264.957 425.33 265.56 424.993C266.163 424.656 266.775 424.488 267.396 424.488C268.158 424.488 268.85 424.656 269.471 424.993C270.109 425.33 270.615 425.827 270.987 426.483C271.377 427.139 271.572 427.937 271.572 428.877ZM278.789 422.759H276.661V434.995H278.789V422.759ZM282.487 425.1L283.657 423.344C283.338 423.007 282.984 422.785 282.593 422.679C282.221 422.555 281.813 422.493 281.37 422.493C280.802 422.493 280.244 422.714 279.694 423.158C279.144 423.601 278.692 424.204 278.337 424.967C278 425.711 277.832 426.571 277.832 427.547H278.789C278.789 426.962 278.843 426.438 278.949 425.977C279.073 425.516 279.286 425.153 279.587 424.887C279.889 424.621 280.306 424.488 280.838 424.488C281.192 424.488 281.485 424.541 281.716 424.647C281.946 424.736 282.203 424.887 282.487 425.1ZM284.326 428.877C284.326 430.101 284.601 431.2 285.15 432.175C285.718 433.133 286.48 433.887 287.438 434.436C288.396 434.986 289.469 435.261 290.657 435.261C291.863 435.261 292.936 434.986 293.876 434.436C294.833 433.887 295.587 433.133 296.137 432.175C296.704 431.2 296.988 430.101 296.988 428.877C296.988 427.636 296.704 426.536 296.137 425.578C295.587 424.621 294.833 423.867 293.876 423.317C292.936 422.768 291.863 422.493 290.657 422.493C289.469 422.493 288.396 422.768 287.438 423.317C286.48 423.867 285.718 424.621 285.15 425.578C284.601 426.536 284.326 427.636 284.326 428.877ZM286.48 428.877C286.48 428.026 286.658 427.272 287.012 426.616C287.385 425.942 287.881 425.419 288.502 425.046C289.141 424.674 289.859 424.488 290.657 424.488C291.455 424.488 292.164 424.674 292.785 425.046C293.423 425.419 293.92 425.942 294.275 426.616C294.647 427.272 294.833 428.026 294.833 428.877C294.833 429.728 294.647 430.482 294.275 431.138C293.92 431.794 293.423 432.317 292.785 432.707C292.164 433.08 291.455 433.266 290.657 433.266C289.859 433.266 289.141 433.08 288.502 432.707C287.881 432.317 287.385 431.794 287.012 431.138C286.658 430.482 286.48 429.728 286.48 428.877ZM299.087 435.793C299.087 436.839 299.344 437.762 299.858 438.56C300.372 439.375 301.082 440.005 301.986 440.448C302.908 440.892 303.963 441.113 305.152 441.113C306.18 441.113 307.156 440.874 308.078 440.395C309 439.916 309.754 439.198 310.339 438.24C310.924 437.301 311.217 436.13 311.217 434.729V422.759H309.089V434.729C309.089 435.758 308.885 436.591 308.477 437.23C308.087 437.886 307.59 438.365 306.987 438.666C306.384 438.968 305.772 439.118 305.152 439.118C304.354 439.118 303.662 438.959 303.077 438.639C302.492 438.338 302.039 437.93 301.72 437.416C301.401 436.919 301.241 436.378 301.241 435.793H299.087ZM298.847 428.877C298.847 430.189 299.122 431.324 299.672 432.282C300.222 433.239 300.958 433.975 301.88 434.49C302.802 435.004 303.813 435.261 304.912 435.261C305.941 435.261 306.836 435.004 307.599 434.49C308.362 433.975 308.956 433.239 309.381 432.282C309.825 431.324 310.046 430.189 310.046 428.877C310.046 427.547 309.825 426.412 309.381 425.472C308.956 424.514 308.362 423.778 307.599 423.264C306.836 422.75 305.941 422.493 304.912 422.493C303.813 422.493 302.802 422.75 301.88 423.264C300.958 423.778 300.222 424.514 299.672 425.472C299.122 426.412 298.847 427.547 298.847 428.877ZM301.002 428.877C301.002 427.937 301.188 427.139 301.561 426.483C301.951 425.827 302.465 425.33 303.103 424.993C303.742 424.656 304.433 424.488 305.178 424.488C305.639 424.488 306.1 424.585 306.562 424.78C307.023 424.975 307.439 425.259 307.812 425.632C308.202 426.004 308.512 426.465 308.743 427.015C308.973 427.547 309.089 428.168 309.089 428.877C309.089 429.817 308.894 430.615 308.503 431.271C308.113 431.927 307.617 432.424 307.014 432.761C306.411 433.098 305.799 433.266 305.178 433.266C304.433 433.266 303.742 433.098 303.103 432.761C302.465 432.424 301.951 431.927 301.561 431.271C301.188 430.615 301.002 429.817 301.002 428.877ZM317.21 422.759H315.082V434.995H317.21V422.759ZM320.908 425.1L322.078 423.344C321.759 423.007 321.404 422.785 321.014 422.679C320.642 422.555 320.234 422.493 319.791 422.493C319.223 422.493 318.664 422.714 318.115 423.158C317.565 423.601 317.113 424.204 316.758 424.967C316.421 425.711 316.253 426.571 316.253 427.547H317.21C317.21 426.962 317.263 426.438 317.37 425.977C317.494 425.516 317.707 425.153 318.008 424.887C318.31 424.621 318.726 424.488 319.258 424.488C319.613 424.488 319.906 424.541 320.136 424.647C320.367 424.736 320.624 424.887 320.908 425.1ZM325.158 431.218C325.158 430.774 325.264 430.393 325.477 430.074C325.69 429.755 326.009 429.506 326.435 429.329C326.878 429.152 327.446 429.063 328.137 429.063C328.882 429.063 329.583 429.161 330.239 429.356C330.895 429.533 331.533 429.835 332.154 430.26V429.01C332.03 428.85 331.79 428.646 331.436 428.398C331.081 428.132 330.602 427.902 329.999 427.706C329.414 427.494 328.678 427.387 327.791 427.387C326.284 427.387 325.105 427.751 324.253 428.478C323.42 429.187 323.003 430.136 323.003 431.324C323.003 432.158 323.198 432.867 323.588 433.452C323.979 434.037 324.493 434.49 325.131 434.809C325.787 435.11 326.488 435.261 327.233 435.261C327.907 435.261 328.581 435.137 329.254 434.889C329.946 434.64 330.522 434.259 330.983 433.745C331.462 433.231 331.702 432.583 331.702 431.803L331.276 430.207C331.276 430.845 331.117 431.413 330.797 431.909C330.496 432.388 330.079 432.761 329.547 433.027C329.033 433.293 328.448 433.426 327.791 433.426C327.277 433.426 326.816 433.346 326.408 433.186C326.018 433.009 325.708 432.752 325.477 432.415C325.264 432.078 325.158 431.679 325.158 431.218ZM324.839 425.578C325.034 425.436 325.3 425.268 325.637 425.073C325.974 424.878 326.382 424.709 326.86 424.568C327.357 424.426 327.907 424.355 328.51 424.355C328.882 424.355 329.237 424.39 329.574 424.461C329.911 424.532 330.203 424.647 330.451 424.807C330.717 424.967 330.921 425.188 331.063 425.472C331.205 425.738 331.276 426.084 331.276 426.509V434.995H333.404V426.217C333.404 425.419 333.2 424.745 332.792 424.195C332.402 423.645 331.844 423.229 331.117 422.945C330.407 422.643 329.574 422.493 328.616 422.493C327.481 422.493 326.506 422.661 325.69 422.998C324.892 423.335 324.262 423.672 323.801 424.009L324.839 425.578ZM353.766 427.281C353.766 426.27 353.606 425.41 353.287 424.701C352.985 423.973 352.542 423.424 351.957 423.051C351.372 422.679 350.662 422.493 349.829 422.493C349.013 422.493 348.286 422.688 347.648 423.078C347.009 423.45 346.477 424.018 346.051 424.78C345.768 424.053 345.316 423.495 344.695 423.104C344.092 422.697 343.365 422.493 342.514 422.493C341.751 422.493 341.086 422.661 340.518 422.998C339.969 423.335 339.508 423.849 339.135 424.541V422.759H337.007V434.995H339.135V427.547C339.135 426.908 339.251 426.359 339.481 425.898C339.712 425.436 340.04 425.091 340.465 424.86C340.891 424.612 341.396 424.488 341.982 424.488C342.78 424.488 343.365 424.736 343.737 425.233C344.127 425.729 344.322 426.501 344.322 427.547V434.995H346.451V427.547C346.451 426.908 346.566 426.359 346.796 425.898C347.027 425.436 347.355 425.091 347.781 424.86C348.206 424.612 348.712 424.488 349.297 424.488C350.095 424.488 350.68 424.736 351.052 425.233C351.443 425.729 351.638 426.501 351.638 427.547V434.995H353.766V427.281ZM358.721 431.218C358.721 430.774 358.827 430.393 359.04 430.074C359.253 429.755 359.572 429.506 359.998 429.329C360.441 429.152 361.009 429.063 361.7 429.063C362.445 429.063 363.145 429.161 363.802 429.356C364.458 429.533 365.096 429.835 365.717 430.26V429.01C365.593 428.85 365.353 428.646 364.999 428.398C364.644 428.132 364.165 427.902 363.562 427.706C362.977 427.494 362.241 427.387 361.354 427.387C359.847 427.387 358.668 427.751 357.816 428.478C356.983 429.187 356.566 430.136 356.566 431.324C356.566 432.158 356.761 432.867 357.151 433.452C357.542 434.037 358.056 434.49 358.694 434.809C359.35 435.11 360.051 435.261 360.796 435.261C361.47 435.261 362.143 435.137 362.817 434.889C363.509 434.64 364.085 434.259 364.546 433.745C365.025 433.231 365.265 432.583 365.265 431.803L364.839 430.207C364.839 430.845 364.679 431.413 364.36 431.909C364.059 432.388 363.642 432.761 363.11 433.027C362.596 433.293 362.01 433.426 361.354 433.426C360.84 433.426 360.379 433.346 359.971 433.186C359.581 433.009 359.271 432.752 359.04 432.415C358.827 432.078 358.721 431.679 358.721 431.218ZM358.402 425.578C358.597 425.436 358.863 425.268 359.2 425.073C359.537 424.878 359.944 424.709 360.423 424.568C360.92 424.426 361.47 424.355 362.073 424.355C362.445 424.355 362.8 424.39 363.137 424.461C363.474 424.532 363.766 424.647 364.014 424.807C364.28 424.967 364.484 425.188 364.626 425.472C364.768 425.738 364.839 426.084 364.839 426.509V434.995H366.967V426.217C366.967 425.419 366.763 424.745 366.355 424.195C365.965 423.645 365.407 423.229 364.679 422.945C363.97 422.643 363.137 422.493 362.179 422.493C361.044 422.493 360.069 422.661 359.253 422.998C358.455 423.335 357.825 423.672 357.364 424.009L358.402 425.578ZM379.747 414.246V434.995H381.876V414.246H379.747ZM369.506 428.877C369.506 430.189 369.781 431.324 370.331 432.282C370.88 433.239 371.616 433.975 372.539 434.49C373.461 435.004 374.472 435.261 375.571 435.261C376.6 435.261 377.495 435.004 378.258 434.49C379.02 433.975 379.614 433.239 380.04 432.282C380.483 431.324 380.705 430.189 380.705 428.877C380.705 427.547 380.483 426.412 380.04 425.472C379.614 424.514 379.02 423.778 378.258 423.264C377.495 422.75 376.6 422.493 375.571 422.493C374.472 422.493 373.461 422.75 372.539 423.264C371.616 423.778 370.88 424.514 370.331 425.472C369.781 426.412 369.506 427.547 369.506 428.877ZM371.661 428.877C371.661 427.937 371.847 427.139 372.219 426.483C372.61 425.827 373.124 425.33 373.762 424.993C374.401 424.656 375.092 424.488 375.837 424.488C376.458 424.488 377.07 424.656 377.673 424.993C378.276 425.33 378.772 425.827 379.162 426.483C379.552 427.139 379.747 427.937 379.747 428.877C379.747 429.817 379.552 430.615 379.162 431.271C378.772 431.927 378.276 432.424 377.673 432.761C377.07 433.098 376.458 433.266 375.837 433.266C375.092 433.266 374.401 433.098 373.762 432.761C373.124 432.424 372.61 431.927 372.219 431.271C371.847 430.615 371.661 429.817 371.661 428.877ZM384.677 428.877C384.677 430.101 384.952 431.2 385.502 432.175C386.069 433.133 386.832 433.887 387.789 434.436C388.747 434.986 389.82 435.261 391.008 435.261C392.214 435.261 393.287 434.986 394.227 434.436C395.184 433.887 395.938 433.133 396.488 432.175C397.055 431.2 397.339 430.101 397.339 428.877C397.339 427.636 397.055 426.536 396.488 425.578C395.938 424.621 395.184 423.867 394.227 423.317C393.287 422.768 392.214 422.493 391.008 422.493C389.82 422.493 388.747 422.768 387.789 423.317C386.832 423.867 386.069 424.621 385.502 425.578C384.952 426.536 384.677 427.636 384.677 428.877ZM386.832 428.877C386.832 428.026 387.009 427.272 387.364 426.616C387.736 425.942 388.233 425.419 388.853 425.046C389.492 424.674 390.21 424.488 391.008 424.488C391.806 424.488 392.515 424.674 393.136 425.046C393.774 425.419 394.271 425.942 394.626 426.616C394.998 427.272 395.184 428.026 395.184 428.877C395.184 429.728 394.998 430.482 394.626 431.138C394.271 431.794 393.774 432.317 393.136 432.707C392.515 433.08 391.806 433.266 391.008 433.266C390.21 433.266 389.492 433.08 388.853 432.707C388.233 432.317 387.736 431.794 387.364 431.138C387.009 430.482 386.832 429.728 386.832 428.877ZM402.391 422.759H400.262V434.995H402.391V422.759ZM406.088 425.1L407.258 423.344C406.939 423.007 406.585 422.785 406.194 422.679C405.822 422.555 405.414 422.493 404.971 422.493C404.403 422.493 403.845 422.714 403.295 423.158C402.745 423.601 402.293 424.204 401.938 424.967C401.601 425.711 401.433 426.571 401.433 427.547H402.391C402.391 426.962 402.444 426.438 402.55 425.977C402.674 425.516 402.887 425.153 403.189 424.887C403.49 424.621 403.907 424.488 404.439 424.488C404.793 424.488 405.086 424.541 405.317 424.647C405.547 424.736 405.804 424.887 406.088 425.1ZM408.328 433.931C408.328 434.321 408.47 434.667 408.754 434.969C409.055 435.252 409.401 435.394 409.791 435.394C410.199 435.394 410.545 435.252 410.828 434.969C411.112 434.667 411.254 434.321 411.254 433.931C411.254 433.523 411.112 433.177 410.828 432.894C410.545 432.61 410.199 432.468 409.791 432.468C409.401 432.468 409.055 432.61 408.754 432.894C408.47 433.177 408.328 433.523 408.328 433.931ZM416.729 428.877C416.729 428.026 416.906 427.272 417.261 426.616C417.633 425.942 418.13 425.419 418.75 425.046C419.389 424.674 420.107 424.488 420.905 424.488C421.561 424.488 422.173 424.594 422.74 424.807C423.326 425.002 423.831 425.268 424.257 425.605C424.682 425.942 424.984 426.314 425.161 426.722V424.062C424.736 423.566 424.124 423.184 423.326 422.918C422.545 422.635 421.739 422.493 420.905 422.493C419.717 422.493 418.644 422.768 417.686 423.317C416.729 423.867 415.966 424.621 415.399 425.578C414.849 426.536 414.574 427.636 414.574 428.877C414.574 430.101 414.849 431.2 415.399 432.175C415.966 433.133 416.729 433.887 417.686 434.436C418.644 434.986 419.717 435.261 420.905 435.261C421.739 435.261 422.545 435.128 423.326 434.862C424.124 434.578 424.736 434.188 425.161 433.692V431.032C424.984 431.422 424.682 431.794 424.257 432.149C423.831 432.486 423.326 432.761 422.74 432.973C422.173 433.169 421.561 433.266 420.905 433.266C420.107 433.266 419.389 433.08 418.75 432.707C418.13 432.317 417.633 431.794 417.261 431.138C416.906 430.482 416.729 429.728 416.729 428.877Z" fill="white"/>
<path d="M61.5136 341.384C62.4082 341.386 63.2944 341.211 64.1209 340.869C64.9473 340.527 65.6977 340.024 66.3286 339.39L68.6815 337.037C68.7533 336.965 68.8104 336.881 68.8494 336.787C68.8884 336.694 68.9086 336.594 68.9088 336.493C68.909 336.392 68.8893 336.292 68.8507 336.198C68.8121 336.105 68.7554 336.02 68.6839 335.948C68.6124 335.877 68.5275 335.82 68.434 335.781C68.3405 335.743 68.2403 335.723 68.1392 335.723C68.0381 335.724 67.938 335.744 67.8447 335.783C67.7514 335.822 67.6667 335.879 67.5955 335.951L65.2425 338.304C64.2536 339.293 62.9123 339.848 61.5138 339.848C60.1153 339.848 58.774 339.293 57.7851 338.304C56.7961 337.315 56.2405 335.974 56.2405 334.575C56.2405 333.177 56.796 331.835 57.7849 330.846L64.6635 323.969C65.6533 322.984 66.9931 322.433 68.389 322.435C69.7849 322.437 71.1231 322.992 72.1102 323.979C73.0972 324.966 73.6526 326.305 73.6546 327.7C73.6565 329.096 73.1049 330.436 72.1206 331.426L70.8535 332.693C70.7125 332.838 70.6342 333.032 70.6355 333.234C70.6367 333.436 70.7176 333.629 70.8604 333.772C71.0032 333.915 71.1965 333.996 71.3985 333.997C71.6005 333.998 71.7949 333.92 71.9395 333.779L73.2066 332.512C73.8424 331.88 74.3473 331.13 74.6924 330.303C75.0375 329.476 75.2159 328.589 75.2175 327.692C75.219 326.796 75.0437 325.909 74.7014 325.081C74.3592 324.252 73.8569 323.5 73.2232 322.866C72.5896 322.232 71.8371 321.73 71.0089 321.388C70.1806 321.046 69.293 320.87 68.3969 320.872C67.5008 320.873 66.6137 321.052 65.7867 321.397C64.9597 321.742 64.2089 322.247 63.5774 322.883L56.6989 329.76C55.7466 330.713 55.0981 331.926 54.8354 333.247C54.5727 334.568 54.7076 335.937 55.223 337.181C55.7383 338.425 56.6111 339.488 57.7309 340.237C58.8507 340.985 60.1671 341.384 61.5138 341.384H61.5136Z" fill="white"/>
<path d="M74.2561 321.977L76.6091 319.624C77.599 318.64 78.9387 318.089 80.3347 318.09C81.7306 318.092 83.0688 318.648 84.0558 319.635C85.0429 320.622 85.5983 321.96 85.6003 323.356C85.6023 324.752 85.0506 326.092 84.0664 327.082L77.1878 333.959C76.198 334.944 74.8582 335.495 73.4623 335.493C72.0664 335.491 70.7282 334.936 69.7411 333.949C68.754 332.962 68.1987 331.623 68.1967 330.228C68.1947 328.832 68.7464 327.492 69.7307 326.502L70.9977 325.235C71.0705 325.164 71.1285 325.079 71.1683 324.986C71.2081 324.892 71.2289 324.792 71.2296 324.69C71.2302 324.588 71.2107 324.488 71.1721 324.393C71.1335 324.299 71.0766 324.214 71.0047 324.142C70.9328 324.07 70.8473 324.013 70.7533 323.975C70.6592 323.936 70.5585 323.917 70.4568 323.917C70.3551 323.918 70.2546 323.939 70.1611 323.978C70.0675 324.018 69.9828 324.076 69.9118 324.149L68.6447 325.416C68.0089 326.048 67.5039 326.798 67.1589 327.625C66.8138 328.452 66.6353 329.339 66.6338 330.236C66.6323 331.132 66.8076 332.019 67.1498 332.847C67.492 333.676 67.9944 334.428 68.628 335.062C69.2617 335.696 70.0142 336.198 70.8424 336.54C71.6706 336.882 72.5583 337.058 73.4544 337.056C74.3505 337.055 75.2375 336.876 76.0646 336.531C76.8916 336.186 77.6424 335.681 78.2738 335.045L85.1524 328.168C86.4259 326.89 87.1404 325.159 87.139 323.355C87.1375 321.551 86.4203 319.822 85.1447 318.546C83.8691 317.27 82.1394 316.553 80.3354 316.552C78.5315 316.55 76.8007 317.265 75.523 318.538L73.1701 320.891C73.0983 320.963 73.0412 321.047 73.0022 321.141C72.9632 321.234 72.943 321.334 72.9428 321.435C72.9425 321.536 72.9623 321.636 73.0009 321.73C73.0395 321.823 73.0962 321.908 73.1677 321.98C73.2392 322.051 73.3241 322.108 73.4176 322.147C73.5111 322.185 73.6113 322.205 73.7124 322.205C73.8135 322.204 73.9136 322.184 74.0069 322.145C74.1002 322.106 74.1849 322.049 74.2561 321.977V321.977Z" fill="white"/>
<path d="M57.5234 433.157C58.418 433.16 59.3041 432.985 60.1306 432.642C60.9571 432.3 61.7075 431.797 62.3383 431.163L64.6913 428.81C64.7631 428.739 64.8202 428.654 64.8592 428.561C64.8982 428.468 64.9184 428.368 64.9186 428.266C64.9188 428.165 64.899 428.065 64.8605 427.972C64.8219 427.878 64.7652 427.793 64.6937 427.722C64.6222 427.65 64.5372 427.594 64.4437 427.555C64.3503 427.516 64.2501 427.497 64.149 427.497C64.0478 427.497 63.9478 427.517 63.8544 427.556C63.7611 427.595 63.6765 427.652 63.6053 427.724L61.2522 430.077C60.2633 431.066 58.9221 431.622 57.5236 431.622C56.125 431.622 54.7838 431.066 53.7948 430.077C52.8059 429.088 52.2503 427.747 52.2503 426.349C52.2502 424.95 52.8058 423.609 53.7947 422.62L60.6732 415.742C61.6631 414.758 63.0028 414.206 64.3988 414.208C65.7947 414.21 67.1329 414.766 68.1199 415.753C69.107 416.74 69.6624 418.078 69.6644 419.474C69.6663 420.87 69.1147 422.21 68.1304 423.199L66.8633 424.467C66.7223 424.611 66.644 424.805 66.6452 425.007C66.6465 425.209 66.7273 425.403 66.8701 425.546C67.013 425.688 67.2063 425.769 67.4083 425.771C67.6103 425.772 67.8046 425.693 67.9492 425.552L69.2163 424.285C69.8522 423.654 70.3571 422.903 70.7022 422.076C71.0473 421.249 71.2257 420.362 71.2272 419.466C71.2288 418.57 71.0534 417.682 70.7112 416.854C70.369 416.026 69.8667 415.273 69.233 414.64C68.5993 414.006 67.8468 413.504 67.0186 413.161C66.1904 412.819 65.3028 412.644 64.4067 412.645C63.5105 412.647 62.6235 412.825 61.7965 413.17C60.9695 413.515 60.2187 414.02 59.5872 414.656L52.7087 421.534C51.7564 422.486 51.1079 423.699 50.8452 425.02C50.5825 426.341 50.7173 427.71 51.2327 428.954C51.7481 430.198 52.6209 431.262 53.7407 432.01C54.8604 432.758 56.1769 433.157 57.5236 433.157H57.5234Z" fill="white"/>
<path d="M70.2663 413.751L72.6194 411.398C73.6092 410.414 74.949 409.862 76.3449 409.864C77.7408 409.866 79.079 410.421 80.0661 411.408C81.0532 412.395 81.6086 413.734 81.6105 415.13C81.6125 416.525 81.0609 417.865 80.0766 418.855L73.1981 425.733C72.2082 426.717 70.8685 427.269 69.4725 427.267C68.0766 427.265 66.7384 426.709 65.7514 425.722C64.7643 424.735 64.2089 423.397 64.207 422.001C64.205 420.605 64.7566 419.265 65.7409 418.275L67.008 417.008C67.0808 416.937 67.1388 416.853 67.1786 416.759C67.2184 416.666 67.2392 416.565 67.2398 416.463C67.2405 416.362 67.2209 416.261 67.1823 416.167C67.1437 416.073 67.0868 415.987 67.0149 415.916C66.943 415.844 66.8576 415.787 66.7635 415.748C66.6695 415.71 66.5687 415.69 66.467 415.691C66.3654 415.691 66.2649 415.712 66.1713 415.752C66.0778 415.792 65.993 415.85 65.9221 415.922L64.655 417.19C64.0191 417.821 63.5142 418.572 63.1691 419.399C62.824 420.226 62.6456 421.113 62.6441 422.009C62.6425 422.905 62.8179 423.793 63.1601 424.621C63.5023 425.449 64.0046 426.202 64.6383 426.835C65.272 427.469 66.0245 427.971 66.8527 428.314C67.6809 428.656 68.5685 428.831 69.4646 428.83C70.3608 428.828 71.2478 428.65 72.0748 428.305C72.9018 427.96 73.6526 427.455 74.2841 426.819L81.1626 419.941C82.4362 418.663 83.1507 416.933 83.1492 415.129C83.1478 413.325 82.4305 411.595 81.1549 410.319C79.8793 409.044 78.1496 408.327 76.3457 408.325C74.5417 408.324 72.8109 409.038 71.5333 410.312L69.1803 412.665C69.1085 412.736 69.0515 412.821 69.0124 412.914C68.9734 413.007 68.9532 413.107 68.953 413.208C68.9528 413.31 68.9726 413.41 69.0112 413.503C69.0498 413.597 69.1064 413.682 69.1779 413.753C69.2495 413.825 69.3344 413.881 69.4279 413.92C69.5213 413.959 69.6215 413.978 69.7226 413.978C69.8238 413.978 69.9239 413.958 70.0172 413.919C70.1105 413.88 70.1951 413.823 70.2663 413.751V413.751Z" fill="white"/>
</g>
<defs>
<clipPath id="clip0_104_2">
<rect x="0.172363" width="498.768" height="1080" rx="10.6404" fill="white"/>
</clipPath>
</defs>
</svg>
