<svg width="500" height="1080" viewBox="0 0 500 1080" fill="none" xmlns="http://www.w3.org/2000/svg">
<g clip-path="url(#clip0_104_36)">
<rect x="0.867188" width="498.768" height="1080" rx="10.6404" fill="#141A50"/>
<path d="M154.331 152.365L162.714 165.181L171.141 152.365L172.985 168.034H180.797L175.837 135.774L162.714 154.516L149.634 135.774L144.674 168.034H152.487L154.331 152.365ZM195.133 168.473C197.708 168.473 199.888 167.976 201.673 166.981C203.487 165.986 204.921 164.494 205.975 162.504L200.049 161.056C199.552 161.933 198.879 162.592 198.03 163.031C197.211 163.47 196.216 163.689 195.046 163.689C194.021 163.689 193.158 163.47 192.456 163.031C191.754 162.563 191.227 161.89 190.876 161.012C190.525 160.134 190.349 159.081 190.349 157.852C190.378 156.506 190.554 155.394 190.876 154.516C191.227 153.609 191.739 152.936 192.412 152.497C193.085 152.058 193.919 151.838 194.914 151.838C195.704 151.838 196.392 152.014 196.977 152.365C197.562 152.716 198.016 153.214 198.337 153.857C198.659 154.501 198.82 155.262 198.82 156.14C198.82 156.345 198.762 156.608 198.645 156.93C198.557 157.222 198.44 157.471 198.294 157.676L199.874 155.657H187.408V159.344H205.843C205.901 159.139 205.931 158.89 205.931 158.598C205.931 158.276 205.931 157.954 205.931 157.632C205.931 155.467 205.506 153.623 204.658 152.102C203.809 150.58 202.58 149.424 200.971 148.634C199.362 147.815 197.386 147.405 195.046 147.405C192.705 147.405 190.671 147.83 188.945 148.678C187.247 149.527 185.945 150.741 185.038 152.321C184.131 153.901 183.678 155.774 183.678 157.939C183.678 160.075 184.146 161.933 185.082 163.514C186.019 165.094 187.335 166.323 189.032 167.2C190.759 168.049 192.792 168.473 195.133 168.473ZM216.958 160.134V147.844H210.023V160.836C210.023 163.236 210.594 165.123 211.735 166.498C212.905 167.844 214.749 168.517 217.265 168.517C218.758 168.517 220.001 168.21 220.996 167.596C221.991 166.952 222.796 166.089 223.41 165.006V168.034H230.038V147.844H223.41V160.134C223.41 160.924 223.264 161.597 222.971 162.153C222.679 162.709 222.269 163.133 221.742 163.426C221.245 163.718 220.63 163.865 219.899 163.865C218.816 163.865 218.055 163.543 217.616 162.899C217.178 162.226 216.958 161.304 216.958 160.134ZM236.367 160.705L233.602 165.094C234.509 165.796 235.489 166.44 236.542 167.025C237.596 167.581 238.737 168.02 239.966 168.342C241.224 168.693 242.585 168.868 244.048 168.868C246.447 168.868 248.305 168.327 249.622 167.244C250.968 166.132 251.641 164.494 251.641 162.329C251.641 161.07 251.363 160.061 250.807 159.3C250.28 158.539 249.564 157.91 248.656 157.413C247.779 156.915 246.813 156.476 245.76 156.096C244.765 155.716 243.916 155.408 243.214 155.174C242.541 154.911 242.014 154.633 241.634 154.34C241.283 154.048 241.107 153.682 241.107 153.243C241.107 152.863 241.253 152.555 241.546 152.321C241.868 152.087 242.336 151.97 242.951 151.97C243.858 151.97 244.853 152.233 245.935 152.76C247.018 153.258 247.983 153.901 248.832 154.691L251.202 150.39C250.412 149.805 249.564 149.293 248.656 148.854C247.779 148.415 246.828 148.064 245.803 147.8C244.809 147.537 243.726 147.405 242.556 147.405C241.092 147.405 239.79 147.625 238.649 148.064C237.537 148.503 236.645 149.146 235.972 149.995C235.328 150.844 235.006 151.882 235.006 153.111C235.006 154.399 235.284 155.452 235.84 156.271C236.396 157.091 237.098 157.749 237.947 158.247C238.825 158.715 239.746 159.124 240.712 159.476C241.795 159.797 242.643 160.105 243.258 160.397C243.902 160.69 244.355 160.997 244.618 161.319C244.882 161.612 245.013 161.977 245.013 162.416C245.013 162.884 244.853 163.265 244.531 163.557C244.209 163.85 243.711 163.996 243.038 163.996C242.57 163.996 242.014 163.909 241.37 163.733C240.727 163.528 239.981 163.192 239.132 162.724C238.313 162.226 237.391 161.553 236.367 160.705ZM268.445 133.799V168.034H275.117V133.799H268.445ZM279.881 140.251C279.881 141.304 280.261 142.168 281.022 142.841C281.782 143.514 282.69 143.85 283.743 143.85C284.826 143.85 285.733 143.514 286.464 142.841C287.225 142.168 287.605 141.304 287.605 140.251C287.605 139.198 287.225 138.349 286.464 137.705C285.733 137.032 284.826 136.696 283.743 136.696C282.69 136.696 281.782 137.032 281.022 137.705C280.261 138.349 279.881 139.198 279.881 140.251ZM280.539 147.844V168.034H286.947V147.844H280.539ZM305.529 155.745V168.034H312.42V155.043C312.42 152.614 311.85 150.726 310.709 149.38C309.567 148.034 307.739 147.361 305.222 147.361C303.73 147.361 302.472 147.669 301.447 148.283C300.453 148.898 299.663 149.761 299.077 150.873V147.844H292.406V168.034H299.077V155.745C299.077 154.955 299.224 154.282 299.516 153.726C299.809 153.17 300.218 152.746 300.745 152.453C301.272 152.16 301.886 152.014 302.589 152.014C303.642 152.014 304.388 152.336 304.827 152.98C305.295 153.623 305.529 154.545 305.529 155.745ZM317.608 133.799V168.034H323.972V133.799H317.608ZM331.302 147.844L322.656 156.184L332.312 168.034H340.125L330.6 156.184L339.247 147.844H331.302ZM344.081 160.705L341.316 165.094C342.223 165.796 343.203 166.44 344.257 167.025C345.31 167.581 346.451 168.02 347.68 168.342C348.939 168.693 350.299 168.868 351.762 168.868C354.162 168.868 356.02 168.327 357.337 167.244C358.683 166.132 359.356 164.494 359.356 162.329C359.356 161.07 359.078 160.061 358.522 159.3C357.995 158.539 357.278 157.91 356.371 157.413C355.493 156.915 354.527 156.476 353.474 156.096C352.479 155.716 351.631 155.408 350.928 155.174C350.255 154.911 349.729 154.633 349.348 154.34C348.997 154.048 348.822 153.682 348.822 153.243C348.822 152.863 348.968 152.555 349.261 152.321C349.582 152.087 350.051 151.97 350.665 151.97C351.572 151.97 352.567 152.233 353.65 152.76C354.732 153.258 355.698 153.901 356.547 154.691L358.917 150.39C358.127 149.805 357.278 149.293 356.371 148.854C355.493 148.415 354.542 148.064 353.518 147.8C352.523 147.537 351.44 147.405 350.27 147.405C348.807 147.405 347.505 147.625 346.364 148.064C345.252 148.503 344.359 149.146 343.686 149.995C343.043 150.844 342.721 151.882 342.721 153.111C342.721 154.399 342.999 155.452 343.555 156.271C344.111 157.091 344.813 157.749 345.661 158.247C346.539 158.715 347.461 159.124 348.427 159.476C349.509 159.797 350.358 160.105 350.972 160.397C351.616 160.69 352.07 160.997 352.333 161.319C352.596 161.612 352.728 161.977 352.728 162.416C352.728 162.884 352.567 163.265 352.245 163.557C351.923 163.85 351.426 163.996 350.753 163.996C350.285 163.996 349.729 163.909 349.085 163.733C348.441 163.528 347.695 163.192 346.846 162.724C346.027 162.226 345.105 161.553 344.081 160.705Z" fill="white"/>
<rect x="34.1182" y="211.478" width="432.266" height="71.8227" rx="9.31034" fill="white" fill-opacity="0.15"/>
<path d="M108.734 241.34H106.606V262.089H108.734V241.34ZM114.453 254.64V262.089H116.581V254.374C116.581 253.31 116.404 252.424 116.049 251.714C115.712 251.005 115.225 250.473 114.586 250.118C113.966 249.763 113.23 249.586 112.378 249.586C111.527 249.586 110.773 249.808 110.117 250.251C109.479 250.695 108.973 251.297 108.601 252.06C108.229 252.805 108.042 253.665 108.042 254.64H108.734C108.734 254.055 108.858 253.532 109.106 253.071C109.372 252.61 109.736 252.246 110.197 251.98C110.676 251.714 111.226 251.581 111.846 251.581C112.715 251.581 113.363 251.838 113.788 252.353C114.232 252.867 114.453 253.63 114.453 254.64ZM118.72 249.852V251.847H124.838V249.852H118.72ZM120.715 245.596V262.089H122.843V245.596H120.715ZM125.11 249.852V251.847H131.228V249.852H125.11ZM127.105 245.596V262.089H129.233V245.596H127.105ZM135.358 267.941V249.852H133.23V267.941H135.358ZM145.599 255.97C145.599 254.64 145.324 253.505 144.775 252.565C144.225 251.608 143.489 250.872 142.567 250.358C141.662 249.843 140.651 249.586 139.534 249.586C138.523 249.586 137.628 249.843 136.847 250.358C136.085 250.872 135.482 251.608 135.039 252.565C134.613 253.505 134.4 254.64 134.4 255.97C134.4 257.283 134.613 258.418 135.039 259.375C135.482 260.333 136.085 261.069 136.847 261.583C137.628 262.097 138.523 262.355 139.534 262.355C140.651 262.355 141.662 262.097 142.567 261.583C143.489 261.069 144.225 260.333 144.775 259.375C145.324 258.418 145.599 257.283 145.599 255.97ZM143.445 255.97C143.445 256.91 143.249 257.708 142.859 258.364C142.487 259.021 141.981 259.517 141.343 259.854C140.722 260.191 140.031 260.36 139.268 260.36C138.647 260.36 138.036 260.191 137.433 259.854C136.83 259.517 136.333 259.021 135.943 258.364C135.553 257.708 135.358 256.91 135.358 255.97C135.358 255.03 135.553 254.232 135.943 253.576C136.333 252.92 136.83 252.424 137.433 252.087C138.036 251.75 138.647 251.581 139.268 251.581C140.031 251.581 140.722 251.75 141.343 252.087C141.981 252.424 142.487 252.92 142.859 253.576C143.249 254.232 143.445 255.03 143.445 255.97ZM149.039 258.338L147.363 259.375C147.594 259.854 147.931 260.324 148.374 260.785C148.835 261.246 149.394 261.628 150.05 261.929C150.706 262.213 151.442 262.355 152.258 262.355C153.517 262.355 154.528 262 155.29 261.291C156.071 260.581 156.461 259.695 156.461 258.63C156.461 257.903 156.283 257.309 155.929 256.848C155.592 256.387 155.131 255.997 154.545 255.678C153.96 255.341 153.313 255.03 152.604 254.747C152.178 254.569 151.77 254.383 151.38 254.188C150.99 253.993 150.671 253.771 150.422 253.523C150.174 253.275 150.05 252.991 150.05 252.672C150.05 252.264 150.21 251.963 150.529 251.767C150.848 251.572 151.229 251.475 151.673 251.475C152.311 251.475 152.878 251.626 153.375 251.927C153.889 252.229 154.315 252.61 154.652 253.071L156.354 251.98C156.106 251.519 155.76 251.111 155.317 250.757C154.874 250.402 154.359 250.118 153.774 249.905C153.207 249.693 152.595 249.586 151.939 249.586C151.282 249.586 150.644 249.701 150.023 249.932C149.42 250.163 148.924 250.517 148.534 250.996C148.161 251.475 147.975 252.078 147.975 252.805C147.975 253.514 148.152 254.108 148.507 254.587C148.879 255.048 149.332 255.43 149.864 255.731C150.413 256.015 150.954 256.263 151.486 256.476C151.965 256.653 152.417 256.848 152.843 257.061C153.269 257.256 153.614 257.504 153.88 257.806C154.164 258.09 154.306 258.444 154.306 258.87C154.306 259.349 154.129 259.73 153.774 260.014C153.437 260.28 152.967 260.413 152.364 260.413C151.868 260.413 151.407 260.324 150.981 260.147C150.573 259.952 150.21 259.695 149.89 259.375C149.571 259.056 149.287 258.71 149.039 258.338ZM159.794 261.025C159.794 261.415 159.936 261.761 160.22 262.062C160.521 262.346 160.867 262.488 161.257 262.488C161.665 262.488 162.011 262.346 162.295 262.062C162.579 261.761 162.72 261.415 162.72 261.025C162.72 260.617 162.579 260.271 162.295 259.987C162.011 259.703 161.665 259.562 161.257 259.562C160.867 259.562 160.521 259.703 160.22 259.987C159.936 260.271 159.794 260.617 159.794 261.025ZM159.794 250.916C159.794 251.306 159.936 251.652 160.22 251.954C160.521 252.237 160.867 252.379 161.257 252.379C161.665 252.379 162.011 252.237 162.295 251.954C162.579 251.652 162.72 251.306 162.72 250.916C162.72 250.508 162.579 250.163 162.295 249.879C162.011 249.595 161.665 249.453 161.257 249.453C160.867 249.453 160.521 249.595 160.22 249.879C159.936 250.163 159.794 250.508 159.794 250.916ZM176.415 243.468L165.641 266.079H167.769L178.543 243.468H176.415ZM187.455 243.468L176.682 266.079H178.81L189.583 243.468H187.455ZM189.824 258.338L188.148 259.375C188.378 259.854 188.715 260.324 189.159 260.785C189.62 261.246 190.178 261.628 190.835 261.929C191.491 262.213 192.227 262.355 193.042 262.355C194.302 262.355 195.312 262 196.075 261.291C196.855 260.581 197.245 259.695 197.245 258.63C197.245 257.903 197.068 257.309 196.713 256.848C196.376 256.387 195.915 255.997 195.33 255.678C194.745 255.341 194.098 255.03 193.388 254.747C192.963 254.569 192.555 254.383 192.165 254.188C191.775 253.993 191.455 253.771 191.207 253.523C190.959 253.275 190.835 252.991 190.835 252.672C190.835 252.264 190.994 251.963 191.313 251.767C191.633 251.572 192.014 251.475 192.457 251.475C193.096 251.475 193.663 251.626 194.16 251.927C194.674 252.229 195.1 252.61 195.437 253.071L197.139 251.98C196.891 251.519 196.545 251.111 196.102 250.757C195.658 250.402 195.144 250.118 194.559 249.905C193.991 249.693 193.379 249.586 192.723 249.586C192.067 249.586 191.429 249.701 190.808 249.932C190.205 250.163 189.709 250.517 189.318 250.996C188.946 251.475 188.76 252.078 188.76 252.805C188.76 253.514 188.937 254.108 189.292 254.587C189.664 255.048 190.116 255.43 190.648 255.731C191.198 256.015 191.739 256.263 192.271 256.476C192.75 256.653 193.202 256.848 193.628 257.061C194.053 257.256 194.399 257.504 194.665 257.806C194.949 258.09 195.091 258.444 195.091 258.87C195.091 259.349 194.913 259.73 194.559 260.014C194.222 260.28 193.752 260.413 193.149 260.413C192.652 260.413 192.191 260.324 191.766 260.147C191.358 259.952 190.994 259.695 190.675 259.375C190.356 259.056 190.072 258.71 189.824 258.338ZM202.175 257.3V249.852H200.047V257.566C200.047 259.021 200.428 260.182 201.191 261.051C201.953 261.92 202.973 262.355 204.25 262.355C205.066 262.355 205.775 262.177 206.378 261.823C206.981 261.45 207.486 260.9 207.894 260.173V262.089H210.022V249.852H207.894V257.3C207.894 257.903 207.761 258.435 207.495 258.897C207.247 259.358 206.884 259.721 206.405 259.987C205.944 260.235 205.403 260.36 204.782 260.36C203.931 260.36 203.284 260.094 202.84 259.562C202.397 259.03 202.175 258.276 202.175 257.3ZM213.677 244.798C213.677 245.188 213.819 245.525 214.103 245.809C214.387 246.093 214.723 246.234 215.114 246.234C215.522 246.234 215.858 246.093 216.124 245.809C216.408 245.525 216.55 245.188 216.55 244.798C216.55 244.39 216.408 244.053 216.124 243.787C215.858 243.503 215.522 243.362 215.114 243.362C214.723 243.362 214.387 243.503 214.103 243.787C213.819 244.053 213.677 244.39 213.677 244.798ZM211.576 265.121L210.405 266.877C210.583 267.107 210.787 267.302 211.017 267.462C211.248 267.622 211.505 267.737 211.788 267.808C212.072 267.897 212.391 267.941 212.746 267.941C213.491 267.941 214.129 267.772 214.661 267.435C215.193 267.098 215.592 266.611 215.858 265.972C216.142 265.334 216.284 264.571 216.284 263.685V249.852H214.156V263.419C214.156 263.986 214.112 264.447 214.023 264.802C213.934 265.157 213.792 265.414 213.597 265.573C213.42 265.733 213.181 265.813 212.879 265.813C212.595 265.813 212.338 265.751 212.108 265.627C211.895 265.502 211.718 265.334 211.576 265.121ZM225.408 262.355C226.721 262.355 227.855 262.097 228.813 261.583C229.788 261.051 230.595 260.271 231.234 259.242L229.505 258.152C229.061 258.897 228.521 259.455 227.882 259.828C227.244 260.182 226.508 260.36 225.674 260.36C224.841 260.36 224.131 260.182 223.546 259.828C222.961 259.473 222.518 258.959 222.216 258.285C221.915 257.611 221.764 256.795 221.764 255.837C221.782 254.897 221.941 254.108 222.243 253.47C222.562 252.814 223.005 252.317 223.573 251.98C224.158 251.626 224.858 251.448 225.674 251.448C226.366 251.448 226.969 251.599 227.483 251.9C227.997 252.202 228.396 252.619 228.68 253.151C228.982 253.683 229.132 254.312 229.132 255.039C229.132 255.163 229.106 255.323 229.053 255.518C228.999 255.696 228.946 255.829 228.893 255.917L229.744 254.694H220.966V256.502H231.42C231.42 256.467 231.42 256.387 231.42 256.263C231.438 256.121 231.447 255.988 231.447 255.864C231.447 254.569 231.216 253.452 230.755 252.512C230.294 251.572 229.629 250.854 228.76 250.358C227.909 249.843 226.88 249.586 225.674 249.586C224.468 249.586 223.404 249.852 222.482 250.384C221.578 250.916 220.868 251.661 220.354 252.619C219.857 253.576 219.609 254.694 219.609 255.97C219.609 257.23 219.849 258.338 220.327 259.296C220.824 260.253 221.507 261.007 222.376 261.557C223.262 262.089 224.273 262.355 225.408 262.355ZM234.363 244.798C234.363 245.188 234.505 245.534 234.789 245.835C235.09 246.119 235.436 246.261 235.826 246.261C236.234 246.261 236.58 246.119 236.864 245.835C237.148 245.534 237.289 245.188 237.289 244.798C237.289 244.39 237.148 244.044 236.864 243.761C236.58 243.477 236.234 243.335 235.826 243.335C235.436 243.335 235.09 243.477 234.789 243.761C234.505 244.044 234.363 244.39 234.363 244.798ZM234.762 249.852V262.089H236.89V249.852H234.762ZM239.411 249.852V251.847H245.53V249.852H239.411ZM241.406 245.596V262.089H243.534V245.596H241.406ZM246.6 255.97C246.6 257.194 246.875 258.294 247.424 259.269C247.992 260.227 248.755 260.98 249.712 261.53C250.67 262.08 251.743 262.355 252.931 262.355C254.137 262.355 255.21 262.08 256.15 261.53C257.107 260.98 257.861 260.227 258.411 259.269C258.978 258.294 259.262 257.194 259.262 255.97C259.262 254.729 258.978 253.63 258.411 252.672C257.861 251.714 257.107 250.961 256.15 250.411C255.21 249.861 254.137 249.586 252.931 249.586C251.743 249.586 250.67 249.861 249.712 250.411C248.755 250.961 247.992 251.714 247.424 252.672C246.875 253.63 246.6 254.729 246.6 255.97ZM248.755 255.97C248.755 255.119 248.932 254.365 249.287 253.709C249.659 253.035 250.156 252.512 250.776 252.14C251.415 251.767 252.133 251.581 252.931 251.581C253.729 251.581 254.438 251.767 255.059 252.14C255.697 252.512 256.194 253.035 256.549 253.709C256.921 254.365 257.107 255.119 257.107 255.97C257.107 256.822 256.921 257.575 256.549 258.231C256.194 258.888 255.697 259.411 255.059 259.801C254.438 260.173 253.729 260.36 252.931 260.36C252.133 260.36 251.415 260.173 250.776 259.801C250.156 259.411 249.659 258.888 249.287 258.231C248.932 257.575 248.755 256.822 248.755 255.97ZM264.18 267.941V249.852H262.052V267.941H264.18ZM274.422 255.97C274.422 254.64 274.147 253.505 273.597 252.565C273.047 251.608 272.311 250.872 271.389 250.358C270.485 249.843 269.474 249.586 268.357 249.586C267.346 249.586 266.45 249.843 265.67 250.358C264.907 250.872 264.305 251.608 263.861 252.565C263.436 253.505 263.223 254.64 263.223 255.97C263.223 257.283 263.436 258.418 263.861 259.375C264.305 260.333 264.907 261.069 265.67 261.583C266.45 262.097 267.346 262.355 268.357 262.355C269.474 262.355 270.485 262.097 271.389 261.583C272.311 261.069 273.047 260.333 273.597 259.375C274.147 258.418 274.422 257.283 274.422 255.97ZM272.267 255.97C272.267 256.91 272.072 257.708 271.682 258.364C271.309 259.021 270.804 259.517 270.166 259.854C269.545 260.191 268.853 260.36 268.091 260.36C267.47 260.36 266.858 260.191 266.255 259.854C265.652 259.517 265.156 259.021 264.766 258.364C264.375 257.708 264.18 256.91 264.18 255.97C264.18 255.03 264.375 254.232 264.766 253.576C265.156 252.92 265.652 252.424 266.255 252.087C266.858 251.75 267.47 251.581 268.091 251.581C268.853 251.581 269.545 251.75 270.166 252.087C270.804 252.424 271.309 252.92 271.682 253.576C272.072 254.232 272.267 255.03 272.267 255.97ZM279.484 249.852H277.356V262.089H279.484V249.852ZM283.182 252.193L284.352 250.437C284.033 250.1 283.678 249.879 283.288 249.772C282.916 249.648 282.508 249.586 282.065 249.586C281.497 249.586 280.938 249.808 280.389 250.251C279.839 250.695 279.387 251.297 279.032 252.06C278.695 252.805 278.527 253.665 278.527 254.64H279.484C279.484 254.055 279.537 253.532 279.644 253.071C279.768 252.61 279.981 252.246 280.282 251.98C280.584 251.714 281.001 251.581 281.533 251.581C281.887 251.581 282.18 251.634 282.41 251.741C282.641 251.83 282.898 251.98 283.182 252.193ZM285.021 255.97C285.021 257.194 285.295 258.294 285.845 259.269C286.413 260.227 287.175 260.98 288.133 261.53C289.091 262.08 290.163 262.355 291.352 262.355C292.558 262.355 293.63 262.08 294.57 261.53C295.528 260.98 296.282 260.227 296.831 259.269C297.399 258.294 297.683 257.194 297.683 255.97C297.683 254.729 297.399 253.63 296.831 252.672C296.282 251.714 295.528 250.961 294.57 250.411C293.63 249.861 292.558 249.586 291.352 249.586C290.163 249.586 289.091 249.861 288.133 250.411C287.175 250.961 286.413 251.714 285.845 252.672C285.295 253.63 285.021 254.729 285.021 255.97ZM287.175 255.97C287.175 255.119 287.353 254.365 287.707 253.709C288.08 253.035 288.576 252.512 289.197 252.14C289.835 251.767 290.554 251.581 291.352 251.581C292.15 251.581 292.859 251.767 293.48 252.14C294.118 252.512 294.615 253.035 294.969 253.709C295.342 254.365 295.528 255.119 295.528 255.97C295.528 256.822 295.342 257.575 294.969 258.231C294.615 258.888 294.118 259.411 293.48 259.801C292.859 260.173 292.15 260.36 291.352 260.36C290.554 260.36 289.835 260.173 289.197 259.801C288.576 259.411 288.08 258.888 287.707 258.231C287.353 257.575 287.175 256.822 287.175 255.97ZM299.781 262.887C299.781 263.933 300.039 264.855 300.553 265.653C301.067 266.469 301.777 267.098 302.681 267.542C303.603 267.985 304.658 268.207 305.846 268.207C306.875 268.207 307.85 267.967 308.773 267.489C309.695 267.01 310.448 266.292 311.034 265.334C311.619 264.394 311.912 263.224 311.912 261.823V249.852H309.783V261.823C309.783 262.851 309.579 263.685 309.172 264.323C308.781 264.979 308.285 265.458 307.682 265.76C307.079 266.061 306.467 266.212 305.846 266.212C305.048 266.212 304.357 266.052 303.772 265.733C303.186 265.431 302.734 265.024 302.415 264.509C302.096 264.013 301.936 263.472 301.936 262.887H299.781ZM299.542 255.97C299.542 257.283 299.817 258.418 300.367 259.375C300.916 260.333 301.652 261.069 302.575 261.583C303.497 262.097 304.508 262.355 305.607 262.355C306.636 262.355 307.531 262.097 308.294 261.583C309.056 261.069 309.65 260.333 310.076 259.375C310.519 258.418 310.741 257.283 310.741 255.97C310.741 254.64 310.519 253.505 310.076 252.565C309.65 251.608 309.056 250.872 308.294 250.358C307.531 249.843 306.636 249.586 305.607 249.586C304.508 249.586 303.497 249.843 302.575 250.358C301.652 250.872 300.916 251.608 300.367 252.565C299.817 253.505 299.542 254.64 299.542 255.97ZM301.697 255.97C301.697 255.03 301.883 254.232 302.255 253.576C302.645 252.92 303.16 252.424 303.798 252.087C304.437 251.75 305.128 251.581 305.873 251.581C306.334 251.581 306.795 251.679 307.256 251.874C307.717 252.069 308.134 252.353 308.507 252.725C308.897 253.097 309.207 253.559 309.438 254.108C309.668 254.64 309.783 255.261 309.783 255.97C309.783 256.91 309.588 257.708 309.198 258.364C308.808 259.021 308.312 259.517 307.709 259.854C307.106 260.191 306.494 260.36 305.873 260.36C305.128 260.36 304.437 260.191 303.798 259.854C303.16 259.517 302.645 259.021 302.255 258.364C301.883 257.708 301.697 256.91 301.697 255.97ZM317.905 249.852H315.777V262.089H317.905V249.852ZM321.603 252.193L322.773 250.437C322.454 250.1 322.099 249.879 321.709 249.772C321.337 249.648 320.929 249.586 320.485 249.586C319.918 249.586 319.359 249.808 318.809 250.251C318.26 250.695 317.807 251.297 317.453 252.06C317.116 252.805 316.947 253.665 316.947 254.64H317.905C317.905 254.055 317.958 253.532 318.065 253.071C318.189 252.61 318.402 252.246 318.703 251.98C319.005 251.714 319.421 251.581 319.953 251.581C320.308 251.581 320.601 251.634 320.831 251.741C321.062 251.83 321.319 251.98 321.603 252.193ZM325.853 258.311C325.853 257.868 325.959 257.487 326.172 257.167C326.385 256.848 326.704 256.6 327.13 256.423C327.573 256.245 328.14 256.157 328.832 256.157C329.577 256.157 330.277 256.254 330.933 256.449C331.59 256.627 332.228 256.928 332.849 257.354V256.103C332.725 255.944 332.485 255.74 332.131 255.492C331.776 255.226 331.297 254.995 330.694 254.8C330.109 254.587 329.373 254.481 328.486 254.481C326.979 254.481 325.8 254.844 324.948 255.571C324.115 256.281 323.698 257.23 323.698 258.418C323.698 259.251 323.893 259.961 324.283 260.546C324.673 261.131 325.188 261.583 325.826 261.902C326.482 262.204 327.183 262.355 327.928 262.355C328.601 262.355 329.275 262.23 329.949 261.982C330.641 261.734 331.217 261.353 331.678 260.838C332.157 260.324 332.397 259.677 332.397 258.897L331.971 257.3C331.971 257.939 331.811 258.506 331.492 259.003C331.191 259.482 330.774 259.854 330.242 260.12C329.728 260.386 329.142 260.519 328.486 260.519C327.972 260.519 327.511 260.439 327.103 260.28C326.713 260.102 326.402 259.845 326.172 259.508C325.959 259.171 325.853 258.772 325.853 258.311ZM325.533 252.672C325.729 252.53 325.995 252.362 326.332 252.166C326.668 251.971 327.076 251.803 327.555 251.661C328.052 251.519 328.601 251.448 329.204 251.448C329.577 251.448 329.932 251.484 330.268 251.555C330.605 251.626 330.898 251.741 331.146 251.9C331.412 252.06 331.616 252.282 331.758 252.565C331.9 252.831 331.971 253.177 331.971 253.603V262.089H334.099V253.31C334.099 252.512 333.895 251.838 333.487 251.289C333.097 250.739 332.538 250.322 331.811 250.038C331.102 249.737 330.268 249.586 329.311 249.586C328.176 249.586 327.2 249.755 326.385 250.092C325.587 250.429 324.957 250.765 324.496 251.102L325.533 252.672ZM354.461 254.374C354.461 253.363 354.301 252.503 353.982 251.794C353.68 251.067 353.237 250.517 352.652 250.145C352.067 249.772 351.357 249.586 350.524 249.586C349.708 249.586 348.981 249.781 348.342 250.171C347.704 250.544 347.172 251.111 346.746 251.874C346.463 251.147 346.01 250.588 345.39 250.198C344.787 249.79 344.06 249.586 343.208 249.586C342.446 249.586 341.781 249.755 341.213 250.092C340.664 250.429 340.202 250.943 339.83 251.634V249.852H337.702V262.089H339.83V254.64C339.83 254.002 339.945 253.452 340.176 252.991C340.406 252.53 340.734 252.184 341.16 251.954C341.586 251.705 342.091 251.581 342.676 251.581C343.474 251.581 344.06 251.83 344.432 252.326C344.822 252.823 345.017 253.594 345.017 254.64V262.089H347.145V254.64C347.145 254.002 347.261 253.452 347.491 252.991C347.722 252.53 348.05 252.184 348.475 251.954C348.901 251.705 349.406 251.581 349.992 251.581C350.79 251.581 351.375 251.83 351.747 252.326C352.137 252.823 352.333 253.594 352.333 254.64V262.089H354.461V254.374ZM359.416 258.311C359.416 257.868 359.522 257.487 359.735 257.167C359.948 256.848 360.267 256.6 360.693 256.423C361.136 256.245 361.703 256.157 362.395 256.157C363.14 256.157 363.84 256.254 364.496 256.449C365.153 256.627 365.791 256.928 366.412 257.354V256.103C366.288 255.944 366.048 255.74 365.693 255.492C365.339 255.226 364.86 254.995 364.257 254.8C363.672 254.587 362.936 254.481 362.049 254.481C360.542 254.481 359.362 254.844 358.511 255.571C357.678 256.281 357.261 257.23 357.261 258.418C357.261 259.251 357.456 259.961 357.846 260.546C358.236 261.131 358.751 261.583 359.389 261.902C360.045 262.204 360.746 262.355 361.491 262.355C362.164 262.355 362.838 262.23 363.512 261.982C364.204 261.734 364.78 261.353 365.241 260.838C365.72 260.324 365.96 259.677 365.96 258.897L365.534 257.3C365.534 257.939 365.374 258.506 365.055 259.003C364.754 259.482 364.337 259.854 363.805 260.12C363.291 260.386 362.705 260.519 362.049 260.519C361.535 260.519 361.074 260.439 360.666 260.28C360.276 260.102 359.965 259.845 359.735 259.508C359.522 259.171 359.416 258.772 359.416 258.311ZM359.096 252.672C359.292 252.53 359.558 252.362 359.894 252.166C360.231 251.971 360.639 251.803 361.118 251.661C361.615 251.519 362.164 251.448 362.767 251.448C363.14 251.448 363.494 251.484 363.831 251.555C364.168 251.626 364.461 251.741 364.709 251.9C364.975 252.06 365.179 252.282 365.321 252.565C365.463 252.831 365.534 253.177 365.534 253.603V262.089H367.662V253.31C367.662 252.512 367.458 251.838 367.05 251.289C366.66 250.739 366.101 250.322 365.374 250.038C364.665 249.737 363.831 249.586 362.874 249.586C361.739 249.586 360.763 249.755 359.948 250.092C359.15 250.429 358.52 250.765 358.059 251.102L359.096 252.672ZM380.442 241.34V262.089H382.57V241.34H380.442ZM370.201 255.97C370.201 257.283 370.476 258.418 371.026 259.375C371.575 260.333 372.311 261.069 373.233 261.583C374.156 262.097 375.166 262.355 376.266 262.355C377.294 262.355 378.19 262.097 378.953 261.583C379.715 261.069 380.309 260.333 380.735 259.375C381.178 258.418 381.4 257.283 381.4 255.97C381.4 254.64 381.178 253.505 380.735 252.565C380.309 251.608 379.715 250.872 378.953 250.358C378.19 249.843 377.294 249.586 376.266 249.586C375.166 249.586 374.156 249.843 373.233 250.358C372.311 250.872 371.575 251.608 371.026 252.565C370.476 253.505 370.201 254.64 370.201 255.97ZM372.356 255.97C372.356 255.03 372.542 254.232 372.914 253.576C373.304 252.92 373.819 252.424 374.457 252.087C375.095 251.75 375.787 251.581 376.532 251.581C377.153 251.581 377.764 251.75 378.367 252.087C378.97 252.424 379.467 252.92 379.857 253.576C380.247 254.232 380.442 255.03 380.442 255.97C380.442 256.91 380.247 257.708 379.857 258.364C379.467 259.021 378.97 259.517 378.367 259.854C377.764 260.191 377.153 260.36 376.532 260.36C375.787 260.36 375.095 260.191 374.457 259.854C373.819 259.517 373.304 259.021 372.914 258.364C372.542 257.708 372.356 256.91 372.356 255.97ZM385.372 255.97C385.372 257.194 385.647 258.294 386.196 259.269C386.764 260.227 387.526 260.98 388.484 261.53C389.442 262.08 390.515 262.355 391.703 262.355C392.909 262.355 393.982 262.08 394.922 261.53C395.879 260.98 396.633 260.227 397.183 259.269C397.75 258.294 398.034 257.194 398.034 255.97C398.034 254.729 397.75 253.63 397.183 252.672C396.633 251.714 395.879 250.961 394.922 250.411C393.982 249.861 392.909 249.586 391.703 249.586C390.515 249.586 389.442 249.861 388.484 250.411C387.526 250.961 386.764 251.714 386.196 252.672C385.647 253.63 385.372 254.729 385.372 255.97ZM387.526 255.97C387.526 255.119 387.704 254.365 388.058 253.709C388.431 253.035 388.927 252.512 389.548 252.14C390.187 251.767 390.905 251.581 391.703 251.581C392.501 251.581 393.21 251.767 393.831 252.14C394.469 252.512 394.966 253.035 395.321 253.709C395.693 254.365 395.879 255.119 395.879 255.97C395.879 256.822 395.693 257.575 395.321 258.231C394.966 258.888 394.469 259.411 393.831 259.801C393.21 260.173 392.501 260.36 391.703 260.36C390.905 260.36 390.187 260.173 389.548 259.801C388.927 259.411 388.431 258.888 388.058 258.231C387.704 257.575 387.526 256.822 387.526 255.97ZM403.085 249.852H400.957V262.089H403.085V249.852ZM406.783 252.193L407.953 250.437C407.634 250.1 407.279 249.879 406.889 249.772C406.517 249.648 406.109 249.586 405.666 249.586C405.098 249.586 404.54 249.808 403.99 250.251C403.44 250.695 402.988 251.297 402.633 252.06C402.296 252.805 402.128 253.665 402.128 254.64H403.085C403.085 254.055 403.139 253.532 403.245 253.071C403.369 252.61 403.582 252.246 403.883 251.98C404.185 251.714 404.602 251.581 405.134 251.581C405.488 251.581 405.781 251.634 406.011 251.741C406.242 251.83 406.499 251.98 406.783 252.193ZM409.023 261.025C409.023 261.415 409.165 261.761 409.448 262.062C409.75 262.346 410.096 262.488 410.486 262.488C410.894 262.488 411.24 262.346 411.523 262.062C411.807 261.761 411.949 261.415 411.949 261.025C411.949 260.617 411.807 260.271 411.523 259.987C411.24 259.703 410.894 259.562 410.486 259.562C410.096 259.562 409.75 259.703 409.448 259.987C409.165 260.271 409.023 260.617 409.023 261.025ZM417.423 255.97C417.423 255.119 417.601 254.365 417.955 253.709C418.328 253.035 418.824 252.512 419.445 252.14C420.084 251.767 420.802 251.581 421.6 251.581C422.256 251.581 422.868 251.688 423.435 251.9C424.021 252.096 424.526 252.362 424.952 252.698C425.377 253.035 425.679 253.408 425.856 253.816V251.156C425.43 250.659 424.819 250.278 424.021 250.012C423.24 249.728 422.433 249.586 421.6 249.586C420.412 249.586 419.339 249.861 418.381 250.411C417.423 250.961 416.661 251.714 416.093 252.672C415.544 253.63 415.269 254.729 415.269 255.97C415.269 257.194 415.544 258.294 416.093 259.269C416.661 260.227 417.423 260.98 418.381 261.53C419.339 262.08 420.412 262.355 421.6 262.355C422.433 262.355 423.24 262.222 424.021 261.956C424.819 261.672 425.43 261.282 425.856 260.785V258.125C425.679 258.515 425.377 258.888 424.952 259.242C424.526 259.579 424.021 259.854 423.435 260.067C422.868 260.262 422.256 260.36 421.6 260.36C420.802 260.36 420.084 260.173 419.445 259.801C418.824 259.411 418.328 258.888 417.955 258.231C417.601 257.575 417.423 256.822 417.423 255.97Z" fill="white"/>
<rect x="34.1182" y="303.251" width="432.266" height="71.8227" rx="9.31034" fill="white" fill-opacity="0.15"/>
<path d="M108.734 333.113H106.606V353.862H108.734V333.113ZM114.453 346.414V353.862H116.581V346.148C116.581 345.084 116.404 344.197 116.049 343.488C115.712 342.778 115.225 342.246 114.586 341.892C113.966 341.537 113.23 341.36 112.378 341.36C111.527 341.36 110.773 341.581 110.117 342.025C109.479 342.468 108.973 343.071 108.601 343.833C108.229 344.578 108.042 345.438 108.042 346.414H108.734C108.734 345.829 108.858 345.305 109.106 344.844C109.372 344.383 109.736 344.02 110.197 343.754C110.676 343.488 111.226 343.355 111.846 343.355C112.715 343.355 113.363 343.612 113.788 344.126C114.232 344.64 114.453 345.403 114.453 346.414ZM118.72 341.626V343.621H124.838V341.626H118.72ZM120.715 337.369V353.862H122.843V337.369H120.715ZM125.11 341.626V343.621H131.228V341.626H125.11ZM127.105 337.369V353.862H129.233V337.369H127.105ZM135.358 359.714V341.626H133.23V359.714H135.358ZM145.599 347.744C145.599 346.414 145.324 345.279 144.775 344.339C144.225 343.381 143.489 342.645 142.567 342.131C141.662 341.617 140.651 341.36 139.534 341.36C138.523 341.36 137.628 341.617 136.847 342.131C136.085 342.645 135.482 343.381 135.039 344.339C134.613 345.279 134.4 346.414 134.4 347.744C134.4 349.056 134.613 350.191 135.039 351.149C135.482 352.106 136.085 352.842 136.847 353.357C137.628 353.871 138.523 354.128 139.534 354.128C140.651 354.128 141.662 353.871 142.567 353.357C143.489 352.842 144.225 352.106 144.775 351.149C145.324 350.191 145.599 349.056 145.599 347.744ZM143.445 347.744C143.445 348.684 143.249 349.482 142.859 350.138C142.487 350.794 141.981 351.291 141.343 351.628C140.722 351.965 140.031 352.133 139.268 352.133C138.647 352.133 138.036 351.965 137.433 351.628C136.83 351.291 136.333 350.794 135.943 350.138C135.553 349.482 135.358 348.684 135.358 347.744C135.358 346.804 135.553 346.006 135.943 345.35C136.333 344.694 136.83 344.197 137.433 343.86C138.036 343.523 138.647 343.355 139.268 343.355C140.031 343.355 140.722 343.523 141.343 343.86C141.981 344.197 142.487 344.694 142.859 345.35C143.249 346.006 143.445 346.804 143.445 347.744ZM149.039 350.111L147.363 351.149C147.594 351.628 147.931 352.098 148.374 352.559C148.835 353.02 149.394 353.401 150.05 353.702C150.706 353.986 151.442 354.128 152.258 354.128C153.517 354.128 154.528 353.773 155.29 353.064C156.071 352.355 156.461 351.468 156.461 350.404C156.461 349.677 156.283 349.083 155.929 348.622C155.592 348.161 155.131 347.77 154.545 347.451C153.96 347.114 153.313 346.804 152.604 346.52C152.178 346.343 151.77 346.157 151.38 345.962C150.99 345.766 150.671 345.545 150.422 345.297C150.174 345.048 150.05 344.765 150.05 344.445C150.05 344.037 150.21 343.736 150.529 343.541C150.848 343.346 151.229 343.248 151.673 343.248C152.311 343.248 152.878 343.399 153.375 343.7C153.889 344.002 154.315 344.383 154.652 344.844L156.354 343.754C156.106 343.293 155.76 342.885 155.317 342.53C154.874 342.175 154.359 341.892 153.774 341.679C153.207 341.466 152.595 341.36 151.939 341.36C151.282 341.36 150.644 341.475 150.023 341.705C149.42 341.936 148.924 342.291 148.534 342.769C148.161 343.248 147.975 343.851 147.975 344.578C147.975 345.288 148.152 345.882 148.507 346.361C148.879 346.822 149.332 347.203 149.864 347.504C150.413 347.788 150.954 348.036 151.486 348.249C151.965 348.427 152.417 348.622 152.843 348.834C153.269 349.03 153.614 349.278 153.88 349.579C154.164 349.863 154.306 350.218 154.306 350.643C154.306 351.122 154.129 351.503 153.774 351.787C153.437 352.053 152.967 352.186 152.364 352.186C151.868 352.186 151.407 352.098 150.981 351.92C150.573 351.725 150.21 351.468 149.89 351.149C149.571 350.83 149.287 350.484 149.039 350.111ZM159.794 352.798C159.794 353.188 159.936 353.534 160.22 353.835C160.521 354.119 160.867 354.261 161.257 354.261C161.665 354.261 162.011 354.119 162.295 353.835C162.579 353.534 162.72 353.188 162.72 352.798C162.72 352.39 162.579 352.044 162.295 351.761C162.011 351.477 161.665 351.335 161.257 351.335C160.867 351.335 160.521 351.477 160.22 351.761C159.936 352.044 159.794 352.39 159.794 352.798ZM159.794 342.69C159.794 343.08 159.936 343.426 160.22 343.727C160.521 344.011 160.867 344.153 161.257 344.153C161.665 344.153 162.011 344.011 162.295 343.727C162.579 343.426 162.72 343.08 162.72 342.69C162.72 342.282 162.579 341.936 162.295 341.652C162.011 341.368 161.665 341.227 161.257 341.227C160.867 341.227 160.521 341.368 160.22 341.652C159.936 341.936 159.794 342.282 159.794 342.69ZM176.415 335.241L165.641 357.852H167.769L178.543 335.241H176.415ZM187.455 335.241L176.682 357.852H178.81L189.583 335.241H187.455ZM189.824 350.111L188.148 351.149C188.378 351.628 188.715 352.098 189.159 352.559C189.62 353.02 190.178 353.401 190.835 353.702C191.491 353.986 192.227 354.128 193.042 354.128C194.302 354.128 195.312 353.773 196.075 353.064C196.855 352.355 197.245 351.468 197.245 350.404C197.245 349.677 197.068 349.083 196.713 348.622C196.376 348.161 195.915 347.77 195.33 347.451C194.745 347.114 194.098 346.804 193.388 346.52C192.963 346.343 192.555 346.157 192.165 345.962C191.775 345.766 191.455 345.545 191.207 345.297C190.959 345.048 190.835 344.765 190.835 344.445C190.835 344.037 190.994 343.736 191.313 343.541C191.633 343.346 192.014 343.248 192.457 343.248C193.096 343.248 193.663 343.399 194.16 343.7C194.674 344.002 195.1 344.383 195.437 344.844L197.139 343.754C196.891 343.293 196.545 342.885 196.102 342.53C195.658 342.175 195.144 341.892 194.559 341.679C193.991 341.466 193.379 341.36 192.723 341.36C192.067 341.36 191.429 341.475 190.808 341.705C190.205 341.936 189.709 342.291 189.318 342.769C188.946 343.248 188.76 343.851 188.76 344.578C188.76 345.288 188.937 345.882 189.292 346.361C189.664 346.822 190.116 347.203 190.648 347.504C191.198 347.788 191.739 348.036 192.271 348.249C192.75 348.427 193.202 348.622 193.628 348.834C194.053 349.03 194.399 349.278 194.665 349.579C194.949 349.863 195.091 350.218 195.091 350.643C195.091 351.122 194.913 351.503 194.559 351.787C194.222 352.053 193.752 352.186 193.149 352.186C192.652 352.186 192.191 352.098 191.766 351.92C191.358 351.725 190.994 351.468 190.675 351.149C190.356 350.83 190.072 350.484 189.824 350.111ZM202.175 349.074V341.626H200.047V349.34C200.047 350.794 200.428 351.956 201.191 352.825C201.953 353.694 202.973 354.128 204.25 354.128C205.066 354.128 205.775 353.951 206.378 353.596C206.981 353.224 207.486 352.674 207.894 351.947V353.862H210.022V341.626H207.894V349.074C207.894 349.677 207.761 350.209 207.495 350.67C207.247 351.131 206.884 351.495 206.405 351.761C205.944 352.009 205.403 352.133 204.782 352.133C203.931 352.133 203.284 351.867 202.84 351.335C202.397 350.803 202.175 350.049 202.175 349.074ZM213.677 336.571C213.677 336.962 213.819 337.299 214.103 337.582C214.387 337.866 214.723 338.008 215.114 338.008C215.522 338.008 215.858 337.866 216.124 337.582C216.408 337.299 216.55 336.962 216.55 336.571C216.55 336.164 216.408 335.827 216.124 335.561C215.858 335.277 215.522 335.135 215.114 335.135C214.723 335.135 214.387 335.277 214.103 335.561C213.819 335.827 213.677 336.164 213.677 336.571ZM211.576 356.895L210.405 358.65C210.583 358.881 210.787 359.076 211.017 359.235C211.248 359.395 211.505 359.51 211.788 359.581C212.072 359.67 212.391 359.714 212.746 359.714C213.491 359.714 214.129 359.546 214.661 359.209C215.193 358.872 215.592 358.384 215.858 357.746C216.142 357.107 216.284 356.345 216.284 355.458V341.626H214.156V355.192C214.156 355.76 214.112 356.221 214.023 356.575C213.934 356.93 213.792 357.187 213.597 357.347C213.42 357.506 213.181 357.586 212.879 357.586C212.595 357.586 212.338 357.524 212.108 357.4C211.895 357.276 211.718 357.107 211.576 356.895ZM225.408 354.128C226.721 354.128 227.855 353.871 228.813 353.357C229.788 352.825 230.595 352.044 231.234 351.016L229.505 349.925C229.061 350.67 228.521 351.229 227.882 351.601C227.244 351.956 226.508 352.133 225.674 352.133C224.841 352.133 224.131 351.956 223.546 351.601C222.961 351.246 222.518 350.732 222.216 350.058C221.915 349.384 221.764 348.568 221.764 347.611C221.782 346.671 221.941 345.882 222.243 345.243C222.562 344.587 223.005 344.091 223.573 343.754C224.158 343.399 224.858 343.222 225.674 343.222C226.366 343.222 226.969 343.372 227.483 343.674C227.997 343.975 228.396 344.392 228.68 344.924C228.982 345.456 229.132 346.086 229.132 346.813C229.132 346.937 229.106 347.097 229.053 347.292C228.999 347.469 228.946 347.602 228.893 347.691L229.744 346.467H220.966V348.276H231.42C231.42 348.24 231.42 348.161 231.42 348.036C231.438 347.895 231.447 347.762 231.447 347.637C231.447 346.343 231.216 345.226 230.755 344.286C230.294 343.346 229.629 342.628 228.76 342.131C227.909 341.617 226.88 341.36 225.674 341.36C224.468 341.36 223.404 341.626 222.482 342.158C221.578 342.69 220.868 343.434 220.354 344.392C219.857 345.35 219.609 346.467 219.609 347.744C219.609 349.003 219.849 350.111 220.327 351.069C220.824 352.027 221.507 352.78 222.376 353.33C223.262 353.862 224.273 354.128 225.408 354.128ZM234.363 336.571C234.363 336.962 234.505 337.307 234.789 337.609C235.09 337.893 235.436 338.034 235.826 338.034C236.234 338.034 236.58 337.893 236.864 337.609C237.148 337.307 237.289 336.962 237.289 336.571C237.289 336.164 237.148 335.818 236.864 335.534C236.58 335.25 236.234 335.108 235.826 335.108C235.436 335.108 235.09 335.25 234.789 335.534C234.505 335.818 234.363 336.164 234.363 336.571ZM234.762 341.626V353.862H236.89V341.626H234.762ZM239.411 341.626V343.621H245.53V341.626H239.411ZM241.406 337.369V353.862H243.534V337.369H241.406ZM246.6 347.744C246.6 348.967 246.875 350.067 247.424 351.042C247.992 352 248.755 352.754 249.712 353.303C250.67 353.853 251.743 354.128 252.931 354.128C254.137 354.128 255.21 353.853 256.15 353.303C257.107 352.754 257.861 352 258.411 351.042C258.978 350.067 259.262 348.967 259.262 347.744C259.262 346.502 258.978 345.403 258.411 344.445C257.861 343.488 257.107 342.734 256.15 342.184C255.21 341.634 254.137 341.36 252.931 341.36C251.743 341.36 250.67 341.634 249.712 342.184C248.755 342.734 247.992 343.488 247.424 344.445C246.875 345.403 246.6 346.502 246.6 347.744ZM248.755 347.744C248.755 346.893 248.932 346.139 249.287 345.483C249.659 344.809 250.156 344.286 250.776 343.913C251.415 343.541 252.133 343.355 252.931 343.355C253.729 343.355 254.438 343.541 255.059 343.913C255.697 344.286 256.194 344.809 256.549 345.483C256.921 346.139 257.107 346.893 257.107 347.744C257.107 348.595 256.921 349.349 256.549 350.005C256.194 350.661 255.697 351.184 255.059 351.574C254.438 351.947 253.729 352.133 252.931 352.133C252.133 352.133 251.415 351.947 250.776 351.574C250.156 351.184 249.659 350.661 249.287 350.005C248.932 349.349 248.755 348.595 248.755 347.744ZM264.18 359.714V341.626H262.052V359.714H264.18ZM274.422 347.744C274.422 346.414 274.147 345.279 273.597 344.339C273.047 343.381 272.311 342.645 271.389 342.131C270.485 341.617 269.474 341.36 268.357 341.36C267.346 341.36 266.45 341.617 265.67 342.131C264.907 342.645 264.305 343.381 263.861 344.339C263.436 345.279 263.223 346.414 263.223 347.744C263.223 349.056 263.436 350.191 263.861 351.149C264.305 352.106 264.907 352.842 265.67 353.357C266.45 353.871 267.346 354.128 268.357 354.128C269.474 354.128 270.485 353.871 271.389 353.357C272.311 352.842 273.047 352.106 273.597 351.149C274.147 350.191 274.422 349.056 274.422 347.744ZM272.267 347.744C272.267 348.684 272.072 349.482 271.682 350.138C271.309 350.794 270.804 351.291 270.166 351.628C269.545 351.965 268.853 352.133 268.091 352.133C267.47 352.133 266.858 351.965 266.255 351.628C265.652 351.291 265.156 350.794 264.766 350.138C264.375 349.482 264.18 348.684 264.18 347.744C264.18 346.804 264.375 346.006 264.766 345.35C265.156 344.694 265.652 344.197 266.255 343.86C266.858 343.523 267.47 343.355 268.091 343.355C268.853 343.355 269.545 343.523 270.166 343.86C270.804 344.197 271.309 344.694 271.682 345.35C272.072 346.006 272.267 346.804 272.267 347.744ZM279.484 341.626H277.356V353.862H279.484V341.626ZM283.182 343.966L284.352 342.211C284.033 341.874 283.678 341.652 283.288 341.546C282.916 341.422 282.508 341.36 282.065 341.36C281.497 341.36 280.938 341.581 280.389 342.025C279.839 342.468 279.387 343.071 279.032 343.833C278.695 344.578 278.527 345.438 278.527 346.414H279.484C279.484 345.829 279.537 345.305 279.644 344.844C279.768 344.383 279.981 344.02 280.282 343.754C280.584 343.488 281.001 343.355 281.533 343.355C281.887 343.355 282.18 343.408 282.41 343.514C282.641 343.603 282.898 343.754 283.182 343.966ZM285.021 347.744C285.021 348.967 285.295 350.067 285.845 351.042C286.413 352 287.175 352.754 288.133 353.303C289.091 353.853 290.163 354.128 291.352 354.128C292.558 354.128 293.63 353.853 294.57 353.303C295.528 352.754 296.282 352 296.831 351.042C297.399 350.067 297.683 348.967 297.683 347.744C297.683 346.502 297.399 345.403 296.831 344.445C296.282 343.488 295.528 342.734 294.57 342.184C293.63 341.634 292.558 341.36 291.352 341.36C290.163 341.36 289.091 341.634 288.133 342.184C287.175 342.734 286.413 343.488 285.845 344.445C285.295 345.403 285.021 346.502 285.021 347.744ZM287.175 347.744C287.175 346.893 287.353 346.139 287.707 345.483C288.08 344.809 288.576 344.286 289.197 343.913C289.835 343.541 290.554 343.355 291.352 343.355C292.15 343.355 292.859 343.541 293.48 343.913C294.118 344.286 294.615 344.809 294.969 345.483C295.342 346.139 295.528 346.893 295.528 347.744C295.528 348.595 295.342 349.349 294.969 350.005C294.615 350.661 294.118 351.184 293.48 351.574C292.859 351.947 292.15 352.133 291.352 352.133C290.554 352.133 289.835 351.947 289.197 351.574C288.576 351.184 288.08 350.661 287.707 350.005C287.353 349.349 287.175 348.595 287.175 347.744ZM299.781 354.66C299.781 355.706 300.039 356.629 300.553 357.427C301.067 358.242 301.777 358.872 302.681 359.315C303.603 359.759 304.658 359.98 305.846 359.98C306.875 359.98 307.85 359.741 308.773 359.262C309.695 358.783 310.448 358.065 311.034 357.107C311.619 356.167 311.912 354.997 311.912 353.596V341.626H309.783V353.596C309.783 354.625 309.579 355.458 309.172 356.097C308.781 356.753 308.285 357.232 307.682 357.533C307.079 357.834 306.467 357.985 305.846 357.985C305.048 357.985 304.357 357.826 303.772 357.506C303.186 357.205 302.734 356.797 302.415 356.283C302.096 355.786 301.936 355.245 301.936 354.66H299.781ZM299.542 347.744C299.542 349.056 299.817 350.191 300.367 351.149C300.916 352.106 301.652 352.842 302.575 353.357C303.497 353.871 304.508 354.128 305.607 354.128C306.636 354.128 307.531 353.871 308.294 353.357C309.056 352.842 309.65 352.106 310.076 351.149C310.519 350.191 310.741 349.056 310.741 347.744C310.741 346.414 310.519 345.279 310.076 344.339C309.65 343.381 309.056 342.645 308.294 342.131C307.531 341.617 306.636 341.36 305.607 341.36C304.508 341.36 303.497 341.617 302.575 342.131C301.652 342.645 300.916 343.381 300.367 344.339C299.817 345.279 299.542 346.414 299.542 347.744ZM301.697 347.744C301.697 346.804 301.883 346.006 302.255 345.35C302.645 344.694 303.16 344.197 303.798 343.86C304.437 343.523 305.128 343.355 305.873 343.355C306.334 343.355 306.795 343.452 307.256 343.647C307.717 343.842 308.134 344.126 308.507 344.499C308.897 344.871 309.207 345.332 309.438 345.882C309.668 346.414 309.783 347.034 309.783 347.744C309.783 348.684 309.588 349.482 309.198 350.138C308.808 350.794 308.312 351.291 307.709 351.628C307.106 351.965 306.494 352.133 305.873 352.133C305.128 352.133 304.437 351.965 303.798 351.628C303.16 351.291 302.645 350.794 302.255 350.138C301.883 349.482 301.697 348.684 301.697 347.744ZM317.905 341.626H315.777V353.862H317.905V341.626ZM321.603 343.966L322.773 342.211C322.454 341.874 322.099 341.652 321.709 341.546C321.337 341.422 320.929 341.36 320.485 341.36C319.918 341.36 319.359 341.581 318.809 342.025C318.26 342.468 317.807 343.071 317.453 343.833C317.116 344.578 316.947 345.438 316.947 346.414H317.905C317.905 345.829 317.958 345.305 318.065 344.844C318.189 344.383 318.402 344.02 318.703 343.754C319.005 343.488 319.421 343.355 319.953 343.355C320.308 343.355 320.601 343.408 320.831 343.514C321.062 343.603 321.319 343.754 321.603 343.966ZM325.853 350.085C325.853 349.641 325.959 349.26 326.172 348.941C326.385 348.622 326.704 348.373 327.13 348.196C327.573 348.019 328.14 347.93 328.832 347.93C329.577 347.93 330.277 348.028 330.933 348.223C331.59 348.4 332.228 348.701 332.849 349.127V347.877C332.725 347.717 332.485 347.513 332.131 347.265C331.776 346.999 331.297 346.768 330.694 346.573C330.109 346.361 329.373 346.254 328.486 346.254C326.979 346.254 325.8 346.618 324.948 347.345C324.115 348.054 323.698 349.003 323.698 350.191C323.698 351.025 323.893 351.734 324.283 352.319C324.673 352.904 325.188 353.357 325.826 353.676C326.482 353.977 327.183 354.128 327.928 354.128C328.601 354.128 329.275 354.004 329.949 353.756C330.641 353.507 331.217 353.126 331.678 352.612C332.157 352.098 332.397 351.45 332.397 350.67L331.971 349.074C331.971 349.712 331.811 350.28 331.492 350.776C331.191 351.255 330.774 351.628 330.242 351.894C329.728 352.16 329.142 352.293 328.486 352.293C327.972 352.293 327.511 352.213 327.103 352.053C326.713 351.876 326.402 351.619 326.172 351.282C325.959 350.945 325.853 350.546 325.853 350.085ZM325.533 344.445C325.729 344.303 325.995 344.135 326.332 343.94C326.668 343.745 327.076 343.576 327.555 343.434C328.052 343.293 328.601 343.222 329.204 343.222C329.577 343.222 329.932 343.257 330.268 343.328C330.605 343.399 330.898 343.514 331.146 343.674C331.412 343.833 331.616 344.055 331.758 344.339C331.9 344.605 331.971 344.951 331.971 345.376V353.862H334.099V345.084C334.099 344.286 333.895 343.612 333.487 343.062C333.097 342.512 332.538 342.096 331.811 341.812C331.102 341.51 330.268 341.36 329.311 341.36C328.176 341.36 327.2 341.528 326.385 341.865C325.587 342.202 324.957 342.539 324.496 342.876L325.533 344.445ZM354.461 346.148C354.461 345.137 354.301 344.277 353.982 343.567C353.68 342.84 353.237 342.291 352.652 341.918C352.067 341.546 351.357 341.36 350.524 341.36C349.708 341.36 348.981 341.555 348.342 341.945C347.704 342.317 347.172 342.885 346.746 343.647C346.463 342.92 346.01 342.362 345.39 341.971C344.787 341.564 344.06 341.36 343.208 341.36C342.446 341.36 341.781 341.528 341.213 341.865C340.664 342.202 340.202 342.716 339.83 343.408V341.626H337.702V353.862H339.83V346.414C339.83 345.775 339.945 345.226 340.176 344.765C340.406 344.303 340.734 343.958 341.16 343.727C341.586 343.479 342.091 343.355 342.676 343.355C343.474 343.355 344.06 343.603 344.432 344.099C344.822 344.596 345.017 345.367 345.017 346.414V353.862H347.145V346.414C347.145 345.775 347.261 345.226 347.491 344.765C347.722 344.303 348.05 343.958 348.475 343.727C348.901 343.479 349.406 343.355 349.992 343.355C350.79 343.355 351.375 343.603 351.747 344.099C352.137 344.596 352.333 345.367 352.333 346.414V353.862H354.461V346.148ZM359.416 350.085C359.416 349.641 359.522 349.26 359.735 348.941C359.948 348.622 360.267 348.373 360.693 348.196C361.136 348.019 361.703 347.93 362.395 347.93C363.14 347.93 363.84 348.028 364.496 348.223C365.153 348.4 365.791 348.701 366.412 349.127V347.877C366.288 347.717 366.048 347.513 365.693 347.265C365.339 346.999 364.86 346.768 364.257 346.573C363.672 346.361 362.936 346.254 362.049 346.254C360.542 346.254 359.362 346.618 358.511 347.345C357.678 348.054 357.261 349.003 357.261 350.191C357.261 351.025 357.456 351.734 357.846 352.319C358.236 352.904 358.751 353.357 359.389 353.676C360.045 353.977 360.746 354.128 361.491 354.128C362.164 354.128 362.838 354.004 363.512 353.756C364.204 353.507 364.78 353.126 365.241 352.612C365.72 352.098 365.96 351.45 365.96 350.67L365.534 349.074C365.534 349.712 365.374 350.28 365.055 350.776C364.754 351.255 364.337 351.628 363.805 351.894C363.291 352.16 362.705 352.293 362.049 352.293C361.535 352.293 361.074 352.213 360.666 352.053C360.276 351.876 359.965 351.619 359.735 351.282C359.522 350.945 359.416 350.546 359.416 350.085ZM359.096 344.445C359.292 344.303 359.558 344.135 359.894 343.94C360.231 343.745 360.639 343.576 361.118 343.434C361.615 343.293 362.164 343.222 362.767 343.222C363.14 343.222 363.494 343.257 363.831 343.328C364.168 343.399 364.461 343.514 364.709 343.674C364.975 343.833 365.179 344.055 365.321 344.339C365.463 344.605 365.534 344.951 365.534 345.376V353.862H367.662V345.084C367.662 344.286 367.458 343.612 367.05 343.062C366.66 342.512 366.101 342.096 365.374 341.812C364.665 341.51 363.831 341.36 362.874 341.36C361.739 341.36 360.763 341.528 359.948 341.865C359.15 342.202 358.52 342.539 358.059 342.876L359.096 344.445ZM380.442 333.113V353.862H382.57V333.113H380.442ZM370.201 347.744C370.201 349.056 370.476 350.191 371.026 351.149C371.575 352.106 372.311 352.842 373.233 353.357C374.156 353.871 375.166 354.128 376.266 354.128C377.294 354.128 378.19 353.871 378.953 353.357C379.715 352.842 380.309 352.106 380.735 351.149C381.178 350.191 381.4 349.056 381.4 347.744C381.4 346.414 381.178 345.279 380.735 344.339C380.309 343.381 379.715 342.645 378.953 342.131C378.19 341.617 377.294 341.36 376.266 341.36C375.166 341.36 374.156 341.617 373.233 342.131C372.311 342.645 371.575 343.381 371.026 344.339C370.476 345.279 370.201 346.414 370.201 347.744ZM372.356 347.744C372.356 346.804 372.542 346.006 372.914 345.35C373.304 344.694 373.819 344.197 374.457 343.86C375.095 343.523 375.787 343.355 376.532 343.355C377.153 343.355 377.764 343.523 378.367 343.86C378.97 344.197 379.467 344.694 379.857 345.35C380.247 346.006 380.442 346.804 380.442 347.744C380.442 348.684 380.247 349.482 379.857 350.138C379.467 350.794 378.97 351.291 378.367 351.628C377.764 351.965 377.153 352.133 376.532 352.133C375.787 352.133 375.095 351.965 374.457 351.628C373.819 351.291 373.304 350.794 372.914 350.138C372.542 349.482 372.356 348.684 372.356 347.744ZM385.372 347.744C385.372 348.967 385.647 350.067 386.196 351.042C386.764 352 387.526 352.754 388.484 353.303C389.442 353.853 390.515 354.128 391.703 354.128C392.909 354.128 393.982 353.853 394.922 353.303C395.879 352.754 396.633 352 397.183 351.042C397.75 350.067 398.034 348.967 398.034 347.744C398.034 346.502 397.75 345.403 397.183 344.445C396.633 343.488 395.879 342.734 394.922 342.184C393.982 341.634 392.909 341.36 391.703 341.36C390.515 341.36 389.442 341.634 388.484 342.184C387.526 342.734 386.764 343.488 386.196 344.445C385.647 345.403 385.372 346.502 385.372 347.744ZM387.526 347.744C387.526 346.893 387.704 346.139 388.058 345.483C388.431 344.809 388.927 344.286 389.548 343.913C390.187 343.541 390.905 343.355 391.703 343.355C392.501 343.355 393.21 343.541 393.831 343.913C394.469 344.286 394.966 344.809 395.321 345.483C395.693 346.139 395.879 346.893 395.879 347.744C395.879 348.595 395.693 349.349 395.321 350.005C394.966 350.661 394.469 351.184 393.831 351.574C393.21 351.947 392.501 352.133 391.703 352.133C390.905 352.133 390.187 351.947 389.548 351.574C388.927 351.184 388.431 350.661 388.058 350.005C387.704 349.349 387.526 348.595 387.526 347.744ZM403.085 341.626H400.957V353.862H403.085V341.626ZM406.783 343.966L407.953 342.211C407.634 341.874 407.279 341.652 406.889 341.546C406.517 341.422 406.109 341.36 405.666 341.36C405.098 341.36 404.54 341.581 403.99 342.025C403.44 342.468 402.988 343.071 402.633 343.833C402.296 344.578 402.128 345.438 402.128 346.414H403.085C403.085 345.829 403.139 345.305 403.245 344.844C403.369 344.383 403.582 344.02 403.883 343.754C404.185 343.488 404.602 343.355 405.134 343.355C405.488 343.355 405.781 343.408 406.011 343.514C406.242 343.603 406.499 343.754 406.783 343.966ZM409.023 352.798C409.023 353.188 409.165 353.534 409.448 353.835C409.75 354.119 410.096 354.261 410.486 354.261C410.894 354.261 411.24 354.119 411.523 353.835C411.807 353.534 411.949 353.188 411.949 352.798C411.949 352.39 411.807 352.044 411.523 351.761C411.24 351.477 410.894 351.335 410.486 351.335C410.096 351.335 409.75 351.477 409.448 351.761C409.165 352.044 409.023 352.39 409.023 352.798ZM417.423 347.744C417.423 346.893 417.601 346.139 417.955 345.483C418.328 344.809 418.824 344.286 419.445 343.913C420.084 343.541 420.802 343.355 421.6 343.355C422.256 343.355 422.868 343.461 423.435 343.674C424.021 343.869 424.526 344.135 424.952 344.472C425.377 344.809 425.679 345.181 425.856 345.589V342.929C425.43 342.433 424.819 342.051 424.021 341.785C423.24 341.501 422.433 341.36 421.6 341.36C420.412 341.36 419.339 341.634 418.381 342.184C417.423 342.734 416.661 343.488 416.093 344.445C415.544 345.403 415.269 346.502 415.269 347.744C415.269 348.967 415.544 350.067 416.093 351.042C416.661 352 417.423 352.754 418.381 353.303C419.339 353.853 420.412 354.128 421.6 354.128C422.433 354.128 423.24 353.995 424.021 353.729C424.819 353.445 425.43 353.055 425.856 352.559V349.899C425.679 350.289 425.377 350.661 424.952 351.016C424.526 351.353 424.021 351.628 423.435 351.84C422.868 352.035 422.256 352.133 421.6 352.133C420.802 352.133 420.084 351.947 419.445 351.574C418.824 351.184 418.328 350.661 417.955 350.005C417.601 349.349 417.423 348.595 417.423 347.744Z" fill="white"/>
<rect x="34.1182" y="395.025" width="432.266" height="71.8227" rx="9.31034" fill="white" fill-opacity="0.15"/>
<path d="M108.734 424.887H106.606V445.635H108.734V424.887ZM114.453 438.187V445.635H116.581V437.921C116.581 436.857 116.404 435.97 116.049 435.261C115.712 434.552 115.225 434.02 114.586 433.665C113.966 433.31 113.23 433.133 112.378 433.133C111.527 433.133 110.773 433.355 110.117 433.798C109.479 434.241 108.973 434.844 108.601 435.607C108.229 436.352 108.042 437.212 108.042 438.187H108.734C108.734 437.602 108.858 437.079 109.106 436.618C109.372 436.157 109.736 435.793 110.197 435.527C110.676 435.261 111.226 435.128 111.846 435.128C112.715 435.128 113.363 435.385 113.788 435.9C114.232 436.414 114.453 437.176 114.453 438.187ZM118.72 433.399V435.394H124.838V433.399H118.72ZM120.715 429.143V445.635H122.843V429.143H120.715ZM125.11 433.399V435.394H131.228V433.399H125.11ZM127.105 429.143V445.635H129.233V429.143H127.105ZM135.358 451.488V433.399H133.23V451.488H135.358ZM145.599 439.517C145.599 438.187 145.324 437.052 144.775 436.112C144.225 435.155 143.489 434.419 142.567 433.904C141.662 433.39 140.651 433.133 139.534 433.133C138.523 433.133 137.628 433.39 136.847 433.904C136.085 434.419 135.482 435.155 135.039 436.112C134.613 437.052 134.4 438.187 134.4 439.517C134.4 440.83 134.613 441.965 135.039 442.922C135.482 443.88 136.085 444.616 136.847 445.13C137.628 445.644 138.523 445.902 139.534 445.902C140.651 445.902 141.662 445.644 142.567 445.13C143.489 444.616 144.225 443.88 144.775 442.922C145.324 441.965 145.599 440.83 145.599 439.517ZM143.445 439.517C143.445 440.457 143.249 441.255 142.859 441.911C142.487 442.568 141.981 443.064 141.343 443.401C140.722 443.738 140.031 443.906 139.268 443.906C138.647 443.906 138.036 443.738 137.433 443.401C136.83 443.064 136.333 442.568 135.943 441.911C135.553 441.255 135.358 440.457 135.358 439.517C135.358 438.577 135.553 437.779 135.943 437.123C136.333 436.467 136.83 435.97 137.433 435.634C138.036 435.297 138.647 435.128 139.268 435.128C140.031 435.128 140.722 435.297 141.343 435.634C141.981 435.97 142.487 436.467 142.859 437.123C143.249 437.779 143.445 438.577 143.445 439.517ZM149.039 441.885L147.363 442.922C147.594 443.401 147.931 443.871 148.374 444.332C148.835 444.793 149.394 445.174 150.05 445.476C150.706 445.76 151.442 445.902 152.258 445.902C153.517 445.902 154.528 445.547 155.29 444.837C156.071 444.128 156.461 443.241 156.461 442.177C156.461 441.45 156.283 440.856 155.929 440.395C155.592 439.934 155.131 439.544 154.545 439.225C153.96 438.888 153.313 438.577 152.604 438.294C152.178 438.116 151.77 437.93 151.38 437.735C150.99 437.54 150.671 437.318 150.422 437.07C150.174 436.822 150.05 436.538 150.05 436.219C150.05 435.811 150.21 435.509 150.529 435.314C150.848 435.119 151.229 435.022 151.673 435.022C152.311 435.022 152.878 435.172 153.375 435.474C153.889 435.775 154.315 436.157 154.652 436.618L156.354 435.527C156.106 435.066 155.76 434.658 155.317 434.303C154.874 433.949 154.359 433.665 153.774 433.452C153.207 433.239 152.595 433.133 151.939 433.133C151.282 433.133 150.644 433.248 150.023 433.479C149.42 433.709 148.924 434.064 148.534 434.543C148.161 435.022 147.975 435.625 147.975 436.352C147.975 437.061 148.152 437.655 148.507 438.134C148.879 438.595 149.332 438.976 149.864 439.278C150.413 439.562 150.954 439.81 151.486 440.023C151.965 440.2 152.417 440.395 152.843 440.608C153.269 440.803 153.614 441.051 153.88 441.353C154.164 441.636 154.306 441.991 154.306 442.417C154.306 442.896 154.129 443.277 153.774 443.561C153.437 443.827 152.967 443.96 152.364 443.96C151.868 443.96 151.407 443.871 150.981 443.694C150.573 443.499 150.21 443.241 149.89 442.922C149.571 442.603 149.287 442.257 149.039 441.885ZM159.794 444.571C159.794 444.962 159.936 445.307 160.22 445.609C160.521 445.893 160.867 446.035 161.257 446.035C161.665 446.035 162.011 445.893 162.295 445.609C162.579 445.307 162.72 444.962 162.72 444.571C162.72 444.164 162.579 443.818 162.295 443.534C162.011 443.25 161.665 443.108 161.257 443.108C160.867 443.108 160.521 443.25 160.22 443.534C159.936 443.818 159.794 444.164 159.794 444.571ZM159.794 434.463C159.794 434.853 159.936 435.199 160.22 435.501C160.521 435.784 160.867 435.926 161.257 435.926C161.665 435.926 162.011 435.784 162.295 435.501C162.579 435.199 162.72 434.853 162.72 434.463C162.72 434.055 162.579 433.709 162.295 433.426C162.011 433.142 161.665 433 161.257 433C160.867 433 160.521 433.142 160.22 433.426C159.936 433.709 159.794 434.055 159.794 434.463ZM176.415 427.015L165.641 449.626H167.769L178.543 427.015H176.415ZM187.455 427.015L176.682 449.626H178.81L189.583 427.015H187.455ZM189.824 441.885L188.148 442.922C188.378 443.401 188.715 443.871 189.159 444.332C189.62 444.793 190.178 445.174 190.835 445.476C191.491 445.76 192.227 445.902 193.042 445.902C194.302 445.902 195.312 445.547 196.075 444.837C196.855 444.128 197.245 443.241 197.245 442.177C197.245 441.45 197.068 440.856 196.713 440.395C196.376 439.934 195.915 439.544 195.33 439.225C194.745 438.888 194.098 438.577 193.388 438.294C192.963 438.116 192.555 437.93 192.165 437.735C191.775 437.54 191.455 437.318 191.207 437.07C190.959 436.822 190.835 436.538 190.835 436.219C190.835 435.811 190.994 435.509 191.313 435.314C191.633 435.119 192.014 435.022 192.457 435.022C193.096 435.022 193.663 435.172 194.16 435.474C194.674 435.775 195.1 436.157 195.437 436.618L197.139 435.527C196.891 435.066 196.545 434.658 196.102 434.303C195.658 433.949 195.144 433.665 194.559 433.452C193.991 433.239 193.379 433.133 192.723 433.133C192.067 433.133 191.429 433.248 190.808 433.479C190.205 433.709 189.709 434.064 189.318 434.543C188.946 435.022 188.76 435.625 188.76 436.352C188.76 437.061 188.937 437.655 189.292 438.134C189.664 438.595 190.116 438.976 190.648 439.278C191.198 439.562 191.739 439.81 192.271 440.023C192.75 440.2 193.202 440.395 193.628 440.608C194.053 440.803 194.399 441.051 194.665 441.353C194.949 441.636 195.091 441.991 195.091 442.417C195.091 442.896 194.913 443.277 194.559 443.561C194.222 443.827 193.752 443.96 193.149 443.96C192.652 443.96 192.191 443.871 191.766 443.694C191.358 443.499 190.994 443.241 190.675 442.922C190.356 442.603 190.072 442.257 189.824 441.885ZM202.175 440.847V433.399H200.047V441.113C200.047 442.568 200.428 443.729 201.191 444.598C201.953 445.467 202.973 445.902 204.25 445.902C205.066 445.902 205.775 445.724 206.378 445.369C206.981 444.997 207.486 444.447 207.894 443.72V445.635H210.022V433.399H207.894V440.847C207.894 441.45 207.761 441.982 207.495 442.443C207.247 442.904 206.884 443.268 206.405 443.534C205.944 443.782 205.403 443.906 204.782 443.906C203.931 443.906 203.284 443.64 202.84 443.108C202.397 442.576 202.175 441.823 202.175 440.847ZM213.677 428.345C213.677 428.735 213.819 429.072 214.103 429.356C214.387 429.639 214.723 429.781 215.114 429.781C215.522 429.781 215.858 429.639 216.124 429.356C216.408 429.072 216.55 428.735 216.55 428.345C216.55 427.937 216.408 427.6 216.124 427.334C215.858 427.05 215.522 426.908 215.114 426.908C214.723 426.908 214.387 427.05 214.103 427.334C213.819 427.6 213.677 427.937 213.677 428.345ZM211.576 448.668L210.405 450.424C210.583 450.654 210.787 450.849 211.017 451.009C211.248 451.169 211.505 451.284 211.788 451.355C212.072 451.443 212.391 451.488 212.746 451.488C213.491 451.488 214.129 451.319 214.661 450.982C215.193 450.645 215.592 450.158 215.858 449.519C216.142 448.881 216.284 448.118 216.284 447.232V433.399H214.156V446.966C214.156 447.533 214.112 447.994 214.023 448.349C213.934 448.703 213.792 448.961 213.597 449.12C213.42 449.28 213.181 449.36 212.879 449.36C212.595 449.36 212.338 449.298 212.108 449.173C211.895 449.049 211.718 448.881 211.576 448.668ZM225.408 445.902C226.721 445.902 227.855 445.644 228.813 445.13C229.788 444.598 230.595 443.818 231.234 442.789L229.505 441.699C229.061 442.443 228.521 443.002 227.882 443.374C227.244 443.729 226.508 443.906 225.674 443.906C224.841 443.906 224.131 443.729 223.546 443.374C222.961 443.02 222.518 442.505 222.216 441.832C221.915 441.158 221.764 440.342 221.764 439.384C221.782 438.444 221.941 437.655 222.243 437.017C222.562 436.361 223.005 435.864 223.573 435.527C224.158 435.172 224.858 434.995 225.674 434.995C226.366 434.995 226.969 435.146 227.483 435.447C227.997 435.749 228.396 436.166 228.68 436.698C228.982 437.23 229.132 437.859 229.132 438.586C229.132 438.71 229.106 438.87 229.053 439.065C228.999 439.242 228.946 439.375 228.893 439.464L229.744 438.24H220.966V440.049H231.42C231.42 440.014 231.42 439.934 231.42 439.81C231.438 439.668 231.447 439.535 231.447 439.411C231.447 438.116 231.216 436.999 230.755 436.059C230.294 435.119 229.629 434.401 228.76 433.904C227.909 433.39 226.88 433.133 225.674 433.133C224.468 433.133 223.404 433.399 222.482 433.931C221.578 434.463 220.868 435.208 220.354 436.166C219.857 437.123 219.609 438.24 219.609 439.517C219.609 440.776 219.849 441.885 220.327 442.842C220.824 443.8 221.507 444.554 222.376 445.103C223.262 445.635 224.273 445.902 225.408 445.902ZM234.363 428.345C234.363 428.735 234.505 429.081 234.789 429.382C235.09 429.666 235.436 429.808 235.826 429.808C236.234 429.808 236.58 429.666 236.864 429.382C237.148 429.081 237.289 428.735 237.289 428.345C237.289 427.937 237.148 427.591 236.864 427.307C236.58 427.024 236.234 426.882 235.826 426.882C235.436 426.882 235.09 427.024 234.789 427.307C234.505 427.591 234.363 427.937 234.363 428.345ZM234.762 433.399V445.635H236.89V433.399H234.762ZM239.411 433.399V435.394H245.53V433.399H239.411ZM241.406 429.143V445.635H243.534V429.143H241.406ZM246.6 439.517C246.6 440.741 246.875 441.84 247.424 442.816C247.992 443.773 248.755 444.527 249.712 445.077C250.67 445.627 251.743 445.902 252.931 445.902C254.137 445.902 255.21 445.627 256.15 445.077C257.107 444.527 257.861 443.773 258.411 442.816C258.978 441.84 259.262 440.741 259.262 439.517C259.262 438.276 258.978 437.176 258.411 436.219C257.861 435.261 257.107 434.507 256.15 433.958C255.21 433.408 254.137 433.133 252.931 433.133C251.743 433.133 250.67 433.408 249.712 433.958C248.755 434.507 247.992 435.261 247.424 436.219C246.875 437.176 246.6 438.276 246.6 439.517ZM248.755 439.517C248.755 438.666 248.932 437.912 249.287 437.256C249.659 436.582 250.156 436.059 250.776 435.687C251.415 435.314 252.133 435.128 252.931 435.128C253.729 435.128 254.438 435.314 255.059 435.687C255.697 436.059 256.194 436.582 256.549 437.256C256.921 437.912 257.107 438.666 257.107 439.517C257.107 440.369 256.921 441.122 256.549 441.778C256.194 442.435 255.697 442.958 255.059 443.348C254.438 443.72 253.729 443.906 252.931 443.906C252.133 443.906 251.415 443.72 250.776 443.348C250.156 442.958 249.659 442.435 249.287 441.778C248.932 441.122 248.755 440.369 248.755 439.517ZM264.18 451.488V433.399H262.052V451.488H264.18ZM274.422 439.517C274.422 438.187 274.147 437.052 273.597 436.112C273.047 435.155 272.311 434.419 271.389 433.904C270.485 433.39 269.474 433.133 268.357 433.133C267.346 433.133 266.45 433.39 265.67 433.904C264.907 434.419 264.305 435.155 263.861 436.112C263.436 437.052 263.223 438.187 263.223 439.517C263.223 440.83 263.436 441.965 263.861 442.922C264.305 443.88 264.907 444.616 265.67 445.13C266.45 445.644 267.346 445.902 268.357 445.902C269.474 445.902 270.485 445.644 271.389 445.13C272.311 444.616 273.047 443.88 273.597 442.922C274.147 441.965 274.422 440.83 274.422 439.517ZM272.267 439.517C272.267 440.457 272.072 441.255 271.682 441.911C271.309 442.568 270.804 443.064 270.166 443.401C269.545 443.738 268.853 443.906 268.091 443.906C267.47 443.906 266.858 443.738 266.255 443.401C265.652 443.064 265.156 442.568 264.766 441.911C264.375 441.255 264.18 440.457 264.18 439.517C264.18 438.577 264.375 437.779 264.766 437.123C265.156 436.467 265.652 435.97 266.255 435.634C266.858 435.297 267.47 435.128 268.091 435.128C268.853 435.128 269.545 435.297 270.166 435.634C270.804 435.97 271.309 436.467 271.682 437.123C272.072 437.779 272.267 438.577 272.267 439.517ZM279.484 433.399H277.356V445.635H279.484V433.399ZM283.182 435.74L284.352 433.984C284.033 433.647 283.678 433.426 283.288 433.319C282.916 433.195 282.508 433.133 282.065 433.133C281.497 433.133 280.938 433.355 280.389 433.798C279.839 434.241 279.387 434.844 279.032 435.607C278.695 436.352 278.527 437.212 278.527 438.187H279.484C279.484 437.602 279.537 437.079 279.644 436.618C279.768 436.157 279.981 435.793 280.282 435.527C280.584 435.261 281.001 435.128 281.533 435.128C281.887 435.128 282.18 435.181 282.41 435.288C282.641 435.376 282.898 435.527 283.182 435.74ZM285.021 439.517C285.021 440.741 285.295 441.84 285.845 442.816C286.413 443.773 287.175 444.527 288.133 445.077C289.091 445.627 290.163 445.902 291.352 445.902C292.558 445.902 293.63 445.627 294.57 445.077C295.528 444.527 296.282 443.773 296.831 442.816C297.399 441.84 297.683 440.741 297.683 439.517C297.683 438.276 297.399 437.176 296.831 436.219C296.282 435.261 295.528 434.507 294.57 433.958C293.63 433.408 292.558 433.133 291.352 433.133C290.163 433.133 289.091 433.408 288.133 433.958C287.175 434.507 286.413 435.261 285.845 436.219C285.295 437.176 285.021 438.276 285.021 439.517ZM287.175 439.517C287.175 438.666 287.353 437.912 287.707 437.256C288.08 436.582 288.576 436.059 289.197 435.687C289.835 435.314 290.554 435.128 291.352 435.128C292.15 435.128 292.859 435.314 293.48 435.687C294.118 436.059 294.615 436.582 294.969 437.256C295.342 437.912 295.528 438.666 295.528 439.517C295.528 440.369 295.342 441.122 294.969 441.778C294.615 442.435 294.118 442.958 293.48 443.348C292.859 443.72 292.15 443.906 291.352 443.906C290.554 443.906 289.835 443.72 289.197 443.348C288.576 442.958 288.08 442.435 287.707 441.778C287.353 441.122 287.175 440.369 287.175 439.517ZM299.781 446.434C299.781 447.48 300.039 448.402 300.553 449.2C301.067 450.016 301.777 450.645 302.681 451.089C303.603 451.532 304.658 451.754 305.846 451.754C306.875 451.754 307.85 451.514 308.773 451.035C309.695 450.557 310.448 449.838 311.034 448.881C311.619 447.941 311.912 446.77 311.912 445.369V433.399H309.783V445.369C309.783 446.398 309.579 447.232 309.172 447.87C308.781 448.526 308.285 449.005 307.682 449.306C307.079 449.608 306.467 449.759 305.846 449.759C305.048 449.759 304.357 449.599 303.772 449.28C303.186 448.978 302.734 448.57 302.415 448.056C302.096 447.56 301.936 447.019 301.936 446.434H299.781ZM299.542 439.517C299.542 440.83 299.817 441.965 300.367 442.922C300.916 443.88 301.652 444.616 302.575 445.13C303.497 445.644 304.508 445.902 305.607 445.902C306.636 445.902 307.531 445.644 308.294 445.13C309.056 444.616 309.65 443.88 310.076 442.922C310.519 441.965 310.741 440.83 310.741 439.517C310.741 438.187 310.519 437.052 310.076 436.112C309.65 435.155 309.056 434.419 308.294 433.904C307.531 433.39 306.636 433.133 305.607 433.133C304.508 433.133 303.497 433.39 302.575 433.904C301.652 434.419 300.916 435.155 300.367 436.112C299.817 437.052 299.542 438.187 299.542 439.517ZM301.697 439.517C301.697 438.577 301.883 437.779 302.255 437.123C302.645 436.467 303.16 435.97 303.798 435.634C304.437 435.297 305.128 435.128 305.873 435.128C306.334 435.128 306.795 435.226 307.256 435.421C307.717 435.616 308.134 435.9 308.507 436.272C308.897 436.644 309.207 437.105 309.438 437.655C309.668 438.187 309.783 438.808 309.783 439.517C309.783 440.457 309.588 441.255 309.198 441.911C308.808 442.568 308.312 443.064 307.709 443.401C307.106 443.738 306.494 443.906 305.873 443.906C305.128 443.906 304.437 443.738 303.798 443.401C303.16 443.064 302.645 442.568 302.255 441.911C301.883 441.255 301.697 440.457 301.697 439.517ZM317.905 433.399H315.777V445.635H317.905V433.399ZM321.603 435.74L322.773 433.984C322.454 433.647 322.099 433.426 321.709 433.319C321.337 433.195 320.929 433.133 320.485 433.133C319.918 433.133 319.359 433.355 318.809 433.798C318.26 434.241 317.807 434.844 317.453 435.607C317.116 436.352 316.947 437.212 316.947 438.187H317.905C317.905 437.602 317.958 437.079 318.065 436.618C318.189 436.157 318.402 435.793 318.703 435.527C319.005 435.261 319.421 435.128 319.953 435.128C320.308 435.128 320.601 435.181 320.831 435.288C321.062 435.376 321.319 435.527 321.603 435.74ZM325.853 441.858C325.853 441.415 325.959 441.034 326.172 440.714C326.385 440.395 326.704 440.147 327.13 439.969C327.573 439.792 328.14 439.703 328.832 439.703C329.577 439.703 330.277 439.801 330.933 439.996C331.59 440.173 332.228 440.475 332.849 440.901V439.65C332.725 439.491 332.485 439.287 332.131 439.038C331.776 438.772 331.297 438.542 330.694 438.347C330.109 438.134 329.373 438.028 328.486 438.028C326.979 438.028 325.8 438.391 324.948 439.118C324.115 439.828 323.698 440.776 323.698 441.965C323.698 442.798 323.893 443.507 324.283 444.093C324.673 444.678 325.188 445.13 325.826 445.449C326.482 445.751 327.183 445.902 327.928 445.902C328.601 445.902 329.275 445.777 329.949 445.529C330.641 445.281 331.217 444.9 331.678 444.385C332.157 443.871 332.397 443.224 332.397 442.443L331.971 440.847C331.971 441.486 331.811 442.053 331.492 442.55C331.191 443.029 330.774 443.401 330.242 443.667C329.728 443.933 329.142 444.066 328.486 444.066C327.972 444.066 327.511 443.986 327.103 443.827C326.713 443.649 326.402 443.392 326.172 443.055C325.959 442.718 325.853 442.319 325.853 441.858ZM325.533 436.219C325.729 436.077 325.995 435.908 326.332 435.713C326.668 435.518 327.076 435.35 327.555 435.208C328.052 435.066 328.601 434.995 329.204 434.995C329.577 434.995 329.932 435.031 330.268 435.102C330.605 435.172 330.898 435.288 331.146 435.447C331.412 435.607 331.616 435.829 331.758 436.112C331.9 436.378 331.971 436.724 331.971 437.15V445.635H334.099V436.857C334.099 436.059 333.895 435.385 333.487 434.835C333.097 434.286 332.538 433.869 331.811 433.585C331.102 433.284 330.268 433.133 329.311 433.133C328.176 433.133 327.2 433.302 326.385 433.638C325.587 433.975 324.957 434.312 324.496 434.649L325.533 436.219ZM354.461 437.921C354.461 436.91 354.301 436.05 353.982 435.341C353.68 434.614 353.237 434.064 352.652 433.692C352.067 433.319 351.357 433.133 350.524 433.133C349.708 433.133 348.981 433.328 348.342 433.718C347.704 434.091 347.172 434.658 346.746 435.421C346.463 434.694 346.01 434.135 345.39 433.745C344.787 433.337 344.06 433.133 343.208 433.133C342.446 433.133 341.781 433.302 341.213 433.638C340.664 433.975 340.202 434.49 339.83 435.181V433.399H337.702V445.635H339.83V438.187C339.83 437.549 339.945 436.999 340.176 436.538C340.406 436.077 340.734 435.731 341.16 435.501C341.586 435.252 342.091 435.128 342.676 435.128C343.474 435.128 344.06 435.376 344.432 435.873C344.822 436.369 345.017 437.141 345.017 438.187V445.635H347.145V438.187C347.145 437.549 347.261 436.999 347.491 436.538C347.722 436.077 348.05 435.731 348.475 435.501C348.901 435.252 349.406 435.128 349.992 435.128C350.79 435.128 351.375 435.376 351.747 435.873C352.137 436.369 352.333 437.141 352.333 438.187V445.635H354.461V437.921ZM359.416 441.858C359.416 441.415 359.522 441.034 359.735 440.714C359.948 440.395 360.267 440.147 360.693 439.969C361.136 439.792 361.703 439.703 362.395 439.703C363.14 439.703 363.84 439.801 364.496 439.996C365.153 440.173 365.791 440.475 366.412 440.901V439.65C366.288 439.491 366.048 439.287 365.693 439.038C365.339 438.772 364.86 438.542 364.257 438.347C363.672 438.134 362.936 438.028 362.049 438.028C360.542 438.028 359.362 438.391 358.511 439.118C357.678 439.828 357.261 440.776 357.261 441.965C357.261 442.798 357.456 443.507 357.846 444.093C358.236 444.678 358.751 445.13 359.389 445.449C360.045 445.751 360.746 445.902 361.491 445.902C362.164 445.902 362.838 445.777 363.512 445.529C364.204 445.281 364.78 444.9 365.241 444.385C365.72 443.871 365.96 443.224 365.96 442.443L365.534 440.847C365.534 441.486 365.374 442.053 365.055 442.55C364.754 443.029 364.337 443.401 363.805 443.667C363.291 443.933 362.705 444.066 362.049 444.066C361.535 444.066 361.074 443.986 360.666 443.827C360.276 443.649 359.965 443.392 359.735 443.055C359.522 442.718 359.416 442.319 359.416 441.858ZM359.096 436.219C359.292 436.077 359.558 435.908 359.894 435.713C360.231 435.518 360.639 435.35 361.118 435.208C361.615 435.066 362.164 434.995 362.767 434.995C363.14 434.995 363.494 435.031 363.831 435.102C364.168 435.172 364.461 435.288 364.709 435.447C364.975 435.607 365.179 435.829 365.321 436.112C365.463 436.378 365.534 436.724 365.534 437.15V445.635H367.662V436.857C367.662 436.059 367.458 435.385 367.05 434.835C366.66 434.286 366.101 433.869 365.374 433.585C364.665 433.284 363.831 433.133 362.874 433.133C361.739 433.133 360.763 433.302 359.948 433.638C359.15 433.975 358.52 434.312 358.059 434.649L359.096 436.219ZM380.442 424.887V445.635H382.57V424.887H380.442ZM370.201 439.517C370.201 440.83 370.476 441.965 371.026 442.922C371.575 443.88 372.311 444.616 373.233 445.13C374.156 445.644 375.166 445.902 376.266 445.902C377.294 445.902 378.19 445.644 378.953 445.13C379.715 444.616 380.309 443.88 380.735 442.922C381.178 441.965 381.4 440.83 381.4 439.517C381.4 438.187 381.178 437.052 380.735 436.112C380.309 435.155 379.715 434.419 378.953 433.904C378.19 433.39 377.294 433.133 376.266 433.133C375.166 433.133 374.156 433.39 373.233 433.904C372.311 434.419 371.575 435.155 371.026 436.112C370.476 437.052 370.201 438.187 370.201 439.517ZM372.356 439.517C372.356 438.577 372.542 437.779 372.914 437.123C373.304 436.467 373.819 435.97 374.457 435.634C375.095 435.297 375.787 435.128 376.532 435.128C377.153 435.128 377.764 435.297 378.367 435.634C378.97 435.97 379.467 436.467 379.857 437.123C380.247 437.779 380.442 438.577 380.442 439.517C380.442 440.457 380.247 441.255 379.857 441.911C379.467 442.568 378.97 443.064 378.367 443.401C377.764 443.738 377.153 443.906 376.532 443.906C375.787 443.906 375.095 443.738 374.457 443.401C373.819 443.064 373.304 442.568 372.914 441.911C372.542 441.255 372.356 440.457 372.356 439.517ZM385.372 439.517C385.372 440.741 385.647 441.84 386.196 442.816C386.764 443.773 387.526 444.527 388.484 445.077C389.442 445.627 390.515 445.902 391.703 445.902C392.909 445.902 393.982 445.627 394.922 445.077C395.879 444.527 396.633 443.773 397.183 442.816C397.75 441.84 398.034 440.741 398.034 439.517C398.034 438.276 397.75 437.176 397.183 436.219C396.633 435.261 395.879 434.507 394.922 433.958C393.982 433.408 392.909 433.133 391.703 433.133C390.515 433.133 389.442 433.408 388.484 433.958C387.526 434.507 386.764 435.261 386.196 436.219C385.647 437.176 385.372 438.276 385.372 439.517ZM387.526 439.517C387.526 438.666 387.704 437.912 388.058 437.256C388.431 436.582 388.927 436.059 389.548 435.687C390.187 435.314 390.905 435.128 391.703 435.128C392.501 435.128 393.21 435.314 393.831 435.687C394.469 436.059 394.966 436.582 395.321 437.256C395.693 437.912 395.879 438.666 395.879 439.517C395.879 440.369 395.693 441.122 395.321 441.778C394.966 442.435 394.469 442.958 393.831 443.348C393.21 443.72 392.501 443.906 391.703 443.906C390.905 443.906 390.187 443.72 389.548 443.348C388.927 442.958 388.431 442.435 388.058 441.778C387.704 441.122 387.526 440.369 387.526 439.517ZM403.085 433.399H400.957V445.635H403.085V433.399ZM406.783 435.74L407.953 433.984C407.634 433.647 407.279 433.426 406.889 433.319C406.517 433.195 406.109 433.133 405.666 433.133C405.098 433.133 404.54 433.355 403.99 433.798C403.44 434.241 402.988 434.844 402.633 435.607C402.296 436.352 402.128 437.212 402.128 438.187H403.085C403.085 437.602 403.139 437.079 403.245 436.618C403.369 436.157 403.582 435.793 403.883 435.527C404.185 435.261 404.602 435.128 405.134 435.128C405.488 435.128 405.781 435.181 406.011 435.288C406.242 435.376 406.499 435.527 406.783 435.74ZM409.023 444.571C409.023 444.962 409.165 445.307 409.448 445.609C409.75 445.893 410.096 446.035 410.486 446.035C410.894 446.035 411.24 445.893 411.523 445.609C411.807 445.307 411.949 444.962 411.949 444.571C411.949 444.164 411.807 443.818 411.523 443.534C411.24 443.25 410.894 443.108 410.486 443.108C410.096 443.108 409.75 443.25 409.448 443.534C409.165 443.818 409.023 444.164 409.023 444.571ZM417.423 439.517C417.423 438.666 417.601 437.912 417.955 437.256C418.328 436.582 418.824 436.059 419.445 435.687C420.084 435.314 420.802 435.128 421.6 435.128C422.256 435.128 422.868 435.235 423.435 435.447C424.021 435.642 424.526 435.908 424.952 436.245C425.377 436.582 425.679 436.955 425.856 437.363V434.702C425.43 434.206 424.819 433.825 424.021 433.559C423.24 433.275 422.433 433.133 421.6 433.133C420.412 433.133 419.339 433.408 418.381 433.958C417.423 434.507 416.661 435.261 416.093 436.219C415.544 437.176 415.269 438.276 415.269 439.517C415.269 440.741 415.544 441.84 416.093 442.816C416.661 443.773 417.423 444.527 418.381 445.077C419.339 445.627 420.412 445.902 421.6 445.902C422.433 445.902 423.24 445.769 424.021 445.502C424.819 445.219 425.43 444.829 425.856 444.332V441.672C425.679 442.062 425.377 442.435 424.952 442.789C424.526 443.126 424.021 443.401 423.435 443.614C422.868 443.809 422.256 443.906 421.6 443.906C420.802 443.906 420.084 443.72 419.445 443.348C418.824 442.958 418.328 442.435 417.955 441.778C417.601 441.122 417.423 440.369 417.423 439.517Z" fill="white"/>
<rect width="498.768" height="90.4434" transform="translate(0.867188 989.557)" fill="white"/>
<path d="M341.094 1016.21C339.43 1016.21 338.061 1017.58 338.061 1019.24V1028.34V1038.45V1055.63C338.061 1057.3 339.43 1058.67 341.094 1058.67H381.527C383.19 1058.67 384.56 1057.3 384.56 1055.63V1038.45V1028.34V1023.29C384.56 1021.62 383.19 1020.25 381.527 1020.25H354.234C354.322 1020.25 354.203 1020.25 353.956 1019.97C353.709 1019.69 353.405 1019.21 353.087 1018.71C352.77 1018.2 352.437 1017.66 352.017 1017.18C351.598 1016.71 351.019 1016.21 350.191 1016.21H341.094ZM341.094 1018.23H350.191C350.13 1018.23 350.253 1018.24 350.503 1018.52C350.753 1018.81 351.058 1019.28 351.374 1019.78C351.69 1020.28 352.017 1020.82 352.428 1021.3C352.839 1021.77 353.404 1022.28 354.234 1022.28H381.527C382.096 1022.28 382.538 1022.72 382.538 1023.29V1025.5C382.22 1025.38 381.883 1025.31 381.527 1025.31H341.094C340.738 1025.31 340.401 1025.38 340.083 1025.5V1019.24C340.083 1018.67 340.523 1018.23 341.094 1018.23ZM341.094 1027.33H381.527C382.098 1027.33 382.538 1027.77 382.538 1028.34V1038.45V1055.63C382.538 1056.2 382.096 1056.64 381.527 1056.64H341.094C340.523 1056.64 340.083 1056.2 340.083 1055.63V1038.45V1028.34C340.083 1027.77 340.522 1027.33 341.094 1027.33Z" fill="#083863"/>
<path d="M117.379 1055.21C118.881 1055.21 120.37 1054.92 121.758 1054.34C123.146 1053.77 124.407 1052.93 125.466 1051.86L129.419 1047.91C129.54 1047.79 129.635 1047.65 129.701 1047.49C129.766 1047.33 129.8 1047.16 129.801 1046.99C129.801 1046.82 129.768 1046.66 129.703 1046.5C129.638 1046.34 129.543 1046.2 129.423 1046.08C129.303 1045.96 129.16 1045.86 129.003 1045.8C128.846 1045.73 128.678 1045.7 128.508 1045.7C128.338 1045.7 128.17 1045.74 128.013 1045.8C127.856 1045.87 127.714 1045.96 127.595 1046.08L123.642 1050.04C121.981 1051.7 119.728 1052.63 117.379 1052.63C115.03 1052.63 112.777 1051.7 111.115 1050.04C109.454 1048.37 108.521 1046.12 108.521 1043.77C108.521 1041.42 109.454 1039.17 111.115 1037.51L122.669 1025.96C124.332 1024.3 126.583 1023.38 128.928 1023.38C131.272 1023.38 133.52 1024.32 135.178 1025.97C136.836 1027.63 137.769 1029.88 137.773 1032.22C137.776 1034.57 136.849 1036.82 135.196 1038.48L133.067 1040.61C132.831 1040.85 132.699 1041.18 132.701 1041.52C132.703 1041.86 132.839 1042.18 133.079 1042.42C133.319 1042.66 133.644 1042.8 133.983 1042.8C134.322 1042.8 134.649 1042.67 134.892 1042.44L137.02 1040.31C138.088 1039.25 138.936 1037.98 139.516 1036.6C140.095 1035.21 140.395 1033.72 140.398 1032.21C140.4 1030.71 140.106 1029.21 139.531 1027.82C138.956 1026.43 138.112 1025.17 137.048 1024.1C135.984 1023.04 134.72 1022.2 133.328 1021.62C131.937 1021.05 130.446 1020.75 128.941 1020.75C127.436 1020.76 125.946 1021.06 124.556 1021.64C123.167 1022.22 121.906 1023.06 120.845 1024.13L109.291 1035.68C107.691 1037.28 106.602 1039.32 106.161 1041.54C105.719 1043.76 105.946 1046.06 106.812 1048.15C107.677 1050.24 109.143 1052.03 111.024 1053.28C112.905 1054.54 115.117 1055.21 117.379 1055.21H117.379Z" fill="#083863"/>
<path d="M138.784 1022.61L142.736 1018.66C144.399 1017.01 146.649 1016.08 148.994 1016.08C151.339 1016.09 153.587 1017.02 155.245 1018.68C156.903 1020.33 157.836 1022.58 157.839 1024.93C157.843 1027.27 156.916 1029.52 155.263 1031.19L143.708 1042.74C142.046 1044.39 139.795 1045.32 137.45 1045.31C135.105 1045.31 132.858 1044.38 131.2 1042.72C129.542 1041.06 128.609 1038.81 128.605 1036.47C128.602 1034.12 129.529 1031.87 131.182 1030.21L133.31 1028.08C133.433 1027.96 133.53 1027.82 133.597 1027.66C133.664 1027.51 133.699 1027.34 133.7 1027.17C133.701 1027 133.668 1026.83 133.603 1026.67C133.538 1026.51 133.443 1026.37 133.322 1026.25C133.201 1026.13 133.058 1026.03 132.9 1025.97C132.742 1025.9 132.573 1025.87 132.402 1025.87C132.231 1025.87 132.062 1025.91 131.905 1025.97C131.748 1026.04 131.606 1026.14 131.486 1026.26L129.358 1028.39C128.29 1029.45 127.442 1030.71 126.862 1032.1C126.282 1033.49 125.983 1034.98 125.98 1036.48C125.977 1037.99 126.272 1039.48 126.847 1040.87C127.422 1042.26 128.265 1043.53 129.33 1044.59C130.394 1045.65 131.658 1046.5 133.05 1047.07C134.441 1047.65 135.932 1047.94 137.437 1047.94C138.942 1047.94 140.432 1047.64 141.821 1047.06C143.211 1046.48 144.472 1045.63 145.533 1044.56L157.087 1033.01C159.226 1030.86 160.426 1027.96 160.424 1024.93C160.422 1021.9 159.217 1018.99 157.074 1016.85C154.931 1014.7 152.026 1013.5 148.996 1013.5C145.965 1013.5 143.058 1014.7 140.912 1016.83L136.959 1020.79C136.839 1020.91 136.743 1021.05 136.677 1021.21C136.612 1021.36 136.578 1021.53 136.578 1021.7C136.577 1021.87 136.61 1022.04 136.675 1022.2C136.74 1022.35 136.835 1022.5 136.955 1022.62C137.076 1022.74 137.218 1022.83 137.375 1022.9C137.532 1022.96 137.701 1022.99 137.87 1022.99C138.04 1022.99 138.208 1022.96 138.365 1022.89C138.522 1022.83 138.664 1022.73 138.784 1022.61V1022.61Z" fill="#083863"/>
<path d="M62.208 261.581C63.1025 261.583 63.9887 261.408 64.8152 261.066C65.6417 260.724 66.3921 260.221 67.0229 259.587L69.3758 257.234C69.4477 257.162 69.5047 257.078 69.5437 256.985C69.5827 256.891 69.6029 256.791 69.6032 256.69C69.6034 256.589 69.5836 256.489 69.545 256.395C69.5064 256.302 69.4497 256.217 69.3782 256.145C69.3067 256.074 69.2218 256.017 69.1283 255.979C69.0348 255.94 68.9347 255.92 68.8335 255.92C68.7324 255.921 68.6323 255.941 68.539 255.98C68.4457 256.019 68.361 256.076 68.2898 256.148L65.9368 258.501C64.9479 259.49 63.6067 260.045 62.2081 260.045C60.8096 260.045 59.4683 259.49 58.4794 258.501C57.4905 257.512 56.9349 256.171 56.9348 254.772C56.9348 253.374 57.4904 252.032 58.4792 251.043L65.3578 244.166C66.3477 243.181 67.6874 242.63 69.0833 242.632C70.4793 242.634 71.8175 243.189 72.8045 244.176C73.7916 245.163 74.347 246.502 74.3489 247.897C74.3509 249.293 73.7992 250.633 72.815 251.623L71.5479 252.89C71.4069 253.035 71.3285 253.229 71.3298 253.431C71.3311 253.633 71.4119 253.826 71.5547 253.969C71.6975 254.112 71.8909 254.193 72.0929 254.194C72.2948 254.195 72.4892 254.117 72.6338 253.976L73.9009 252.709C74.5367 252.077 75.0417 251.327 75.3868 250.5C75.7318 249.673 75.9103 248.786 75.9118 247.89C75.9134 246.993 75.738 246.106 75.3958 245.278C75.0536 244.449 74.5512 243.697 73.9176 243.063C73.2839 242.429 72.5314 241.927 71.7032 241.585C70.875 241.243 69.9874 241.067 69.0912 241.069C68.1951 241.07 67.3081 241.249 66.4811 241.594C65.654 241.939 64.9032 242.444 64.2718 243.08L57.3932 249.957C56.441 250.91 55.7925 252.123 55.5297 253.444C55.267 254.765 55.4019 256.134 55.9173 257.378C56.4327 258.622 57.3054 259.685 58.4252 260.434C59.545 261.182 60.8615 261.581 62.2082 261.581H62.208Z" fill="white"/>
<path d="M74.9509 242.174L77.3039 239.821C78.2938 238.837 79.6336 238.286 81.0295 238.288C82.4254 238.289 83.7636 238.845 84.7507 239.832C85.7377 240.819 86.2931 242.157 86.2951 243.553C86.2971 244.949 85.7455 246.289 84.7612 247.279L77.8827 254.156C76.8928 255.141 75.553 255.692 74.1571 255.69C72.7612 255.688 71.423 255.133 70.4359 254.146C69.4489 253.159 68.8935 251.821 68.8915 250.425C68.8896 249.029 69.4412 247.689 70.4255 246.699L71.6926 245.432C71.7654 245.361 71.8233 245.276 71.8631 245.183C71.9029 245.089 71.9238 244.989 71.9244 244.887C71.925 244.785 71.9055 244.685 71.8669 244.59C71.8283 244.496 71.7714 244.411 71.6995 244.339C71.6276 244.267 71.5422 244.21 71.4481 244.172C71.3541 244.133 71.2533 244.114 71.1516 244.114C71.05 244.115 70.9494 244.136 70.8559 244.175C70.7623 244.215 70.6776 244.273 70.6066 244.346L69.3395 245.613C68.7037 246.245 68.1988 246.995 67.8537 247.822C67.5086 248.649 67.3302 249.536 67.3286 250.433C67.3271 251.329 67.5024 252.216 67.8447 253.045C68.1869 253.873 68.6892 254.625 69.3229 255.259C69.9565 255.893 70.709 256.395 71.5373 256.737C72.3655 257.079 73.2531 257.255 74.1492 257.253C75.0453 257.252 75.9324 257.073 76.7594 256.728C77.5864 256.383 78.3372 255.878 78.9687 255.242L85.8472 248.365C87.1208 247.087 87.8353 245.356 87.8338 243.552C87.8324 241.748 87.1151 240.019 85.8395 238.743C84.5639 237.467 82.8342 236.75 81.0303 236.749C79.2263 236.747 77.4955 237.462 76.2179 238.735L73.8649 241.088C73.7931 241.16 73.736 241.244 73.697 241.338C73.658 241.431 73.6378 241.531 73.6376 241.632C73.6374 241.733 73.6571 241.833 73.6957 241.927C73.7343 242.02 73.791 242.105 73.8625 242.177C73.934 242.248 74.019 242.305 74.1124 242.344C74.2059 242.382 74.3061 242.402 74.4072 242.402C74.5083 242.401 74.6084 242.381 74.7017 242.342C74.795 242.303 74.8797 242.246 74.9509 242.174V242.174Z" fill="white"/>
<path d="M62.208 352.024C63.1025 352.027 63.9887 351.852 64.8152 351.509C65.6417 351.167 66.3921 350.664 67.0229 350.03L69.3758 347.677C69.4477 347.606 69.5047 347.521 69.5437 347.428C69.5827 347.335 69.6029 347.234 69.6032 347.133C69.6034 347.032 69.5836 346.932 69.545 346.839C69.5064 346.745 69.4497 346.66 69.3782 346.589C69.3067 346.517 69.2218 346.46 69.1283 346.422C69.0348 346.383 68.9347 346.364 68.8335 346.364C68.7324 346.364 68.6323 346.384 68.539 346.423C68.4457 346.462 68.361 346.519 68.2898 346.591L65.9368 348.944C64.9479 349.933 63.6067 350.489 62.2081 350.489C60.8096 350.489 59.4683 349.933 58.4794 348.944C57.4905 347.955 56.9349 346.614 56.9348 345.215C56.9348 343.817 57.4904 342.476 58.4792 341.487L65.3578 334.609C66.3477 333.625 67.6874 333.073 69.0833 333.075C70.4793 333.077 71.8175 333.633 72.8045 334.62C73.7916 335.607 74.347 336.945 74.3489 338.341C74.3509 339.737 73.7992 341.077 72.815 342.066L71.5479 343.333C71.4069 343.478 71.3285 343.672 71.3298 343.874C71.3311 344.076 71.4119 344.27 71.5547 344.413C71.6975 344.555 71.8909 344.636 72.0929 344.637C72.2948 344.639 72.4892 344.56 72.6338 344.419L73.9009 343.152C74.5367 342.521 75.0417 341.77 75.3868 340.943C75.7318 340.116 75.9103 339.229 75.9118 338.333C75.9134 337.437 75.738 336.549 75.3958 335.721C75.0536 334.893 74.5512 334.14 73.9176 333.507C73.2839 332.873 72.5314 332.37 71.7032 332.028C70.875 331.686 69.9874 331.511 69.0912 331.512C68.1951 331.514 67.3081 331.692 66.4811 332.037C65.654 332.382 64.9032 332.887 64.2718 333.523L57.3932 340.401C56.441 341.353 55.7925 342.566 55.5297 343.887C55.267 345.208 55.4019 346.577 55.9173 347.821C56.4327 349.065 57.3054 350.129 58.4252 350.877C59.545 351.625 60.8615 352.024 62.2082 352.024H62.208Z" fill="white"/>
<path d="M74.9509 332.618L77.3039 330.265C78.2938 329.281 79.6336 328.729 81.0295 328.731C82.4254 328.733 83.7636 329.288 84.7507 330.275C85.7377 331.262 86.2931 332.601 86.2951 333.997C86.2971 335.392 85.7455 336.732 84.7612 337.722L77.8827 344.6C76.8928 345.584 75.553 346.136 74.1571 346.134C72.7612 346.132 71.423 345.576 70.4359 344.589C69.4489 343.602 68.8935 342.264 68.8915 340.868C68.8896 339.472 69.4412 338.132 70.4255 337.142L71.6926 335.875C71.7654 335.804 71.8233 335.72 71.8631 335.626C71.9029 335.533 71.9238 335.432 71.9244 335.33C71.925 335.229 71.9055 335.128 71.8669 335.034C71.8283 334.94 71.7714 334.854 71.6995 334.782C71.6276 334.711 71.5422 334.654 71.4481 334.615C71.3541 334.576 71.2533 334.557 71.1516 334.558C71.05 334.558 70.9494 334.579 70.8559 334.619C70.7623 334.659 70.6776 334.717 70.6066 334.789L69.3395 336.056C68.7037 336.688 68.1988 337.439 67.8537 338.266C67.5086 339.093 67.3302 339.98 67.3286 340.876C67.3271 341.772 67.5024 342.66 67.8447 343.488C68.1869 344.316 68.6892 345.069 69.3229 345.702C69.9565 346.336 70.709 346.838 71.5373 347.181C72.3655 347.523 73.2531 347.698 74.1492 347.697C75.0453 347.695 75.9324 347.517 76.7594 347.172C77.5864 346.826 78.3372 346.322 78.9687 345.686L85.8472 338.808C87.1208 337.53 87.8353 335.8 87.8338 333.996C87.8324 332.192 87.1151 330.462 85.8395 329.186C84.5639 327.911 82.8342 327.194 81.0303 327.192C79.2263 327.191 77.4955 327.905 76.2179 329.179L73.8649 331.532C73.7931 331.603 73.736 331.688 73.697 331.781C73.658 331.874 73.6378 331.974 73.6376 332.075C73.6374 332.177 73.6571 332.277 73.6957 332.37C73.7343 332.464 73.791 332.549 73.8625 332.62C73.934 332.692 74.019 332.748 74.1124 332.787C74.2059 332.826 74.3061 332.845 74.4072 332.845C74.5083 332.845 74.6084 332.825 74.7017 332.786C74.795 332.747 74.8797 332.69 74.9509 332.618V332.618Z" fill="white"/>
<path d="M58.2177 443.798C59.1123 443.8 59.9985 443.625 60.825 443.283C61.6514 442.941 62.4018 442.438 63.0327 441.803L65.3856 439.45C65.4574 439.379 65.5145 439.295 65.5535 439.201C65.5925 439.108 65.6127 439.008 65.6129 438.907C65.6131 438.806 65.5934 438.705 65.5548 438.612C65.5162 438.519 65.4595 438.434 65.388 438.362C65.3165 438.291 65.2316 438.234 65.1381 438.195C65.0446 438.157 64.9444 438.137 64.8433 438.137C64.7422 438.137 64.6421 438.158 64.5488 438.197C64.4555 438.236 64.3708 438.293 64.2996 438.364L61.9466 440.717C60.9577 441.706 59.6164 442.262 58.2179 442.262C56.8194 442.262 55.4781 441.706 54.4892 440.718C53.5002 439.729 52.9446 438.387 52.9446 436.989C52.9446 435.59 53.5001 434.249 54.489 433.26L61.3676 426.382C62.3574 425.398 63.6972 424.847 65.0931 424.849C66.489 424.851 67.8272 425.406 68.8143 426.393C69.8013 427.38 70.3567 428.718 70.3587 430.114C70.3606 431.51 69.809 432.85 68.8247 433.84L67.5576 435.107C67.4166 435.252 67.3383 435.446 67.3396 435.648C67.3409 435.85 67.4217 436.043 67.5645 436.186C67.7073 436.329 67.9006 436.41 68.1026 436.411C68.3046 436.412 68.499 436.334 68.6436 436.193L69.9107 434.926C70.5465 434.294 71.0514 433.543 71.3965 432.716C71.7416 431.889 71.92 431.002 71.9216 430.106C71.9231 429.21 71.7478 428.323 71.4056 427.494C71.0633 426.666 70.561 425.914 69.9273 425.28C69.2937 424.646 68.5412 424.144 67.713 423.802C66.8847 423.459 65.9971 423.284 65.101 423.286C64.2049 423.287 63.3179 423.466 62.4908 423.811C61.6638 424.156 60.913 424.661 60.2815 425.297L53.403 432.174C52.4507 433.126 51.8022 434.34 51.5395 435.661C51.2768 436.981 51.4117 438.35 51.9271 439.595C52.4424 440.839 53.3152 441.902 54.435 442.65C55.5548 443.398 56.8712 443.798 58.2179 443.798H58.2177Z" fill="white"/>
<path d="M70.9607 424.391L73.3137 422.038C74.3036 421.054 75.6433 420.502 77.0392 420.504C78.4352 420.506 79.7734 421.062 80.7604 422.049C81.7475 423.036 82.3029 424.374 82.3049 425.77C82.3069 427.166 81.7552 428.506 80.771 429.495L73.8924 436.373C72.9026 437.357 71.5628 437.909 70.1669 437.907C68.7709 437.905 67.4328 437.35 66.4457 436.363C65.4586 435.375 64.9032 434.037 64.9013 432.641C64.8993 431.245 65.451 429.906 66.4352 428.916L67.7023 427.649C67.7751 427.578 67.8331 427.493 67.8729 427.4C67.9127 427.306 67.9335 427.205 67.9342 427.104C67.9348 427.002 67.9153 426.901 67.8767 426.807C67.838 426.713 67.7811 426.628 67.7093 426.556C67.6374 426.484 67.5519 426.427 67.4579 426.389C67.3638 426.35 67.263 426.33 67.1614 426.331C67.0597 426.332 66.9592 426.352 66.8656 426.392C66.7721 426.432 66.6874 426.49 66.6164 426.563L65.3493 427.83C64.7135 428.461 64.2085 429.212 63.8634 430.039C63.5184 430.866 63.3399 431.753 63.3384 432.649C63.3368 433.545 63.5122 434.433 63.8544 435.261C64.1966 436.09 64.699 436.842 65.3326 437.476C65.9663 438.109 66.7188 438.612 67.547 438.954C68.3752 439.296 69.2629 439.472 70.159 439.47C71.0551 439.468 71.9421 439.29 72.7692 438.945C73.5962 438.6 74.347 438.095 74.9784 437.459L81.857 430.581C83.1305 429.304 83.845 427.573 83.8436 425.769C83.8421 423.965 83.1249 422.235 81.8493 420.96C80.5737 419.684 78.844 418.967 77.04 418.966C75.2361 418.964 73.5052 419.679 72.2276 420.952L69.8747 423.305C69.8028 423.376 69.7458 423.461 69.7068 423.554C69.6678 423.648 69.6476 423.748 69.6474 423.849C69.6471 423.95 69.6669 424.05 69.7055 424.144C69.7441 424.237 69.8008 424.322 69.8723 424.394C69.9438 424.465 70.0287 424.522 70.1222 424.56C70.2157 424.599 70.3158 424.619 70.417 424.618C70.5181 424.618 70.6182 424.598 70.7115 424.559C70.8048 424.52 70.8895 424.463 70.9607 424.391V424.391Z" fill="white"/>
</g>
<defs>
<clipPath id="clip0_104_36">
<rect x="0.867188" width="498.768" height="1080" rx="10.6404" fill="white"/>
</clipPath>
</defs>
</svg>
