<svg width="499" height="1080" viewBox="0 0 499 1080" fill="none" xmlns="http://www.w3.org/2000/svg">
<rect width="498.768" height="1080" rx="10.6404" fill="url(#paint0_linear_104_106)"/>
<path d="M164.832 610.881L230.916 595.026L211.604 660.184L164.832 610.881Z" fill="white"/>
<rect x="130.345" y="422.698" width="224.778" height="206.158" rx="29.2611" transform="rotate(-3.66624 130.345 422.698)" fill="white"/>
<path d="M164.832 610.881L230.916 595.026L211.604 660.184L164.832 610.881Z" fill="white"/>
<rect x="130.345" y="422.698" width="224.778" height="206.158" rx="29.2611" transform="rotate(-3.66624 130.345 422.698)" fill="white"/>
<path d="M201.635 580.382C206.109 580.394 210.54 579.519 214.673 577.807C218.806 576.096 222.559 573.581 225.713 570.409L237.479 558.643C237.838 558.287 238.124 557.864 238.319 557.397C238.514 556.93 238.615 556.43 238.616 555.924C238.617 555.418 238.518 554.918 238.325 554.45C238.132 553.983 237.849 553.558 237.491 553.2C237.134 552.843 236.709 552.559 236.241 552.366C235.774 552.173 235.273 552.075 234.767 552.076C234.262 552.077 233.761 552.178 233.295 552.373C232.828 552.568 232.405 552.853 232.049 553.212L220.282 564.978C215.337 569.924 208.63 572.702 201.636 572.702C194.643 572.702 187.936 569.924 182.99 564.979C178.045 560.034 175.267 553.327 175.267 546.334C175.267 539.34 178.045 532.633 182.99 527.688L217.387 493.295C222.336 488.373 229.036 485.615 236.017 485.625C242.997 485.635 249.689 488.412 254.625 493.348C259.561 498.284 262.338 504.976 262.348 511.956C262.357 518.937 259.599 525.636 254.677 530.586L248.341 536.922C247.636 537.646 247.244 538.618 247.25 539.628C247.257 540.638 247.661 541.604 248.375 542.319C249.089 543.033 250.056 543.437 251.066 543.443C252.076 543.45 253.048 543.058 253.771 542.353L260.107 536.017C263.287 532.859 265.812 529.105 267.537 524.969C269.263 520.833 270.155 516.398 270.163 511.916C270.171 507.435 269.294 502.997 267.583 498.855C265.871 494.713 263.359 490.95 260.191 487.782C257.022 484.613 253.259 482.101 249.117 480.39C244.976 478.678 240.537 477.801 236.056 477.809C231.575 477.817 227.139 478.709 223.004 480.435C218.868 482.16 215.114 484.685 211.956 487.865L177.559 522.257C172.797 527.019 169.554 533.086 168.24 539.691C166.927 546.296 167.601 553.142 170.178 559.364C172.756 565.585 177.12 570.903 182.719 574.644C188.319 578.385 194.902 580.382 201.637 580.382H201.635Z" fill="#083863"/>
<path d="M265.357 483.338L277.124 471.572C282.074 466.65 288.773 463.892 295.754 463.901C302.734 463.911 309.426 466.689 314.362 471.625C319.298 476.561 322.075 483.252 322.085 490.233C322.095 497.213 319.336 503.913 314.414 508.863L280.018 543.255C275.068 548.177 268.368 550.936 261.388 550.926C254.407 550.916 247.715 548.138 242.779 543.202C237.844 538.266 235.066 531.574 235.056 524.594C235.047 517.614 237.805 510.914 242.727 505.964L249.063 499.628C249.427 499.273 249.717 498.849 249.916 498.382C250.115 497.914 250.219 497.411 250.223 496.903C250.226 496.394 250.128 495.89 249.935 495.42C249.742 494.95 249.457 494.522 249.098 494.163C248.739 493.803 248.311 493.519 247.841 493.326C247.371 493.133 246.867 493.035 246.358 493.038C245.85 493.042 245.347 493.146 244.879 493.345C244.412 493.544 243.988 493.834 243.633 494.198L237.297 500.534C234.117 503.692 231.592 507.446 229.867 511.582C228.141 515.717 227.249 520.153 227.241 524.634C227.233 529.115 228.11 533.554 229.821 537.695C231.533 541.837 234.045 545.6 237.213 548.769C240.382 551.937 244.145 554.449 248.287 556.161C252.428 557.872 256.867 558.749 261.348 558.741C265.829 558.734 270.265 557.841 274.401 556.116C278.536 554.39 282.291 551.865 285.448 548.686L319.845 514.293C326.214 507.904 329.787 499.249 329.779 490.228C329.772 481.207 326.185 472.558 319.807 466.179C313.428 459.801 304.778 456.214 295.757 456.207C286.737 456.2 278.081 459.773 271.693 466.141L259.926 477.907C259.567 478.263 259.282 478.687 259.087 479.153C258.892 479.62 258.791 480.12 258.79 480.626C258.789 481.132 258.887 481.633 259.08 482.1C259.273 482.568 259.557 482.992 259.914 483.35C260.272 483.708 260.697 483.991 261.164 484.184C261.632 484.377 262.133 484.476 262.638 484.475C263.144 484.474 263.644 484.373 264.111 484.178C264.578 483.983 265.001 483.697 265.357 483.338V483.338Z" fill="#083863"/>
<defs>
<linearGradient id="paint0_linear_104_106" x1="249.384" y1="0" x2="249.384" y2="1080" gradientUnits="userSpaceOnUse">
<stop stop-color="#1D47DB"/>
<stop offset="1" stop-color="#131542"/>
</linearGradient>
</defs>
</svg>
